%TF.GenerationSoftware,KiCad,Pcbnew,(5.1.7)-1*%
%TF.CreationDate,2020-10-28T13:08:51+04:00*%
%TF.ProjectId,stm32-home-light,73746d33-322d-4686-9f6d-652d6c696768,rev?*%
%TF.SameCoordinates,Original*%
%TF.FileFunction,Other,User*%
%FSLAX46Y46*%
G04 Gerber Fmt 4.6, Leading zero omitted, Abs format (unit mm)*
G04 Created by KiCad (PCBNEW (5.1.7)-1) date 2020-10-28 13:08:51*
%MOMM*%
%LPD*%
G01*
G04 APERTURE LIST*
%TA.AperFunction,Profile*%
%ADD10C,0.100000*%
%TD*%
%ADD11C,0.050000*%
G04 APERTURE END LIST*
D10*
X229760000Y227500000D02*
X229760000Y185500000D01*
X129760000Y227410000D02*
X229760000Y227500000D01*
X129760000Y185500000D02*
X129760000Y227410000D01*
X229760000Y185500000D02*
X129760000Y185500000D01*
X129760000Y185500000D02*
X129760000Y227500000D01*
X129760000Y227500000D02*
X229760000Y227500000D01*
D11*
%TO.C,J3*%
X192798600Y225882400D02*
X192798600Y221622400D01*
X201798600Y225882400D02*
X192798600Y225882400D01*
X201798600Y221622400D02*
X192798600Y221622400D01*
X201798600Y225882400D02*
X201798600Y221622400D01*
%TO.C,J2*%
X226480600Y219590200D02*
X210230600Y219590200D01*
X226480600Y223140200D02*
X226480600Y219590200D01*
X210230600Y223140200D02*
X226480600Y223140200D01*
X210230600Y219590200D02*
X210230600Y223140200D01*
%TO.C,R28*%
X208002200Y223146400D02*
X208002200Y219786400D01*
X206102200Y223146400D02*
X208002200Y223146400D01*
X206102200Y219786400D02*
X206102200Y223146400D01*
X208002200Y219786400D02*
X206102200Y219786400D01*
%TO.C,BT1*%
X203952116Y212749038D02*
X205177116Y210627276D01*
X210892884Y213927276D02*
X209667884Y216049038D01*
X208575064Y216341858D02*
X204244936Y213841858D01*
X203952116Y212749038D02*
G75*
G02*
X204244936Y213841858I692820J400000D01*
G01*
X211412721Y213684872D02*
G75*
G02*
X210892884Y213927276I-86824J492404D01*
G01*
X222257837Y187577417D02*
G75*
G03*
X211382691Y213678904I-7097837J12358997D01*
G01*
X222314287Y187610008D02*
G75*
G02*
X205147309Y210078904I-7154287J12326406D01*
G01*
X205127125Y210055882D02*
G75*
G03*
X205177116Y210627276I-383022J321394D01*
G01*
X209667884Y216049038D02*
G75*
G03*
X208575064Y216341858I-692820J-400000D01*
G01*
%TO.C,SW1*%
X142591200Y219001400D02*
X142591200Y212501400D01*
X133591200Y219001400D02*
X142591200Y219001400D01*
X133591200Y212501400D02*
X133591200Y219001400D01*
X142591200Y212501400D02*
X133591200Y212501400D01*
%TO.C,R36*%
X191505700Y221222600D02*
X194865700Y221222600D01*
X191505700Y219322600D02*
X191505700Y221222600D01*
X194865700Y219322600D02*
X191505700Y219322600D01*
X194865700Y221222600D02*
X194865700Y219322600D01*
%TO.C,R35*%
X153316000Y216438900D02*
X153316000Y213078900D01*
X151416000Y216438900D02*
X153316000Y216438900D01*
X151416000Y213078900D02*
X151416000Y216438900D01*
X153316000Y213078900D02*
X151416000Y213078900D01*
%TO.C,R32*%
X205302500Y215300000D02*
X201942500Y215300000D01*
X205302500Y217200000D02*
X205302500Y215300000D01*
X201942500Y217200000D02*
X205302500Y217200000D01*
X201942500Y215300000D02*
X201942500Y217200000D01*
%TO.C,R31*%
X185645500Y205708200D02*
X182285500Y205708200D01*
X185645500Y207608200D02*
X185645500Y205708200D01*
X182285500Y207608200D02*
X185645500Y207608200D01*
X182285500Y205708200D02*
X182285500Y207608200D01*
%TO.C,R30*%
X222831100Y217214400D02*
X219471100Y217214400D01*
X222831100Y219114400D02*
X222831100Y217214400D01*
X219471100Y219114400D02*
X222831100Y219114400D01*
X219471100Y217214400D02*
X219471100Y219114400D01*
%TO.C,R29*%
X217850800Y217214400D02*
X214490800Y217214400D01*
X217850800Y219114400D02*
X217850800Y217214400D01*
X214490800Y219114400D02*
X217850800Y219114400D01*
X214490800Y217214400D02*
X214490800Y219114400D01*
%TO.C,R13*%
X149242500Y219850000D02*
X152602500Y219850000D01*
X149242500Y217950000D02*
X149242500Y219850000D01*
X152602500Y217950000D02*
X149242500Y217950000D01*
X152602500Y219850000D02*
X152602500Y217950000D01*
%TO.C,R12*%
X134647000Y211206500D02*
X134647000Y207846500D01*
X132747000Y211206500D02*
X134647000Y211206500D01*
X132747000Y207846500D02*
X132747000Y211206500D01*
X134647000Y207846500D02*
X132747000Y207846500D01*
%TO.C,R8*%
X213075600Y217112800D02*
X209715600Y217112800D01*
X213075600Y219012800D02*
X213075600Y217112800D01*
X209715600Y219012800D02*
X213075600Y219012800D01*
X209715600Y217112800D02*
X209715600Y219012800D01*
%TO.C,R6*%
X227450100Y217189000D02*
X224090100Y217189000D01*
X227450100Y219089000D02*
X227450100Y217189000D01*
X224090100Y219089000D02*
X227450100Y219089000D01*
X224090100Y217189000D02*
X224090100Y219089000D01*
%TO.C,R5*%
X170507100Y213912400D02*
X167147100Y213912400D01*
X170507100Y215812400D02*
X170507100Y213912400D01*
X167147100Y215812400D02*
X170507100Y215812400D01*
X167147100Y213912400D02*
X167147100Y215812400D01*
%TO.C,R4*%
X184041500Y221634000D02*
X180681500Y221634000D01*
X184041500Y223534000D02*
X184041500Y221634000D01*
X180681500Y223534000D02*
X184041500Y223534000D01*
X180681500Y221634000D02*
X180681500Y223534000D01*
%TO.C,R3*%
X173615600Y212269900D02*
X173615600Y215629900D01*
X175515600Y212269900D02*
X173615600Y212269900D01*
X175515600Y215629900D02*
X175515600Y212269900D01*
X173615600Y215629900D02*
X175515600Y215629900D01*
%TO.C,R1*%
X151106200Y216438900D02*
X151106200Y213078900D01*
X149206200Y216438900D02*
X151106200Y216438900D01*
X149206200Y213078900D02*
X149206200Y216438900D01*
X151106200Y213078900D02*
X149206200Y213078900D01*
%TO.C,D3*%
X146381800Y216413100D02*
X146381800Y213053100D01*
X144481800Y216413100D02*
X146381800Y216413100D01*
X144481800Y213053100D02*
X144481800Y216413100D01*
X146381800Y213053100D02*
X144481800Y213053100D01*
%TO.C,D1*%
X148464600Y216413100D02*
X148464600Y213053100D01*
X146564600Y216413100D02*
X148464600Y216413100D01*
X146564600Y213053100D02*
X146564600Y216413100D01*
X148464600Y213053100D02*
X146564600Y213053100D01*
%TO.C,C7*%
X147815000Y218120000D02*
X144855000Y218120000D01*
X147815000Y219580000D02*
X147815000Y218120000D01*
X144855000Y219580000D02*
X147815000Y219580000D01*
X144855000Y218120000D02*
X144855000Y219580000D01*
%TO.C,C6*%
X142430000Y224855000D02*
X145390000Y224855000D01*
X142430000Y223395000D02*
X142430000Y224855000D01*
X145390000Y223395000D02*
X142430000Y223395000D01*
X145390000Y224855000D02*
X145390000Y223395000D01*
%TO.C,C1*%
X171346400Y212658200D02*
X171346400Y215618200D01*
X172806400Y212658200D02*
X171346400Y212658200D01*
X172806400Y215618200D02*
X172806400Y212658200D01*
X171346400Y215618200D02*
X172806400Y215618200D01*
%TO.C,Y1*%
X169555600Y220143000D02*
X171955600Y220143000D01*
X171955600Y216643000D02*
X169555600Y216643000D01*
X171955600Y220143000D02*
X171955600Y216643000D01*
X169555600Y216643000D02*
X169555600Y220143000D01*
%TO.C,R7*%
X176044300Y216300000D02*
X172684300Y216300000D01*
X176044300Y218200000D02*
X176044300Y216300000D01*
X172684300Y218200000D02*
X176044300Y218200000D01*
X172684300Y216300000D02*
X172684300Y218200000D01*
%TO.C,C5*%
X189405800Y218691000D02*
X189405800Y221651000D01*
X190865800Y218691000D02*
X189405800Y218691000D01*
X190865800Y221651000D02*
X190865800Y218691000D01*
X189405800Y221651000D02*
X190865800Y221651000D01*
%TO.C,C4*%
X187614400Y210207600D02*
X190574400Y210207600D01*
X187614400Y208747600D02*
X187614400Y210207600D01*
X190574400Y208747600D02*
X187614400Y208747600D01*
X190574400Y210207600D02*
X190574400Y208747600D01*
%TO.C,C3*%
X175841200Y220824800D02*
X178801200Y220824800D01*
X175841200Y219364800D02*
X175841200Y220824800D01*
X178801200Y219364800D02*
X175841200Y219364800D01*
X178801200Y220824800D02*
X178801200Y219364800D01*
%TO.C,C2*%
X177454600Y215669000D02*
X177454600Y212709000D01*
X175994600Y215669000D02*
X177454600Y215669000D01*
X175994600Y212709000D02*
X175994600Y215669000D01*
X177454600Y212709000D02*
X175994600Y212709000D01*
%TO.C,U4*%
X198774600Y207224600D02*
X191374600Y207224600D01*
X198774600Y201824600D02*
X198774600Y207224600D01*
X191374600Y201824600D02*
X198774600Y201824600D01*
X191374600Y207224600D02*
X191374600Y201824600D01*
%TO.C,R34*%
X194773800Y208917100D02*
X194773800Y212277100D01*
X196673800Y208917100D02*
X194773800Y208917100D01*
X196673800Y212277100D02*
X196673800Y208917100D01*
X194773800Y212277100D02*
X196673800Y212277100D01*
%TO.C,R33*%
X191370200Y208891700D02*
X191370200Y212251700D01*
X193270200Y208891700D02*
X191370200Y208891700D01*
X193270200Y212251700D02*
X193270200Y208891700D01*
X191370200Y212251700D02*
X193270200Y212251700D01*
%TO.C,C12*%
X198321200Y209115200D02*
X198321200Y212075200D01*
X199781200Y209115200D02*
X198321200Y209115200D01*
X199781200Y212075200D02*
X199781200Y209115200D01*
X198321200Y212075200D02*
X199781200Y212075200D01*
%TO.C,U5*%
X200070000Y214525400D02*
X200070000Y218125400D01*
X200070000Y218125400D02*
X196270000Y218125400D01*
X196270000Y218125400D02*
X196270000Y214525400D01*
X196270000Y214525400D02*
X200070000Y214525400D01*
%TO.C,R38*%
X194785700Y214293400D02*
X191425700Y214293400D01*
X194785700Y216193400D02*
X194785700Y214293400D01*
X191425700Y216193400D02*
X194785700Y216193400D01*
X191425700Y214293400D02*
X191425700Y216193400D01*
%TO.C,R37*%
X194789500Y216300000D02*
X191429500Y216300000D01*
X194789500Y218200000D02*
X194789500Y216300000D01*
X191429500Y218200000D02*
X194789500Y218200000D01*
X191429500Y216300000D02*
X191429500Y218200000D01*
%TO.C,RN1*%
X139249000Y197707000D02*
X139249000Y194607000D01*
X139249000Y197707000D02*
X135549000Y197707000D01*
X135549000Y194607000D02*
X139249000Y194607000D01*
X135549000Y194607000D02*
X135549000Y197707000D01*
%TO.C,RN2*%
X143567000Y197707000D02*
X143567000Y194607000D01*
X143567000Y197707000D02*
X139867000Y197707000D01*
X139867000Y194607000D02*
X143567000Y194607000D01*
X139867000Y194607000D02*
X139867000Y197707000D01*
%TO.C,RN3*%
X155867000Y197707000D02*
X155867000Y194607000D01*
X155867000Y197707000D02*
X152167000Y197707000D01*
X152167000Y194607000D02*
X155867000Y194607000D01*
X152167000Y194607000D02*
X152167000Y197707000D01*
%TO.C,RN4*%
X159988000Y197707000D02*
X159988000Y194607000D01*
X159988000Y197707000D02*
X156288000Y197707000D01*
X156288000Y194607000D02*
X159988000Y194607000D01*
X156288000Y194607000D02*
X156288000Y197707000D01*
%TO.C,RN5*%
X173069000Y197707000D02*
X173069000Y194607000D01*
X173069000Y197707000D02*
X169369000Y197707000D01*
X169369000Y194607000D02*
X173069000Y194607000D01*
X169369000Y194607000D02*
X169369000Y197707000D01*
%TO.C,RN6*%
X177260000Y197707000D02*
X177260000Y194607000D01*
X177260000Y197707000D02*
X173560000Y197707000D01*
X173560000Y194607000D02*
X177260000Y194607000D01*
X173560000Y194607000D02*
X173560000Y197707000D01*
%TO.C,RN7*%
X190411000Y197718000D02*
X190411000Y194618000D01*
X190411000Y197718000D02*
X186711000Y197718000D01*
X186711000Y194618000D02*
X190411000Y194618000D01*
X186711000Y194618000D02*
X186711000Y197718000D01*
%TO.C,RN8*%
X194602000Y197718000D02*
X194602000Y194618000D01*
X194602000Y197718000D02*
X190902000Y197718000D01*
X190902000Y194618000D02*
X194602000Y194618000D01*
X190902000Y194618000D02*
X190902000Y197718000D01*
%TO.C,R11*%
X160396000Y204743000D02*
X157036000Y204743000D01*
X160396000Y206643000D02*
X160396000Y204743000D01*
X157036000Y206643000D02*
X160396000Y206643000D01*
X157036000Y204743000D02*
X157036000Y206643000D01*
%TO.C,R10*%
X165476000Y204743000D02*
X162116000Y204743000D01*
X165476000Y206643000D02*
X165476000Y204743000D01*
X162116000Y206643000D02*
X165476000Y206643000D01*
X162116000Y204743000D02*
X162116000Y206643000D01*
%TO.C,R9*%
X145709500Y209056000D02*
X149069500Y209056000D01*
X145709500Y207156000D02*
X145709500Y209056000D01*
X149069500Y207156000D02*
X145709500Y207156000D01*
X149069500Y209056000D02*
X149069500Y207156000D01*
%TO.C,C11*%
X181646000Y196454000D02*
X178686000Y196454000D01*
X181646000Y197914000D02*
X181646000Y196454000D01*
X178686000Y197914000D02*
X181646000Y197914000D01*
X178686000Y196454000D02*
X178686000Y197914000D01*
%TO.C,C10*%
X165263000Y201534000D02*
X162303000Y201534000D01*
X165263000Y202994000D02*
X165263000Y201534000D01*
X162303000Y202994000D02*
X165263000Y202994000D01*
X162303000Y201534000D02*
X162303000Y202994000D01*
%TO.C,C9*%
X148766000Y196708000D02*
X145806000Y196708000D01*
X148766000Y198168000D02*
X148766000Y196708000D01*
X145806000Y198168000D02*
X148766000Y198168000D01*
X145806000Y196708000D02*
X145806000Y198168000D01*
%TO.C,C8*%
X134681000Y205662000D02*
X134681000Y202702000D01*
X133221000Y205662000D02*
X134681000Y205662000D01*
X133221000Y202702000D02*
X133221000Y205662000D01*
X134681000Y202702000D02*
X133221000Y202702000D01*
%TO.C,U7*%
X179826500Y199667000D02*
X187526500Y199667000D01*
X179826500Y205167000D02*
X179826500Y199667000D01*
X187526500Y205167000D02*
X179826500Y205167000D01*
X187526500Y199667000D02*
X187526500Y205167000D01*
%TO.C,U6*%
X169454000Y207061500D02*
X169454000Y199361500D01*
X174954000Y207061500D02*
X169454000Y207061500D01*
X174954000Y199361500D02*
X174954000Y207061500D01*
X169454000Y199361500D02*
X174954000Y199361500D01*
%TO.C,U3*%
X145409500Y199682000D02*
X153109500Y199682000D01*
X145409500Y205182000D02*
X145409500Y199682000D01*
X153109500Y205182000D02*
X145409500Y205182000D01*
X153109500Y199682000D02*
X153109500Y205182000D01*
%TO.C,U2*%
X135519000Y207071500D02*
X135519000Y199371500D01*
X141019000Y207071500D02*
X135519000Y207071500D01*
X141019000Y199371500D02*
X141019000Y207071500D01*
X135519000Y199371500D02*
X141019000Y199371500D01*
%TO.C,U1*%
X189266000Y211814000D02*
X189266000Y214964000D01*
X187866000Y211814000D02*
X189266000Y211814000D01*
X187866000Y211214000D02*
X187866000Y211814000D01*
X187266000Y211214000D02*
X187866000Y211214000D01*
X187266000Y209814000D02*
X187266000Y211214000D01*
X184116000Y209814000D02*
X187266000Y209814000D01*
X178966000Y211814000D02*
X178966000Y214964000D01*
X180366000Y211814000D02*
X178966000Y211814000D01*
X180366000Y211214000D02*
X180366000Y211814000D01*
X180966000Y211214000D02*
X180366000Y211214000D01*
X180966000Y209814000D02*
X180966000Y211214000D01*
X184116000Y209814000D02*
X180966000Y209814000D01*
X189266000Y218114000D02*
X189266000Y214964000D01*
X187866000Y218114000D02*
X189266000Y218114000D01*
X187866000Y218714000D02*
X187866000Y218114000D01*
X187266000Y218714000D02*
X187866000Y218714000D01*
X187266000Y220114000D02*
X187266000Y218714000D01*
X184116000Y220114000D02*
X187266000Y220114000D01*
X178966000Y218114000D02*
X178966000Y214964000D01*
X180366000Y218114000D02*
X178966000Y218114000D01*
X180366000Y218714000D02*
X180366000Y218114000D01*
X180966000Y218714000D02*
X180366000Y218714000D01*
X180966000Y220114000D02*
X180966000Y218714000D01*
X184116000Y220114000D02*
X180966000Y220114000D01*
%TO.C,LD1*%
X134520000Y190297000D02*
X132620000Y190297000D01*
X132620000Y190297000D02*
X132620000Y193657000D01*
X132620000Y193657000D02*
X134520000Y193657000D01*
X134520000Y193657000D02*
X134520000Y190297000D01*
%TO.C,LD2*%
X136679000Y193666000D02*
X136679000Y190306000D01*
X134779000Y193666000D02*
X136679000Y193666000D01*
X134779000Y190306000D02*
X134779000Y193666000D01*
X136679000Y190306000D02*
X134779000Y190306000D01*
%TO.C,LD3*%
X138838000Y190306000D02*
X136938000Y190306000D01*
X136938000Y190306000D02*
X136938000Y193666000D01*
X136938000Y193666000D02*
X138838000Y193666000D01*
X138838000Y193666000D02*
X138838000Y190306000D01*
%TO.C,LD4*%
X140997000Y193666000D02*
X140997000Y190306000D01*
X139097000Y193666000D02*
X140997000Y193666000D01*
X139097000Y190306000D02*
X139097000Y193666000D01*
X140997000Y190306000D02*
X139097000Y190306000D01*
%TO.C,LD5*%
X143156000Y193666000D02*
X143156000Y190306000D01*
X141256000Y193666000D02*
X143156000Y193666000D01*
X141256000Y190306000D02*
X141256000Y193666000D01*
X143156000Y190306000D02*
X141256000Y190306000D01*
%TO.C,LD6*%
X145315000Y190306000D02*
X143415000Y190306000D01*
X143415000Y190306000D02*
X143415000Y193666000D01*
X143415000Y193666000D02*
X145315000Y193666000D01*
X145315000Y193666000D02*
X145315000Y190306000D01*
%TO.C,LD7*%
X147474000Y193666000D02*
X147474000Y190306000D01*
X145574000Y193666000D02*
X147474000Y193666000D01*
X145574000Y190306000D02*
X145574000Y193666000D01*
X147474000Y190306000D02*
X145574000Y190306000D01*
%TO.C,LD8*%
X149633000Y190306000D02*
X147733000Y190306000D01*
X147733000Y190306000D02*
X147733000Y193666000D01*
X147733000Y193666000D02*
X149633000Y193666000D01*
X149633000Y193666000D02*
X149633000Y190306000D01*
%TO.C,LD9*%
X151792000Y193666000D02*
X151792000Y190306000D01*
X149892000Y193666000D02*
X151792000Y193666000D01*
X149892000Y190306000D02*
X149892000Y193666000D01*
X151792000Y190306000D02*
X149892000Y190306000D01*
%TO.C,LD10*%
X153951000Y190297000D02*
X152051000Y190297000D01*
X152051000Y190297000D02*
X152051000Y193657000D01*
X152051000Y193657000D02*
X153951000Y193657000D01*
X153951000Y193657000D02*
X153951000Y190297000D01*
%TO.C,LD11*%
X156110000Y193666000D02*
X156110000Y190306000D01*
X154210000Y193666000D02*
X156110000Y193666000D01*
X154210000Y190306000D02*
X154210000Y193666000D01*
X156110000Y190306000D02*
X154210000Y190306000D01*
%TO.C,LD12*%
X158269000Y190306000D02*
X156369000Y190306000D01*
X156369000Y190306000D02*
X156369000Y193666000D01*
X156369000Y193666000D02*
X158269000Y193666000D01*
X158269000Y193666000D02*
X158269000Y190306000D01*
%TO.C,LD13*%
X160428000Y193666000D02*
X160428000Y190306000D01*
X158528000Y193666000D02*
X160428000Y193666000D01*
X158528000Y190306000D02*
X158528000Y193666000D01*
X160428000Y190306000D02*
X158528000Y190306000D01*
%TO.C,LD14*%
X162587000Y190306000D02*
X160687000Y190306000D01*
X160687000Y190306000D02*
X160687000Y193666000D01*
X160687000Y193666000D02*
X162587000Y193666000D01*
X162587000Y193666000D02*
X162587000Y190306000D01*
%TO.C,LD15*%
X164746000Y193657000D02*
X164746000Y190297000D01*
X162846000Y193657000D02*
X164746000Y193657000D01*
X162846000Y190297000D02*
X162846000Y193657000D01*
X164746000Y190297000D02*
X162846000Y190297000D01*
%TO.C,LD16*%
X166905000Y190306000D02*
X165005000Y190306000D01*
X165005000Y190306000D02*
X165005000Y193666000D01*
X165005000Y193666000D02*
X166905000Y193666000D01*
X166905000Y193666000D02*
X166905000Y190306000D01*
%TO.C,LD17*%
X169064000Y193648000D02*
X169064000Y190288000D01*
X167164000Y193648000D02*
X169064000Y193648000D01*
X167164000Y190288000D02*
X167164000Y193648000D01*
X169064000Y190288000D02*
X167164000Y190288000D01*
%TO.C,LD18*%
X171223000Y190288000D02*
X169323000Y190288000D01*
X169323000Y190288000D02*
X169323000Y193648000D01*
X169323000Y193648000D02*
X171223000Y193648000D01*
X171223000Y193648000D02*
X171223000Y190288000D01*
%TO.C,LD19*%
X173382000Y193648000D02*
X173382000Y190288000D01*
X171482000Y193648000D02*
X173382000Y193648000D01*
X171482000Y190288000D02*
X171482000Y193648000D01*
X173382000Y190288000D02*
X171482000Y190288000D01*
%TO.C,LD20*%
X175541000Y190297000D02*
X173641000Y190297000D01*
X173641000Y190297000D02*
X173641000Y193657000D01*
X173641000Y193657000D02*
X175541000Y193657000D01*
X175541000Y193657000D02*
X175541000Y190297000D01*
%TO.C,LD21*%
X177700000Y193666000D02*
X177700000Y190306000D01*
X175800000Y193666000D02*
X177700000Y193666000D01*
X175800000Y190306000D02*
X175800000Y193666000D01*
X177700000Y190306000D02*
X175800000Y190306000D01*
%TO.C,LD22*%
X179859000Y190288000D02*
X177959000Y190288000D01*
X177959000Y190288000D02*
X177959000Y193648000D01*
X177959000Y193648000D02*
X179859000Y193648000D01*
X179859000Y193648000D02*
X179859000Y190288000D01*
%TO.C,LD23*%
X182018000Y193648000D02*
X182018000Y190288000D01*
X180118000Y193648000D02*
X182018000Y193648000D01*
X180118000Y190288000D02*
X180118000Y193648000D01*
X182018000Y190288000D02*
X180118000Y190288000D01*
%TO.C,LD24*%
X184177000Y190306000D02*
X182277000Y190306000D01*
X182277000Y190306000D02*
X182277000Y193666000D01*
X182277000Y193666000D02*
X184177000Y193666000D01*
X184177000Y193666000D02*
X184177000Y190306000D01*
%TO.C,LD25*%
X186336000Y193648000D02*
X186336000Y190288000D01*
X184436000Y193648000D02*
X186336000Y193648000D01*
X184436000Y190288000D02*
X184436000Y193648000D01*
X186336000Y190288000D02*
X184436000Y190288000D01*
%TO.C,LD26*%
X188495000Y190288000D02*
X186595000Y190288000D01*
X186595000Y190288000D02*
X186595000Y193648000D01*
X186595000Y193648000D02*
X188495000Y193648000D01*
X188495000Y193648000D02*
X188495000Y190288000D01*
%TO.C,LD27*%
X190654000Y193657000D02*
X190654000Y190297000D01*
X188754000Y193657000D02*
X190654000Y193657000D01*
X188754000Y190297000D02*
X188754000Y193657000D01*
X190654000Y190297000D02*
X188754000Y190297000D01*
%TO.C,LD28*%
X192813000Y190297000D02*
X190913000Y190297000D01*
X190913000Y190297000D02*
X190913000Y193657000D01*
X190913000Y193657000D02*
X192813000Y193657000D01*
X192813000Y193657000D02*
X192813000Y190297000D01*
%TO.C,LD29*%
X194972000Y193666000D02*
X194972000Y190306000D01*
X193072000Y193666000D02*
X194972000Y193666000D01*
X193072000Y190306000D02*
X193072000Y193666000D01*
X194972000Y190306000D02*
X193072000Y190306000D01*
%TO.C,LD30*%
X197004000Y190288000D02*
X195104000Y190288000D01*
X195104000Y190288000D02*
X195104000Y193648000D01*
X195104000Y193648000D02*
X197004000Y193648000D01*
X197004000Y193648000D02*
X197004000Y190288000D01*
%TO.C,LD31*%
X199036000Y193648000D02*
X199036000Y190288000D01*
X197136000Y193648000D02*
X199036000Y193648000D01*
X197136000Y190288000D02*
X197136000Y193648000D01*
X199036000Y190288000D02*
X197136000Y190288000D01*
%TO.C,LD32*%
X201068000Y190306000D02*
X199168000Y190306000D01*
X199168000Y190306000D02*
X199168000Y193666000D01*
X199168000Y193666000D02*
X201068000Y193666000D01*
X201068000Y193666000D02*
X201068000Y190306000D01*
%TD*%
M02*
