%TF.GenerationSoftware,KiCad,Pcbnew,(5.1.7)-1*%
%TF.CreationDate,2020-10-28T13:08:51+04:00*%
%TF.ProjectId,stm32-home-light,73746d33-322d-4686-9f6d-652d6c696768,rev?*%
%TF.SameCoordinates,Original*%
%TF.FileFunction,Soldermask,Top*%
%TF.FilePolarity,Negative*%
%FSLAX46Y46*%
G04 Gerber Fmt 4.6, Leading zero omitted, Abs format (unit mm)*
G04 Created by KiCad (PCBNEW (5.1.7)-1) date 2020-10-28 13:08:51*
%MOMM*%
%LPD*%
G01*
G04 APERTURE LIST*
%TA.AperFunction,Profile*%
%ADD10C,0.100000*%
%TD*%
%ADD11O,2.600000X1.600000*%
%ADD12O,2.100000X1.600000*%
%ADD13O,2.100000X2.100000*%
%ADD14C,3.100000*%
%ADD15C,1.100000*%
G04 APERTURE END LIST*
D10*
X229760000Y227500000D02*
X229760000Y185500000D01*
X129760000Y227410000D02*
X229760000Y227500000D01*
X129760000Y185500000D02*
X129760000Y227410000D01*
X229760000Y185500000D02*
X129760000Y185500000D01*
X129760000Y185500000D02*
X129760000Y227500000D01*
X129760000Y227500000D02*
X229760000Y227500000D01*
D11*
%TO.C,J3*%
X197298600Y224827400D03*
D12*
X194498600Y222677400D03*
X200098600Y222677400D03*
G36*
G01*
X198873600Y223677400D02*
X198873600Y222177400D01*
G75*
G02*
X198823600Y222127400I-50000J0D01*
G01*
X198373600Y222127400D01*
G75*
G02*
X198323600Y222177400I0J50000D01*
G01*
X198323600Y223677400D01*
G75*
G02*
X198373600Y223727400I50000J0D01*
G01*
X198823600Y223727400D01*
G75*
G02*
X198873600Y223677400I0J-50000D01*
G01*
G37*
G36*
G01*
X196273600Y223677400D02*
X196273600Y222177400D01*
G75*
G02*
X196223600Y222127400I-50000J0D01*
G01*
X195773600Y222127400D01*
G75*
G02*
X195723600Y222177400I0J50000D01*
G01*
X195723600Y223677400D01*
G75*
G02*
X195773600Y223727400I50000J0D01*
G01*
X196223600Y223727400D01*
G75*
G02*
X196273600Y223677400I0J-50000D01*
G01*
G37*
G36*
G01*
X198223600Y223677400D02*
X198223600Y222177400D01*
G75*
G02*
X198173600Y222127400I-50000J0D01*
G01*
X197723600Y222127400D01*
G75*
G02*
X197673600Y222177400I0J50000D01*
G01*
X197673600Y223677400D01*
G75*
G02*
X197723600Y223727400I50000J0D01*
G01*
X198173600Y223727400D01*
G75*
G02*
X198223600Y223677400I0J-50000D01*
G01*
G37*
G36*
G01*
X196923600Y223677400D02*
X196923600Y222177400D01*
G75*
G02*
X196873600Y222127400I-50000J0D01*
G01*
X196423600Y222127400D01*
G75*
G02*
X196373600Y222177400I0J50000D01*
G01*
X196373600Y223677400D01*
G75*
G02*
X196423600Y223727400I50000J0D01*
G01*
X196873600Y223727400D01*
G75*
G02*
X196923600Y223677400I0J-50000D01*
G01*
G37*
G36*
G01*
X197573600Y223677400D02*
X197573600Y222177400D01*
G75*
G02*
X197523600Y222127400I-50000J0D01*
G01*
X197073600Y222127400D01*
G75*
G02*
X197023600Y222177400I0J50000D01*
G01*
X197023600Y223677400D01*
G75*
G02*
X197073600Y223727400I50000J0D01*
G01*
X197523600Y223727400D01*
G75*
G02*
X197573600Y223677400I0J-50000D01*
G01*
G37*
%TD*%
D13*
%TO.C,J1*%
X175410000Y224100000D03*
X172870000Y224100000D03*
X170330000Y224100000D03*
X167790000Y224100000D03*
X165250000Y224100000D03*
X162710000Y224100000D03*
X160170000Y224100000D03*
X157630000Y224100000D03*
X155090000Y224100000D03*
X152550000Y224100000D03*
G36*
G01*
X149010000Y225150000D02*
X151010000Y225150000D01*
G75*
G02*
X151060000Y225100000I0J-50000D01*
G01*
X151060000Y223100000D01*
G75*
G02*
X151010000Y223050000I-50000J0D01*
G01*
X149010000Y223050000D01*
G75*
G02*
X148960000Y223100000I0J50000D01*
G01*
X148960000Y225100000D01*
G75*
G02*
X149010000Y225150000I50000J0D01*
G01*
G37*
%TD*%
%TO.C,J2*%
X224730600Y221390200D03*
X222190600Y221390200D03*
X219650600Y221390200D03*
X217110600Y221390200D03*
X214570600Y221390200D03*
G36*
G01*
X213030600Y220340200D02*
X211030600Y220340200D01*
G75*
G02*
X210980600Y220390200I0J50000D01*
G01*
X210980600Y222390200D01*
G75*
G02*
X211030600Y222440200I50000J0D01*
G01*
X213030600Y222440200D01*
G75*
G02*
X213080600Y222390200I0J-50000D01*
G01*
X213080600Y220390200D01*
G75*
G02*
X213030600Y220340200I-50000J0D01*
G01*
G37*
%TD*%
%TO.C,R28*%
G36*
G01*
X207527812Y221816400D02*
X206576588Y221816400D01*
G75*
G02*
X206302200Y222090788I0J274388D01*
G01*
X206302200Y222667012D01*
G75*
G02*
X206576588Y222941400I274388J0D01*
G01*
X207527812Y222941400D01*
G75*
G02*
X207802200Y222667012I0J-274388D01*
G01*
X207802200Y222090788D01*
G75*
G02*
X207527812Y221816400I-274388J0D01*
G01*
G37*
G36*
G01*
X207527812Y219991400D02*
X206576588Y219991400D01*
G75*
G02*
X206302200Y220265788I0J274388D01*
G01*
X206302200Y220842012D01*
G75*
G02*
X206576588Y221116400I274388J0D01*
G01*
X207527812Y221116400D01*
G75*
G02*
X207802200Y220842012I0J-274388D01*
G01*
X207802200Y220265788D01*
G75*
G02*
X207527812Y219991400I-274388J0D01*
G01*
G37*
%TD*%
%TO.C,BT1*%
G36*
G01*
X205485962Y213692339D02*
X208084038Y215192339D01*
G75*
G02*
X208152339Y215174038I25000J-43301D01*
G01*
X209652339Y212575962D01*
G75*
G02*
X209634038Y212507661I-43301J-25000D01*
G01*
X207035962Y211007661D01*
G75*
G02*
X206967661Y211025962I-25000J43301D01*
G01*
X205467661Y213624038D01*
G75*
G02*
X205485962Y213692339I43301J25000D01*
G01*
G37*
D14*
X217805000Y195355139D03*
%TD*%
%TO.C,SW1*%
G36*
G01*
X136636200Y218251400D02*
X136636200Y217251400D01*
G75*
G02*
X136586200Y217201400I-50000J0D01*
G01*
X133836200Y217201400D01*
G75*
G02*
X133786200Y217251400I0J50000D01*
G01*
X133786200Y218251400D01*
G75*
G02*
X133836200Y218301400I50000J0D01*
G01*
X136586200Y218301400D01*
G75*
G02*
X136636200Y218251400I0J-50000D01*
G01*
G37*
G36*
G01*
X142396200Y218251400D02*
X142396200Y217251400D01*
G75*
G02*
X142346200Y217201400I-50000J0D01*
G01*
X139596200Y217201400D01*
G75*
G02*
X139546200Y217251400I0J50000D01*
G01*
X139546200Y218251400D01*
G75*
G02*
X139596200Y218301400I50000J0D01*
G01*
X142346200Y218301400D01*
G75*
G02*
X142396200Y218251400I0J-50000D01*
G01*
G37*
G36*
G01*
X142396200Y214251400D02*
X142396200Y213251400D01*
G75*
G02*
X142346200Y213201400I-50000J0D01*
G01*
X139596200Y213201400D01*
G75*
G02*
X139546200Y213251400I0J50000D01*
G01*
X139546200Y214251400D01*
G75*
G02*
X139596200Y214301400I50000J0D01*
G01*
X142346200Y214301400D01*
G75*
G02*
X142396200Y214251400I0J-50000D01*
G01*
G37*
G36*
G01*
X136636200Y214251400D02*
X136636200Y213251400D01*
G75*
G02*
X136586200Y213201400I-50000J0D01*
G01*
X133836200Y213201400D01*
G75*
G02*
X133786200Y213251400I0J50000D01*
G01*
X133786200Y214251400D01*
G75*
G02*
X133836200Y214301400I50000J0D01*
G01*
X136586200Y214301400D01*
G75*
G02*
X136636200Y214251400I0J-50000D01*
G01*
G37*
%TD*%
%TO.C,R36*%
G36*
G01*
X192835700Y220748212D02*
X192835700Y219796988D01*
G75*
G02*
X192561312Y219522600I-274388J0D01*
G01*
X191985088Y219522600D01*
G75*
G02*
X191710700Y219796988I0J274388D01*
G01*
X191710700Y220748212D01*
G75*
G02*
X191985088Y221022600I274388J0D01*
G01*
X192561312Y221022600D01*
G75*
G02*
X192835700Y220748212I0J-274388D01*
G01*
G37*
G36*
G01*
X194660700Y220748212D02*
X194660700Y219796988D01*
G75*
G02*
X194386312Y219522600I-274388J0D01*
G01*
X193810088Y219522600D01*
G75*
G02*
X193535700Y219796988I0J274388D01*
G01*
X193535700Y220748212D01*
G75*
G02*
X193810088Y221022600I274388J0D01*
G01*
X194386312Y221022600D01*
G75*
G02*
X194660700Y220748212I0J-274388D01*
G01*
G37*
%TD*%
%TO.C,R35*%
G36*
G01*
X152841612Y215108900D02*
X151890388Y215108900D01*
G75*
G02*
X151616000Y215383288I0J274388D01*
G01*
X151616000Y215959512D01*
G75*
G02*
X151890388Y216233900I274388J0D01*
G01*
X152841612Y216233900D01*
G75*
G02*
X153116000Y215959512I0J-274388D01*
G01*
X153116000Y215383288D01*
G75*
G02*
X152841612Y215108900I-274388J0D01*
G01*
G37*
G36*
G01*
X152841612Y213283900D02*
X151890388Y213283900D01*
G75*
G02*
X151616000Y213558288I0J274388D01*
G01*
X151616000Y214134512D01*
G75*
G02*
X151890388Y214408900I274388J0D01*
G01*
X152841612Y214408900D01*
G75*
G02*
X153116000Y214134512I0J-274388D01*
G01*
X153116000Y213558288D01*
G75*
G02*
X152841612Y213283900I-274388J0D01*
G01*
G37*
%TD*%
%TO.C,R32*%
G36*
G01*
X203972500Y215774388D02*
X203972500Y216725612D01*
G75*
G02*
X204246888Y217000000I274388J0D01*
G01*
X204823112Y217000000D01*
G75*
G02*
X205097500Y216725612I0J-274388D01*
G01*
X205097500Y215774388D01*
G75*
G02*
X204823112Y215500000I-274388J0D01*
G01*
X204246888Y215500000D01*
G75*
G02*
X203972500Y215774388I0J274388D01*
G01*
G37*
G36*
G01*
X202147500Y215774388D02*
X202147500Y216725612D01*
G75*
G02*
X202421888Y217000000I274388J0D01*
G01*
X202998112Y217000000D01*
G75*
G02*
X203272500Y216725612I0J-274388D01*
G01*
X203272500Y215774388D01*
G75*
G02*
X202998112Y215500000I-274388J0D01*
G01*
X202421888Y215500000D01*
G75*
G02*
X202147500Y215774388I0J274388D01*
G01*
G37*
%TD*%
%TO.C,R31*%
G36*
G01*
X184315500Y206182588D02*
X184315500Y207133812D01*
G75*
G02*
X184589888Y207408200I274388J0D01*
G01*
X185166112Y207408200D01*
G75*
G02*
X185440500Y207133812I0J-274388D01*
G01*
X185440500Y206182588D01*
G75*
G02*
X185166112Y205908200I-274388J0D01*
G01*
X184589888Y205908200D01*
G75*
G02*
X184315500Y206182588I0J274388D01*
G01*
G37*
G36*
G01*
X182490500Y206182588D02*
X182490500Y207133812D01*
G75*
G02*
X182764888Y207408200I274388J0D01*
G01*
X183341112Y207408200D01*
G75*
G02*
X183615500Y207133812I0J-274388D01*
G01*
X183615500Y206182588D01*
G75*
G02*
X183341112Y205908200I-274388J0D01*
G01*
X182764888Y205908200D01*
G75*
G02*
X182490500Y206182588I0J274388D01*
G01*
G37*
%TD*%
%TO.C,R30*%
G36*
G01*
X221501100Y217688788D02*
X221501100Y218640012D01*
G75*
G02*
X221775488Y218914400I274388J0D01*
G01*
X222351712Y218914400D01*
G75*
G02*
X222626100Y218640012I0J-274388D01*
G01*
X222626100Y217688788D01*
G75*
G02*
X222351712Y217414400I-274388J0D01*
G01*
X221775488Y217414400D01*
G75*
G02*
X221501100Y217688788I0J274388D01*
G01*
G37*
G36*
G01*
X219676100Y217688788D02*
X219676100Y218640012D01*
G75*
G02*
X219950488Y218914400I274388J0D01*
G01*
X220526712Y218914400D01*
G75*
G02*
X220801100Y218640012I0J-274388D01*
G01*
X220801100Y217688788D01*
G75*
G02*
X220526712Y217414400I-274388J0D01*
G01*
X219950488Y217414400D01*
G75*
G02*
X219676100Y217688788I0J274388D01*
G01*
G37*
%TD*%
%TO.C,R29*%
G36*
G01*
X216520800Y217688788D02*
X216520800Y218640012D01*
G75*
G02*
X216795188Y218914400I274388J0D01*
G01*
X217371412Y218914400D01*
G75*
G02*
X217645800Y218640012I0J-274388D01*
G01*
X217645800Y217688788D01*
G75*
G02*
X217371412Y217414400I-274388J0D01*
G01*
X216795188Y217414400D01*
G75*
G02*
X216520800Y217688788I0J274388D01*
G01*
G37*
G36*
G01*
X214695800Y217688788D02*
X214695800Y218640012D01*
G75*
G02*
X214970188Y218914400I274388J0D01*
G01*
X215546412Y218914400D01*
G75*
G02*
X215820800Y218640012I0J-274388D01*
G01*
X215820800Y217688788D01*
G75*
G02*
X215546412Y217414400I-274388J0D01*
G01*
X214970188Y217414400D01*
G75*
G02*
X214695800Y217688788I0J274388D01*
G01*
G37*
%TD*%
%TO.C,R13*%
G36*
G01*
X150572500Y219375612D02*
X150572500Y218424388D01*
G75*
G02*
X150298112Y218150000I-274388J0D01*
G01*
X149721888Y218150000D01*
G75*
G02*
X149447500Y218424388I0J274388D01*
G01*
X149447500Y219375612D01*
G75*
G02*
X149721888Y219650000I274388J0D01*
G01*
X150298112Y219650000D01*
G75*
G02*
X150572500Y219375612I0J-274388D01*
G01*
G37*
G36*
G01*
X152397500Y219375612D02*
X152397500Y218424388D01*
G75*
G02*
X152123112Y218150000I-274388J0D01*
G01*
X151546888Y218150000D01*
G75*
G02*
X151272500Y218424388I0J274388D01*
G01*
X151272500Y219375612D01*
G75*
G02*
X151546888Y219650000I274388J0D01*
G01*
X152123112Y219650000D01*
G75*
G02*
X152397500Y219375612I0J-274388D01*
G01*
G37*
%TD*%
%TO.C,R12*%
G36*
G01*
X134172612Y209876500D02*
X133221388Y209876500D01*
G75*
G02*
X132947000Y210150888I0J274388D01*
G01*
X132947000Y210727112D01*
G75*
G02*
X133221388Y211001500I274388J0D01*
G01*
X134172612Y211001500D01*
G75*
G02*
X134447000Y210727112I0J-274388D01*
G01*
X134447000Y210150888D01*
G75*
G02*
X134172612Y209876500I-274388J0D01*
G01*
G37*
G36*
G01*
X134172612Y208051500D02*
X133221388Y208051500D01*
G75*
G02*
X132947000Y208325888I0J274388D01*
G01*
X132947000Y208902112D01*
G75*
G02*
X133221388Y209176500I274388J0D01*
G01*
X134172612Y209176500D01*
G75*
G02*
X134447000Y208902112I0J-274388D01*
G01*
X134447000Y208325888D01*
G75*
G02*
X134172612Y208051500I-274388J0D01*
G01*
G37*
%TD*%
%TO.C,R8*%
G36*
G01*
X211745600Y217587188D02*
X211745600Y218538412D01*
G75*
G02*
X212019988Y218812800I274388J0D01*
G01*
X212596212Y218812800D01*
G75*
G02*
X212870600Y218538412I0J-274388D01*
G01*
X212870600Y217587188D01*
G75*
G02*
X212596212Y217312800I-274388J0D01*
G01*
X212019988Y217312800D01*
G75*
G02*
X211745600Y217587188I0J274388D01*
G01*
G37*
G36*
G01*
X209920600Y217587188D02*
X209920600Y218538412D01*
G75*
G02*
X210194988Y218812800I274388J0D01*
G01*
X210771212Y218812800D01*
G75*
G02*
X211045600Y218538412I0J-274388D01*
G01*
X211045600Y217587188D01*
G75*
G02*
X210771212Y217312800I-274388J0D01*
G01*
X210194988Y217312800D01*
G75*
G02*
X209920600Y217587188I0J274388D01*
G01*
G37*
%TD*%
%TO.C,R6*%
G36*
G01*
X226120100Y217663388D02*
X226120100Y218614612D01*
G75*
G02*
X226394488Y218889000I274388J0D01*
G01*
X226970712Y218889000D01*
G75*
G02*
X227245100Y218614612I0J-274388D01*
G01*
X227245100Y217663388D01*
G75*
G02*
X226970712Y217389000I-274388J0D01*
G01*
X226394488Y217389000D01*
G75*
G02*
X226120100Y217663388I0J274388D01*
G01*
G37*
G36*
G01*
X224295100Y217663388D02*
X224295100Y218614612D01*
G75*
G02*
X224569488Y218889000I274388J0D01*
G01*
X225145712Y218889000D01*
G75*
G02*
X225420100Y218614612I0J-274388D01*
G01*
X225420100Y217663388D01*
G75*
G02*
X225145712Y217389000I-274388J0D01*
G01*
X224569488Y217389000D01*
G75*
G02*
X224295100Y217663388I0J274388D01*
G01*
G37*
%TD*%
%TO.C,R5*%
G36*
G01*
X169177100Y214386788D02*
X169177100Y215338012D01*
G75*
G02*
X169451488Y215612400I274388J0D01*
G01*
X170027712Y215612400D01*
G75*
G02*
X170302100Y215338012I0J-274388D01*
G01*
X170302100Y214386788D01*
G75*
G02*
X170027712Y214112400I-274388J0D01*
G01*
X169451488Y214112400D01*
G75*
G02*
X169177100Y214386788I0J274388D01*
G01*
G37*
G36*
G01*
X167352100Y214386788D02*
X167352100Y215338012D01*
G75*
G02*
X167626488Y215612400I274388J0D01*
G01*
X168202712Y215612400D01*
G75*
G02*
X168477100Y215338012I0J-274388D01*
G01*
X168477100Y214386788D01*
G75*
G02*
X168202712Y214112400I-274388J0D01*
G01*
X167626488Y214112400D01*
G75*
G02*
X167352100Y214386788I0J274388D01*
G01*
G37*
%TD*%
%TO.C,R4*%
G36*
G01*
X182711500Y222108388D02*
X182711500Y223059612D01*
G75*
G02*
X182985888Y223334000I274388J0D01*
G01*
X183562112Y223334000D01*
G75*
G02*
X183836500Y223059612I0J-274388D01*
G01*
X183836500Y222108388D01*
G75*
G02*
X183562112Y221834000I-274388J0D01*
G01*
X182985888Y221834000D01*
G75*
G02*
X182711500Y222108388I0J274388D01*
G01*
G37*
G36*
G01*
X180886500Y222108388D02*
X180886500Y223059612D01*
G75*
G02*
X181160888Y223334000I274388J0D01*
G01*
X181737112Y223334000D01*
G75*
G02*
X182011500Y223059612I0J-274388D01*
G01*
X182011500Y222108388D01*
G75*
G02*
X181737112Y221834000I-274388J0D01*
G01*
X181160888Y221834000D01*
G75*
G02*
X180886500Y222108388I0J274388D01*
G01*
G37*
%TD*%
%TO.C,R3*%
G36*
G01*
X174089988Y213599900D02*
X175041212Y213599900D01*
G75*
G02*
X175315600Y213325512I0J-274388D01*
G01*
X175315600Y212749288D01*
G75*
G02*
X175041212Y212474900I-274388J0D01*
G01*
X174089988Y212474900D01*
G75*
G02*
X173815600Y212749288I0J274388D01*
G01*
X173815600Y213325512D01*
G75*
G02*
X174089988Y213599900I274388J0D01*
G01*
G37*
G36*
G01*
X174089988Y215424900D02*
X175041212Y215424900D01*
G75*
G02*
X175315600Y215150512I0J-274388D01*
G01*
X175315600Y214574288D01*
G75*
G02*
X175041212Y214299900I-274388J0D01*
G01*
X174089988Y214299900D01*
G75*
G02*
X173815600Y214574288I0J274388D01*
G01*
X173815600Y215150512D01*
G75*
G02*
X174089988Y215424900I274388J0D01*
G01*
G37*
%TD*%
%TO.C,R1*%
G36*
G01*
X150631812Y215108900D02*
X149680588Y215108900D01*
G75*
G02*
X149406200Y215383288I0J274388D01*
G01*
X149406200Y215959512D01*
G75*
G02*
X149680588Y216233900I274388J0D01*
G01*
X150631812Y216233900D01*
G75*
G02*
X150906200Y215959512I0J-274388D01*
G01*
X150906200Y215383288D01*
G75*
G02*
X150631812Y215108900I-274388J0D01*
G01*
G37*
G36*
G01*
X150631812Y213283900D02*
X149680588Y213283900D01*
G75*
G02*
X149406200Y213558288I0J274388D01*
G01*
X149406200Y214134512D01*
G75*
G02*
X149680588Y214408900I274388J0D01*
G01*
X150631812Y214408900D01*
G75*
G02*
X150906200Y214134512I0J-274388D01*
G01*
X150906200Y213558288D01*
G75*
G02*
X150631812Y213283900I-274388J0D01*
G01*
G37*
%TD*%
%TO.C,D3*%
G36*
G01*
X145913050Y215133100D02*
X144950550Y215133100D01*
G75*
G02*
X144681800Y215401850I0J268750D01*
G01*
X144681800Y215939350D01*
G75*
G02*
X144950550Y216208100I268750J0D01*
G01*
X145913050Y216208100D01*
G75*
G02*
X146181800Y215939350I0J-268750D01*
G01*
X146181800Y215401850D01*
G75*
G02*
X145913050Y215133100I-268750J0D01*
G01*
G37*
G36*
G01*
X145913050Y213258100D02*
X144950550Y213258100D01*
G75*
G02*
X144681800Y213526850I0J268750D01*
G01*
X144681800Y214064350D01*
G75*
G02*
X144950550Y214333100I268750J0D01*
G01*
X145913050Y214333100D01*
G75*
G02*
X146181800Y214064350I0J-268750D01*
G01*
X146181800Y213526850D01*
G75*
G02*
X145913050Y213258100I-268750J0D01*
G01*
G37*
%TD*%
%TO.C,D1*%
G36*
G01*
X147995850Y215133100D02*
X147033350Y215133100D01*
G75*
G02*
X146764600Y215401850I0J268750D01*
G01*
X146764600Y215939350D01*
G75*
G02*
X147033350Y216208100I268750J0D01*
G01*
X147995850Y216208100D01*
G75*
G02*
X148264600Y215939350I0J-268750D01*
G01*
X148264600Y215401850D01*
G75*
G02*
X147995850Y215133100I-268750J0D01*
G01*
G37*
G36*
G01*
X147995850Y213258100D02*
X147033350Y213258100D01*
G75*
G02*
X146764600Y213526850I0J268750D01*
G01*
X146764600Y214064350D01*
G75*
G02*
X147033350Y214333100I268750J0D01*
G01*
X147995850Y214333100D01*
G75*
G02*
X148264600Y214064350I0J-268750D01*
G01*
X148264600Y213526850D01*
G75*
G02*
X147995850Y213258100I-268750J0D01*
G01*
G37*
%TD*%
%TO.C,C7*%
G36*
G01*
X146610000Y218575000D02*
X146610000Y219125000D01*
G75*
G02*
X146860000Y219375000I250000J0D01*
G01*
X147360000Y219375000D01*
G75*
G02*
X147610000Y219125000I0J-250000D01*
G01*
X147610000Y218575000D01*
G75*
G02*
X147360000Y218325000I-250000J0D01*
G01*
X146860000Y218325000D01*
G75*
G02*
X146610000Y218575000I0J250000D01*
G01*
G37*
G36*
G01*
X145060000Y218575000D02*
X145060000Y219125000D01*
G75*
G02*
X145310000Y219375000I250000J0D01*
G01*
X145810000Y219375000D01*
G75*
G02*
X146060000Y219125000I0J-250000D01*
G01*
X146060000Y218575000D01*
G75*
G02*
X145810000Y218325000I-250000J0D01*
G01*
X145310000Y218325000D01*
G75*
G02*
X145060000Y218575000I0J250000D01*
G01*
G37*
%TD*%
%TO.C,C6*%
G36*
G01*
X143635000Y224400000D02*
X143635000Y223850000D01*
G75*
G02*
X143385000Y223600000I-250000J0D01*
G01*
X142885000Y223600000D01*
G75*
G02*
X142635000Y223850000I0J250000D01*
G01*
X142635000Y224400000D01*
G75*
G02*
X142885000Y224650000I250000J0D01*
G01*
X143385000Y224650000D01*
G75*
G02*
X143635000Y224400000I0J-250000D01*
G01*
G37*
G36*
G01*
X145185000Y224400000D02*
X145185000Y223850000D01*
G75*
G02*
X144935000Y223600000I-250000J0D01*
G01*
X144435000Y223600000D01*
G75*
G02*
X144185000Y223850000I0J250000D01*
G01*
X144185000Y224400000D01*
G75*
G02*
X144435000Y224650000I250000J0D01*
G01*
X144935000Y224650000D01*
G75*
G02*
X145185000Y224400000I0J-250000D01*
G01*
G37*
%TD*%
%TO.C,C1*%
G36*
G01*
X171801400Y213863200D02*
X172351400Y213863200D01*
G75*
G02*
X172601400Y213613200I0J-250000D01*
G01*
X172601400Y213113200D01*
G75*
G02*
X172351400Y212863200I-250000J0D01*
G01*
X171801400Y212863200D01*
G75*
G02*
X171551400Y213113200I0J250000D01*
G01*
X171551400Y213613200D01*
G75*
G02*
X171801400Y213863200I250000J0D01*
G01*
G37*
G36*
G01*
X171801400Y215413200D02*
X172351400Y215413200D01*
G75*
G02*
X172601400Y215163200I0J-250000D01*
G01*
X172601400Y214663200D01*
G75*
G02*
X172351400Y214413200I-250000J0D01*
G01*
X171801400Y214413200D01*
G75*
G02*
X171551400Y214663200I0J250000D01*
G01*
X171551400Y215163200D01*
G75*
G02*
X171801400Y215413200I250000J0D01*
G01*
G37*
%TD*%
%TO.C,Y1*%
G36*
G01*
X169805600Y217443000D02*
X171705600Y217443000D01*
G75*
G02*
X171755600Y217393000I0J-50000D01*
G01*
X171755600Y216993000D01*
G75*
G02*
X171705600Y216943000I-50000J0D01*
G01*
X169805600Y216943000D01*
G75*
G02*
X169755600Y216993000I0J50000D01*
G01*
X169755600Y217393000D01*
G75*
G02*
X169805600Y217443000I50000J0D01*
G01*
G37*
G36*
G01*
X169805600Y218643000D02*
X171705600Y218643000D01*
G75*
G02*
X171755600Y218593000I0J-50000D01*
G01*
X171755600Y218193000D01*
G75*
G02*
X171705600Y218143000I-50000J0D01*
G01*
X169805600Y218143000D01*
G75*
G02*
X169755600Y218193000I0J50000D01*
G01*
X169755600Y218593000D01*
G75*
G02*
X169805600Y218643000I50000J0D01*
G01*
G37*
G36*
G01*
X169805600Y219843000D02*
X171705600Y219843000D01*
G75*
G02*
X171755600Y219793000I0J-50000D01*
G01*
X171755600Y219393000D01*
G75*
G02*
X171705600Y219343000I-50000J0D01*
G01*
X169805600Y219343000D01*
G75*
G02*
X169755600Y219393000I0J50000D01*
G01*
X169755600Y219793000D01*
G75*
G02*
X169805600Y219843000I50000J0D01*
G01*
G37*
%TD*%
%TO.C,R7*%
G36*
G01*
X174714300Y216774388D02*
X174714300Y217725612D01*
G75*
G02*
X174988688Y218000000I274388J0D01*
G01*
X175564912Y218000000D01*
G75*
G02*
X175839300Y217725612I0J-274388D01*
G01*
X175839300Y216774388D01*
G75*
G02*
X175564912Y216500000I-274388J0D01*
G01*
X174988688Y216500000D01*
G75*
G02*
X174714300Y216774388I0J274388D01*
G01*
G37*
G36*
G01*
X172889300Y216774388D02*
X172889300Y217725612D01*
G75*
G02*
X173163688Y218000000I274388J0D01*
G01*
X173739912Y218000000D01*
G75*
G02*
X174014300Y217725612I0J-274388D01*
G01*
X174014300Y216774388D01*
G75*
G02*
X173739912Y216500000I-274388J0D01*
G01*
X173163688Y216500000D01*
G75*
G02*
X172889300Y216774388I0J274388D01*
G01*
G37*
%TD*%
%TO.C,C5*%
G36*
G01*
X189860800Y219896000D02*
X190410800Y219896000D01*
G75*
G02*
X190660800Y219646000I0J-250000D01*
G01*
X190660800Y219146000D01*
G75*
G02*
X190410800Y218896000I-250000J0D01*
G01*
X189860800Y218896000D01*
G75*
G02*
X189610800Y219146000I0J250000D01*
G01*
X189610800Y219646000D01*
G75*
G02*
X189860800Y219896000I250000J0D01*
G01*
G37*
G36*
G01*
X189860800Y221446000D02*
X190410800Y221446000D01*
G75*
G02*
X190660800Y221196000I0J-250000D01*
G01*
X190660800Y220696000D01*
G75*
G02*
X190410800Y220446000I-250000J0D01*
G01*
X189860800Y220446000D01*
G75*
G02*
X189610800Y220696000I0J250000D01*
G01*
X189610800Y221196000D01*
G75*
G02*
X189860800Y221446000I250000J0D01*
G01*
G37*
%TD*%
%TO.C,C4*%
G36*
G01*
X188819400Y209752600D02*
X188819400Y209202600D01*
G75*
G02*
X188569400Y208952600I-250000J0D01*
G01*
X188069400Y208952600D01*
G75*
G02*
X187819400Y209202600I0J250000D01*
G01*
X187819400Y209752600D01*
G75*
G02*
X188069400Y210002600I250000J0D01*
G01*
X188569400Y210002600D01*
G75*
G02*
X188819400Y209752600I0J-250000D01*
G01*
G37*
G36*
G01*
X190369400Y209752600D02*
X190369400Y209202600D01*
G75*
G02*
X190119400Y208952600I-250000J0D01*
G01*
X189619400Y208952600D01*
G75*
G02*
X189369400Y209202600I0J250000D01*
G01*
X189369400Y209752600D01*
G75*
G02*
X189619400Y210002600I250000J0D01*
G01*
X190119400Y210002600D01*
G75*
G02*
X190369400Y209752600I0J-250000D01*
G01*
G37*
%TD*%
%TO.C,C3*%
G36*
G01*
X177046200Y220369800D02*
X177046200Y219819800D01*
G75*
G02*
X176796200Y219569800I-250000J0D01*
G01*
X176296200Y219569800D01*
G75*
G02*
X176046200Y219819800I0J250000D01*
G01*
X176046200Y220369800D01*
G75*
G02*
X176296200Y220619800I250000J0D01*
G01*
X176796200Y220619800D01*
G75*
G02*
X177046200Y220369800I0J-250000D01*
G01*
G37*
G36*
G01*
X178596200Y220369800D02*
X178596200Y219819800D01*
G75*
G02*
X178346200Y219569800I-250000J0D01*
G01*
X177846200Y219569800D01*
G75*
G02*
X177596200Y219819800I0J250000D01*
G01*
X177596200Y220369800D01*
G75*
G02*
X177846200Y220619800I250000J0D01*
G01*
X178346200Y220619800D01*
G75*
G02*
X178596200Y220369800I0J-250000D01*
G01*
G37*
%TD*%
%TO.C,C2*%
G36*
G01*
X176999600Y214464000D02*
X176449600Y214464000D01*
G75*
G02*
X176199600Y214714000I0J250000D01*
G01*
X176199600Y215214000D01*
G75*
G02*
X176449600Y215464000I250000J0D01*
G01*
X176999600Y215464000D01*
G75*
G02*
X177249600Y215214000I0J-250000D01*
G01*
X177249600Y214714000D01*
G75*
G02*
X176999600Y214464000I-250000J0D01*
G01*
G37*
G36*
G01*
X176999600Y212914000D02*
X176449600Y212914000D01*
G75*
G02*
X176199600Y213164000I0J250000D01*
G01*
X176199600Y213664000D01*
G75*
G02*
X176449600Y213914000I250000J0D01*
G01*
X176999600Y213914000D01*
G75*
G02*
X177249600Y213664000I0J-250000D01*
G01*
X177249600Y213164000D01*
G75*
G02*
X176999600Y212914000I-250000J0D01*
G01*
G37*
%TD*%
%TO.C,U4*%
G36*
G01*
X196524600Y206254600D02*
X196524600Y206604600D01*
G75*
G02*
X196699600Y206779600I175000J0D01*
G01*
X198399600Y206779600D01*
G75*
G02*
X198574600Y206604600I0J-175000D01*
G01*
X198574600Y206254600D01*
G75*
G02*
X198399600Y206079600I-175000J0D01*
G01*
X196699600Y206079600D01*
G75*
G02*
X196524600Y206254600I0J175000D01*
G01*
G37*
G36*
G01*
X196524600Y204984600D02*
X196524600Y205334600D01*
G75*
G02*
X196699600Y205509600I175000J0D01*
G01*
X198399600Y205509600D01*
G75*
G02*
X198574600Y205334600I0J-175000D01*
G01*
X198574600Y204984600D01*
G75*
G02*
X198399600Y204809600I-175000J0D01*
G01*
X196699600Y204809600D01*
G75*
G02*
X196524600Y204984600I0J175000D01*
G01*
G37*
G36*
G01*
X196524600Y203714600D02*
X196524600Y204064600D01*
G75*
G02*
X196699600Y204239600I175000J0D01*
G01*
X198399600Y204239600D01*
G75*
G02*
X198574600Y204064600I0J-175000D01*
G01*
X198574600Y203714600D01*
G75*
G02*
X198399600Y203539600I-175000J0D01*
G01*
X196699600Y203539600D01*
G75*
G02*
X196524600Y203714600I0J175000D01*
G01*
G37*
G36*
G01*
X196524600Y202444600D02*
X196524600Y202794600D01*
G75*
G02*
X196699600Y202969600I175000J0D01*
G01*
X198399600Y202969600D01*
G75*
G02*
X198574600Y202794600I0J-175000D01*
G01*
X198574600Y202444600D01*
G75*
G02*
X198399600Y202269600I-175000J0D01*
G01*
X196699600Y202269600D01*
G75*
G02*
X196524600Y202444600I0J175000D01*
G01*
G37*
G36*
G01*
X191574600Y202444600D02*
X191574600Y202794600D01*
G75*
G02*
X191749600Y202969600I175000J0D01*
G01*
X193449600Y202969600D01*
G75*
G02*
X193624600Y202794600I0J-175000D01*
G01*
X193624600Y202444600D01*
G75*
G02*
X193449600Y202269600I-175000J0D01*
G01*
X191749600Y202269600D01*
G75*
G02*
X191574600Y202444600I0J175000D01*
G01*
G37*
G36*
G01*
X191574600Y203714600D02*
X191574600Y204064600D01*
G75*
G02*
X191749600Y204239600I175000J0D01*
G01*
X193449600Y204239600D01*
G75*
G02*
X193624600Y204064600I0J-175000D01*
G01*
X193624600Y203714600D01*
G75*
G02*
X193449600Y203539600I-175000J0D01*
G01*
X191749600Y203539600D01*
G75*
G02*
X191574600Y203714600I0J175000D01*
G01*
G37*
G36*
G01*
X191574600Y204984600D02*
X191574600Y205334600D01*
G75*
G02*
X191749600Y205509600I175000J0D01*
G01*
X193449600Y205509600D01*
G75*
G02*
X193624600Y205334600I0J-175000D01*
G01*
X193624600Y204984600D01*
G75*
G02*
X193449600Y204809600I-175000J0D01*
G01*
X191749600Y204809600D01*
G75*
G02*
X191574600Y204984600I0J175000D01*
G01*
G37*
G36*
G01*
X191574600Y206254600D02*
X191574600Y206604600D01*
G75*
G02*
X191749600Y206779600I175000J0D01*
G01*
X193449600Y206779600D01*
G75*
G02*
X193624600Y206604600I0J-175000D01*
G01*
X193624600Y206254600D01*
G75*
G02*
X193449600Y206079600I-175000J0D01*
G01*
X191749600Y206079600D01*
G75*
G02*
X191574600Y206254600I0J175000D01*
G01*
G37*
%TD*%
%TO.C,R34*%
G36*
G01*
X195248188Y210247100D02*
X196199412Y210247100D01*
G75*
G02*
X196473800Y209972712I0J-274388D01*
G01*
X196473800Y209396488D01*
G75*
G02*
X196199412Y209122100I-274388J0D01*
G01*
X195248188Y209122100D01*
G75*
G02*
X194973800Y209396488I0J274388D01*
G01*
X194973800Y209972712D01*
G75*
G02*
X195248188Y210247100I274388J0D01*
G01*
G37*
G36*
G01*
X195248188Y212072100D02*
X196199412Y212072100D01*
G75*
G02*
X196473800Y211797712I0J-274388D01*
G01*
X196473800Y211221488D01*
G75*
G02*
X196199412Y210947100I-274388J0D01*
G01*
X195248188Y210947100D01*
G75*
G02*
X194973800Y211221488I0J274388D01*
G01*
X194973800Y211797712D01*
G75*
G02*
X195248188Y212072100I274388J0D01*
G01*
G37*
%TD*%
%TO.C,R33*%
G36*
G01*
X191844588Y210221700D02*
X192795812Y210221700D01*
G75*
G02*
X193070200Y209947312I0J-274388D01*
G01*
X193070200Y209371088D01*
G75*
G02*
X192795812Y209096700I-274388J0D01*
G01*
X191844588Y209096700D01*
G75*
G02*
X191570200Y209371088I0J274388D01*
G01*
X191570200Y209947312D01*
G75*
G02*
X191844588Y210221700I274388J0D01*
G01*
G37*
G36*
G01*
X191844588Y212046700D02*
X192795812Y212046700D01*
G75*
G02*
X193070200Y211772312I0J-274388D01*
G01*
X193070200Y211196088D01*
G75*
G02*
X192795812Y210921700I-274388J0D01*
G01*
X191844588Y210921700D01*
G75*
G02*
X191570200Y211196088I0J274388D01*
G01*
X191570200Y211772312D01*
G75*
G02*
X191844588Y212046700I274388J0D01*
G01*
G37*
%TD*%
%TO.C,C12*%
G36*
G01*
X198776200Y210320200D02*
X199326200Y210320200D01*
G75*
G02*
X199576200Y210070200I0J-250000D01*
G01*
X199576200Y209570200D01*
G75*
G02*
X199326200Y209320200I-250000J0D01*
G01*
X198776200Y209320200D01*
G75*
G02*
X198526200Y209570200I0J250000D01*
G01*
X198526200Y210070200D01*
G75*
G02*
X198776200Y210320200I250000J0D01*
G01*
G37*
G36*
G01*
X198776200Y211870200D02*
X199326200Y211870200D01*
G75*
G02*
X199576200Y211620200I0J-250000D01*
G01*
X199576200Y211120200D01*
G75*
G02*
X199326200Y210870200I-250000J0D01*
G01*
X198776200Y210870200D01*
G75*
G02*
X198526200Y211120200I0J250000D01*
G01*
X198526200Y211620200D01*
G75*
G02*
X198776200Y211870200I250000J0D01*
G01*
G37*
%TD*%
%TO.C,U5*%
G36*
G01*
X197650000Y216650400D02*
X197650000Y216000400D01*
G75*
G02*
X197600000Y215950400I-50000J0D01*
G01*
X196540000Y215950400D01*
G75*
G02*
X196490000Y216000400I0J50000D01*
G01*
X196490000Y216650400D01*
G75*
G02*
X196540000Y216700400I50000J0D01*
G01*
X197600000Y216700400D01*
G75*
G02*
X197650000Y216650400I0J-50000D01*
G01*
G37*
G36*
G01*
X197650000Y215700400D02*
X197650000Y215050400D01*
G75*
G02*
X197600000Y215000400I-50000J0D01*
G01*
X196540000Y215000400D01*
G75*
G02*
X196490000Y215050400I0J50000D01*
G01*
X196490000Y215700400D01*
G75*
G02*
X196540000Y215750400I50000J0D01*
G01*
X197600000Y215750400D01*
G75*
G02*
X197650000Y215700400I0J-50000D01*
G01*
G37*
G36*
G01*
X197650000Y217600400D02*
X197650000Y216950400D01*
G75*
G02*
X197600000Y216900400I-50000J0D01*
G01*
X196540000Y216900400D01*
G75*
G02*
X196490000Y216950400I0J50000D01*
G01*
X196490000Y217600400D01*
G75*
G02*
X196540000Y217650400I50000J0D01*
G01*
X197600000Y217650400D01*
G75*
G02*
X197650000Y217600400I0J-50000D01*
G01*
G37*
G36*
G01*
X199850000Y217600400D02*
X199850000Y216950400D01*
G75*
G02*
X199800000Y216900400I-50000J0D01*
G01*
X198740000Y216900400D01*
G75*
G02*
X198690000Y216950400I0J50000D01*
G01*
X198690000Y217600400D01*
G75*
G02*
X198740000Y217650400I50000J0D01*
G01*
X199800000Y217650400D01*
G75*
G02*
X199850000Y217600400I0J-50000D01*
G01*
G37*
G36*
G01*
X199850000Y216650400D02*
X199850000Y216000400D01*
G75*
G02*
X199800000Y215950400I-50000J0D01*
G01*
X198740000Y215950400D01*
G75*
G02*
X198690000Y216000400I0J50000D01*
G01*
X198690000Y216650400D01*
G75*
G02*
X198740000Y216700400I50000J0D01*
G01*
X199800000Y216700400D01*
G75*
G02*
X199850000Y216650400I0J-50000D01*
G01*
G37*
G36*
G01*
X199850000Y215700400D02*
X199850000Y215050400D01*
G75*
G02*
X199800000Y215000400I-50000J0D01*
G01*
X198740000Y215000400D01*
G75*
G02*
X198690000Y215050400I0J50000D01*
G01*
X198690000Y215700400D01*
G75*
G02*
X198740000Y215750400I50000J0D01*
G01*
X199800000Y215750400D01*
G75*
G02*
X199850000Y215700400I0J-50000D01*
G01*
G37*
%TD*%
%TO.C,R38*%
G36*
G01*
X193455700Y214767788D02*
X193455700Y215719012D01*
G75*
G02*
X193730088Y215993400I274388J0D01*
G01*
X194306312Y215993400D01*
G75*
G02*
X194580700Y215719012I0J-274388D01*
G01*
X194580700Y214767788D01*
G75*
G02*
X194306312Y214493400I-274388J0D01*
G01*
X193730088Y214493400D01*
G75*
G02*
X193455700Y214767788I0J274388D01*
G01*
G37*
G36*
G01*
X191630700Y214767788D02*
X191630700Y215719012D01*
G75*
G02*
X191905088Y215993400I274388J0D01*
G01*
X192481312Y215993400D01*
G75*
G02*
X192755700Y215719012I0J-274388D01*
G01*
X192755700Y214767788D01*
G75*
G02*
X192481312Y214493400I-274388J0D01*
G01*
X191905088Y214493400D01*
G75*
G02*
X191630700Y214767788I0J274388D01*
G01*
G37*
%TD*%
%TO.C,R37*%
G36*
G01*
X193459500Y216774388D02*
X193459500Y217725612D01*
G75*
G02*
X193733888Y218000000I274388J0D01*
G01*
X194310112Y218000000D01*
G75*
G02*
X194584500Y217725612I0J-274388D01*
G01*
X194584500Y216774388D01*
G75*
G02*
X194310112Y216500000I-274388J0D01*
G01*
X193733888Y216500000D01*
G75*
G02*
X193459500Y216774388I0J274388D01*
G01*
G37*
G36*
G01*
X191634500Y216774388D02*
X191634500Y217725612D01*
G75*
G02*
X191908888Y218000000I274388J0D01*
G01*
X192485112Y218000000D01*
G75*
G02*
X192759500Y217725612I0J-274388D01*
G01*
X192759500Y216774388D01*
G75*
G02*
X192485112Y216500000I-274388J0D01*
G01*
X191908888Y216500000D01*
G75*
G02*
X191634500Y216774388I0J274388D01*
G01*
G37*
%TD*%
%TO.C,RN1*%
G36*
G01*
X138349000Y197507000D02*
X138849000Y197507000D01*
G75*
G02*
X138899000Y197457000I0J-50000D01*
G01*
X138899000Y196657000D01*
G75*
G02*
X138849000Y196607000I-50000J0D01*
G01*
X138349000Y196607000D01*
G75*
G02*
X138299000Y196657000I0J50000D01*
G01*
X138299000Y197457000D01*
G75*
G02*
X138349000Y197507000I50000J0D01*
G01*
G37*
G36*
G01*
X136799000Y197507000D02*
X137199000Y197507000D01*
G75*
G02*
X137249000Y197457000I0J-50000D01*
G01*
X137249000Y196657000D01*
G75*
G02*
X137199000Y196607000I-50000J0D01*
G01*
X136799000Y196607000D01*
G75*
G02*
X136749000Y196657000I0J50000D01*
G01*
X136749000Y197457000D01*
G75*
G02*
X136799000Y197507000I50000J0D01*
G01*
G37*
G36*
G01*
X137599000Y197507000D02*
X137999000Y197507000D01*
G75*
G02*
X138049000Y197457000I0J-50000D01*
G01*
X138049000Y196657000D01*
G75*
G02*
X137999000Y196607000I-50000J0D01*
G01*
X137599000Y196607000D01*
G75*
G02*
X137549000Y196657000I0J50000D01*
G01*
X137549000Y197457000D01*
G75*
G02*
X137599000Y197507000I50000J0D01*
G01*
G37*
G36*
G01*
X135949000Y197507000D02*
X136449000Y197507000D01*
G75*
G02*
X136499000Y197457000I0J-50000D01*
G01*
X136499000Y196657000D01*
G75*
G02*
X136449000Y196607000I-50000J0D01*
G01*
X135949000Y196607000D01*
G75*
G02*
X135899000Y196657000I0J50000D01*
G01*
X135899000Y197457000D01*
G75*
G02*
X135949000Y197507000I50000J0D01*
G01*
G37*
G36*
G01*
X137599000Y195707000D02*
X137999000Y195707000D01*
G75*
G02*
X138049000Y195657000I0J-50000D01*
G01*
X138049000Y194857000D01*
G75*
G02*
X137999000Y194807000I-50000J0D01*
G01*
X137599000Y194807000D01*
G75*
G02*
X137549000Y194857000I0J50000D01*
G01*
X137549000Y195657000D01*
G75*
G02*
X137599000Y195707000I50000J0D01*
G01*
G37*
G36*
G01*
X138349000Y195707000D02*
X138849000Y195707000D01*
G75*
G02*
X138899000Y195657000I0J-50000D01*
G01*
X138899000Y194857000D01*
G75*
G02*
X138849000Y194807000I-50000J0D01*
G01*
X138349000Y194807000D01*
G75*
G02*
X138299000Y194857000I0J50000D01*
G01*
X138299000Y195657000D01*
G75*
G02*
X138349000Y195707000I50000J0D01*
G01*
G37*
G36*
G01*
X136799000Y195707000D02*
X137199000Y195707000D01*
G75*
G02*
X137249000Y195657000I0J-50000D01*
G01*
X137249000Y194857000D01*
G75*
G02*
X137199000Y194807000I-50000J0D01*
G01*
X136799000Y194807000D01*
G75*
G02*
X136749000Y194857000I0J50000D01*
G01*
X136749000Y195657000D01*
G75*
G02*
X136799000Y195707000I50000J0D01*
G01*
G37*
G36*
G01*
X135949000Y195707000D02*
X136449000Y195707000D01*
G75*
G02*
X136499000Y195657000I0J-50000D01*
G01*
X136499000Y194857000D01*
G75*
G02*
X136449000Y194807000I-50000J0D01*
G01*
X135949000Y194807000D01*
G75*
G02*
X135899000Y194857000I0J50000D01*
G01*
X135899000Y195657000D01*
G75*
G02*
X135949000Y195707000I50000J0D01*
G01*
G37*
%TD*%
%TO.C,RN2*%
G36*
G01*
X142667000Y197507000D02*
X143167000Y197507000D01*
G75*
G02*
X143217000Y197457000I0J-50000D01*
G01*
X143217000Y196657000D01*
G75*
G02*
X143167000Y196607000I-50000J0D01*
G01*
X142667000Y196607000D01*
G75*
G02*
X142617000Y196657000I0J50000D01*
G01*
X142617000Y197457000D01*
G75*
G02*
X142667000Y197507000I50000J0D01*
G01*
G37*
G36*
G01*
X141117000Y197507000D02*
X141517000Y197507000D01*
G75*
G02*
X141567000Y197457000I0J-50000D01*
G01*
X141567000Y196657000D01*
G75*
G02*
X141517000Y196607000I-50000J0D01*
G01*
X141117000Y196607000D01*
G75*
G02*
X141067000Y196657000I0J50000D01*
G01*
X141067000Y197457000D01*
G75*
G02*
X141117000Y197507000I50000J0D01*
G01*
G37*
G36*
G01*
X141917000Y197507000D02*
X142317000Y197507000D01*
G75*
G02*
X142367000Y197457000I0J-50000D01*
G01*
X142367000Y196657000D01*
G75*
G02*
X142317000Y196607000I-50000J0D01*
G01*
X141917000Y196607000D01*
G75*
G02*
X141867000Y196657000I0J50000D01*
G01*
X141867000Y197457000D01*
G75*
G02*
X141917000Y197507000I50000J0D01*
G01*
G37*
G36*
G01*
X140267000Y197507000D02*
X140767000Y197507000D01*
G75*
G02*
X140817000Y197457000I0J-50000D01*
G01*
X140817000Y196657000D01*
G75*
G02*
X140767000Y196607000I-50000J0D01*
G01*
X140267000Y196607000D01*
G75*
G02*
X140217000Y196657000I0J50000D01*
G01*
X140217000Y197457000D01*
G75*
G02*
X140267000Y197507000I50000J0D01*
G01*
G37*
G36*
G01*
X141917000Y195707000D02*
X142317000Y195707000D01*
G75*
G02*
X142367000Y195657000I0J-50000D01*
G01*
X142367000Y194857000D01*
G75*
G02*
X142317000Y194807000I-50000J0D01*
G01*
X141917000Y194807000D01*
G75*
G02*
X141867000Y194857000I0J50000D01*
G01*
X141867000Y195657000D01*
G75*
G02*
X141917000Y195707000I50000J0D01*
G01*
G37*
G36*
G01*
X142667000Y195707000D02*
X143167000Y195707000D01*
G75*
G02*
X143217000Y195657000I0J-50000D01*
G01*
X143217000Y194857000D01*
G75*
G02*
X143167000Y194807000I-50000J0D01*
G01*
X142667000Y194807000D01*
G75*
G02*
X142617000Y194857000I0J50000D01*
G01*
X142617000Y195657000D01*
G75*
G02*
X142667000Y195707000I50000J0D01*
G01*
G37*
G36*
G01*
X141117000Y195707000D02*
X141517000Y195707000D01*
G75*
G02*
X141567000Y195657000I0J-50000D01*
G01*
X141567000Y194857000D01*
G75*
G02*
X141517000Y194807000I-50000J0D01*
G01*
X141117000Y194807000D01*
G75*
G02*
X141067000Y194857000I0J50000D01*
G01*
X141067000Y195657000D01*
G75*
G02*
X141117000Y195707000I50000J0D01*
G01*
G37*
G36*
G01*
X140267000Y195707000D02*
X140767000Y195707000D01*
G75*
G02*
X140817000Y195657000I0J-50000D01*
G01*
X140817000Y194857000D01*
G75*
G02*
X140767000Y194807000I-50000J0D01*
G01*
X140267000Y194807000D01*
G75*
G02*
X140217000Y194857000I0J50000D01*
G01*
X140217000Y195657000D01*
G75*
G02*
X140267000Y195707000I50000J0D01*
G01*
G37*
%TD*%
%TO.C,RN3*%
G36*
G01*
X154967000Y197507000D02*
X155467000Y197507000D01*
G75*
G02*
X155517000Y197457000I0J-50000D01*
G01*
X155517000Y196657000D01*
G75*
G02*
X155467000Y196607000I-50000J0D01*
G01*
X154967000Y196607000D01*
G75*
G02*
X154917000Y196657000I0J50000D01*
G01*
X154917000Y197457000D01*
G75*
G02*
X154967000Y197507000I50000J0D01*
G01*
G37*
G36*
G01*
X153417000Y197507000D02*
X153817000Y197507000D01*
G75*
G02*
X153867000Y197457000I0J-50000D01*
G01*
X153867000Y196657000D01*
G75*
G02*
X153817000Y196607000I-50000J0D01*
G01*
X153417000Y196607000D01*
G75*
G02*
X153367000Y196657000I0J50000D01*
G01*
X153367000Y197457000D01*
G75*
G02*
X153417000Y197507000I50000J0D01*
G01*
G37*
G36*
G01*
X154217000Y197507000D02*
X154617000Y197507000D01*
G75*
G02*
X154667000Y197457000I0J-50000D01*
G01*
X154667000Y196657000D01*
G75*
G02*
X154617000Y196607000I-50000J0D01*
G01*
X154217000Y196607000D01*
G75*
G02*
X154167000Y196657000I0J50000D01*
G01*
X154167000Y197457000D01*
G75*
G02*
X154217000Y197507000I50000J0D01*
G01*
G37*
G36*
G01*
X152567000Y197507000D02*
X153067000Y197507000D01*
G75*
G02*
X153117000Y197457000I0J-50000D01*
G01*
X153117000Y196657000D01*
G75*
G02*
X153067000Y196607000I-50000J0D01*
G01*
X152567000Y196607000D01*
G75*
G02*
X152517000Y196657000I0J50000D01*
G01*
X152517000Y197457000D01*
G75*
G02*
X152567000Y197507000I50000J0D01*
G01*
G37*
G36*
G01*
X154217000Y195707000D02*
X154617000Y195707000D01*
G75*
G02*
X154667000Y195657000I0J-50000D01*
G01*
X154667000Y194857000D01*
G75*
G02*
X154617000Y194807000I-50000J0D01*
G01*
X154217000Y194807000D01*
G75*
G02*
X154167000Y194857000I0J50000D01*
G01*
X154167000Y195657000D01*
G75*
G02*
X154217000Y195707000I50000J0D01*
G01*
G37*
G36*
G01*
X154967000Y195707000D02*
X155467000Y195707000D01*
G75*
G02*
X155517000Y195657000I0J-50000D01*
G01*
X155517000Y194857000D01*
G75*
G02*
X155467000Y194807000I-50000J0D01*
G01*
X154967000Y194807000D01*
G75*
G02*
X154917000Y194857000I0J50000D01*
G01*
X154917000Y195657000D01*
G75*
G02*
X154967000Y195707000I50000J0D01*
G01*
G37*
G36*
G01*
X153417000Y195707000D02*
X153817000Y195707000D01*
G75*
G02*
X153867000Y195657000I0J-50000D01*
G01*
X153867000Y194857000D01*
G75*
G02*
X153817000Y194807000I-50000J0D01*
G01*
X153417000Y194807000D01*
G75*
G02*
X153367000Y194857000I0J50000D01*
G01*
X153367000Y195657000D01*
G75*
G02*
X153417000Y195707000I50000J0D01*
G01*
G37*
G36*
G01*
X152567000Y195707000D02*
X153067000Y195707000D01*
G75*
G02*
X153117000Y195657000I0J-50000D01*
G01*
X153117000Y194857000D01*
G75*
G02*
X153067000Y194807000I-50000J0D01*
G01*
X152567000Y194807000D01*
G75*
G02*
X152517000Y194857000I0J50000D01*
G01*
X152517000Y195657000D01*
G75*
G02*
X152567000Y195707000I50000J0D01*
G01*
G37*
%TD*%
%TO.C,RN4*%
G36*
G01*
X159088000Y197507000D02*
X159588000Y197507000D01*
G75*
G02*
X159638000Y197457000I0J-50000D01*
G01*
X159638000Y196657000D01*
G75*
G02*
X159588000Y196607000I-50000J0D01*
G01*
X159088000Y196607000D01*
G75*
G02*
X159038000Y196657000I0J50000D01*
G01*
X159038000Y197457000D01*
G75*
G02*
X159088000Y197507000I50000J0D01*
G01*
G37*
G36*
G01*
X157538000Y197507000D02*
X157938000Y197507000D01*
G75*
G02*
X157988000Y197457000I0J-50000D01*
G01*
X157988000Y196657000D01*
G75*
G02*
X157938000Y196607000I-50000J0D01*
G01*
X157538000Y196607000D01*
G75*
G02*
X157488000Y196657000I0J50000D01*
G01*
X157488000Y197457000D01*
G75*
G02*
X157538000Y197507000I50000J0D01*
G01*
G37*
G36*
G01*
X158338000Y197507000D02*
X158738000Y197507000D01*
G75*
G02*
X158788000Y197457000I0J-50000D01*
G01*
X158788000Y196657000D01*
G75*
G02*
X158738000Y196607000I-50000J0D01*
G01*
X158338000Y196607000D01*
G75*
G02*
X158288000Y196657000I0J50000D01*
G01*
X158288000Y197457000D01*
G75*
G02*
X158338000Y197507000I50000J0D01*
G01*
G37*
G36*
G01*
X156688000Y197507000D02*
X157188000Y197507000D01*
G75*
G02*
X157238000Y197457000I0J-50000D01*
G01*
X157238000Y196657000D01*
G75*
G02*
X157188000Y196607000I-50000J0D01*
G01*
X156688000Y196607000D01*
G75*
G02*
X156638000Y196657000I0J50000D01*
G01*
X156638000Y197457000D01*
G75*
G02*
X156688000Y197507000I50000J0D01*
G01*
G37*
G36*
G01*
X158338000Y195707000D02*
X158738000Y195707000D01*
G75*
G02*
X158788000Y195657000I0J-50000D01*
G01*
X158788000Y194857000D01*
G75*
G02*
X158738000Y194807000I-50000J0D01*
G01*
X158338000Y194807000D01*
G75*
G02*
X158288000Y194857000I0J50000D01*
G01*
X158288000Y195657000D01*
G75*
G02*
X158338000Y195707000I50000J0D01*
G01*
G37*
G36*
G01*
X159088000Y195707000D02*
X159588000Y195707000D01*
G75*
G02*
X159638000Y195657000I0J-50000D01*
G01*
X159638000Y194857000D01*
G75*
G02*
X159588000Y194807000I-50000J0D01*
G01*
X159088000Y194807000D01*
G75*
G02*
X159038000Y194857000I0J50000D01*
G01*
X159038000Y195657000D01*
G75*
G02*
X159088000Y195707000I50000J0D01*
G01*
G37*
G36*
G01*
X157538000Y195707000D02*
X157938000Y195707000D01*
G75*
G02*
X157988000Y195657000I0J-50000D01*
G01*
X157988000Y194857000D01*
G75*
G02*
X157938000Y194807000I-50000J0D01*
G01*
X157538000Y194807000D01*
G75*
G02*
X157488000Y194857000I0J50000D01*
G01*
X157488000Y195657000D01*
G75*
G02*
X157538000Y195707000I50000J0D01*
G01*
G37*
G36*
G01*
X156688000Y195707000D02*
X157188000Y195707000D01*
G75*
G02*
X157238000Y195657000I0J-50000D01*
G01*
X157238000Y194857000D01*
G75*
G02*
X157188000Y194807000I-50000J0D01*
G01*
X156688000Y194807000D01*
G75*
G02*
X156638000Y194857000I0J50000D01*
G01*
X156638000Y195657000D01*
G75*
G02*
X156688000Y195707000I50000J0D01*
G01*
G37*
%TD*%
%TO.C,RN5*%
G36*
G01*
X172169000Y197507000D02*
X172669000Y197507000D01*
G75*
G02*
X172719000Y197457000I0J-50000D01*
G01*
X172719000Y196657000D01*
G75*
G02*
X172669000Y196607000I-50000J0D01*
G01*
X172169000Y196607000D01*
G75*
G02*
X172119000Y196657000I0J50000D01*
G01*
X172119000Y197457000D01*
G75*
G02*
X172169000Y197507000I50000J0D01*
G01*
G37*
G36*
G01*
X170619000Y197507000D02*
X171019000Y197507000D01*
G75*
G02*
X171069000Y197457000I0J-50000D01*
G01*
X171069000Y196657000D01*
G75*
G02*
X171019000Y196607000I-50000J0D01*
G01*
X170619000Y196607000D01*
G75*
G02*
X170569000Y196657000I0J50000D01*
G01*
X170569000Y197457000D01*
G75*
G02*
X170619000Y197507000I50000J0D01*
G01*
G37*
G36*
G01*
X171419000Y197507000D02*
X171819000Y197507000D01*
G75*
G02*
X171869000Y197457000I0J-50000D01*
G01*
X171869000Y196657000D01*
G75*
G02*
X171819000Y196607000I-50000J0D01*
G01*
X171419000Y196607000D01*
G75*
G02*
X171369000Y196657000I0J50000D01*
G01*
X171369000Y197457000D01*
G75*
G02*
X171419000Y197507000I50000J0D01*
G01*
G37*
G36*
G01*
X169769000Y197507000D02*
X170269000Y197507000D01*
G75*
G02*
X170319000Y197457000I0J-50000D01*
G01*
X170319000Y196657000D01*
G75*
G02*
X170269000Y196607000I-50000J0D01*
G01*
X169769000Y196607000D01*
G75*
G02*
X169719000Y196657000I0J50000D01*
G01*
X169719000Y197457000D01*
G75*
G02*
X169769000Y197507000I50000J0D01*
G01*
G37*
G36*
G01*
X171419000Y195707000D02*
X171819000Y195707000D01*
G75*
G02*
X171869000Y195657000I0J-50000D01*
G01*
X171869000Y194857000D01*
G75*
G02*
X171819000Y194807000I-50000J0D01*
G01*
X171419000Y194807000D01*
G75*
G02*
X171369000Y194857000I0J50000D01*
G01*
X171369000Y195657000D01*
G75*
G02*
X171419000Y195707000I50000J0D01*
G01*
G37*
G36*
G01*
X172169000Y195707000D02*
X172669000Y195707000D01*
G75*
G02*
X172719000Y195657000I0J-50000D01*
G01*
X172719000Y194857000D01*
G75*
G02*
X172669000Y194807000I-50000J0D01*
G01*
X172169000Y194807000D01*
G75*
G02*
X172119000Y194857000I0J50000D01*
G01*
X172119000Y195657000D01*
G75*
G02*
X172169000Y195707000I50000J0D01*
G01*
G37*
G36*
G01*
X170619000Y195707000D02*
X171019000Y195707000D01*
G75*
G02*
X171069000Y195657000I0J-50000D01*
G01*
X171069000Y194857000D01*
G75*
G02*
X171019000Y194807000I-50000J0D01*
G01*
X170619000Y194807000D01*
G75*
G02*
X170569000Y194857000I0J50000D01*
G01*
X170569000Y195657000D01*
G75*
G02*
X170619000Y195707000I50000J0D01*
G01*
G37*
G36*
G01*
X169769000Y195707000D02*
X170269000Y195707000D01*
G75*
G02*
X170319000Y195657000I0J-50000D01*
G01*
X170319000Y194857000D01*
G75*
G02*
X170269000Y194807000I-50000J0D01*
G01*
X169769000Y194807000D01*
G75*
G02*
X169719000Y194857000I0J50000D01*
G01*
X169719000Y195657000D01*
G75*
G02*
X169769000Y195707000I50000J0D01*
G01*
G37*
%TD*%
%TO.C,RN6*%
G36*
G01*
X176360000Y197507000D02*
X176860000Y197507000D01*
G75*
G02*
X176910000Y197457000I0J-50000D01*
G01*
X176910000Y196657000D01*
G75*
G02*
X176860000Y196607000I-50000J0D01*
G01*
X176360000Y196607000D01*
G75*
G02*
X176310000Y196657000I0J50000D01*
G01*
X176310000Y197457000D01*
G75*
G02*
X176360000Y197507000I50000J0D01*
G01*
G37*
G36*
G01*
X174810000Y197507000D02*
X175210000Y197507000D01*
G75*
G02*
X175260000Y197457000I0J-50000D01*
G01*
X175260000Y196657000D01*
G75*
G02*
X175210000Y196607000I-50000J0D01*
G01*
X174810000Y196607000D01*
G75*
G02*
X174760000Y196657000I0J50000D01*
G01*
X174760000Y197457000D01*
G75*
G02*
X174810000Y197507000I50000J0D01*
G01*
G37*
G36*
G01*
X175610000Y197507000D02*
X176010000Y197507000D01*
G75*
G02*
X176060000Y197457000I0J-50000D01*
G01*
X176060000Y196657000D01*
G75*
G02*
X176010000Y196607000I-50000J0D01*
G01*
X175610000Y196607000D01*
G75*
G02*
X175560000Y196657000I0J50000D01*
G01*
X175560000Y197457000D01*
G75*
G02*
X175610000Y197507000I50000J0D01*
G01*
G37*
G36*
G01*
X173960000Y197507000D02*
X174460000Y197507000D01*
G75*
G02*
X174510000Y197457000I0J-50000D01*
G01*
X174510000Y196657000D01*
G75*
G02*
X174460000Y196607000I-50000J0D01*
G01*
X173960000Y196607000D01*
G75*
G02*
X173910000Y196657000I0J50000D01*
G01*
X173910000Y197457000D01*
G75*
G02*
X173960000Y197507000I50000J0D01*
G01*
G37*
G36*
G01*
X175610000Y195707000D02*
X176010000Y195707000D01*
G75*
G02*
X176060000Y195657000I0J-50000D01*
G01*
X176060000Y194857000D01*
G75*
G02*
X176010000Y194807000I-50000J0D01*
G01*
X175610000Y194807000D01*
G75*
G02*
X175560000Y194857000I0J50000D01*
G01*
X175560000Y195657000D01*
G75*
G02*
X175610000Y195707000I50000J0D01*
G01*
G37*
G36*
G01*
X176360000Y195707000D02*
X176860000Y195707000D01*
G75*
G02*
X176910000Y195657000I0J-50000D01*
G01*
X176910000Y194857000D01*
G75*
G02*
X176860000Y194807000I-50000J0D01*
G01*
X176360000Y194807000D01*
G75*
G02*
X176310000Y194857000I0J50000D01*
G01*
X176310000Y195657000D01*
G75*
G02*
X176360000Y195707000I50000J0D01*
G01*
G37*
G36*
G01*
X174810000Y195707000D02*
X175210000Y195707000D01*
G75*
G02*
X175260000Y195657000I0J-50000D01*
G01*
X175260000Y194857000D01*
G75*
G02*
X175210000Y194807000I-50000J0D01*
G01*
X174810000Y194807000D01*
G75*
G02*
X174760000Y194857000I0J50000D01*
G01*
X174760000Y195657000D01*
G75*
G02*
X174810000Y195707000I50000J0D01*
G01*
G37*
G36*
G01*
X173960000Y195707000D02*
X174460000Y195707000D01*
G75*
G02*
X174510000Y195657000I0J-50000D01*
G01*
X174510000Y194857000D01*
G75*
G02*
X174460000Y194807000I-50000J0D01*
G01*
X173960000Y194807000D01*
G75*
G02*
X173910000Y194857000I0J50000D01*
G01*
X173910000Y195657000D01*
G75*
G02*
X173960000Y195707000I50000J0D01*
G01*
G37*
%TD*%
%TO.C,RN7*%
G36*
G01*
X189511000Y197518000D02*
X190011000Y197518000D01*
G75*
G02*
X190061000Y197468000I0J-50000D01*
G01*
X190061000Y196668000D01*
G75*
G02*
X190011000Y196618000I-50000J0D01*
G01*
X189511000Y196618000D01*
G75*
G02*
X189461000Y196668000I0J50000D01*
G01*
X189461000Y197468000D01*
G75*
G02*
X189511000Y197518000I50000J0D01*
G01*
G37*
G36*
G01*
X187961000Y197518000D02*
X188361000Y197518000D01*
G75*
G02*
X188411000Y197468000I0J-50000D01*
G01*
X188411000Y196668000D01*
G75*
G02*
X188361000Y196618000I-50000J0D01*
G01*
X187961000Y196618000D01*
G75*
G02*
X187911000Y196668000I0J50000D01*
G01*
X187911000Y197468000D01*
G75*
G02*
X187961000Y197518000I50000J0D01*
G01*
G37*
G36*
G01*
X188761000Y197518000D02*
X189161000Y197518000D01*
G75*
G02*
X189211000Y197468000I0J-50000D01*
G01*
X189211000Y196668000D01*
G75*
G02*
X189161000Y196618000I-50000J0D01*
G01*
X188761000Y196618000D01*
G75*
G02*
X188711000Y196668000I0J50000D01*
G01*
X188711000Y197468000D01*
G75*
G02*
X188761000Y197518000I50000J0D01*
G01*
G37*
G36*
G01*
X187111000Y197518000D02*
X187611000Y197518000D01*
G75*
G02*
X187661000Y197468000I0J-50000D01*
G01*
X187661000Y196668000D01*
G75*
G02*
X187611000Y196618000I-50000J0D01*
G01*
X187111000Y196618000D01*
G75*
G02*
X187061000Y196668000I0J50000D01*
G01*
X187061000Y197468000D01*
G75*
G02*
X187111000Y197518000I50000J0D01*
G01*
G37*
G36*
G01*
X188761000Y195718000D02*
X189161000Y195718000D01*
G75*
G02*
X189211000Y195668000I0J-50000D01*
G01*
X189211000Y194868000D01*
G75*
G02*
X189161000Y194818000I-50000J0D01*
G01*
X188761000Y194818000D01*
G75*
G02*
X188711000Y194868000I0J50000D01*
G01*
X188711000Y195668000D01*
G75*
G02*
X188761000Y195718000I50000J0D01*
G01*
G37*
G36*
G01*
X189511000Y195718000D02*
X190011000Y195718000D01*
G75*
G02*
X190061000Y195668000I0J-50000D01*
G01*
X190061000Y194868000D01*
G75*
G02*
X190011000Y194818000I-50000J0D01*
G01*
X189511000Y194818000D01*
G75*
G02*
X189461000Y194868000I0J50000D01*
G01*
X189461000Y195668000D01*
G75*
G02*
X189511000Y195718000I50000J0D01*
G01*
G37*
G36*
G01*
X187961000Y195718000D02*
X188361000Y195718000D01*
G75*
G02*
X188411000Y195668000I0J-50000D01*
G01*
X188411000Y194868000D01*
G75*
G02*
X188361000Y194818000I-50000J0D01*
G01*
X187961000Y194818000D01*
G75*
G02*
X187911000Y194868000I0J50000D01*
G01*
X187911000Y195668000D01*
G75*
G02*
X187961000Y195718000I50000J0D01*
G01*
G37*
G36*
G01*
X187111000Y195718000D02*
X187611000Y195718000D01*
G75*
G02*
X187661000Y195668000I0J-50000D01*
G01*
X187661000Y194868000D01*
G75*
G02*
X187611000Y194818000I-50000J0D01*
G01*
X187111000Y194818000D01*
G75*
G02*
X187061000Y194868000I0J50000D01*
G01*
X187061000Y195668000D01*
G75*
G02*
X187111000Y195718000I50000J0D01*
G01*
G37*
%TD*%
%TO.C,RN8*%
G36*
G01*
X193702000Y197518000D02*
X194202000Y197518000D01*
G75*
G02*
X194252000Y197468000I0J-50000D01*
G01*
X194252000Y196668000D01*
G75*
G02*
X194202000Y196618000I-50000J0D01*
G01*
X193702000Y196618000D01*
G75*
G02*
X193652000Y196668000I0J50000D01*
G01*
X193652000Y197468000D01*
G75*
G02*
X193702000Y197518000I50000J0D01*
G01*
G37*
G36*
G01*
X192152000Y197518000D02*
X192552000Y197518000D01*
G75*
G02*
X192602000Y197468000I0J-50000D01*
G01*
X192602000Y196668000D01*
G75*
G02*
X192552000Y196618000I-50000J0D01*
G01*
X192152000Y196618000D01*
G75*
G02*
X192102000Y196668000I0J50000D01*
G01*
X192102000Y197468000D01*
G75*
G02*
X192152000Y197518000I50000J0D01*
G01*
G37*
G36*
G01*
X192952000Y197518000D02*
X193352000Y197518000D01*
G75*
G02*
X193402000Y197468000I0J-50000D01*
G01*
X193402000Y196668000D01*
G75*
G02*
X193352000Y196618000I-50000J0D01*
G01*
X192952000Y196618000D01*
G75*
G02*
X192902000Y196668000I0J50000D01*
G01*
X192902000Y197468000D01*
G75*
G02*
X192952000Y197518000I50000J0D01*
G01*
G37*
G36*
G01*
X191302000Y197518000D02*
X191802000Y197518000D01*
G75*
G02*
X191852000Y197468000I0J-50000D01*
G01*
X191852000Y196668000D01*
G75*
G02*
X191802000Y196618000I-50000J0D01*
G01*
X191302000Y196618000D01*
G75*
G02*
X191252000Y196668000I0J50000D01*
G01*
X191252000Y197468000D01*
G75*
G02*
X191302000Y197518000I50000J0D01*
G01*
G37*
G36*
G01*
X192952000Y195718000D02*
X193352000Y195718000D01*
G75*
G02*
X193402000Y195668000I0J-50000D01*
G01*
X193402000Y194868000D01*
G75*
G02*
X193352000Y194818000I-50000J0D01*
G01*
X192952000Y194818000D01*
G75*
G02*
X192902000Y194868000I0J50000D01*
G01*
X192902000Y195668000D01*
G75*
G02*
X192952000Y195718000I50000J0D01*
G01*
G37*
G36*
G01*
X193702000Y195718000D02*
X194202000Y195718000D01*
G75*
G02*
X194252000Y195668000I0J-50000D01*
G01*
X194252000Y194868000D01*
G75*
G02*
X194202000Y194818000I-50000J0D01*
G01*
X193702000Y194818000D01*
G75*
G02*
X193652000Y194868000I0J50000D01*
G01*
X193652000Y195668000D01*
G75*
G02*
X193702000Y195718000I50000J0D01*
G01*
G37*
G36*
G01*
X192152000Y195718000D02*
X192552000Y195718000D01*
G75*
G02*
X192602000Y195668000I0J-50000D01*
G01*
X192602000Y194868000D01*
G75*
G02*
X192552000Y194818000I-50000J0D01*
G01*
X192152000Y194818000D01*
G75*
G02*
X192102000Y194868000I0J50000D01*
G01*
X192102000Y195668000D01*
G75*
G02*
X192152000Y195718000I50000J0D01*
G01*
G37*
G36*
G01*
X191302000Y195718000D02*
X191802000Y195718000D01*
G75*
G02*
X191852000Y195668000I0J-50000D01*
G01*
X191852000Y194868000D01*
G75*
G02*
X191802000Y194818000I-50000J0D01*
G01*
X191302000Y194818000D01*
G75*
G02*
X191252000Y194868000I0J50000D01*
G01*
X191252000Y195668000D01*
G75*
G02*
X191302000Y195718000I50000J0D01*
G01*
G37*
%TD*%
%TO.C,R11*%
G36*
G01*
X159066000Y205217388D02*
X159066000Y206168612D01*
G75*
G02*
X159340388Y206443000I274388J0D01*
G01*
X159916612Y206443000D01*
G75*
G02*
X160191000Y206168612I0J-274388D01*
G01*
X160191000Y205217388D01*
G75*
G02*
X159916612Y204943000I-274388J0D01*
G01*
X159340388Y204943000D01*
G75*
G02*
X159066000Y205217388I0J274388D01*
G01*
G37*
G36*
G01*
X157241000Y205217388D02*
X157241000Y206168612D01*
G75*
G02*
X157515388Y206443000I274388J0D01*
G01*
X158091612Y206443000D01*
G75*
G02*
X158366000Y206168612I0J-274388D01*
G01*
X158366000Y205217388D01*
G75*
G02*
X158091612Y204943000I-274388J0D01*
G01*
X157515388Y204943000D01*
G75*
G02*
X157241000Y205217388I0J274388D01*
G01*
G37*
%TD*%
%TO.C,R10*%
G36*
G01*
X164146000Y205217388D02*
X164146000Y206168612D01*
G75*
G02*
X164420388Y206443000I274388J0D01*
G01*
X164996612Y206443000D01*
G75*
G02*
X165271000Y206168612I0J-274388D01*
G01*
X165271000Y205217388D01*
G75*
G02*
X164996612Y204943000I-274388J0D01*
G01*
X164420388Y204943000D01*
G75*
G02*
X164146000Y205217388I0J274388D01*
G01*
G37*
G36*
G01*
X162321000Y205217388D02*
X162321000Y206168612D01*
G75*
G02*
X162595388Y206443000I274388J0D01*
G01*
X163171612Y206443000D01*
G75*
G02*
X163446000Y206168612I0J-274388D01*
G01*
X163446000Y205217388D01*
G75*
G02*
X163171612Y204943000I-274388J0D01*
G01*
X162595388Y204943000D01*
G75*
G02*
X162321000Y205217388I0J274388D01*
G01*
G37*
%TD*%
%TO.C,R9*%
G36*
G01*
X147039500Y208581612D02*
X147039500Y207630388D01*
G75*
G02*
X146765112Y207356000I-274388J0D01*
G01*
X146188888Y207356000D01*
G75*
G02*
X145914500Y207630388I0J274388D01*
G01*
X145914500Y208581612D01*
G75*
G02*
X146188888Y208856000I274388J0D01*
G01*
X146765112Y208856000D01*
G75*
G02*
X147039500Y208581612I0J-274388D01*
G01*
G37*
G36*
G01*
X148864500Y208581612D02*
X148864500Y207630388D01*
G75*
G02*
X148590112Y207356000I-274388J0D01*
G01*
X148013888Y207356000D01*
G75*
G02*
X147739500Y207630388I0J274388D01*
G01*
X147739500Y208581612D01*
G75*
G02*
X148013888Y208856000I274388J0D01*
G01*
X148590112Y208856000D01*
G75*
G02*
X148864500Y208581612I0J-274388D01*
G01*
G37*
%TD*%
%TO.C,C11*%
G36*
G01*
X180441000Y196909000D02*
X180441000Y197459000D01*
G75*
G02*
X180691000Y197709000I250000J0D01*
G01*
X181191000Y197709000D01*
G75*
G02*
X181441000Y197459000I0J-250000D01*
G01*
X181441000Y196909000D01*
G75*
G02*
X181191000Y196659000I-250000J0D01*
G01*
X180691000Y196659000D01*
G75*
G02*
X180441000Y196909000I0J250000D01*
G01*
G37*
G36*
G01*
X178891000Y196909000D02*
X178891000Y197459000D01*
G75*
G02*
X179141000Y197709000I250000J0D01*
G01*
X179641000Y197709000D01*
G75*
G02*
X179891000Y197459000I0J-250000D01*
G01*
X179891000Y196909000D01*
G75*
G02*
X179641000Y196659000I-250000J0D01*
G01*
X179141000Y196659000D01*
G75*
G02*
X178891000Y196909000I0J250000D01*
G01*
G37*
%TD*%
%TO.C,C10*%
G36*
G01*
X164058000Y201989000D02*
X164058000Y202539000D01*
G75*
G02*
X164308000Y202789000I250000J0D01*
G01*
X164808000Y202789000D01*
G75*
G02*
X165058000Y202539000I0J-250000D01*
G01*
X165058000Y201989000D01*
G75*
G02*
X164808000Y201739000I-250000J0D01*
G01*
X164308000Y201739000D01*
G75*
G02*
X164058000Y201989000I0J250000D01*
G01*
G37*
G36*
G01*
X162508000Y201989000D02*
X162508000Y202539000D01*
G75*
G02*
X162758000Y202789000I250000J0D01*
G01*
X163258000Y202789000D01*
G75*
G02*
X163508000Y202539000I0J-250000D01*
G01*
X163508000Y201989000D01*
G75*
G02*
X163258000Y201739000I-250000J0D01*
G01*
X162758000Y201739000D01*
G75*
G02*
X162508000Y201989000I0J250000D01*
G01*
G37*
%TD*%
%TO.C,C9*%
G36*
G01*
X147561000Y197163000D02*
X147561000Y197713000D01*
G75*
G02*
X147811000Y197963000I250000J0D01*
G01*
X148311000Y197963000D01*
G75*
G02*
X148561000Y197713000I0J-250000D01*
G01*
X148561000Y197163000D01*
G75*
G02*
X148311000Y196913000I-250000J0D01*
G01*
X147811000Y196913000D01*
G75*
G02*
X147561000Y197163000I0J250000D01*
G01*
G37*
G36*
G01*
X146011000Y197163000D02*
X146011000Y197713000D01*
G75*
G02*
X146261000Y197963000I250000J0D01*
G01*
X146761000Y197963000D01*
G75*
G02*
X147011000Y197713000I0J-250000D01*
G01*
X147011000Y197163000D01*
G75*
G02*
X146761000Y196913000I-250000J0D01*
G01*
X146261000Y196913000D01*
G75*
G02*
X146011000Y197163000I0J250000D01*
G01*
G37*
%TD*%
%TO.C,C8*%
G36*
G01*
X134226000Y204457000D02*
X133676000Y204457000D01*
G75*
G02*
X133426000Y204707000I0J250000D01*
G01*
X133426000Y205207000D01*
G75*
G02*
X133676000Y205457000I250000J0D01*
G01*
X134226000Y205457000D01*
G75*
G02*
X134476000Y205207000I0J-250000D01*
G01*
X134476000Y204707000D01*
G75*
G02*
X134226000Y204457000I-250000J0D01*
G01*
G37*
G36*
G01*
X134226000Y202907000D02*
X133676000Y202907000D01*
G75*
G02*
X133426000Y203157000I0J250000D01*
G01*
X133426000Y203657000D01*
G75*
G02*
X133676000Y203907000I250000J0D01*
G01*
X134226000Y203907000D01*
G75*
G02*
X134476000Y203657000I0J-250000D01*
G01*
X134476000Y203157000D01*
G75*
G02*
X134226000Y202907000I-250000J0D01*
G01*
G37*
%TD*%
%TO.C,U7*%
G36*
G01*
X181601500Y200267000D02*
X181601500Y200017000D01*
G75*
G02*
X181476500Y199892000I-125000J0D01*
G01*
X180151500Y199892000D01*
G75*
G02*
X180026500Y200017000I0J125000D01*
G01*
X180026500Y200267000D01*
G75*
G02*
X180151500Y200392000I125000J0D01*
G01*
X181476500Y200392000D01*
G75*
G02*
X181601500Y200267000I0J-125000D01*
G01*
G37*
G36*
G01*
X181601500Y200917000D02*
X181601500Y200667000D01*
G75*
G02*
X181476500Y200542000I-125000J0D01*
G01*
X180151500Y200542000D01*
G75*
G02*
X180026500Y200667000I0J125000D01*
G01*
X180026500Y200917000D01*
G75*
G02*
X180151500Y201042000I125000J0D01*
G01*
X181476500Y201042000D01*
G75*
G02*
X181601500Y200917000I0J-125000D01*
G01*
G37*
G36*
G01*
X181601500Y201567000D02*
X181601500Y201317000D01*
G75*
G02*
X181476500Y201192000I-125000J0D01*
G01*
X180151500Y201192000D01*
G75*
G02*
X180026500Y201317000I0J125000D01*
G01*
X180026500Y201567000D01*
G75*
G02*
X180151500Y201692000I125000J0D01*
G01*
X181476500Y201692000D01*
G75*
G02*
X181601500Y201567000I0J-125000D01*
G01*
G37*
G36*
G01*
X181601500Y202217000D02*
X181601500Y201967000D01*
G75*
G02*
X181476500Y201842000I-125000J0D01*
G01*
X180151500Y201842000D01*
G75*
G02*
X180026500Y201967000I0J125000D01*
G01*
X180026500Y202217000D01*
G75*
G02*
X180151500Y202342000I125000J0D01*
G01*
X181476500Y202342000D01*
G75*
G02*
X181601500Y202217000I0J-125000D01*
G01*
G37*
G36*
G01*
X181601500Y202867000D02*
X181601500Y202617000D01*
G75*
G02*
X181476500Y202492000I-125000J0D01*
G01*
X180151500Y202492000D01*
G75*
G02*
X180026500Y202617000I0J125000D01*
G01*
X180026500Y202867000D01*
G75*
G02*
X180151500Y202992000I125000J0D01*
G01*
X181476500Y202992000D01*
G75*
G02*
X181601500Y202867000I0J-125000D01*
G01*
G37*
G36*
G01*
X181601500Y203517000D02*
X181601500Y203267000D01*
G75*
G02*
X181476500Y203142000I-125000J0D01*
G01*
X180151500Y203142000D01*
G75*
G02*
X180026500Y203267000I0J125000D01*
G01*
X180026500Y203517000D01*
G75*
G02*
X180151500Y203642000I125000J0D01*
G01*
X181476500Y203642000D01*
G75*
G02*
X181601500Y203517000I0J-125000D01*
G01*
G37*
G36*
G01*
X181601500Y204167000D02*
X181601500Y203917000D01*
G75*
G02*
X181476500Y203792000I-125000J0D01*
G01*
X180151500Y203792000D01*
G75*
G02*
X180026500Y203917000I0J125000D01*
G01*
X180026500Y204167000D01*
G75*
G02*
X180151500Y204292000I125000J0D01*
G01*
X181476500Y204292000D01*
G75*
G02*
X181601500Y204167000I0J-125000D01*
G01*
G37*
G36*
G01*
X181601500Y204817000D02*
X181601500Y204567000D01*
G75*
G02*
X181476500Y204442000I-125000J0D01*
G01*
X180151500Y204442000D01*
G75*
G02*
X180026500Y204567000I0J125000D01*
G01*
X180026500Y204817000D01*
G75*
G02*
X180151500Y204942000I125000J0D01*
G01*
X181476500Y204942000D01*
G75*
G02*
X181601500Y204817000I0J-125000D01*
G01*
G37*
G36*
G01*
X187326500Y204817000D02*
X187326500Y204567000D01*
G75*
G02*
X187201500Y204442000I-125000J0D01*
G01*
X185876500Y204442000D01*
G75*
G02*
X185751500Y204567000I0J125000D01*
G01*
X185751500Y204817000D01*
G75*
G02*
X185876500Y204942000I125000J0D01*
G01*
X187201500Y204942000D01*
G75*
G02*
X187326500Y204817000I0J-125000D01*
G01*
G37*
G36*
G01*
X187326500Y204167000D02*
X187326500Y203917000D01*
G75*
G02*
X187201500Y203792000I-125000J0D01*
G01*
X185876500Y203792000D01*
G75*
G02*
X185751500Y203917000I0J125000D01*
G01*
X185751500Y204167000D01*
G75*
G02*
X185876500Y204292000I125000J0D01*
G01*
X187201500Y204292000D01*
G75*
G02*
X187326500Y204167000I0J-125000D01*
G01*
G37*
G36*
G01*
X187326500Y203517000D02*
X187326500Y203267000D01*
G75*
G02*
X187201500Y203142000I-125000J0D01*
G01*
X185876500Y203142000D01*
G75*
G02*
X185751500Y203267000I0J125000D01*
G01*
X185751500Y203517000D01*
G75*
G02*
X185876500Y203642000I125000J0D01*
G01*
X187201500Y203642000D01*
G75*
G02*
X187326500Y203517000I0J-125000D01*
G01*
G37*
G36*
G01*
X187326500Y202867000D02*
X187326500Y202617000D01*
G75*
G02*
X187201500Y202492000I-125000J0D01*
G01*
X185876500Y202492000D01*
G75*
G02*
X185751500Y202617000I0J125000D01*
G01*
X185751500Y202867000D01*
G75*
G02*
X185876500Y202992000I125000J0D01*
G01*
X187201500Y202992000D01*
G75*
G02*
X187326500Y202867000I0J-125000D01*
G01*
G37*
G36*
G01*
X187326500Y202217000D02*
X187326500Y201967000D01*
G75*
G02*
X187201500Y201842000I-125000J0D01*
G01*
X185876500Y201842000D01*
G75*
G02*
X185751500Y201967000I0J125000D01*
G01*
X185751500Y202217000D01*
G75*
G02*
X185876500Y202342000I125000J0D01*
G01*
X187201500Y202342000D01*
G75*
G02*
X187326500Y202217000I0J-125000D01*
G01*
G37*
G36*
G01*
X187326500Y201567000D02*
X187326500Y201317000D01*
G75*
G02*
X187201500Y201192000I-125000J0D01*
G01*
X185876500Y201192000D01*
G75*
G02*
X185751500Y201317000I0J125000D01*
G01*
X185751500Y201567000D01*
G75*
G02*
X185876500Y201692000I125000J0D01*
G01*
X187201500Y201692000D01*
G75*
G02*
X187326500Y201567000I0J-125000D01*
G01*
G37*
G36*
G01*
X187326500Y200917000D02*
X187326500Y200667000D01*
G75*
G02*
X187201500Y200542000I-125000J0D01*
G01*
X185876500Y200542000D01*
G75*
G02*
X185751500Y200667000I0J125000D01*
G01*
X185751500Y200917000D01*
G75*
G02*
X185876500Y201042000I125000J0D01*
G01*
X187201500Y201042000D01*
G75*
G02*
X187326500Y200917000I0J-125000D01*
G01*
G37*
G36*
G01*
X187326500Y200267000D02*
X187326500Y200017000D01*
G75*
G02*
X187201500Y199892000I-125000J0D01*
G01*
X185876500Y199892000D01*
G75*
G02*
X185751500Y200017000I0J125000D01*
G01*
X185751500Y200267000D01*
G75*
G02*
X185876500Y200392000I125000J0D01*
G01*
X187201500Y200392000D01*
G75*
G02*
X187326500Y200267000I0J-125000D01*
G01*
G37*
%TD*%
%TO.C,U6*%
G36*
G01*
X170054000Y205286500D02*
X169804000Y205286500D01*
G75*
G02*
X169679000Y205411500I0J125000D01*
G01*
X169679000Y206736500D01*
G75*
G02*
X169804000Y206861500I125000J0D01*
G01*
X170054000Y206861500D01*
G75*
G02*
X170179000Y206736500I0J-125000D01*
G01*
X170179000Y205411500D01*
G75*
G02*
X170054000Y205286500I-125000J0D01*
G01*
G37*
G36*
G01*
X170704000Y205286500D02*
X170454000Y205286500D01*
G75*
G02*
X170329000Y205411500I0J125000D01*
G01*
X170329000Y206736500D01*
G75*
G02*
X170454000Y206861500I125000J0D01*
G01*
X170704000Y206861500D01*
G75*
G02*
X170829000Y206736500I0J-125000D01*
G01*
X170829000Y205411500D01*
G75*
G02*
X170704000Y205286500I-125000J0D01*
G01*
G37*
G36*
G01*
X171354000Y205286500D02*
X171104000Y205286500D01*
G75*
G02*
X170979000Y205411500I0J125000D01*
G01*
X170979000Y206736500D01*
G75*
G02*
X171104000Y206861500I125000J0D01*
G01*
X171354000Y206861500D01*
G75*
G02*
X171479000Y206736500I0J-125000D01*
G01*
X171479000Y205411500D01*
G75*
G02*
X171354000Y205286500I-125000J0D01*
G01*
G37*
G36*
G01*
X172004000Y205286500D02*
X171754000Y205286500D01*
G75*
G02*
X171629000Y205411500I0J125000D01*
G01*
X171629000Y206736500D01*
G75*
G02*
X171754000Y206861500I125000J0D01*
G01*
X172004000Y206861500D01*
G75*
G02*
X172129000Y206736500I0J-125000D01*
G01*
X172129000Y205411500D01*
G75*
G02*
X172004000Y205286500I-125000J0D01*
G01*
G37*
G36*
G01*
X172654000Y205286500D02*
X172404000Y205286500D01*
G75*
G02*
X172279000Y205411500I0J125000D01*
G01*
X172279000Y206736500D01*
G75*
G02*
X172404000Y206861500I125000J0D01*
G01*
X172654000Y206861500D01*
G75*
G02*
X172779000Y206736500I0J-125000D01*
G01*
X172779000Y205411500D01*
G75*
G02*
X172654000Y205286500I-125000J0D01*
G01*
G37*
G36*
G01*
X173304000Y205286500D02*
X173054000Y205286500D01*
G75*
G02*
X172929000Y205411500I0J125000D01*
G01*
X172929000Y206736500D01*
G75*
G02*
X173054000Y206861500I125000J0D01*
G01*
X173304000Y206861500D01*
G75*
G02*
X173429000Y206736500I0J-125000D01*
G01*
X173429000Y205411500D01*
G75*
G02*
X173304000Y205286500I-125000J0D01*
G01*
G37*
G36*
G01*
X173954000Y205286500D02*
X173704000Y205286500D01*
G75*
G02*
X173579000Y205411500I0J125000D01*
G01*
X173579000Y206736500D01*
G75*
G02*
X173704000Y206861500I125000J0D01*
G01*
X173954000Y206861500D01*
G75*
G02*
X174079000Y206736500I0J-125000D01*
G01*
X174079000Y205411500D01*
G75*
G02*
X173954000Y205286500I-125000J0D01*
G01*
G37*
G36*
G01*
X174604000Y205286500D02*
X174354000Y205286500D01*
G75*
G02*
X174229000Y205411500I0J125000D01*
G01*
X174229000Y206736500D01*
G75*
G02*
X174354000Y206861500I125000J0D01*
G01*
X174604000Y206861500D01*
G75*
G02*
X174729000Y206736500I0J-125000D01*
G01*
X174729000Y205411500D01*
G75*
G02*
X174604000Y205286500I-125000J0D01*
G01*
G37*
G36*
G01*
X174604000Y199561500D02*
X174354000Y199561500D01*
G75*
G02*
X174229000Y199686500I0J125000D01*
G01*
X174229000Y201011500D01*
G75*
G02*
X174354000Y201136500I125000J0D01*
G01*
X174604000Y201136500D01*
G75*
G02*
X174729000Y201011500I0J-125000D01*
G01*
X174729000Y199686500D01*
G75*
G02*
X174604000Y199561500I-125000J0D01*
G01*
G37*
G36*
G01*
X173954000Y199561500D02*
X173704000Y199561500D01*
G75*
G02*
X173579000Y199686500I0J125000D01*
G01*
X173579000Y201011500D01*
G75*
G02*
X173704000Y201136500I125000J0D01*
G01*
X173954000Y201136500D01*
G75*
G02*
X174079000Y201011500I0J-125000D01*
G01*
X174079000Y199686500D01*
G75*
G02*
X173954000Y199561500I-125000J0D01*
G01*
G37*
G36*
G01*
X173304000Y199561500D02*
X173054000Y199561500D01*
G75*
G02*
X172929000Y199686500I0J125000D01*
G01*
X172929000Y201011500D01*
G75*
G02*
X173054000Y201136500I125000J0D01*
G01*
X173304000Y201136500D01*
G75*
G02*
X173429000Y201011500I0J-125000D01*
G01*
X173429000Y199686500D01*
G75*
G02*
X173304000Y199561500I-125000J0D01*
G01*
G37*
G36*
G01*
X172654000Y199561500D02*
X172404000Y199561500D01*
G75*
G02*
X172279000Y199686500I0J125000D01*
G01*
X172279000Y201011500D01*
G75*
G02*
X172404000Y201136500I125000J0D01*
G01*
X172654000Y201136500D01*
G75*
G02*
X172779000Y201011500I0J-125000D01*
G01*
X172779000Y199686500D01*
G75*
G02*
X172654000Y199561500I-125000J0D01*
G01*
G37*
G36*
G01*
X172004000Y199561500D02*
X171754000Y199561500D01*
G75*
G02*
X171629000Y199686500I0J125000D01*
G01*
X171629000Y201011500D01*
G75*
G02*
X171754000Y201136500I125000J0D01*
G01*
X172004000Y201136500D01*
G75*
G02*
X172129000Y201011500I0J-125000D01*
G01*
X172129000Y199686500D01*
G75*
G02*
X172004000Y199561500I-125000J0D01*
G01*
G37*
G36*
G01*
X171354000Y199561500D02*
X171104000Y199561500D01*
G75*
G02*
X170979000Y199686500I0J125000D01*
G01*
X170979000Y201011500D01*
G75*
G02*
X171104000Y201136500I125000J0D01*
G01*
X171354000Y201136500D01*
G75*
G02*
X171479000Y201011500I0J-125000D01*
G01*
X171479000Y199686500D01*
G75*
G02*
X171354000Y199561500I-125000J0D01*
G01*
G37*
G36*
G01*
X170704000Y199561500D02*
X170454000Y199561500D01*
G75*
G02*
X170329000Y199686500I0J125000D01*
G01*
X170329000Y201011500D01*
G75*
G02*
X170454000Y201136500I125000J0D01*
G01*
X170704000Y201136500D01*
G75*
G02*
X170829000Y201011500I0J-125000D01*
G01*
X170829000Y199686500D01*
G75*
G02*
X170704000Y199561500I-125000J0D01*
G01*
G37*
G36*
G01*
X170054000Y199561500D02*
X169804000Y199561500D01*
G75*
G02*
X169679000Y199686500I0J125000D01*
G01*
X169679000Y201011500D01*
G75*
G02*
X169804000Y201136500I125000J0D01*
G01*
X170054000Y201136500D01*
G75*
G02*
X170179000Y201011500I0J-125000D01*
G01*
X170179000Y199686500D01*
G75*
G02*
X170054000Y199561500I-125000J0D01*
G01*
G37*
%TD*%
%TO.C,U3*%
G36*
G01*
X147184500Y200282000D02*
X147184500Y200032000D01*
G75*
G02*
X147059500Y199907000I-125000J0D01*
G01*
X145734500Y199907000D01*
G75*
G02*
X145609500Y200032000I0J125000D01*
G01*
X145609500Y200282000D01*
G75*
G02*
X145734500Y200407000I125000J0D01*
G01*
X147059500Y200407000D01*
G75*
G02*
X147184500Y200282000I0J-125000D01*
G01*
G37*
G36*
G01*
X147184500Y200932000D02*
X147184500Y200682000D01*
G75*
G02*
X147059500Y200557000I-125000J0D01*
G01*
X145734500Y200557000D01*
G75*
G02*
X145609500Y200682000I0J125000D01*
G01*
X145609500Y200932000D01*
G75*
G02*
X145734500Y201057000I125000J0D01*
G01*
X147059500Y201057000D01*
G75*
G02*
X147184500Y200932000I0J-125000D01*
G01*
G37*
G36*
G01*
X147184500Y201582000D02*
X147184500Y201332000D01*
G75*
G02*
X147059500Y201207000I-125000J0D01*
G01*
X145734500Y201207000D01*
G75*
G02*
X145609500Y201332000I0J125000D01*
G01*
X145609500Y201582000D01*
G75*
G02*
X145734500Y201707000I125000J0D01*
G01*
X147059500Y201707000D01*
G75*
G02*
X147184500Y201582000I0J-125000D01*
G01*
G37*
G36*
G01*
X147184500Y202232000D02*
X147184500Y201982000D01*
G75*
G02*
X147059500Y201857000I-125000J0D01*
G01*
X145734500Y201857000D01*
G75*
G02*
X145609500Y201982000I0J125000D01*
G01*
X145609500Y202232000D01*
G75*
G02*
X145734500Y202357000I125000J0D01*
G01*
X147059500Y202357000D01*
G75*
G02*
X147184500Y202232000I0J-125000D01*
G01*
G37*
G36*
G01*
X147184500Y202882000D02*
X147184500Y202632000D01*
G75*
G02*
X147059500Y202507000I-125000J0D01*
G01*
X145734500Y202507000D01*
G75*
G02*
X145609500Y202632000I0J125000D01*
G01*
X145609500Y202882000D01*
G75*
G02*
X145734500Y203007000I125000J0D01*
G01*
X147059500Y203007000D01*
G75*
G02*
X147184500Y202882000I0J-125000D01*
G01*
G37*
G36*
G01*
X147184500Y203532000D02*
X147184500Y203282000D01*
G75*
G02*
X147059500Y203157000I-125000J0D01*
G01*
X145734500Y203157000D01*
G75*
G02*
X145609500Y203282000I0J125000D01*
G01*
X145609500Y203532000D01*
G75*
G02*
X145734500Y203657000I125000J0D01*
G01*
X147059500Y203657000D01*
G75*
G02*
X147184500Y203532000I0J-125000D01*
G01*
G37*
G36*
G01*
X147184500Y204182000D02*
X147184500Y203932000D01*
G75*
G02*
X147059500Y203807000I-125000J0D01*
G01*
X145734500Y203807000D01*
G75*
G02*
X145609500Y203932000I0J125000D01*
G01*
X145609500Y204182000D01*
G75*
G02*
X145734500Y204307000I125000J0D01*
G01*
X147059500Y204307000D01*
G75*
G02*
X147184500Y204182000I0J-125000D01*
G01*
G37*
G36*
G01*
X147184500Y204832000D02*
X147184500Y204582000D01*
G75*
G02*
X147059500Y204457000I-125000J0D01*
G01*
X145734500Y204457000D01*
G75*
G02*
X145609500Y204582000I0J125000D01*
G01*
X145609500Y204832000D01*
G75*
G02*
X145734500Y204957000I125000J0D01*
G01*
X147059500Y204957000D01*
G75*
G02*
X147184500Y204832000I0J-125000D01*
G01*
G37*
G36*
G01*
X152909500Y204832000D02*
X152909500Y204582000D01*
G75*
G02*
X152784500Y204457000I-125000J0D01*
G01*
X151459500Y204457000D01*
G75*
G02*
X151334500Y204582000I0J125000D01*
G01*
X151334500Y204832000D01*
G75*
G02*
X151459500Y204957000I125000J0D01*
G01*
X152784500Y204957000D01*
G75*
G02*
X152909500Y204832000I0J-125000D01*
G01*
G37*
G36*
G01*
X152909500Y204182000D02*
X152909500Y203932000D01*
G75*
G02*
X152784500Y203807000I-125000J0D01*
G01*
X151459500Y203807000D01*
G75*
G02*
X151334500Y203932000I0J125000D01*
G01*
X151334500Y204182000D01*
G75*
G02*
X151459500Y204307000I125000J0D01*
G01*
X152784500Y204307000D01*
G75*
G02*
X152909500Y204182000I0J-125000D01*
G01*
G37*
G36*
G01*
X152909500Y203532000D02*
X152909500Y203282000D01*
G75*
G02*
X152784500Y203157000I-125000J0D01*
G01*
X151459500Y203157000D01*
G75*
G02*
X151334500Y203282000I0J125000D01*
G01*
X151334500Y203532000D01*
G75*
G02*
X151459500Y203657000I125000J0D01*
G01*
X152784500Y203657000D01*
G75*
G02*
X152909500Y203532000I0J-125000D01*
G01*
G37*
G36*
G01*
X152909500Y202882000D02*
X152909500Y202632000D01*
G75*
G02*
X152784500Y202507000I-125000J0D01*
G01*
X151459500Y202507000D01*
G75*
G02*
X151334500Y202632000I0J125000D01*
G01*
X151334500Y202882000D01*
G75*
G02*
X151459500Y203007000I125000J0D01*
G01*
X152784500Y203007000D01*
G75*
G02*
X152909500Y202882000I0J-125000D01*
G01*
G37*
G36*
G01*
X152909500Y202232000D02*
X152909500Y201982000D01*
G75*
G02*
X152784500Y201857000I-125000J0D01*
G01*
X151459500Y201857000D01*
G75*
G02*
X151334500Y201982000I0J125000D01*
G01*
X151334500Y202232000D01*
G75*
G02*
X151459500Y202357000I125000J0D01*
G01*
X152784500Y202357000D01*
G75*
G02*
X152909500Y202232000I0J-125000D01*
G01*
G37*
G36*
G01*
X152909500Y201582000D02*
X152909500Y201332000D01*
G75*
G02*
X152784500Y201207000I-125000J0D01*
G01*
X151459500Y201207000D01*
G75*
G02*
X151334500Y201332000I0J125000D01*
G01*
X151334500Y201582000D01*
G75*
G02*
X151459500Y201707000I125000J0D01*
G01*
X152784500Y201707000D01*
G75*
G02*
X152909500Y201582000I0J-125000D01*
G01*
G37*
G36*
G01*
X152909500Y200932000D02*
X152909500Y200682000D01*
G75*
G02*
X152784500Y200557000I-125000J0D01*
G01*
X151459500Y200557000D01*
G75*
G02*
X151334500Y200682000I0J125000D01*
G01*
X151334500Y200932000D01*
G75*
G02*
X151459500Y201057000I125000J0D01*
G01*
X152784500Y201057000D01*
G75*
G02*
X152909500Y200932000I0J-125000D01*
G01*
G37*
G36*
G01*
X152909500Y200282000D02*
X152909500Y200032000D01*
G75*
G02*
X152784500Y199907000I-125000J0D01*
G01*
X151459500Y199907000D01*
G75*
G02*
X151334500Y200032000I0J125000D01*
G01*
X151334500Y200282000D01*
G75*
G02*
X151459500Y200407000I125000J0D01*
G01*
X152784500Y200407000D01*
G75*
G02*
X152909500Y200282000I0J-125000D01*
G01*
G37*
%TD*%
%TO.C,U2*%
G36*
G01*
X136119000Y205296500D02*
X135869000Y205296500D01*
G75*
G02*
X135744000Y205421500I0J125000D01*
G01*
X135744000Y206746500D01*
G75*
G02*
X135869000Y206871500I125000J0D01*
G01*
X136119000Y206871500D01*
G75*
G02*
X136244000Y206746500I0J-125000D01*
G01*
X136244000Y205421500D01*
G75*
G02*
X136119000Y205296500I-125000J0D01*
G01*
G37*
G36*
G01*
X136769000Y205296500D02*
X136519000Y205296500D01*
G75*
G02*
X136394000Y205421500I0J125000D01*
G01*
X136394000Y206746500D01*
G75*
G02*
X136519000Y206871500I125000J0D01*
G01*
X136769000Y206871500D01*
G75*
G02*
X136894000Y206746500I0J-125000D01*
G01*
X136894000Y205421500D01*
G75*
G02*
X136769000Y205296500I-125000J0D01*
G01*
G37*
G36*
G01*
X137419000Y205296500D02*
X137169000Y205296500D01*
G75*
G02*
X137044000Y205421500I0J125000D01*
G01*
X137044000Y206746500D01*
G75*
G02*
X137169000Y206871500I125000J0D01*
G01*
X137419000Y206871500D01*
G75*
G02*
X137544000Y206746500I0J-125000D01*
G01*
X137544000Y205421500D01*
G75*
G02*
X137419000Y205296500I-125000J0D01*
G01*
G37*
G36*
G01*
X138069000Y205296500D02*
X137819000Y205296500D01*
G75*
G02*
X137694000Y205421500I0J125000D01*
G01*
X137694000Y206746500D01*
G75*
G02*
X137819000Y206871500I125000J0D01*
G01*
X138069000Y206871500D01*
G75*
G02*
X138194000Y206746500I0J-125000D01*
G01*
X138194000Y205421500D01*
G75*
G02*
X138069000Y205296500I-125000J0D01*
G01*
G37*
G36*
G01*
X138719000Y205296500D02*
X138469000Y205296500D01*
G75*
G02*
X138344000Y205421500I0J125000D01*
G01*
X138344000Y206746500D01*
G75*
G02*
X138469000Y206871500I125000J0D01*
G01*
X138719000Y206871500D01*
G75*
G02*
X138844000Y206746500I0J-125000D01*
G01*
X138844000Y205421500D01*
G75*
G02*
X138719000Y205296500I-125000J0D01*
G01*
G37*
G36*
G01*
X139369000Y205296500D02*
X139119000Y205296500D01*
G75*
G02*
X138994000Y205421500I0J125000D01*
G01*
X138994000Y206746500D01*
G75*
G02*
X139119000Y206871500I125000J0D01*
G01*
X139369000Y206871500D01*
G75*
G02*
X139494000Y206746500I0J-125000D01*
G01*
X139494000Y205421500D01*
G75*
G02*
X139369000Y205296500I-125000J0D01*
G01*
G37*
G36*
G01*
X140019000Y205296500D02*
X139769000Y205296500D01*
G75*
G02*
X139644000Y205421500I0J125000D01*
G01*
X139644000Y206746500D01*
G75*
G02*
X139769000Y206871500I125000J0D01*
G01*
X140019000Y206871500D01*
G75*
G02*
X140144000Y206746500I0J-125000D01*
G01*
X140144000Y205421500D01*
G75*
G02*
X140019000Y205296500I-125000J0D01*
G01*
G37*
G36*
G01*
X140669000Y205296500D02*
X140419000Y205296500D01*
G75*
G02*
X140294000Y205421500I0J125000D01*
G01*
X140294000Y206746500D01*
G75*
G02*
X140419000Y206871500I125000J0D01*
G01*
X140669000Y206871500D01*
G75*
G02*
X140794000Y206746500I0J-125000D01*
G01*
X140794000Y205421500D01*
G75*
G02*
X140669000Y205296500I-125000J0D01*
G01*
G37*
G36*
G01*
X140669000Y199571500D02*
X140419000Y199571500D01*
G75*
G02*
X140294000Y199696500I0J125000D01*
G01*
X140294000Y201021500D01*
G75*
G02*
X140419000Y201146500I125000J0D01*
G01*
X140669000Y201146500D01*
G75*
G02*
X140794000Y201021500I0J-125000D01*
G01*
X140794000Y199696500D01*
G75*
G02*
X140669000Y199571500I-125000J0D01*
G01*
G37*
G36*
G01*
X140019000Y199571500D02*
X139769000Y199571500D01*
G75*
G02*
X139644000Y199696500I0J125000D01*
G01*
X139644000Y201021500D01*
G75*
G02*
X139769000Y201146500I125000J0D01*
G01*
X140019000Y201146500D01*
G75*
G02*
X140144000Y201021500I0J-125000D01*
G01*
X140144000Y199696500D01*
G75*
G02*
X140019000Y199571500I-125000J0D01*
G01*
G37*
G36*
G01*
X139369000Y199571500D02*
X139119000Y199571500D01*
G75*
G02*
X138994000Y199696500I0J125000D01*
G01*
X138994000Y201021500D01*
G75*
G02*
X139119000Y201146500I125000J0D01*
G01*
X139369000Y201146500D01*
G75*
G02*
X139494000Y201021500I0J-125000D01*
G01*
X139494000Y199696500D01*
G75*
G02*
X139369000Y199571500I-125000J0D01*
G01*
G37*
G36*
G01*
X138719000Y199571500D02*
X138469000Y199571500D01*
G75*
G02*
X138344000Y199696500I0J125000D01*
G01*
X138344000Y201021500D01*
G75*
G02*
X138469000Y201146500I125000J0D01*
G01*
X138719000Y201146500D01*
G75*
G02*
X138844000Y201021500I0J-125000D01*
G01*
X138844000Y199696500D01*
G75*
G02*
X138719000Y199571500I-125000J0D01*
G01*
G37*
G36*
G01*
X138069000Y199571500D02*
X137819000Y199571500D01*
G75*
G02*
X137694000Y199696500I0J125000D01*
G01*
X137694000Y201021500D01*
G75*
G02*
X137819000Y201146500I125000J0D01*
G01*
X138069000Y201146500D01*
G75*
G02*
X138194000Y201021500I0J-125000D01*
G01*
X138194000Y199696500D01*
G75*
G02*
X138069000Y199571500I-125000J0D01*
G01*
G37*
G36*
G01*
X137419000Y199571500D02*
X137169000Y199571500D01*
G75*
G02*
X137044000Y199696500I0J125000D01*
G01*
X137044000Y201021500D01*
G75*
G02*
X137169000Y201146500I125000J0D01*
G01*
X137419000Y201146500D01*
G75*
G02*
X137544000Y201021500I0J-125000D01*
G01*
X137544000Y199696500D01*
G75*
G02*
X137419000Y199571500I-125000J0D01*
G01*
G37*
G36*
G01*
X136769000Y199571500D02*
X136519000Y199571500D01*
G75*
G02*
X136394000Y199696500I0J125000D01*
G01*
X136394000Y201021500D01*
G75*
G02*
X136519000Y201146500I125000J0D01*
G01*
X136769000Y201146500D01*
G75*
G02*
X136894000Y201021500I0J-125000D01*
G01*
X136894000Y199696500D01*
G75*
G02*
X136769000Y199571500I-125000J0D01*
G01*
G37*
G36*
G01*
X136119000Y199571500D02*
X135869000Y199571500D01*
G75*
G02*
X135744000Y199696500I0J125000D01*
G01*
X135744000Y201021500D01*
G75*
G02*
X135869000Y201146500I125000J0D01*
G01*
X136119000Y201146500D01*
G75*
G02*
X136244000Y201021500I0J-125000D01*
G01*
X136244000Y199696500D01*
G75*
G02*
X136119000Y199571500I-125000J0D01*
G01*
G37*
%TD*%
%TO.C,U1*%
G36*
G01*
X181166000Y218439000D02*
X181166000Y219814000D01*
G75*
G02*
X181266000Y219914000I100000J0D01*
G01*
X181466000Y219914000D01*
G75*
G02*
X181566000Y219814000I0J-100000D01*
G01*
X181566000Y218439000D01*
G75*
G02*
X181466000Y218339000I-100000J0D01*
G01*
X181266000Y218339000D01*
G75*
G02*
X181166000Y218439000I0J100000D01*
G01*
G37*
G36*
G01*
X181666000Y218439000D02*
X181666000Y219814000D01*
G75*
G02*
X181766000Y219914000I100000J0D01*
G01*
X181966000Y219914000D01*
G75*
G02*
X182066000Y219814000I0J-100000D01*
G01*
X182066000Y218439000D01*
G75*
G02*
X181966000Y218339000I-100000J0D01*
G01*
X181766000Y218339000D01*
G75*
G02*
X181666000Y218439000I0J100000D01*
G01*
G37*
G36*
G01*
X182166000Y218439000D02*
X182166000Y219814000D01*
G75*
G02*
X182266000Y219914000I100000J0D01*
G01*
X182466000Y219914000D01*
G75*
G02*
X182566000Y219814000I0J-100000D01*
G01*
X182566000Y218439000D01*
G75*
G02*
X182466000Y218339000I-100000J0D01*
G01*
X182266000Y218339000D01*
G75*
G02*
X182166000Y218439000I0J100000D01*
G01*
G37*
G36*
G01*
X182666000Y218439000D02*
X182666000Y219814000D01*
G75*
G02*
X182766000Y219914000I100000J0D01*
G01*
X182966000Y219914000D01*
G75*
G02*
X183066000Y219814000I0J-100000D01*
G01*
X183066000Y218439000D01*
G75*
G02*
X182966000Y218339000I-100000J0D01*
G01*
X182766000Y218339000D01*
G75*
G02*
X182666000Y218439000I0J100000D01*
G01*
G37*
G36*
G01*
X183166000Y218439000D02*
X183166000Y219814000D01*
G75*
G02*
X183266000Y219914000I100000J0D01*
G01*
X183466000Y219914000D01*
G75*
G02*
X183566000Y219814000I0J-100000D01*
G01*
X183566000Y218439000D01*
G75*
G02*
X183466000Y218339000I-100000J0D01*
G01*
X183266000Y218339000D01*
G75*
G02*
X183166000Y218439000I0J100000D01*
G01*
G37*
G36*
G01*
X183666000Y218439000D02*
X183666000Y219814000D01*
G75*
G02*
X183766000Y219914000I100000J0D01*
G01*
X183966000Y219914000D01*
G75*
G02*
X184066000Y219814000I0J-100000D01*
G01*
X184066000Y218439000D01*
G75*
G02*
X183966000Y218339000I-100000J0D01*
G01*
X183766000Y218339000D01*
G75*
G02*
X183666000Y218439000I0J100000D01*
G01*
G37*
G36*
G01*
X184166000Y218439000D02*
X184166000Y219814000D01*
G75*
G02*
X184266000Y219914000I100000J0D01*
G01*
X184466000Y219914000D01*
G75*
G02*
X184566000Y219814000I0J-100000D01*
G01*
X184566000Y218439000D01*
G75*
G02*
X184466000Y218339000I-100000J0D01*
G01*
X184266000Y218339000D01*
G75*
G02*
X184166000Y218439000I0J100000D01*
G01*
G37*
G36*
G01*
X184666000Y218439000D02*
X184666000Y219814000D01*
G75*
G02*
X184766000Y219914000I100000J0D01*
G01*
X184966000Y219914000D01*
G75*
G02*
X185066000Y219814000I0J-100000D01*
G01*
X185066000Y218439000D01*
G75*
G02*
X184966000Y218339000I-100000J0D01*
G01*
X184766000Y218339000D01*
G75*
G02*
X184666000Y218439000I0J100000D01*
G01*
G37*
G36*
G01*
X185166000Y218439000D02*
X185166000Y219814000D01*
G75*
G02*
X185266000Y219914000I100000J0D01*
G01*
X185466000Y219914000D01*
G75*
G02*
X185566000Y219814000I0J-100000D01*
G01*
X185566000Y218439000D01*
G75*
G02*
X185466000Y218339000I-100000J0D01*
G01*
X185266000Y218339000D01*
G75*
G02*
X185166000Y218439000I0J100000D01*
G01*
G37*
G36*
G01*
X185666000Y218439000D02*
X185666000Y219814000D01*
G75*
G02*
X185766000Y219914000I100000J0D01*
G01*
X185966000Y219914000D01*
G75*
G02*
X186066000Y219814000I0J-100000D01*
G01*
X186066000Y218439000D01*
G75*
G02*
X185966000Y218339000I-100000J0D01*
G01*
X185766000Y218339000D01*
G75*
G02*
X185666000Y218439000I0J100000D01*
G01*
G37*
G36*
G01*
X186166000Y218439000D02*
X186166000Y219814000D01*
G75*
G02*
X186266000Y219914000I100000J0D01*
G01*
X186466000Y219914000D01*
G75*
G02*
X186566000Y219814000I0J-100000D01*
G01*
X186566000Y218439000D01*
G75*
G02*
X186466000Y218339000I-100000J0D01*
G01*
X186266000Y218339000D01*
G75*
G02*
X186166000Y218439000I0J100000D01*
G01*
G37*
G36*
G01*
X186666000Y218439000D02*
X186666000Y219814000D01*
G75*
G02*
X186766000Y219914000I100000J0D01*
G01*
X186966000Y219914000D01*
G75*
G02*
X187066000Y219814000I0J-100000D01*
G01*
X187066000Y218439000D01*
G75*
G02*
X186966000Y218339000I-100000J0D01*
G01*
X186766000Y218339000D01*
G75*
G02*
X186666000Y218439000I0J100000D01*
G01*
G37*
G36*
G01*
X187491000Y217614000D02*
X187491000Y217814000D01*
G75*
G02*
X187591000Y217914000I100000J0D01*
G01*
X188966000Y217914000D01*
G75*
G02*
X189066000Y217814000I0J-100000D01*
G01*
X189066000Y217614000D01*
G75*
G02*
X188966000Y217514000I-100000J0D01*
G01*
X187591000Y217514000D01*
G75*
G02*
X187491000Y217614000I0J100000D01*
G01*
G37*
G36*
G01*
X187491000Y217114000D02*
X187491000Y217314000D01*
G75*
G02*
X187591000Y217414000I100000J0D01*
G01*
X188966000Y217414000D01*
G75*
G02*
X189066000Y217314000I0J-100000D01*
G01*
X189066000Y217114000D01*
G75*
G02*
X188966000Y217014000I-100000J0D01*
G01*
X187591000Y217014000D01*
G75*
G02*
X187491000Y217114000I0J100000D01*
G01*
G37*
G36*
G01*
X187491000Y216614000D02*
X187491000Y216814000D01*
G75*
G02*
X187591000Y216914000I100000J0D01*
G01*
X188966000Y216914000D01*
G75*
G02*
X189066000Y216814000I0J-100000D01*
G01*
X189066000Y216614000D01*
G75*
G02*
X188966000Y216514000I-100000J0D01*
G01*
X187591000Y216514000D01*
G75*
G02*
X187491000Y216614000I0J100000D01*
G01*
G37*
G36*
G01*
X187491000Y216114000D02*
X187491000Y216314000D01*
G75*
G02*
X187591000Y216414000I100000J0D01*
G01*
X188966000Y216414000D01*
G75*
G02*
X189066000Y216314000I0J-100000D01*
G01*
X189066000Y216114000D01*
G75*
G02*
X188966000Y216014000I-100000J0D01*
G01*
X187591000Y216014000D01*
G75*
G02*
X187491000Y216114000I0J100000D01*
G01*
G37*
G36*
G01*
X187491000Y215614000D02*
X187491000Y215814000D01*
G75*
G02*
X187591000Y215914000I100000J0D01*
G01*
X188966000Y215914000D01*
G75*
G02*
X189066000Y215814000I0J-100000D01*
G01*
X189066000Y215614000D01*
G75*
G02*
X188966000Y215514000I-100000J0D01*
G01*
X187591000Y215514000D01*
G75*
G02*
X187491000Y215614000I0J100000D01*
G01*
G37*
G36*
G01*
X187491000Y215114000D02*
X187491000Y215314000D01*
G75*
G02*
X187591000Y215414000I100000J0D01*
G01*
X188966000Y215414000D01*
G75*
G02*
X189066000Y215314000I0J-100000D01*
G01*
X189066000Y215114000D01*
G75*
G02*
X188966000Y215014000I-100000J0D01*
G01*
X187591000Y215014000D01*
G75*
G02*
X187491000Y215114000I0J100000D01*
G01*
G37*
G36*
G01*
X187491000Y214614000D02*
X187491000Y214814000D01*
G75*
G02*
X187591000Y214914000I100000J0D01*
G01*
X188966000Y214914000D01*
G75*
G02*
X189066000Y214814000I0J-100000D01*
G01*
X189066000Y214614000D01*
G75*
G02*
X188966000Y214514000I-100000J0D01*
G01*
X187591000Y214514000D01*
G75*
G02*
X187491000Y214614000I0J100000D01*
G01*
G37*
G36*
G01*
X187491000Y214114000D02*
X187491000Y214314000D01*
G75*
G02*
X187591000Y214414000I100000J0D01*
G01*
X188966000Y214414000D01*
G75*
G02*
X189066000Y214314000I0J-100000D01*
G01*
X189066000Y214114000D01*
G75*
G02*
X188966000Y214014000I-100000J0D01*
G01*
X187591000Y214014000D01*
G75*
G02*
X187491000Y214114000I0J100000D01*
G01*
G37*
G36*
G01*
X187491000Y213614000D02*
X187491000Y213814000D01*
G75*
G02*
X187591000Y213914000I100000J0D01*
G01*
X188966000Y213914000D01*
G75*
G02*
X189066000Y213814000I0J-100000D01*
G01*
X189066000Y213614000D01*
G75*
G02*
X188966000Y213514000I-100000J0D01*
G01*
X187591000Y213514000D01*
G75*
G02*
X187491000Y213614000I0J100000D01*
G01*
G37*
G36*
G01*
X187491000Y213114000D02*
X187491000Y213314000D01*
G75*
G02*
X187591000Y213414000I100000J0D01*
G01*
X188966000Y213414000D01*
G75*
G02*
X189066000Y213314000I0J-100000D01*
G01*
X189066000Y213114000D01*
G75*
G02*
X188966000Y213014000I-100000J0D01*
G01*
X187591000Y213014000D01*
G75*
G02*
X187491000Y213114000I0J100000D01*
G01*
G37*
G36*
G01*
X187491000Y212614000D02*
X187491000Y212814000D01*
G75*
G02*
X187591000Y212914000I100000J0D01*
G01*
X188966000Y212914000D01*
G75*
G02*
X189066000Y212814000I0J-100000D01*
G01*
X189066000Y212614000D01*
G75*
G02*
X188966000Y212514000I-100000J0D01*
G01*
X187591000Y212514000D01*
G75*
G02*
X187491000Y212614000I0J100000D01*
G01*
G37*
G36*
G01*
X187491000Y212114000D02*
X187491000Y212314000D01*
G75*
G02*
X187591000Y212414000I100000J0D01*
G01*
X188966000Y212414000D01*
G75*
G02*
X189066000Y212314000I0J-100000D01*
G01*
X189066000Y212114000D01*
G75*
G02*
X188966000Y212014000I-100000J0D01*
G01*
X187591000Y212014000D01*
G75*
G02*
X187491000Y212114000I0J100000D01*
G01*
G37*
G36*
G01*
X186666000Y210114000D02*
X186666000Y211489000D01*
G75*
G02*
X186766000Y211589000I100000J0D01*
G01*
X186966000Y211589000D01*
G75*
G02*
X187066000Y211489000I0J-100000D01*
G01*
X187066000Y210114000D01*
G75*
G02*
X186966000Y210014000I-100000J0D01*
G01*
X186766000Y210014000D01*
G75*
G02*
X186666000Y210114000I0J100000D01*
G01*
G37*
G36*
G01*
X186166000Y210114000D02*
X186166000Y211489000D01*
G75*
G02*
X186266000Y211589000I100000J0D01*
G01*
X186466000Y211589000D01*
G75*
G02*
X186566000Y211489000I0J-100000D01*
G01*
X186566000Y210114000D01*
G75*
G02*
X186466000Y210014000I-100000J0D01*
G01*
X186266000Y210014000D01*
G75*
G02*
X186166000Y210114000I0J100000D01*
G01*
G37*
G36*
G01*
X185666000Y210114000D02*
X185666000Y211489000D01*
G75*
G02*
X185766000Y211589000I100000J0D01*
G01*
X185966000Y211589000D01*
G75*
G02*
X186066000Y211489000I0J-100000D01*
G01*
X186066000Y210114000D01*
G75*
G02*
X185966000Y210014000I-100000J0D01*
G01*
X185766000Y210014000D01*
G75*
G02*
X185666000Y210114000I0J100000D01*
G01*
G37*
G36*
G01*
X185166000Y210114000D02*
X185166000Y211489000D01*
G75*
G02*
X185266000Y211589000I100000J0D01*
G01*
X185466000Y211589000D01*
G75*
G02*
X185566000Y211489000I0J-100000D01*
G01*
X185566000Y210114000D01*
G75*
G02*
X185466000Y210014000I-100000J0D01*
G01*
X185266000Y210014000D01*
G75*
G02*
X185166000Y210114000I0J100000D01*
G01*
G37*
G36*
G01*
X184666000Y210114000D02*
X184666000Y211489000D01*
G75*
G02*
X184766000Y211589000I100000J0D01*
G01*
X184966000Y211589000D01*
G75*
G02*
X185066000Y211489000I0J-100000D01*
G01*
X185066000Y210114000D01*
G75*
G02*
X184966000Y210014000I-100000J0D01*
G01*
X184766000Y210014000D01*
G75*
G02*
X184666000Y210114000I0J100000D01*
G01*
G37*
G36*
G01*
X184166000Y210114000D02*
X184166000Y211489000D01*
G75*
G02*
X184266000Y211589000I100000J0D01*
G01*
X184466000Y211589000D01*
G75*
G02*
X184566000Y211489000I0J-100000D01*
G01*
X184566000Y210114000D01*
G75*
G02*
X184466000Y210014000I-100000J0D01*
G01*
X184266000Y210014000D01*
G75*
G02*
X184166000Y210114000I0J100000D01*
G01*
G37*
G36*
G01*
X183666000Y210114000D02*
X183666000Y211489000D01*
G75*
G02*
X183766000Y211589000I100000J0D01*
G01*
X183966000Y211589000D01*
G75*
G02*
X184066000Y211489000I0J-100000D01*
G01*
X184066000Y210114000D01*
G75*
G02*
X183966000Y210014000I-100000J0D01*
G01*
X183766000Y210014000D01*
G75*
G02*
X183666000Y210114000I0J100000D01*
G01*
G37*
G36*
G01*
X183166000Y210114000D02*
X183166000Y211489000D01*
G75*
G02*
X183266000Y211589000I100000J0D01*
G01*
X183466000Y211589000D01*
G75*
G02*
X183566000Y211489000I0J-100000D01*
G01*
X183566000Y210114000D01*
G75*
G02*
X183466000Y210014000I-100000J0D01*
G01*
X183266000Y210014000D01*
G75*
G02*
X183166000Y210114000I0J100000D01*
G01*
G37*
G36*
G01*
X182666000Y210114000D02*
X182666000Y211489000D01*
G75*
G02*
X182766000Y211589000I100000J0D01*
G01*
X182966000Y211589000D01*
G75*
G02*
X183066000Y211489000I0J-100000D01*
G01*
X183066000Y210114000D01*
G75*
G02*
X182966000Y210014000I-100000J0D01*
G01*
X182766000Y210014000D01*
G75*
G02*
X182666000Y210114000I0J100000D01*
G01*
G37*
G36*
G01*
X182166000Y210114000D02*
X182166000Y211489000D01*
G75*
G02*
X182266000Y211589000I100000J0D01*
G01*
X182466000Y211589000D01*
G75*
G02*
X182566000Y211489000I0J-100000D01*
G01*
X182566000Y210114000D01*
G75*
G02*
X182466000Y210014000I-100000J0D01*
G01*
X182266000Y210014000D01*
G75*
G02*
X182166000Y210114000I0J100000D01*
G01*
G37*
G36*
G01*
X181666000Y210114000D02*
X181666000Y211489000D01*
G75*
G02*
X181766000Y211589000I100000J0D01*
G01*
X181966000Y211589000D01*
G75*
G02*
X182066000Y211489000I0J-100000D01*
G01*
X182066000Y210114000D01*
G75*
G02*
X181966000Y210014000I-100000J0D01*
G01*
X181766000Y210014000D01*
G75*
G02*
X181666000Y210114000I0J100000D01*
G01*
G37*
G36*
G01*
X181166000Y210114000D02*
X181166000Y211489000D01*
G75*
G02*
X181266000Y211589000I100000J0D01*
G01*
X181466000Y211589000D01*
G75*
G02*
X181566000Y211489000I0J-100000D01*
G01*
X181566000Y210114000D01*
G75*
G02*
X181466000Y210014000I-100000J0D01*
G01*
X181266000Y210014000D01*
G75*
G02*
X181166000Y210114000I0J100000D01*
G01*
G37*
G36*
G01*
X179166000Y212114000D02*
X179166000Y212314000D01*
G75*
G02*
X179266000Y212414000I100000J0D01*
G01*
X180641000Y212414000D01*
G75*
G02*
X180741000Y212314000I0J-100000D01*
G01*
X180741000Y212114000D01*
G75*
G02*
X180641000Y212014000I-100000J0D01*
G01*
X179266000Y212014000D01*
G75*
G02*
X179166000Y212114000I0J100000D01*
G01*
G37*
G36*
G01*
X179166000Y212614000D02*
X179166000Y212814000D01*
G75*
G02*
X179266000Y212914000I100000J0D01*
G01*
X180641000Y212914000D01*
G75*
G02*
X180741000Y212814000I0J-100000D01*
G01*
X180741000Y212614000D01*
G75*
G02*
X180641000Y212514000I-100000J0D01*
G01*
X179266000Y212514000D01*
G75*
G02*
X179166000Y212614000I0J100000D01*
G01*
G37*
G36*
G01*
X179166000Y213114000D02*
X179166000Y213314000D01*
G75*
G02*
X179266000Y213414000I100000J0D01*
G01*
X180641000Y213414000D01*
G75*
G02*
X180741000Y213314000I0J-100000D01*
G01*
X180741000Y213114000D01*
G75*
G02*
X180641000Y213014000I-100000J0D01*
G01*
X179266000Y213014000D01*
G75*
G02*
X179166000Y213114000I0J100000D01*
G01*
G37*
G36*
G01*
X179166000Y213614000D02*
X179166000Y213814000D01*
G75*
G02*
X179266000Y213914000I100000J0D01*
G01*
X180641000Y213914000D01*
G75*
G02*
X180741000Y213814000I0J-100000D01*
G01*
X180741000Y213614000D01*
G75*
G02*
X180641000Y213514000I-100000J0D01*
G01*
X179266000Y213514000D01*
G75*
G02*
X179166000Y213614000I0J100000D01*
G01*
G37*
G36*
G01*
X179166000Y214114000D02*
X179166000Y214314000D01*
G75*
G02*
X179266000Y214414000I100000J0D01*
G01*
X180641000Y214414000D01*
G75*
G02*
X180741000Y214314000I0J-100000D01*
G01*
X180741000Y214114000D01*
G75*
G02*
X180641000Y214014000I-100000J0D01*
G01*
X179266000Y214014000D01*
G75*
G02*
X179166000Y214114000I0J100000D01*
G01*
G37*
G36*
G01*
X179166000Y214614000D02*
X179166000Y214814000D01*
G75*
G02*
X179266000Y214914000I100000J0D01*
G01*
X180641000Y214914000D01*
G75*
G02*
X180741000Y214814000I0J-100000D01*
G01*
X180741000Y214614000D01*
G75*
G02*
X180641000Y214514000I-100000J0D01*
G01*
X179266000Y214514000D01*
G75*
G02*
X179166000Y214614000I0J100000D01*
G01*
G37*
G36*
G01*
X179166000Y215114000D02*
X179166000Y215314000D01*
G75*
G02*
X179266000Y215414000I100000J0D01*
G01*
X180641000Y215414000D01*
G75*
G02*
X180741000Y215314000I0J-100000D01*
G01*
X180741000Y215114000D01*
G75*
G02*
X180641000Y215014000I-100000J0D01*
G01*
X179266000Y215014000D01*
G75*
G02*
X179166000Y215114000I0J100000D01*
G01*
G37*
G36*
G01*
X179166000Y215614000D02*
X179166000Y215814000D01*
G75*
G02*
X179266000Y215914000I100000J0D01*
G01*
X180641000Y215914000D01*
G75*
G02*
X180741000Y215814000I0J-100000D01*
G01*
X180741000Y215614000D01*
G75*
G02*
X180641000Y215514000I-100000J0D01*
G01*
X179266000Y215514000D01*
G75*
G02*
X179166000Y215614000I0J100000D01*
G01*
G37*
G36*
G01*
X179166000Y216114000D02*
X179166000Y216314000D01*
G75*
G02*
X179266000Y216414000I100000J0D01*
G01*
X180641000Y216414000D01*
G75*
G02*
X180741000Y216314000I0J-100000D01*
G01*
X180741000Y216114000D01*
G75*
G02*
X180641000Y216014000I-100000J0D01*
G01*
X179266000Y216014000D01*
G75*
G02*
X179166000Y216114000I0J100000D01*
G01*
G37*
G36*
G01*
X179166000Y216614000D02*
X179166000Y216814000D01*
G75*
G02*
X179266000Y216914000I100000J0D01*
G01*
X180641000Y216914000D01*
G75*
G02*
X180741000Y216814000I0J-100000D01*
G01*
X180741000Y216614000D01*
G75*
G02*
X180641000Y216514000I-100000J0D01*
G01*
X179266000Y216514000D01*
G75*
G02*
X179166000Y216614000I0J100000D01*
G01*
G37*
G36*
G01*
X179166000Y217114000D02*
X179166000Y217314000D01*
G75*
G02*
X179266000Y217414000I100000J0D01*
G01*
X180641000Y217414000D01*
G75*
G02*
X180741000Y217314000I0J-100000D01*
G01*
X180741000Y217114000D01*
G75*
G02*
X180641000Y217014000I-100000J0D01*
G01*
X179266000Y217014000D01*
G75*
G02*
X179166000Y217114000I0J100000D01*
G01*
G37*
G36*
G01*
X179166000Y217614000D02*
X179166000Y217814000D01*
G75*
G02*
X179266000Y217914000I100000J0D01*
G01*
X180641000Y217914000D01*
G75*
G02*
X180741000Y217814000I0J-100000D01*
G01*
X180741000Y217614000D01*
G75*
G02*
X180641000Y217514000I-100000J0D01*
G01*
X179266000Y217514000D01*
G75*
G02*
X179166000Y217614000I0J100000D01*
G01*
G37*
%TD*%
%TO.C,LD1*%
G36*
G01*
X134051250Y190502000D02*
X133088750Y190502000D01*
G75*
G02*
X132820000Y190770750I0J268750D01*
G01*
X132820000Y191308250D01*
G75*
G02*
X133088750Y191577000I268750J0D01*
G01*
X134051250Y191577000D01*
G75*
G02*
X134320000Y191308250I0J-268750D01*
G01*
X134320000Y190770750D01*
G75*
G02*
X134051250Y190502000I-268750J0D01*
G01*
G37*
G36*
G01*
X134051250Y192377000D02*
X133088750Y192377000D01*
G75*
G02*
X132820000Y192645750I0J268750D01*
G01*
X132820000Y193183250D01*
G75*
G02*
X133088750Y193452000I268750J0D01*
G01*
X134051250Y193452000D01*
G75*
G02*
X134320000Y193183250I0J-268750D01*
G01*
X134320000Y192645750D01*
G75*
G02*
X134051250Y192377000I-268750J0D01*
G01*
G37*
%TD*%
%TO.C,LD2*%
G36*
G01*
X136210250Y192386000D02*
X135247750Y192386000D01*
G75*
G02*
X134979000Y192654750I0J268750D01*
G01*
X134979000Y193192250D01*
G75*
G02*
X135247750Y193461000I268750J0D01*
G01*
X136210250Y193461000D01*
G75*
G02*
X136479000Y193192250I0J-268750D01*
G01*
X136479000Y192654750D01*
G75*
G02*
X136210250Y192386000I-268750J0D01*
G01*
G37*
G36*
G01*
X136210250Y190511000D02*
X135247750Y190511000D01*
G75*
G02*
X134979000Y190779750I0J268750D01*
G01*
X134979000Y191317250D01*
G75*
G02*
X135247750Y191586000I268750J0D01*
G01*
X136210250Y191586000D01*
G75*
G02*
X136479000Y191317250I0J-268750D01*
G01*
X136479000Y190779750D01*
G75*
G02*
X136210250Y190511000I-268750J0D01*
G01*
G37*
%TD*%
%TO.C,LD3*%
G36*
G01*
X138369250Y190511000D02*
X137406750Y190511000D01*
G75*
G02*
X137138000Y190779750I0J268750D01*
G01*
X137138000Y191317250D01*
G75*
G02*
X137406750Y191586000I268750J0D01*
G01*
X138369250Y191586000D01*
G75*
G02*
X138638000Y191317250I0J-268750D01*
G01*
X138638000Y190779750D01*
G75*
G02*
X138369250Y190511000I-268750J0D01*
G01*
G37*
G36*
G01*
X138369250Y192386000D02*
X137406750Y192386000D01*
G75*
G02*
X137138000Y192654750I0J268750D01*
G01*
X137138000Y193192250D01*
G75*
G02*
X137406750Y193461000I268750J0D01*
G01*
X138369250Y193461000D01*
G75*
G02*
X138638000Y193192250I0J-268750D01*
G01*
X138638000Y192654750D01*
G75*
G02*
X138369250Y192386000I-268750J0D01*
G01*
G37*
%TD*%
%TO.C,LD4*%
G36*
G01*
X140528250Y192386000D02*
X139565750Y192386000D01*
G75*
G02*
X139297000Y192654750I0J268750D01*
G01*
X139297000Y193192250D01*
G75*
G02*
X139565750Y193461000I268750J0D01*
G01*
X140528250Y193461000D01*
G75*
G02*
X140797000Y193192250I0J-268750D01*
G01*
X140797000Y192654750D01*
G75*
G02*
X140528250Y192386000I-268750J0D01*
G01*
G37*
G36*
G01*
X140528250Y190511000D02*
X139565750Y190511000D01*
G75*
G02*
X139297000Y190779750I0J268750D01*
G01*
X139297000Y191317250D01*
G75*
G02*
X139565750Y191586000I268750J0D01*
G01*
X140528250Y191586000D01*
G75*
G02*
X140797000Y191317250I0J-268750D01*
G01*
X140797000Y190779750D01*
G75*
G02*
X140528250Y190511000I-268750J0D01*
G01*
G37*
%TD*%
%TO.C,LD5*%
G36*
G01*
X142687250Y192386000D02*
X141724750Y192386000D01*
G75*
G02*
X141456000Y192654750I0J268750D01*
G01*
X141456000Y193192250D01*
G75*
G02*
X141724750Y193461000I268750J0D01*
G01*
X142687250Y193461000D01*
G75*
G02*
X142956000Y193192250I0J-268750D01*
G01*
X142956000Y192654750D01*
G75*
G02*
X142687250Y192386000I-268750J0D01*
G01*
G37*
G36*
G01*
X142687250Y190511000D02*
X141724750Y190511000D01*
G75*
G02*
X141456000Y190779750I0J268750D01*
G01*
X141456000Y191317250D01*
G75*
G02*
X141724750Y191586000I268750J0D01*
G01*
X142687250Y191586000D01*
G75*
G02*
X142956000Y191317250I0J-268750D01*
G01*
X142956000Y190779750D01*
G75*
G02*
X142687250Y190511000I-268750J0D01*
G01*
G37*
%TD*%
%TO.C,LD6*%
G36*
G01*
X144846250Y190511000D02*
X143883750Y190511000D01*
G75*
G02*
X143615000Y190779750I0J268750D01*
G01*
X143615000Y191317250D01*
G75*
G02*
X143883750Y191586000I268750J0D01*
G01*
X144846250Y191586000D01*
G75*
G02*
X145115000Y191317250I0J-268750D01*
G01*
X145115000Y190779750D01*
G75*
G02*
X144846250Y190511000I-268750J0D01*
G01*
G37*
G36*
G01*
X144846250Y192386000D02*
X143883750Y192386000D01*
G75*
G02*
X143615000Y192654750I0J268750D01*
G01*
X143615000Y193192250D01*
G75*
G02*
X143883750Y193461000I268750J0D01*
G01*
X144846250Y193461000D01*
G75*
G02*
X145115000Y193192250I0J-268750D01*
G01*
X145115000Y192654750D01*
G75*
G02*
X144846250Y192386000I-268750J0D01*
G01*
G37*
%TD*%
%TO.C,LD7*%
G36*
G01*
X147005250Y192386000D02*
X146042750Y192386000D01*
G75*
G02*
X145774000Y192654750I0J268750D01*
G01*
X145774000Y193192250D01*
G75*
G02*
X146042750Y193461000I268750J0D01*
G01*
X147005250Y193461000D01*
G75*
G02*
X147274000Y193192250I0J-268750D01*
G01*
X147274000Y192654750D01*
G75*
G02*
X147005250Y192386000I-268750J0D01*
G01*
G37*
G36*
G01*
X147005250Y190511000D02*
X146042750Y190511000D01*
G75*
G02*
X145774000Y190779750I0J268750D01*
G01*
X145774000Y191317250D01*
G75*
G02*
X146042750Y191586000I268750J0D01*
G01*
X147005250Y191586000D01*
G75*
G02*
X147274000Y191317250I0J-268750D01*
G01*
X147274000Y190779750D01*
G75*
G02*
X147005250Y190511000I-268750J0D01*
G01*
G37*
%TD*%
%TO.C,LD8*%
G36*
G01*
X149164250Y190511000D02*
X148201750Y190511000D01*
G75*
G02*
X147933000Y190779750I0J268750D01*
G01*
X147933000Y191317250D01*
G75*
G02*
X148201750Y191586000I268750J0D01*
G01*
X149164250Y191586000D01*
G75*
G02*
X149433000Y191317250I0J-268750D01*
G01*
X149433000Y190779750D01*
G75*
G02*
X149164250Y190511000I-268750J0D01*
G01*
G37*
G36*
G01*
X149164250Y192386000D02*
X148201750Y192386000D01*
G75*
G02*
X147933000Y192654750I0J268750D01*
G01*
X147933000Y193192250D01*
G75*
G02*
X148201750Y193461000I268750J0D01*
G01*
X149164250Y193461000D01*
G75*
G02*
X149433000Y193192250I0J-268750D01*
G01*
X149433000Y192654750D01*
G75*
G02*
X149164250Y192386000I-268750J0D01*
G01*
G37*
%TD*%
%TO.C,LD9*%
G36*
G01*
X151323250Y192386000D02*
X150360750Y192386000D01*
G75*
G02*
X150092000Y192654750I0J268750D01*
G01*
X150092000Y193192250D01*
G75*
G02*
X150360750Y193461000I268750J0D01*
G01*
X151323250Y193461000D01*
G75*
G02*
X151592000Y193192250I0J-268750D01*
G01*
X151592000Y192654750D01*
G75*
G02*
X151323250Y192386000I-268750J0D01*
G01*
G37*
G36*
G01*
X151323250Y190511000D02*
X150360750Y190511000D01*
G75*
G02*
X150092000Y190779750I0J268750D01*
G01*
X150092000Y191317250D01*
G75*
G02*
X150360750Y191586000I268750J0D01*
G01*
X151323250Y191586000D01*
G75*
G02*
X151592000Y191317250I0J-268750D01*
G01*
X151592000Y190779750D01*
G75*
G02*
X151323250Y190511000I-268750J0D01*
G01*
G37*
%TD*%
%TO.C,LD10*%
G36*
G01*
X153482250Y190502000D02*
X152519750Y190502000D01*
G75*
G02*
X152251000Y190770750I0J268750D01*
G01*
X152251000Y191308250D01*
G75*
G02*
X152519750Y191577000I268750J0D01*
G01*
X153482250Y191577000D01*
G75*
G02*
X153751000Y191308250I0J-268750D01*
G01*
X153751000Y190770750D01*
G75*
G02*
X153482250Y190502000I-268750J0D01*
G01*
G37*
G36*
G01*
X153482250Y192377000D02*
X152519750Y192377000D01*
G75*
G02*
X152251000Y192645750I0J268750D01*
G01*
X152251000Y193183250D01*
G75*
G02*
X152519750Y193452000I268750J0D01*
G01*
X153482250Y193452000D01*
G75*
G02*
X153751000Y193183250I0J-268750D01*
G01*
X153751000Y192645750D01*
G75*
G02*
X153482250Y192377000I-268750J0D01*
G01*
G37*
%TD*%
%TO.C,LD11*%
G36*
G01*
X155641250Y192386000D02*
X154678750Y192386000D01*
G75*
G02*
X154410000Y192654750I0J268750D01*
G01*
X154410000Y193192250D01*
G75*
G02*
X154678750Y193461000I268750J0D01*
G01*
X155641250Y193461000D01*
G75*
G02*
X155910000Y193192250I0J-268750D01*
G01*
X155910000Y192654750D01*
G75*
G02*
X155641250Y192386000I-268750J0D01*
G01*
G37*
G36*
G01*
X155641250Y190511000D02*
X154678750Y190511000D01*
G75*
G02*
X154410000Y190779750I0J268750D01*
G01*
X154410000Y191317250D01*
G75*
G02*
X154678750Y191586000I268750J0D01*
G01*
X155641250Y191586000D01*
G75*
G02*
X155910000Y191317250I0J-268750D01*
G01*
X155910000Y190779750D01*
G75*
G02*
X155641250Y190511000I-268750J0D01*
G01*
G37*
%TD*%
%TO.C,LD12*%
G36*
G01*
X157800250Y190511000D02*
X156837750Y190511000D01*
G75*
G02*
X156569000Y190779750I0J268750D01*
G01*
X156569000Y191317250D01*
G75*
G02*
X156837750Y191586000I268750J0D01*
G01*
X157800250Y191586000D01*
G75*
G02*
X158069000Y191317250I0J-268750D01*
G01*
X158069000Y190779750D01*
G75*
G02*
X157800250Y190511000I-268750J0D01*
G01*
G37*
G36*
G01*
X157800250Y192386000D02*
X156837750Y192386000D01*
G75*
G02*
X156569000Y192654750I0J268750D01*
G01*
X156569000Y193192250D01*
G75*
G02*
X156837750Y193461000I268750J0D01*
G01*
X157800250Y193461000D01*
G75*
G02*
X158069000Y193192250I0J-268750D01*
G01*
X158069000Y192654750D01*
G75*
G02*
X157800250Y192386000I-268750J0D01*
G01*
G37*
%TD*%
%TO.C,LD13*%
G36*
G01*
X159959250Y192386000D02*
X158996750Y192386000D01*
G75*
G02*
X158728000Y192654750I0J268750D01*
G01*
X158728000Y193192250D01*
G75*
G02*
X158996750Y193461000I268750J0D01*
G01*
X159959250Y193461000D01*
G75*
G02*
X160228000Y193192250I0J-268750D01*
G01*
X160228000Y192654750D01*
G75*
G02*
X159959250Y192386000I-268750J0D01*
G01*
G37*
G36*
G01*
X159959250Y190511000D02*
X158996750Y190511000D01*
G75*
G02*
X158728000Y190779750I0J268750D01*
G01*
X158728000Y191317250D01*
G75*
G02*
X158996750Y191586000I268750J0D01*
G01*
X159959250Y191586000D01*
G75*
G02*
X160228000Y191317250I0J-268750D01*
G01*
X160228000Y190779750D01*
G75*
G02*
X159959250Y190511000I-268750J0D01*
G01*
G37*
%TD*%
%TO.C,LD14*%
G36*
G01*
X162118250Y190511000D02*
X161155750Y190511000D01*
G75*
G02*
X160887000Y190779750I0J268750D01*
G01*
X160887000Y191317250D01*
G75*
G02*
X161155750Y191586000I268750J0D01*
G01*
X162118250Y191586000D01*
G75*
G02*
X162387000Y191317250I0J-268750D01*
G01*
X162387000Y190779750D01*
G75*
G02*
X162118250Y190511000I-268750J0D01*
G01*
G37*
G36*
G01*
X162118250Y192386000D02*
X161155750Y192386000D01*
G75*
G02*
X160887000Y192654750I0J268750D01*
G01*
X160887000Y193192250D01*
G75*
G02*
X161155750Y193461000I268750J0D01*
G01*
X162118250Y193461000D01*
G75*
G02*
X162387000Y193192250I0J-268750D01*
G01*
X162387000Y192654750D01*
G75*
G02*
X162118250Y192386000I-268750J0D01*
G01*
G37*
%TD*%
%TO.C,LD15*%
G36*
G01*
X164277250Y192377000D02*
X163314750Y192377000D01*
G75*
G02*
X163046000Y192645750I0J268750D01*
G01*
X163046000Y193183250D01*
G75*
G02*
X163314750Y193452000I268750J0D01*
G01*
X164277250Y193452000D01*
G75*
G02*
X164546000Y193183250I0J-268750D01*
G01*
X164546000Y192645750D01*
G75*
G02*
X164277250Y192377000I-268750J0D01*
G01*
G37*
G36*
G01*
X164277250Y190502000D02*
X163314750Y190502000D01*
G75*
G02*
X163046000Y190770750I0J268750D01*
G01*
X163046000Y191308250D01*
G75*
G02*
X163314750Y191577000I268750J0D01*
G01*
X164277250Y191577000D01*
G75*
G02*
X164546000Y191308250I0J-268750D01*
G01*
X164546000Y190770750D01*
G75*
G02*
X164277250Y190502000I-268750J0D01*
G01*
G37*
%TD*%
%TO.C,LD16*%
G36*
G01*
X166436250Y190511000D02*
X165473750Y190511000D01*
G75*
G02*
X165205000Y190779750I0J268750D01*
G01*
X165205000Y191317250D01*
G75*
G02*
X165473750Y191586000I268750J0D01*
G01*
X166436250Y191586000D01*
G75*
G02*
X166705000Y191317250I0J-268750D01*
G01*
X166705000Y190779750D01*
G75*
G02*
X166436250Y190511000I-268750J0D01*
G01*
G37*
G36*
G01*
X166436250Y192386000D02*
X165473750Y192386000D01*
G75*
G02*
X165205000Y192654750I0J268750D01*
G01*
X165205000Y193192250D01*
G75*
G02*
X165473750Y193461000I268750J0D01*
G01*
X166436250Y193461000D01*
G75*
G02*
X166705000Y193192250I0J-268750D01*
G01*
X166705000Y192654750D01*
G75*
G02*
X166436250Y192386000I-268750J0D01*
G01*
G37*
%TD*%
%TO.C,LD17*%
G36*
G01*
X168595250Y192368000D02*
X167632750Y192368000D01*
G75*
G02*
X167364000Y192636750I0J268750D01*
G01*
X167364000Y193174250D01*
G75*
G02*
X167632750Y193443000I268750J0D01*
G01*
X168595250Y193443000D01*
G75*
G02*
X168864000Y193174250I0J-268750D01*
G01*
X168864000Y192636750D01*
G75*
G02*
X168595250Y192368000I-268750J0D01*
G01*
G37*
G36*
G01*
X168595250Y190493000D02*
X167632750Y190493000D01*
G75*
G02*
X167364000Y190761750I0J268750D01*
G01*
X167364000Y191299250D01*
G75*
G02*
X167632750Y191568000I268750J0D01*
G01*
X168595250Y191568000D01*
G75*
G02*
X168864000Y191299250I0J-268750D01*
G01*
X168864000Y190761750D01*
G75*
G02*
X168595250Y190493000I-268750J0D01*
G01*
G37*
%TD*%
%TO.C,LD18*%
G36*
G01*
X170754250Y190493000D02*
X169791750Y190493000D01*
G75*
G02*
X169523000Y190761750I0J268750D01*
G01*
X169523000Y191299250D01*
G75*
G02*
X169791750Y191568000I268750J0D01*
G01*
X170754250Y191568000D01*
G75*
G02*
X171023000Y191299250I0J-268750D01*
G01*
X171023000Y190761750D01*
G75*
G02*
X170754250Y190493000I-268750J0D01*
G01*
G37*
G36*
G01*
X170754250Y192368000D02*
X169791750Y192368000D01*
G75*
G02*
X169523000Y192636750I0J268750D01*
G01*
X169523000Y193174250D01*
G75*
G02*
X169791750Y193443000I268750J0D01*
G01*
X170754250Y193443000D01*
G75*
G02*
X171023000Y193174250I0J-268750D01*
G01*
X171023000Y192636750D01*
G75*
G02*
X170754250Y192368000I-268750J0D01*
G01*
G37*
%TD*%
%TO.C,LD19*%
G36*
G01*
X172913250Y192368000D02*
X171950750Y192368000D01*
G75*
G02*
X171682000Y192636750I0J268750D01*
G01*
X171682000Y193174250D01*
G75*
G02*
X171950750Y193443000I268750J0D01*
G01*
X172913250Y193443000D01*
G75*
G02*
X173182000Y193174250I0J-268750D01*
G01*
X173182000Y192636750D01*
G75*
G02*
X172913250Y192368000I-268750J0D01*
G01*
G37*
G36*
G01*
X172913250Y190493000D02*
X171950750Y190493000D01*
G75*
G02*
X171682000Y190761750I0J268750D01*
G01*
X171682000Y191299250D01*
G75*
G02*
X171950750Y191568000I268750J0D01*
G01*
X172913250Y191568000D01*
G75*
G02*
X173182000Y191299250I0J-268750D01*
G01*
X173182000Y190761750D01*
G75*
G02*
X172913250Y190493000I-268750J0D01*
G01*
G37*
%TD*%
%TO.C,LD20*%
G36*
G01*
X175072250Y190502000D02*
X174109750Y190502000D01*
G75*
G02*
X173841000Y190770750I0J268750D01*
G01*
X173841000Y191308250D01*
G75*
G02*
X174109750Y191577000I268750J0D01*
G01*
X175072250Y191577000D01*
G75*
G02*
X175341000Y191308250I0J-268750D01*
G01*
X175341000Y190770750D01*
G75*
G02*
X175072250Y190502000I-268750J0D01*
G01*
G37*
G36*
G01*
X175072250Y192377000D02*
X174109750Y192377000D01*
G75*
G02*
X173841000Y192645750I0J268750D01*
G01*
X173841000Y193183250D01*
G75*
G02*
X174109750Y193452000I268750J0D01*
G01*
X175072250Y193452000D01*
G75*
G02*
X175341000Y193183250I0J-268750D01*
G01*
X175341000Y192645750D01*
G75*
G02*
X175072250Y192377000I-268750J0D01*
G01*
G37*
%TD*%
%TO.C,LD21*%
G36*
G01*
X177231250Y192386000D02*
X176268750Y192386000D01*
G75*
G02*
X176000000Y192654750I0J268750D01*
G01*
X176000000Y193192250D01*
G75*
G02*
X176268750Y193461000I268750J0D01*
G01*
X177231250Y193461000D01*
G75*
G02*
X177500000Y193192250I0J-268750D01*
G01*
X177500000Y192654750D01*
G75*
G02*
X177231250Y192386000I-268750J0D01*
G01*
G37*
G36*
G01*
X177231250Y190511000D02*
X176268750Y190511000D01*
G75*
G02*
X176000000Y190779750I0J268750D01*
G01*
X176000000Y191317250D01*
G75*
G02*
X176268750Y191586000I268750J0D01*
G01*
X177231250Y191586000D01*
G75*
G02*
X177500000Y191317250I0J-268750D01*
G01*
X177500000Y190779750D01*
G75*
G02*
X177231250Y190511000I-268750J0D01*
G01*
G37*
%TD*%
%TO.C,LD22*%
G36*
G01*
X179390250Y190493000D02*
X178427750Y190493000D01*
G75*
G02*
X178159000Y190761750I0J268750D01*
G01*
X178159000Y191299250D01*
G75*
G02*
X178427750Y191568000I268750J0D01*
G01*
X179390250Y191568000D01*
G75*
G02*
X179659000Y191299250I0J-268750D01*
G01*
X179659000Y190761750D01*
G75*
G02*
X179390250Y190493000I-268750J0D01*
G01*
G37*
G36*
G01*
X179390250Y192368000D02*
X178427750Y192368000D01*
G75*
G02*
X178159000Y192636750I0J268750D01*
G01*
X178159000Y193174250D01*
G75*
G02*
X178427750Y193443000I268750J0D01*
G01*
X179390250Y193443000D01*
G75*
G02*
X179659000Y193174250I0J-268750D01*
G01*
X179659000Y192636750D01*
G75*
G02*
X179390250Y192368000I-268750J0D01*
G01*
G37*
%TD*%
%TO.C,LD23*%
G36*
G01*
X181549250Y192368000D02*
X180586750Y192368000D01*
G75*
G02*
X180318000Y192636750I0J268750D01*
G01*
X180318000Y193174250D01*
G75*
G02*
X180586750Y193443000I268750J0D01*
G01*
X181549250Y193443000D01*
G75*
G02*
X181818000Y193174250I0J-268750D01*
G01*
X181818000Y192636750D01*
G75*
G02*
X181549250Y192368000I-268750J0D01*
G01*
G37*
G36*
G01*
X181549250Y190493000D02*
X180586750Y190493000D01*
G75*
G02*
X180318000Y190761750I0J268750D01*
G01*
X180318000Y191299250D01*
G75*
G02*
X180586750Y191568000I268750J0D01*
G01*
X181549250Y191568000D01*
G75*
G02*
X181818000Y191299250I0J-268750D01*
G01*
X181818000Y190761750D01*
G75*
G02*
X181549250Y190493000I-268750J0D01*
G01*
G37*
%TD*%
%TO.C,LD24*%
G36*
G01*
X183708250Y190511000D02*
X182745750Y190511000D01*
G75*
G02*
X182477000Y190779750I0J268750D01*
G01*
X182477000Y191317250D01*
G75*
G02*
X182745750Y191586000I268750J0D01*
G01*
X183708250Y191586000D01*
G75*
G02*
X183977000Y191317250I0J-268750D01*
G01*
X183977000Y190779750D01*
G75*
G02*
X183708250Y190511000I-268750J0D01*
G01*
G37*
G36*
G01*
X183708250Y192386000D02*
X182745750Y192386000D01*
G75*
G02*
X182477000Y192654750I0J268750D01*
G01*
X182477000Y193192250D01*
G75*
G02*
X182745750Y193461000I268750J0D01*
G01*
X183708250Y193461000D01*
G75*
G02*
X183977000Y193192250I0J-268750D01*
G01*
X183977000Y192654750D01*
G75*
G02*
X183708250Y192386000I-268750J0D01*
G01*
G37*
%TD*%
%TO.C,LD25*%
G36*
G01*
X185867250Y192368000D02*
X184904750Y192368000D01*
G75*
G02*
X184636000Y192636750I0J268750D01*
G01*
X184636000Y193174250D01*
G75*
G02*
X184904750Y193443000I268750J0D01*
G01*
X185867250Y193443000D01*
G75*
G02*
X186136000Y193174250I0J-268750D01*
G01*
X186136000Y192636750D01*
G75*
G02*
X185867250Y192368000I-268750J0D01*
G01*
G37*
G36*
G01*
X185867250Y190493000D02*
X184904750Y190493000D01*
G75*
G02*
X184636000Y190761750I0J268750D01*
G01*
X184636000Y191299250D01*
G75*
G02*
X184904750Y191568000I268750J0D01*
G01*
X185867250Y191568000D01*
G75*
G02*
X186136000Y191299250I0J-268750D01*
G01*
X186136000Y190761750D01*
G75*
G02*
X185867250Y190493000I-268750J0D01*
G01*
G37*
%TD*%
%TO.C,LD26*%
G36*
G01*
X188026250Y190493000D02*
X187063750Y190493000D01*
G75*
G02*
X186795000Y190761750I0J268750D01*
G01*
X186795000Y191299250D01*
G75*
G02*
X187063750Y191568000I268750J0D01*
G01*
X188026250Y191568000D01*
G75*
G02*
X188295000Y191299250I0J-268750D01*
G01*
X188295000Y190761750D01*
G75*
G02*
X188026250Y190493000I-268750J0D01*
G01*
G37*
G36*
G01*
X188026250Y192368000D02*
X187063750Y192368000D01*
G75*
G02*
X186795000Y192636750I0J268750D01*
G01*
X186795000Y193174250D01*
G75*
G02*
X187063750Y193443000I268750J0D01*
G01*
X188026250Y193443000D01*
G75*
G02*
X188295000Y193174250I0J-268750D01*
G01*
X188295000Y192636750D01*
G75*
G02*
X188026250Y192368000I-268750J0D01*
G01*
G37*
%TD*%
%TO.C,LD27*%
G36*
G01*
X190185250Y192377000D02*
X189222750Y192377000D01*
G75*
G02*
X188954000Y192645750I0J268750D01*
G01*
X188954000Y193183250D01*
G75*
G02*
X189222750Y193452000I268750J0D01*
G01*
X190185250Y193452000D01*
G75*
G02*
X190454000Y193183250I0J-268750D01*
G01*
X190454000Y192645750D01*
G75*
G02*
X190185250Y192377000I-268750J0D01*
G01*
G37*
G36*
G01*
X190185250Y190502000D02*
X189222750Y190502000D01*
G75*
G02*
X188954000Y190770750I0J268750D01*
G01*
X188954000Y191308250D01*
G75*
G02*
X189222750Y191577000I268750J0D01*
G01*
X190185250Y191577000D01*
G75*
G02*
X190454000Y191308250I0J-268750D01*
G01*
X190454000Y190770750D01*
G75*
G02*
X190185250Y190502000I-268750J0D01*
G01*
G37*
%TD*%
%TO.C,LD28*%
G36*
G01*
X192344250Y190502000D02*
X191381750Y190502000D01*
G75*
G02*
X191113000Y190770750I0J268750D01*
G01*
X191113000Y191308250D01*
G75*
G02*
X191381750Y191577000I268750J0D01*
G01*
X192344250Y191577000D01*
G75*
G02*
X192613000Y191308250I0J-268750D01*
G01*
X192613000Y190770750D01*
G75*
G02*
X192344250Y190502000I-268750J0D01*
G01*
G37*
G36*
G01*
X192344250Y192377000D02*
X191381750Y192377000D01*
G75*
G02*
X191113000Y192645750I0J268750D01*
G01*
X191113000Y193183250D01*
G75*
G02*
X191381750Y193452000I268750J0D01*
G01*
X192344250Y193452000D01*
G75*
G02*
X192613000Y193183250I0J-268750D01*
G01*
X192613000Y192645750D01*
G75*
G02*
X192344250Y192377000I-268750J0D01*
G01*
G37*
%TD*%
%TO.C,LD29*%
G36*
G01*
X194503250Y192386000D02*
X193540750Y192386000D01*
G75*
G02*
X193272000Y192654750I0J268750D01*
G01*
X193272000Y193192250D01*
G75*
G02*
X193540750Y193461000I268750J0D01*
G01*
X194503250Y193461000D01*
G75*
G02*
X194772000Y193192250I0J-268750D01*
G01*
X194772000Y192654750D01*
G75*
G02*
X194503250Y192386000I-268750J0D01*
G01*
G37*
G36*
G01*
X194503250Y190511000D02*
X193540750Y190511000D01*
G75*
G02*
X193272000Y190779750I0J268750D01*
G01*
X193272000Y191317250D01*
G75*
G02*
X193540750Y191586000I268750J0D01*
G01*
X194503250Y191586000D01*
G75*
G02*
X194772000Y191317250I0J-268750D01*
G01*
X194772000Y190779750D01*
G75*
G02*
X194503250Y190511000I-268750J0D01*
G01*
G37*
%TD*%
%TO.C,LD30*%
G36*
G01*
X196535250Y190493000D02*
X195572750Y190493000D01*
G75*
G02*
X195304000Y190761750I0J268750D01*
G01*
X195304000Y191299250D01*
G75*
G02*
X195572750Y191568000I268750J0D01*
G01*
X196535250Y191568000D01*
G75*
G02*
X196804000Y191299250I0J-268750D01*
G01*
X196804000Y190761750D01*
G75*
G02*
X196535250Y190493000I-268750J0D01*
G01*
G37*
G36*
G01*
X196535250Y192368000D02*
X195572750Y192368000D01*
G75*
G02*
X195304000Y192636750I0J268750D01*
G01*
X195304000Y193174250D01*
G75*
G02*
X195572750Y193443000I268750J0D01*
G01*
X196535250Y193443000D01*
G75*
G02*
X196804000Y193174250I0J-268750D01*
G01*
X196804000Y192636750D01*
G75*
G02*
X196535250Y192368000I-268750J0D01*
G01*
G37*
%TD*%
%TO.C,LD31*%
G36*
G01*
X198567250Y192368000D02*
X197604750Y192368000D01*
G75*
G02*
X197336000Y192636750I0J268750D01*
G01*
X197336000Y193174250D01*
G75*
G02*
X197604750Y193443000I268750J0D01*
G01*
X198567250Y193443000D01*
G75*
G02*
X198836000Y193174250I0J-268750D01*
G01*
X198836000Y192636750D01*
G75*
G02*
X198567250Y192368000I-268750J0D01*
G01*
G37*
G36*
G01*
X198567250Y190493000D02*
X197604750Y190493000D01*
G75*
G02*
X197336000Y190761750I0J268750D01*
G01*
X197336000Y191299250D01*
G75*
G02*
X197604750Y191568000I268750J0D01*
G01*
X198567250Y191568000D01*
G75*
G02*
X198836000Y191299250I0J-268750D01*
G01*
X198836000Y190761750D01*
G75*
G02*
X198567250Y190493000I-268750J0D01*
G01*
G37*
%TD*%
%TO.C,LD32*%
G36*
G01*
X200599250Y190511000D02*
X199636750Y190511000D01*
G75*
G02*
X199368000Y190779750I0J268750D01*
G01*
X199368000Y191317250D01*
G75*
G02*
X199636750Y191586000I268750J0D01*
G01*
X200599250Y191586000D01*
G75*
G02*
X200868000Y191317250I0J-268750D01*
G01*
X200868000Y190779750D01*
G75*
G02*
X200599250Y190511000I-268750J0D01*
G01*
G37*
G36*
G01*
X200599250Y192386000D02*
X199636750Y192386000D01*
G75*
G02*
X199368000Y192654750I0J268750D01*
G01*
X199368000Y193192250D01*
G75*
G02*
X199636750Y193461000I268750J0D01*
G01*
X200599250Y193461000D01*
G75*
G02*
X200868000Y193192250I0J-268750D01*
G01*
X200868000Y192654750D01*
G75*
G02*
X200599250Y192386000I-268750J0D01*
G01*
G37*
%TD*%
D15*
X177562500Y199012500D03*
X163669000Y199089000D03*
X143222000Y199851000D03*
X163669000Y187913000D03*
X188307000Y206074000D03*
X186259998Y208750000D03*
X179587400Y222677400D03*
X140685000Y224125000D03*
X179747200Y220348800D03*
X183100000Y197692000D03*
X167606000Y205947000D03*
X149699000Y195787000D03*
X136643400Y208537800D03*
X181860000Y212950000D03*
X197455401Y210095401D03*
X190440600Y205997800D03*
X182769800Y208588600D03*
X178401000Y207591000D03*
X178172400Y202492600D03*
X176623000Y207591000D03*
X176623000Y203373000D03*
X180255200Y206836000D03*
X176597600Y201324200D03*
X183760000Y212800000D03*
X185301641Y212791641D03*
X190810000Y213750000D03*
X190810000Y214950000D03*
X190125463Y212401521D03*
M02*
