%TF.GenerationSoftware,KiCad,Pcbnew,(5.1.7)-1*%
%TF.CreationDate,2020-10-28T13:08:50+04:00*%
%TF.ProjectId,stm32-home-light,73746d33-322d-4686-9f6d-652d6c696768,rev?*%
%TF.SameCoordinates,Original*%
%TF.FileFunction,Paste,Top*%
%TF.FilePolarity,Positive*%
%FSLAX46Y46*%
G04 Gerber Fmt 4.6, Leading zero omitted, Abs format (unit mm)*
G04 Created by KiCad (PCBNEW (5.1.7)-1) date 2020-10-28 13:08:50*
%MOMM*%
%LPD*%
G01*
G04 APERTURE LIST*
%TA.AperFunction,Profile*%
%ADD10C,0.100000*%
%TD*%
%ADD11R,0.450000X1.500000*%
%ADD12R,2.750000X1.000000*%
%ADD13R,1.900000X0.400000*%
%ADD14R,1.060000X0.650000*%
%ADD15R,0.500000X0.800000*%
%ADD16R,0.400000X0.800000*%
G04 APERTURE END LIST*
D10*
X229760000Y227500000D02*
X229760000Y185500000D01*
X129760000Y227410000D02*
X229760000Y227500000D01*
X129760000Y185500000D02*
X129760000Y227410000D01*
X229760000Y185500000D02*
X129760000Y185500000D01*
X129760000Y185500000D02*
X129760000Y227500000D01*
X129760000Y227500000D02*
X229760000Y227500000D01*
D11*
%TO.C,J3*%
X198598600Y222927400D03*
X195998600Y222927400D03*
X197948600Y222927400D03*
X196648600Y222927400D03*
X197298600Y222927400D03*
%TD*%
%TO.C,R28*%
G36*
G01*
X207502202Y221866400D02*
X206602198Y221866400D01*
G75*
G02*
X206352200Y222116398I0J249998D01*
G01*
X206352200Y222641402D01*
G75*
G02*
X206602198Y222891400I249998J0D01*
G01*
X207502202Y222891400D01*
G75*
G02*
X207752200Y222641402I0J-249998D01*
G01*
X207752200Y222116398D01*
G75*
G02*
X207502202Y221866400I-249998J0D01*
G01*
G37*
G36*
G01*
X207502202Y220041400D02*
X206602198Y220041400D01*
G75*
G02*
X206352200Y220291398I0J249998D01*
G01*
X206352200Y220816402D01*
G75*
G02*
X206602198Y221066400I249998J0D01*
G01*
X207502202Y221066400D01*
G75*
G02*
X207752200Y220816402I0J-249998D01*
G01*
X207752200Y220291398D01*
G75*
G02*
X207502202Y220041400I-249998J0D01*
G01*
G37*
%TD*%
D12*
%TO.C,SW1*%
X135211200Y217751400D03*
X140971200Y217751400D03*
X140971200Y213751400D03*
X135211200Y213751400D03*
%TD*%
%TO.C,R36*%
G36*
G01*
X192785700Y220722602D02*
X192785700Y219822598D01*
G75*
G02*
X192535702Y219572600I-249998J0D01*
G01*
X192010698Y219572600D01*
G75*
G02*
X191760700Y219822598I0J249998D01*
G01*
X191760700Y220722602D01*
G75*
G02*
X192010698Y220972600I249998J0D01*
G01*
X192535702Y220972600D01*
G75*
G02*
X192785700Y220722602I0J-249998D01*
G01*
G37*
G36*
G01*
X194610700Y220722602D02*
X194610700Y219822598D01*
G75*
G02*
X194360702Y219572600I-249998J0D01*
G01*
X193835698Y219572600D01*
G75*
G02*
X193585700Y219822598I0J249998D01*
G01*
X193585700Y220722602D01*
G75*
G02*
X193835698Y220972600I249998J0D01*
G01*
X194360702Y220972600D01*
G75*
G02*
X194610700Y220722602I0J-249998D01*
G01*
G37*
%TD*%
%TO.C,R35*%
G36*
G01*
X152816002Y215158900D02*
X151915998Y215158900D01*
G75*
G02*
X151666000Y215408898I0J249998D01*
G01*
X151666000Y215933902D01*
G75*
G02*
X151915998Y216183900I249998J0D01*
G01*
X152816002Y216183900D01*
G75*
G02*
X153066000Y215933902I0J-249998D01*
G01*
X153066000Y215408898D01*
G75*
G02*
X152816002Y215158900I-249998J0D01*
G01*
G37*
G36*
G01*
X152816002Y213333900D02*
X151915998Y213333900D01*
G75*
G02*
X151666000Y213583898I0J249998D01*
G01*
X151666000Y214108902D01*
G75*
G02*
X151915998Y214358900I249998J0D01*
G01*
X152816002Y214358900D01*
G75*
G02*
X153066000Y214108902I0J-249998D01*
G01*
X153066000Y213583898D01*
G75*
G02*
X152816002Y213333900I-249998J0D01*
G01*
G37*
%TD*%
%TO.C,R32*%
G36*
G01*
X204022500Y215799998D02*
X204022500Y216700002D01*
G75*
G02*
X204272498Y216950000I249998J0D01*
G01*
X204797502Y216950000D01*
G75*
G02*
X205047500Y216700002I0J-249998D01*
G01*
X205047500Y215799998D01*
G75*
G02*
X204797502Y215550000I-249998J0D01*
G01*
X204272498Y215550000D01*
G75*
G02*
X204022500Y215799998I0J249998D01*
G01*
G37*
G36*
G01*
X202197500Y215799998D02*
X202197500Y216700002D01*
G75*
G02*
X202447498Y216950000I249998J0D01*
G01*
X202972502Y216950000D01*
G75*
G02*
X203222500Y216700002I0J-249998D01*
G01*
X203222500Y215799998D01*
G75*
G02*
X202972502Y215550000I-249998J0D01*
G01*
X202447498Y215550000D01*
G75*
G02*
X202197500Y215799998I0J249998D01*
G01*
G37*
%TD*%
%TO.C,R31*%
G36*
G01*
X184365500Y206208198D02*
X184365500Y207108202D01*
G75*
G02*
X184615498Y207358200I249998J0D01*
G01*
X185140502Y207358200D01*
G75*
G02*
X185390500Y207108202I0J-249998D01*
G01*
X185390500Y206208198D01*
G75*
G02*
X185140502Y205958200I-249998J0D01*
G01*
X184615498Y205958200D01*
G75*
G02*
X184365500Y206208198I0J249998D01*
G01*
G37*
G36*
G01*
X182540500Y206208198D02*
X182540500Y207108202D01*
G75*
G02*
X182790498Y207358200I249998J0D01*
G01*
X183315502Y207358200D01*
G75*
G02*
X183565500Y207108202I0J-249998D01*
G01*
X183565500Y206208198D01*
G75*
G02*
X183315502Y205958200I-249998J0D01*
G01*
X182790498Y205958200D01*
G75*
G02*
X182540500Y206208198I0J249998D01*
G01*
G37*
%TD*%
%TO.C,R30*%
G36*
G01*
X221551100Y217714398D02*
X221551100Y218614402D01*
G75*
G02*
X221801098Y218864400I249998J0D01*
G01*
X222326102Y218864400D01*
G75*
G02*
X222576100Y218614402I0J-249998D01*
G01*
X222576100Y217714398D01*
G75*
G02*
X222326102Y217464400I-249998J0D01*
G01*
X221801098Y217464400D01*
G75*
G02*
X221551100Y217714398I0J249998D01*
G01*
G37*
G36*
G01*
X219726100Y217714398D02*
X219726100Y218614402D01*
G75*
G02*
X219976098Y218864400I249998J0D01*
G01*
X220501102Y218864400D01*
G75*
G02*
X220751100Y218614402I0J-249998D01*
G01*
X220751100Y217714398D01*
G75*
G02*
X220501102Y217464400I-249998J0D01*
G01*
X219976098Y217464400D01*
G75*
G02*
X219726100Y217714398I0J249998D01*
G01*
G37*
%TD*%
%TO.C,R29*%
G36*
G01*
X216570800Y217714398D02*
X216570800Y218614402D01*
G75*
G02*
X216820798Y218864400I249998J0D01*
G01*
X217345802Y218864400D01*
G75*
G02*
X217595800Y218614402I0J-249998D01*
G01*
X217595800Y217714398D01*
G75*
G02*
X217345802Y217464400I-249998J0D01*
G01*
X216820798Y217464400D01*
G75*
G02*
X216570800Y217714398I0J249998D01*
G01*
G37*
G36*
G01*
X214745800Y217714398D02*
X214745800Y218614402D01*
G75*
G02*
X214995798Y218864400I249998J0D01*
G01*
X215520802Y218864400D01*
G75*
G02*
X215770800Y218614402I0J-249998D01*
G01*
X215770800Y217714398D01*
G75*
G02*
X215520802Y217464400I-249998J0D01*
G01*
X214995798Y217464400D01*
G75*
G02*
X214745800Y217714398I0J249998D01*
G01*
G37*
%TD*%
%TO.C,R13*%
G36*
G01*
X150522500Y219350002D02*
X150522500Y218449998D01*
G75*
G02*
X150272502Y218200000I-249998J0D01*
G01*
X149747498Y218200000D01*
G75*
G02*
X149497500Y218449998I0J249998D01*
G01*
X149497500Y219350002D01*
G75*
G02*
X149747498Y219600000I249998J0D01*
G01*
X150272502Y219600000D01*
G75*
G02*
X150522500Y219350002I0J-249998D01*
G01*
G37*
G36*
G01*
X152347500Y219350002D02*
X152347500Y218449998D01*
G75*
G02*
X152097502Y218200000I-249998J0D01*
G01*
X151572498Y218200000D01*
G75*
G02*
X151322500Y218449998I0J249998D01*
G01*
X151322500Y219350002D01*
G75*
G02*
X151572498Y219600000I249998J0D01*
G01*
X152097502Y219600000D01*
G75*
G02*
X152347500Y219350002I0J-249998D01*
G01*
G37*
%TD*%
%TO.C,R12*%
G36*
G01*
X134147002Y209926500D02*
X133246998Y209926500D01*
G75*
G02*
X132997000Y210176498I0J249998D01*
G01*
X132997000Y210701502D01*
G75*
G02*
X133246998Y210951500I249998J0D01*
G01*
X134147002Y210951500D01*
G75*
G02*
X134397000Y210701502I0J-249998D01*
G01*
X134397000Y210176498D01*
G75*
G02*
X134147002Y209926500I-249998J0D01*
G01*
G37*
G36*
G01*
X134147002Y208101500D02*
X133246998Y208101500D01*
G75*
G02*
X132997000Y208351498I0J249998D01*
G01*
X132997000Y208876502D01*
G75*
G02*
X133246998Y209126500I249998J0D01*
G01*
X134147002Y209126500D01*
G75*
G02*
X134397000Y208876502I0J-249998D01*
G01*
X134397000Y208351498D01*
G75*
G02*
X134147002Y208101500I-249998J0D01*
G01*
G37*
%TD*%
%TO.C,R8*%
G36*
G01*
X211795600Y217612798D02*
X211795600Y218512802D01*
G75*
G02*
X212045598Y218762800I249998J0D01*
G01*
X212570602Y218762800D01*
G75*
G02*
X212820600Y218512802I0J-249998D01*
G01*
X212820600Y217612798D01*
G75*
G02*
X212570602Y217362800I-249998J0D01*
G01*
X212045598Y217362800D01*
G75*
G02*
X211795600Y217612798I0J249998D01*
G01*
G37*
G36*
G01*
X209970600Y217612798D02*
X209970600Y218512802D01*
G75*
G02*
X210220598Y218762800I249998J0D01*
G01*
X210745602Y218762800D01*
G75*
G02*
X210995600Y218512802I0J-249998D01*
G01*
X210995600Y217612798D01*
G75*
G02*
X210745602Y217362800I-249998J0D01*
G01*
X210220598Y217362800D01*
G75*
G02*
X209970600Y217612798I0J249998D01*
G01*
G37*
%TD*%
%TO.C,R6*%
G36*
G01*
X226170100Y217688998D02*
X226170100Y218589002D01*
G75*
G02*
X226420098Y218839000I249998J0D01*
G01*
X226945102Y218839000D01*
G75*
G02*
X227195100Y218589002I0J-249998D01*
G01*
X227195100Y217688998D01*
G75*
G02*
X226945102Y217439000I-249998J0D01*
G01*
X226420098Y217439000D01*
G75*
G02*
X226170100Y217688998I0J249998D01*
G01*
G37*
G36*
G01*
X224345100Y217688998D02*
X224345100Y218589002D01*
G75*
G02*
X224595098Y218839000I249998J0D01*
G01*
X225120102Y218839000D01*
G75*
G02*
X225370100Y218589002I0J-249998D01*
G01*
X225370100Y217688998D01*
G75*
G02*
X225120102Y217439000I-249998J0D01*
G01*
X224595098Y217439000D01*
G75*
G02*
X224345100Y217688998I0J249998D01*
G01*
G37*
%TD*%
%TO.C,R5*%
G36*
G01*
X169227100Y214412398D02*
X169227100Y215312402D01*
G75*
G02*
X169477098Y215562400I249998J0D01*
G01*
X170002102Y215562400D01*
G75*
G02*
X170252100Y215312402I0J-249998D01*
G01*
X170252100Y214412398D01*
G75*
G02*
X170002102Y214162400I-249998J0D01*
G01*
X169477098Y214162400D01*
G75*
G02*
X169227100Y214412398I0J249998D01*
G01*
G37*
G36*
G01*
X167402100Y214412398D02*
X167402100Y215312402D01*
G75*
G02*
X167652098Y215562400I249998J0D01*
G01*
X168177102Y215562400D01*
G75*
G02*
X168427100Y215312402I0J-249998D01*
G01*
X168427100Y214412398D01*
G75*
G02*
X168177102Y214162400I-249998J0D01*
G01*
X167652098Y214162400D01*
G75*
G02*
X167402100Y214412398I0J249998D01*
G01*
G37*
%TD*%
%TO.C,R4*%
G36*
G01*
X182761500Y222133998D02*
X182761500Y223034002D01*
G75*
G02*
X183011498Y223284000I249998J0D01*
G01*
X183536502Y223284000D01*
G75*
G02*
X183786500Y223034002I0J-249998D01*
G01*
X183786500Y222133998D01*
G75*
G02*
X183536502Y221884000I-249998J0D01*
G01*
X183011498Y221884000D01*
G75*
G02*
X182761500Y222133998I0J249998D01*
G01*
G37*
G36*
G01*
X180936500Y222133998D02*
X180936500Y223034002D01*
G75*
G02*
X181186498Y223284000I249998J0D01*
G01*
X181711502Y223284000D01*
G75*
G02*
X181961500Y223034002I0J-249998D01*
G01*
X181961500Y222133998D01*
G75*
G02*
X181711502Y221884000I-249998J0D01*
G01*
X181186498Y221884000D01*
G75*
G02*
X180936500Y222133998I0J249998D01*
G01*
G37*
%TD*%
%TO.C,R3*%
G36*
G01*
X174115598Y213549900D02*
X175015602Y213549900D01*
G75*
G02*
X175265600Y213299902I0J-249998D01*
G01*
X175265600Y212774898D01*
G75*
G02*
X175015602Y212524900I-249998J0D01*
G01*
X174115598Y212524900D01*
G75*
G02*
X173865600Y212774898I0J249998D01*
G01*
X173865600Y213299902D01*
G75*
G02*
X174115598Y213549900I249998J0D01*
G01*
G37*
G36*
G01*
X174115598Y215374900D02*
X175015602Y215374900D01*
G75*
G02*
X175265600Y215124902I0J-249998D01*
G01*
X175265600Y214599898D01*
G75*
G02*
X175015602Y214349900I-249998J0D01*
G01*
X174115598Y214349900D01*
G75*
G02*
X173865600Y214599898I0J249998D01*
G01*
X173865600Y215124902D01*
G75*
G02*
X174115598Y215374900I249998J0D01*
G01*
G37*
%TD*%
%TO.C,R1*%
G36*
G01*
X150606202Y215158900D02*
X149706198Y215158900D01*
G75*
G02*
X149456200Y215408898I0J249998D01*
G01*
X149456200Y215933902D01*
G75*
G02*
X149706198Y216183900I249998J0D01*
G01*
X150606202Y216183900D01*
G75*
G02*
X150856200Y215933902I0J-249998D01*
G01*
X150856200Y215408898D01*
G75*
G02*
X150606202Y215158900I-249998J0D01*
G01*
G37*
G36*
G01*
X150606202Y213333900D02*
X149706198Y213333900D01*
G75*
G02*
X149456200Y213583898I0J249998D01*
G01*
X149456200Y214108902D01*
G75*
G02*
X149706198Y214358900I249998J0D01*
G01*
X150606202Y214358900D01*
G75*
G02*
X150856200Y214108902I0J-249998D01*
G01*
X150856200Y213583898D01*
G75*
G02*
X150606202Y213333900I-249998J0D01*
G01*
G37*
%TD*%
%TO.C,D3*%
G36*
G01*
X145888050Y215183100D02*
X144975550Y215183100D01*
G75*
G02*
X144731800Y215426850I0J243750D01*
G01*
X144731800Y215914350D01*
G75*
G02*
X144975550Y216158100I243750J0D01*
G01*
X145888050Y216158100D01*
G75*
G02*
X146131800Y215914350I0J-243750D01*
G01*
X146131800Y215426850D01*
G75*
G02*
X145888050Y215183100I-243750J0D01*
G01*
G37*
G36*
G01*
X145888050Y213308100D02*
X144975550Y213308100D01*
G75*
G02*
X144731800Y213551850I0J243750D01*
G01*
X144731800Y214039350D01*
G75*
G02*
X144975550Y214283100I243750J0D01*
G01*
X145888050Y214283100D01*
G75*
G02*
X146131800Y214039350I0J-243750D01*
G01*
X146131800Y213551850D01*
G75*
G02*
X145888050Y213308100I-243750J0D01*
G01*
G37*
%TD*%
%TO.C,D1*%
G36*
G01*
X147970850Y215183100D02*
X147058350Y215183100D01*
G75*
G02*
X146814600Y215426850I0J243750D01*
G01*
X146814600Y215914350D01*
G75*
G02*
X147058350Y216158100I243750J0D01*
G01*
X147970850Y216158100D01*
G75*
G02*
X148214600Y215914350I0J-243750D01*
G01*
X148214600Y215426850D01*
G75*
G02*
X147970850Y215183100I-243750J0D01*
G01*
G37*
G36*
G01*
X147970850Y213308100D02*
X147058350Y213308100D01*
G75*
G02*
X146814600Y213551850I0J243750D01*
G01*
X146814600Y214039350D01*
G75*
G02*
X147058350Y214283100I243750J0D01*
G01*
X147970850Y214283100D01*
G75*
G02*
X148214600Y214039350I0J-243750D01*
G01*
X148214600Y213551850D01*
G75*
G02*
X147970850Y213308100I-243750J0D01*
G01*
G37*
%TD*%
%TO.C,C7*%
G36*
G01*
X146660000Y218600000D02*
X146660000Y219100000D01*
G75*
G02*
X146885000Y219325000I225000J0D01*
G01*
X147335000Y219325000D01*
G75*
G02*
X147560000Y219100000I0J-225000D01*
G01*
X147560000Y218600000D01*
G75*
G02*
X147335000Y218375000I-225000J0D01*
G01*
X146885000Y218375000D01*
G75*
G02*
X146660000Y218600000I0J225000D01*
G01*
G37*
G36*
G01*
X145110000Y218600000D02*
X145110000Y219100000D01*
G75*
G02*
X145335000Y219325000I225000J0D01*
G01*
X145785000Y219325000D01*
G75*
G02*
X146010000Y219100000I0J-225000D01*
G01*
X146010000Y218600000D01*
G75*
G02*
X145785000Y218375000I-225000J0D01*
G01*
X145335000Y218375000D01*
G75*
G02*
X145110000Y218600000I0J225000D01*
G01*
G37*
%TD*%
%TO.C,C6*%
G36*
G01*
X143585000Y224375000D02*
X143585000Y223875000D01*
G75*
G02*
X143360000Y223650000I-225000J0D01*
G01*
X142910000Y223650000D01*
G75*
G02*
X142685000Y223875000I0J225000D01*
G01*
X142685000Y224375000D01*
G75*
G02*
X142910000Y224600000I225000J0D01*
G01*
X143360000Y224600000D01*
G75*
G02*
X143585000Y224375000I0J-225000D01*
G01*
G37*
G36*
G01*
X145135000Y224375000D02*
X145135000Y223875000D01*
G75*
G02*
X144910000Y223650000I-225000J0D01*
G01*
X144460000Y223650000D01*
G75*
G02*
X144235000Y223875000I0J225000D01*
G01*
X144235000Y224375000D01*
G75*
G02*
X144460000Y224600000I225000J0D01*
G01*
X144910000Y224600000D01*
G75*
G02*
X145135000Y224375000I0J-225000D01*
G01*
G37*
%TD*%
%TO.C,C1*%
G36*
G01*
X171826400Y213813200D02*
X172326400Y213813200D01*
G75*
G02*
X172551400Y213588200I0J-225000D01*
G01*
X172551400Y213138200D01*
G75*
G02*
X172326400Y212913200I-225000J0D01*
G01*
X171826400Y212913200D01*
G75*
G02*
X171601400Y213138200I0J225000D01*
G01*
X171601400Y213588200D01*
G75*
G02*
X171826400Y213813200I225000J0D01*
G01*
G37*
G36*
G01*
X171826400Y215363200D02*
X172326400Y215363200D01*
G75*
G02*
X172551400Y215138200I0J-225000D01*
G01*
X172551400Y214688200D01*
G75*
G02*
X172326400Y214463200I-225000J0D01*
G01*
X171826400Y214463200D01*
G75*
G02*
X171601400Y214688200I0J225000D01*
G01*
X171601400Y215138200D01*
G75*
G02*
X171826400Y215363200I225000J0D01*
G01*
G37*
%TD*%
D13*
%TO.C,Y1*%
X170755600Y217193000D03*
X170755600Y218393000D03*
X170755600Y219593000D03*
%TD*%
%TO.C,R7*%
G36*
G01*
X174764300Y216799998D02*
X174764300Y217700002D01*
G75*
G02*
X175014298Y217950000I249998J0D01*
G01*
X175539302Y217950000D01*
G75*
G02*
X175789300Y217700002I0J-249998D01*
G01*
X175789300Y216799998D01*
G75*
G02*
X175539302Y216550000I-249998J0D01*
G01*
X175014298Y216550000D01*
G75*
G02*
X174764300Y216799998I0J249998D01*
G01*
G37*
G36*
G01*
X172939300Y216799998D02*
X172939300Y217700002D01*
G75*
G02*
X173189298Y217950000I249998J0D01*
G01*
X173714302Y217950000D01*
G75*
G02*
X173964300Y217700002I0J-249998D01*
G01*
X173964300Y216799998D01*
G75*
G02*
X173714302Y216550000I-249998J0D01*
G01*
X173189298Y216550000D01*
G75*
G02*
X172939300Y216799998I0J249998D01*
G01*
G37*
%TD*%
%TO.C,C5*%
G36*
G01*
X189885800Y219846000D02*
X190385800Y219846000D01*
G75*
G02*
X190610800Y219621000I0J-225000D01*
G01*
X190610800Y219171000D01*
G75*
G02*
X190385800Y218946000I-225000J0D01*
G01*
X189885800Y218946000D01*
G75*
G02*
X189660800Y219171000I0J225000D01*
G01*
X189660800Y219621000D01*
G75*
G02*
X189885800Y219846000I225000J0D01*
G01*
G37*
G36*
G01*
X189885800Y221396000D02*
X190385800Y221396000D01*
G75*
G02*
X190610800Y221171000I0J-225000D01*
G01*
X190610800Y220721000D01*
G75*
G02*
X190385800Y220496000I-225000J0D01*
G01*
X189885800Y220496000D01*
G75*
G02*
X189660800Y220721000I0J225000D01*
G01*
X189660800Y221171000D01*
G75*
G02*
X189885800Y221396000I225000J0D01*
G01*
G37*
%TD*%
%TO.C,C4*%
G36*
G01*
X188769400Y209727600D02*
X188769400Y209227600D01*
G75*
G02*
X188544400Y209002600I-225000J0D01*
G01*
X188094400Y209002600D01*
G75*
G02*
X187869400Y209227600I0J225000D01*
G01*
X187869400Y209727600D01*
G75*
G02*
X188094400Y209952600I225000J0D01*
G01*
X188544400Y209952600D01*
G75*
G02*
X188769400Y209727600I0J-225000D01*
G01*
G37*
G36*
G01*
X190319400Y209727600D02*
X190319400Y209227600D01*
G75*
G02*
X190094400Y209002600I-225000J0D01*
G01*
X189644400Y209002600D01*
G75*
G02*
X189419400Y209227600I0J225000D01*
G01*
X189419400Y209727600D01*
G75*
G02*
X189644400Y209952600I225000J0D01*
G01*
X190094400Y209952600D01*
G75*
G02*
X190319400Y209727600I0J-225000D01*
G01*
G37*
%TD*%
%TO.C,C3*%
G36*
G01*
X176996200Y220344800D02*
X176996200Y219844800D01*
G75*
G02*
X176771200Y219619800I-225000J0D01*
G01*
X176321200Y219619800D01*
G75*
G02*
X176096200Y219844800I0J225000D01*
G01*
X176096200Y220344800D01*
G75*
G02*
X176321200Y220569800I225000J0D01*
G01*
X176771200Y220569800D01*
G75*
G02*
X176996200Y220344800I0J-225000D01*
G01*
G37*
G36*
G01*
X178546200Y220344800D02*
X178546200Y219844800D01*
G75*
G02*
X178321200Y219619800I-225000J0D01*
G01*
X177871200Y219619800D01*
G75*
G02*
X177646200Y219844800I0J225000D01*
G01*
X177646200Y220344800D01*
G75*
G02*
X177871200Y220569800I225000J0D01*
G01*
X178321200Y220569800D01*
G75*
G02*
X178546200Y220344800I0J-225000D01*
G01*
G37*
%TD*%
%TO.C,C2*%
G36*
G01*
X176974600Y214514000D02*
X176474600Y214514000D01*
G75*
G02*
X176249600Y214739000I0J225000D01*
G01*
X176249600Y215189000D01*
G75*
G02*
X176474600Y215414000I225000J0D01*
G01*
X176974600Y215414000D01*
G75*
G02*
X177199600Y215189000I0J-225000D01*
G01*
X177199600Y214739000D01*
G75*
G02*
X176974600Y214514000I-225000J0D01*
G01*
G37*
G36*
G01*
X176974600Y212964000D02*
X176474600Y212964000D01*
G75*
G02*
X176249600Y213189000I0J225000D01*
G01*
X176249600Y213639000D01*
G75*
G02*
X176474600Y213864000I225000J0D01*
G01*
X176974600Y213864000D01*
G75*
G02*
X177199600Y213639000I0J-225000D01*
G01*
X177199600Y213189000D01*
G75*
G02*
X176974600Y212964000I-225000J0D01*
G01*
G37*
%TD*%
%TO.C,U4*%
G36*
G01*
X196574600Y206279600D02*
X196574600Y206579600D01*
G75*
G02*
X196724600Y206729600I150000J0D01*
G01*
X198374600Y206729600D01*
G75*
G02*
X198524600Y206579600I0J-150000D01*
G01*
X198524600Y206279600D01*
G75*
G02*
X198374600Y206129600I-150000J0D01*
G01*
X196724600Y206129600D01*
G75*
G02*
X196574600Y206279600I0J150000D01*
G01*
G37*
G36*
G01*
X196574600Y205009600D02*
X196574600Y205309600D01*
G75*
G02*
X196724600Y205459600I150000J0D01*
G01*
X198374600Y205459600D01*
G75*
G02*
X198524600Y205309600I0J-150000D01*
G01*
X198524600Y205009600D01*
G75*
G02*
X198374600Y204859600I-150000J0D01*
G01*
X196724600Y204859600D01*
G75*
G02*
X196574600Y205009600I0J150000D01*
G01*
G37*
G36*
G01*
X196574600Y203739600D02*
X196574600Y204039600D01*
G75*
G02*
X196724600Y204189600I150000J0D01*
G01*
X198374600Y204189600D01*
G75*
G02*
X198524600Y204039600I0J-150000D01*
G01*
X198524600Y203739600D01*
G75*
G02*
X198374600Y203589600I-150000J0D01*
G01*
X196724600Y203589600D01*
G75*
G02*
X196574600Y203739600I0J150000D01*
G01*
G37*
G36*
G01*
X196574600Y202469600D02*
X196574600Y202769600D01*
G75*
G02*
X196724600Y202919600I150000J0D01*
G01*
X198374600Y202919600D01*
G75*
G02*
X198524600Y202769600I0J-150000D01*
G01*
X198524600Y202469600D01*
G75*
G02*
X198374600Y202319600I-150000J0D01*
G01*
X196724600Y202319600D01*
G75*
G02*
X196574600Y202469600I0J150000D01*
G01*
G37*
G36*
G01*
X191624600Y202469600D02*
X191624600Y202769600D01*
G75*
G02*
X191774600Y202919600I150000J0D01*
G01*
X193424600Y202919600D01*
G75*
G02*
X193574600Y202769600I0J-150000D01*
G01*
X193574600Y202469600D01*
G75*
G02*
X193424600Y202319600I-150000J0D01*
G01*
X191774600Y202319600D01*
G75*
G02*
X191624600Y202469600I0J150000D01*
G01*
G37*
G36*
G01*
X191624600Y203739600D02*
X191624600Y204039600D01*
G75*
G02*
X191774600Y204189600I150000J0D01*
G01*
X193424600Y204189600D01*
G75*
G02*
X193574600Y204039600I0J-150000D01*
G01*
X193574600Y203739600D01*
G75*
G02*
X193424600Y203589600I-150000J0D01*
G01*
X191774600Y203589600D01*
G75*
G02*
X191624600Y203739600I0J150000D01*
G01*
G37*
G36*
G01*
X191624600Y205009600D02*
X191624600Y205309600D01*
G75*
G02*
X191774600Y205459600I150000J0D01*
G01*
X193424600Y205459600D01*
G75*
G02*
X193574600Y205309600I0J-150000D01*
G01*
X193574600Y205009600D01*
G75*
G02*
X193424600Y204859600I-150000J0D01*
G01*
X191774600Y204859600D01*
G75*
G02*
X191624600Y205009600I0J150000D01*
G01*
G37*
G36*
G01*
X191624600Y206279600D02*
X191624600Y206579600D01*
G75*
G02*
X191774600Y206729600I150000J0D01*
G01*
X193424600Y206729600D01*
G75*
G02*
X193574600Y206579600I0J-150000D01*
G01*
X193574600Y206279600D01*
G75*
G02*
X193424600Y206129600I-150000J0D01*
G01*
X191774600Y206129600D01*
G75*
G02*
X191624600Y206279600I0J150000D01*
G01*
G37*
%TD*%
%TO.C,R34*%
G36*
G01*
X195273798Y210197100D02*
X196173802Y210197100D01*
G75*
G02*
X196423800Y209947102I0J-249998D01*
G01*
X196423800Y209422098D01*
G75*
G02*
X196173802Y209172100I-249998J0D01*
G01*
X195273798Y209172100D01*
G75*
G02*
X195023800Y209422098I0J249998D01*
G01*
X195023800Y209947102D01*
G75*
G02*
X195273798Y210197100I249998J0D01*
G01*
G37*
G36*
G01*
X195273798Y212022100D02*
X196173802Y212022100D01*
G75*
G02*
X196423800Y211772102I0J-249998D01*
G01*
X196423800Y211247098D01*
G75*
G02*
X196173802Y210997100I-249998J0D01*
G01*
X195273798Y210997100D01*
G75*
G02*
X195023800Y211247098I0J249998D01*
G01*
X195023800Y211772102D01*
G75*
G02*
X195273798Y212022100I249998J0D01*
G01*
G37*
%TD*%
%TO.C,R33*%
G36*
G01*
X191870198Y210171700D02*
X192770202Y210171700D01*
G75*
G02*
X193020200Y209921702I0J-249998D01*
G01*
X193020200Y209396698D01*
G75*
G02*
X192770202Y209146700I-249998J0D01*
G01*
X191870198Y209146700D01*
G75*
G02*
X191620200Y209396698I0J249998D01*
G01*
X191620200Y209921702D01*
G75*
G02*
X191870198Y210171700I249998J0D01*
G01*
G37*
G36*
G01*
X191870198Y211996700D02*
X192770202Y211996700D01*
G75*
G02*
X193020200Y211746702I0J-249998D01*
G01*
X193020200Y211221698D01*
G75*
G02*
X192770202Y210971700I-249998J0D01*
G01*
X191870198Y210971700D01*
G75*
G02*
X191620200Y211221698I0J249998D01*
G01*
X191620200Y211746702D01*
G75*
G02*
X191870198Y211996700I249998J0D01*
G01*
G37*
%TD*%
%TO.C,C12*%
G36*
G01*
X198801200Y210270200D02*
X199301200Y210270200D01*
G75*
G02*
X199526200Y210045200I0J-225000D01*
G01*
X199526200Y209595200D01*
G75*
G02*
X199301200Y209370200I-225000J0D01*
G01*
X198801200Y209370200D01*
G75*
G02*
X198576200Y209595200I0J225000D01*
G01*
X198576200Y210045200D01*
G75*
G02*
X198801200Y210270200I225000J0D01*
G01*
G37*
G36*
G01*
X198801200Y211820200D02*
X199301200Y211820200D01*
G75*
G02*
X199526200Y211595200I0J-225000D01*
G01*
X199526200Y211145200D01*
G75*
G02*
X199301200Y210920200I-225000J0D01*
G01*
X198801200Y210920200D01*
G75*
G02*
X198576200Y211145200I0J225000D01*
G01*
X198576200Y211595200D01*
G75*
G02*
X198801200Y211820200I225000J0D01*
G01*
G37*
%TD*%
D14*
%TO.C,U5*%
X197070000Y216325400D03*
X197070000Y215375400D03*
X197070000Y217275400D03*
X199270000Y217275400D03*
X199270000Y216325400D03*
X199270000Y215375400D03*
%TD*%
%TO.C,R38*%
G36*
G01*
X193505700Y214793398D02*
X193505700Y215693402D01*
G75*
G02*
X193755698Y215943400I249998J0D01*
G01*
X194280702Y215943400D01*
G75*
G02*
X194530700Y215693402I0J-249998D01*
G01*
X194530700Y214793398D01*
G75*
G02*
X194280702Y214543400I-249998J0D01*
G01*
X193755698Y214543400D01*
G75*
G02*
X193505700Y214793398I0J249998D01*
G01*
G37*
G36*
G01*
X191680700Y214793398D02*
X191680700Y215693402D01*
G75*
G02*
X191930698Y215943400I249998J0D01*
G01*
X192455702Y215943400D01*
G75*
G02*
X192705700Y215693402I0J-249998D01*
G01*
X192705700Y214793398D01*
G75*
G02*
X192455702Y214543400I-249998J0D01*
G01*
X191930698Y214543400D01*
G75*
G02*
X191680700Y214793398I0J249998D01*
G01*
G37*
%TD*%
%TO.C,R37*%
G36*
G01*
X193509500Y216799998D02*
X193509500Y217700002D01*
G75*
G02*
X193759498Y217950000I249998J0D01*
G01*
X194284502Y217950000D01*
G75*
G02*
X194534500Y217700002I0J-249998D01*
G01*
X194534500Y216799998D01*
G75*
G02*
X194284502Y216550000I-249998J0D01*
G01*
X193759498Y216550000D01*
G75*
G02*
X193509500Y216799998I0J249998D01*
G01*
G37*
G36*
G01*
X191684500Y216799998D02*
X191684500Y217700002D01*
G75*
G02*
X191934498Y217950000I249998J0D01*
G01*
X192459502Y217950000D01*
G75*
G02*
X192709500Y217700002I0J-249998D01*
G01*
X192709500Y216799998D01*
G75*
G02*
X192459502Y216550000I-249998J0D01*
G01*
X191934498Y216550000D01*
G75*
G02*
X191684500Y216799998I0J249998D01*
G01*
G37*
%TD*%
D15*
%TO.C,RN1*%
X138599000Y197057000D03*
D16*
X136999000Y197057000D03*
X137799000Y197057000D03*
D15*
X136199000Y197057000D03*
D16*
X137799000Y195257000D03*
D15*
X138599000Y195257000D03*
D16*
X136999000Y195257000D03*
D15*
X136199000Y195257000D03*
%TD*%
%TO.C,RN2*%
X142917000Y197057000D03*
D16*
X141317000Y197057000D03*
X142117000Y197057000D03*
D15*
X140517000Y197057000D03*
D16*
X142117000Y195257000D03*
D15*
X142917000Y195257000D03*
D16*
X141317000Y195257000D03*
D15*
X140517000Y195257000D03*
%TD*%
%TO.C,RN3*%
X155217000Y197057000D03*
D16*
X153617000Y197057000D03*
X154417000Y197057000D03*
D15*
X152817000Y197057000D03*
D16*
X154417000Y195257000D03*
D15*
X155217000Y195257000D03*
D16*
X153617000Y195257000D03*
D15*
X152817000Y195257000D03*
%TD*%
%TO.C,RN4*%
X159338000Y197057000D03*
D16*
X157738000Y197057000D03*
X158538000Y197057000D03*
D15*
X156938000Y197057000D03*
D16*
X158538000Y195257000D03*
D15*
X159338000Y195257000D03*
D16*
X157738000Y195257000D03*
D15*
X156938000Y195257000D03*
%TD*%
%TO.C,RN5*%
X172419000Y197057000D03*
D16*
X170819000Y197057000D03*
X171619000Y197057000D03*
D15*
X170019000Y197057000D03*
D16*
X171619000Y195257000D03*
D15*
X172419000Y195257000D03*
D16*
X170819000Y195257000D03*
D15*
X170019000Y195257000D03*
%TD*%
%TO.C,RN6*%
X176610000Y197057000D03*
D16*
X175010000Y197057000D03*
X175810000Y197057000D03*
D15*
X174210000Y197057000D03*
D16*
X175810000Y195257000D03*
D15*
X176610000Y195257000D03*
D16*
X175010000Y195257000D03*
D15*
X174210000Y195257000D03*
%TD*%
%TO.C,RN7*%
X189761000Y197068000D03*
D16*
X188161000Y197068000D03*
X188961000Y197068000D03*
D15*
X187361000Y197068000D03*
D16*
X188961000Y195268000D03*
D15*
X189761000Y195268000D03*
D16*
X188161000Y195268000D03*
D15*
X187361000Y195268000D03*
%TD*%
%TO.C,RN8*%
X193952000Y197068000D03*
D16*
X192352000Y197068000D03*
X193152000Y197068000D03*
D15*
X191552000Y197068000D03*
D16*
X193152000Y195268000D03*
D15*
X193952000Y195268000D03*
D16*
X192352000Y195268000D03*
D15*
X191552000Y195268000D03*
%TD*%
%TO.C,R11*%
G36*
G01*
X159116000Y205242998D02*
X159116000Y206143002D01*
G75*
G02*
X159365998Y206393000I249998J0D01*
G01*
X159891002Y206393000D01*
G75*
G02*
X160141000Y206143002I0J-249998D01*
G01*
X160141000Y205242998D01*
G75*
G02*
X159891002Y204993000I-249998J0D01*
G01*
X159365998Y204993000D01*
G75*
G02*
X159116000Y205242998I0J249998D01*
G01*
G37*
G36*
G01*
X157291000Y205242998D02*
X157291000Y206143002D01*
G75*
G02*
X157540998Y206393000I249998J0D01*
G01*
X158066002Y206393000D01*
G75*
G02*
X158316000Y206143002I0J-249998D01*
G01*
X158316000Y205242998D01*
G75*
G02*
X158066002Y204993000I-249998J0D01*
G01*
X157540998Y204993000D01*
G75*
G02*
X157291000Y205242998I0J249998D01*
G01*
G37*
%TD*%
%TO.C,R10*%
G36*
G01*
X164196000Y205242998D02*
X164196000Y206143002D01*
G75*
G02*
X164445998Y206393000I249998J0D01*
G01*
X164971002Y206393000D01*
G75*
G02*
X165221000Y206143002I0J-249998D01*
G01*
X165221000Y205242998D01*
G75*
G02*
X164971002Y204993000I-249998J0D01*
G01*
X164445998Y204993000D01*
G75*
G02*
X164196000Y205242998I0J249998D01*
G01*
G37*
G36*
G01*
X162371000Y205242998D02*
X162371000Y206143002D01*
G75*
G02*
X162620998Y206393000I249998J0D01*
G01*
X163146002Y206393000D01*
G75*
G02*
X163396000Y206143002I0J-249998D01*
G01*
X163396000Y205242998D01*
G75*
G02*
X163146002Y204993000I-249998J0D01*
G01*
X162620998Y204993000D01*
G75*
G02*
X162371000Y205242998I0J249998D01*
G01*
G37*
%TD*%
%TO.C,R9*%
G36*
G01*
X146989500Y208556002D02*
X146989500Y207655998D01*
G75*
G02*
X146739502Y207406000I-249998J0D01*
G01*
X146214498Y207406000D01*
G75*
G02*
X145964500Y207655998I0J249998D01*
G01*
X145964500Y208556002D01*
G75*
G02*
X146214498Y208806000I249998J0D01*
G01*
X146739502Y208806000D01*
G75*
G02*
X146989500Y208556002I0J-249998D01*
G01*
G37*
G36*
G01*
X148814500Y208556002D02*
X148814500Y207655998D01*
G75*
G02*
X148564502Y207406000I-249998J0D01*
G01*
X148039498Y207406000D01*
G75*
G02*
X147789500Y207655998I0J249998D01*
G01*
X147789500Y208556002D01*
G75*
G02*
X148039498Y208806000I249998J0D01*
G01*
X148564502Y208806000D01*
G75*
G02*
X148814500Y208556002I0J-249998D01*
G01*
G37*
%TD*%
%TO.C,C11*%
G36*
G01*
X180491000Y196934000D02*
X180491000Y197434000D01*
G75*
G02*
X180716000Y197659000I225000J0D01*
G01*
X181166000Y197659000D01*
G75*
G02*
X181391000Y197434000I0J-225000D01*
G01*
X181391000Y196934000D01*
G75*
G02*
X181166000Y196709000I-225000J0D01*
G01*
X180716000Y196709000D01*
G75*
G02*
X180491000Y196934000I0J225000D01*
G01*
G37*
G36*
G01*
X178941000Y196934000D02*
X178941000Y197434000D01*
G75*
G02*
X179166000Y197659000I225000J0D01*
G01*
X179616000Y197659000D01*
G75*
G02*
X179841000Y197434000I0J-225000D01*
G01*
X179841000Y196934000D01*
G75*
G02*
X179616000Y196709000I-225000J0D01*
G01*
X179166000Y196709000D01*
G75*
G02*
X178941000Y196934000I0J225000D01*
G01*
G37*
%TD*%
%TO.C,C10*%
G36*
G01*
X164108000Y202014000D02*
X164108000Y202514000D01*
G75*
G02*
X164333000Y202739000I225000J0D01*
G01*
X164783000Y202739000D01*
G75*
G02*
X165008000Y202514000I0J-225000D01*
G01*
X165008000Y202014000D01*
G75*
G02*
X164783000Y201789000I-225000J0D01*
G01*
X164333000Y201789000D01*
G75*
G02*
X164108000Y202014000I0J225000D01*
G01*
G37*
G36*
G01*
X162558000Y202014000D02*
X162558000Y202514000D01*
G75*
G02*
X162783000Y202739000I225000J0D01*
G01*
X163233000Y202739000D01*
G75*
G02*
X163458000Y202514000I0J-225000D01*
G01*
X163458000Y202014000D01*
G75*
G02*
X163233000Y201789000I-225000J0D01*
G01*
X162783000Y201789000D01*
G75*
G02*
X162558000Y202014000I0J225000D01*
G01*
G37*
%TD*%
%TO.C,C9*%
G36*
G01*
X147611000Y197188000D02*
X147611000Y197688000D01*
G75*
G02*
X147836000Y197913000I225000J0D01*
G01*
X148286000Y197913000D01*
G75*
G02*
X148511000Y197688000I0J-225000D01*
G01*
X148511000Y197188000D01*
G75*
G02*
X148286000Y196963000I-225000J0D01*
G01*
X147836000Y196963000D01*
G75*
G02*
X147611000Y197188000I0J225000D01*
G01*
G37*
G36*
G01*
X146061000Y197188000D02*
X146061000Y197688000D01*
G75*
G02*
X146286000Y197913000I225000J0D01*
G01*
X146736000Y197913000D01*
G75*
G02*
X146961000Y197688000I0J-225000D01*
G01*
X146961000Y197188000D01*
G75*
G02*
X146736000Y196963000I-225000J0D01*
G01*
X146286000Y196963000D01*
G75*
G02*
X146061000Y197188000I0J225000D01*
G01*
G37*
%TD*%
%TO.C,C8*%
G36*
G01*
X134201000Y204507000D02*
X133701000Y204507000D01*
G75*
G02*
X133476000Y204732000I0J225000D01*
G01*
X133476000Y205182000D01*
G75*
G02*
X133701000Y205407000I225000J0D01*
G01*
X134201000Y205407000D01*
G75*
G02*
X134426000Y205182000I0J-225000D01*
G01*
X134426000Y204732000D01*
G75*
G02*
X134201000Y204507000I-225000J0D01*
G01*
G37*
G36*
G01*
X134201000Y202957000D02*
X133701000Y202957000D01*
G75*
G02*
X133476000Y203182000I0J225000D01*
G01*
X133476000Y203632000D01*
G75*
G02*
X133701000Y203857000I225000J0D01*
G01*
X134201000Y203857000D01*
G75*
G02*
X134426000Y203632000I0J-225000D01*
G01*
X134426000Y203182000D01*
G75*
G02*
X134201000Y202957000I-225000J0D01*
G01*
G37*
%TD*%
%TO.C,U7*%
G36*
G01*
X181551500Y200242000D02*
X181551500Y200042000D01*
G75*
G02*
X181451500Y199942000I-100000J0D01*
G01*
X180176500Y199942000D01*
G75*
G02*
X180076500Y200042000I0J100000D01*
G01*
X180076500Y200242000D01*
G75*
G02*
X180176500Y200342000I100000J0D01*
G01*
X181451500Y200342000D01*
G75*
G02*
X181551500Y200242000I0J-100000D01*
G01*
G37*
G36*
G01*
X181551500Y200892000D02*
X181551500Y200692000D01*
G75*
G02*
X181451500Y200592000I-100000J0D01*
G01*
X180176500Y200592000D01*
G75*
G02*
X180076500Y200692000I0J100000D01*
G01*
X180076500Y200892000D01*
G75*
G02*
X180176500Y200992000I100000J0D01*
G01*
X181451500Y200992000D01*
G75*
G02*
X181551500Y200892000I0J-100000D01*
G01*
G37*
G36*
G01*
X181551500Y201542000D02*
X181551500Y201342000D01*
G75*
G02*
X181451500Y201242000I-100000J0D01*
G01*
X180176500Y201242000D01*
G75*
G02*
X180076500Y201342000I0J100000D01*
G01*
X180076500Y201542000D01*
G75*
G02*
X180176500Y201642000I100000J0D01*
G01*
X181451500Y201642000D01*
G75*
G02*
X181551500Y201542000I0J-100000D01*
G01*
G37*
G36*
G01*
X181551500Y202192000D02*
X181551500Y201992000D01*
G75*
G02*
X181451500Y201892000I-100000J0D01*
G01*
X180176500Y201892000D01*
G75*
G02*
X180076500Y201992000I0J100000D01*
G01*
X180076500Y202192000D01*
G75*
G02*
X180176500Y202292000I100000J0D01*
G01*
X181451500Y202292000D01*
G75*
G02*
X181551500Y202192000I0J-100000D01*
G01*
G37*
G36*
G01*
X181551500Y202842000D02*
X181551500Y202642000D01*
G75*
G02*
X181451500Y202542000I-100000J0D01*
G01*
X180176500Y202542000D01*
G75*
G02*
X180076500Y202642000I0J100000D01*
G01*
X180076500Y202842000D01*
G75*
G02*
X180176500Y202942000I100000J0D01*
G01*
X181451500Y202942000D01*
G75*
G02*
X181551500Y202842000I0J-100000D01*
G01*
G37*
G36*
G01*
X181551500Y203492000D02*
X181551500Y203292000D01*
G75*
G02*
X181451500Y203192000I-100000J0D01*
G01*
X180176500Y203192000D01*
G75*
G02*
X180076500Y203292000I0J100000D01*
G01*
X180076500Y203492000D01*
G75*
G02*
X180176500Y203592000I100000J0D01*
G01*
X181451500Y203592000D01*
G75*
G02*
X181551500Y203492000I0J-100000D01*
G01*
G37*
G36*
G01*
X181551500Y204142000D02*
X181551500Y203942000D01*
G75*
G02*
X181451500Y203842000I-100000J0D01*
G01*
X180176500Y203842000D01*
G75*
G02*
X180076500Y203942000I0J100000D01*
G01*
X180076500Y204142000D01*
G75*
G02*
X180176500Y204242000I100000J0D01*
G01*
X181451500Y204242000D01*
G75*
G02*
X181551500Y204142000I0J-100000D01*
G01*
G37*
G36*
G01*
X181551500Y204792000D02*
X181551500Y204592000D01*
G75*
G02*
X181451500Y204492000I-100000J0D01*
G01*
X180176500Y204492000D01*
G75*
G02*
X180076500Y204592000I0J100000D01*
G01*
X180076500Y204792000D01*
G75*
G02*
X180176500Y204892000I100000J0D01*
G01*
X181451500Y204892000D01*
G75*
G02*
X181551500Y204792000I0J-100000D01*
G01*
G37*
G36*
G01*
X187276500Y204792000D02*
X187276500Y204592000D01*
G75*
G02*
X187176500Y204492000I-100000J0D01*
G01*
X185901500Y204492000D01*
G75*
G02*
X185801500Y204592000I0J100000D01*
G01*
X185801500Y204792000D01*
G75*
G02*
X185901500Y204892000I100000J0D01*
G01*
X187176500Y204892000D01*
G75*
G02*
X187276500Y204792000I0J-100000D01*
G01*
G37*
G36*
G01*
X187276500Y204142000D02*
X187276500Y203942000D01*
G75*
G02*
X187176500Y203842000I-100000J0D01*
G01*
X185901500Y203842000D01*
G75*
G02*
X185801500Y203942000I0J100000D01*
G01*
X185801500Y204142000D01*
G75*
G02*
X185901500Y204242000I100000J0D01*
G01*
X187176500Y204242000D01*
G75*
G02*
X187276500Y204142000I0J-100000D01*
G01*
G37*
G36*
G01*
X187276500Y203492000D02*
X187276500Y203292000D01*
G75*
G02*
X187176500Y203192000I-100000J0D01*
G01*
X185901500Y203192000D01*
G75*
G02*
X185801500Y203292000I0J100000D01*
G01*
X185801500Y203492000D01*
G75*
G02*
X185901500Y203592000I100000J0D01*
G01*
X187176500Y203592000D01*
G75*
G02*
X187276500Y203492000I0J-100000D01*
G01*
G37*
G36*
G01*
X187276500Y202842000D02*
X187276500Y202642000D01*
G75*
G02*
X187176500Y202542000I-100000J0D01*
G01*
X185901500Y202542000D01*
G75*
G02*
X185801500Y202642000I0J100000D01*
G01*
X185801500Y202842000D01*
G75*
G02*
X185901500Y202942000I100000J0D01*
G01*
X187176500Y202942000D01*
G75*
G02*
X187276500Y202842000I0J-100000D01*
G01*
G37*
G36*
G01*
X187276500Y202192000D02*
X187276500Y201992000D01*
G75*
G02*
X187176500Y201892000I-100000J0D01*
G01*
X185901500Y201892000D01*
G75*
G02*
X185801500Y201992000I0J100000D01*
G01*
X185801500Y202192000D01*
G75*
G02*
X185901500Y202292000I100000J0D01*
G01*
X187176500Y202292000D01*
G75*
G02*
X187276500Y202192000I0J-100000D01*
G01*
G37*
G36*
G01*
X187276500Y201542000D02*
X187276500Y201342000D01*
G75*
G02*
X187176500Y201242000I-100000J0D01*
G01*
X185901500Y201242000D01*
G75*
G02*
X185801500Y201342000I0J100000D01*
G01*
X185801500Y201542000D01*
G75*
G02*
X185901500Y201642000I100000J0D01*
G01*
X187176500Y201642000D01*
G75*
G02*
X187276500Y201542000I0J-100000D01*
G01*
G37*
G36*
G01*
X187276500Y200892000D02*
X187276500Y200692000D01*
G75*
G02*
X187176500Y200592000I-100000J0D01*
G01*
X185901500Y200592000D01*
G75*
G02*
X185801500Y200692000I0J100000D01*
G01*
X185801500Y200892000D01*
G75*
G02*
X185901500Y200992000I100000J0D01*
G01*
X187176500Y200992000D01*
G75*
G02*
X187276500Y200892000I0J-100000D01*
G01*
G37*
G36*
G01*
X187276500Y200242000D02*
X187276500Y200042000D01*
G75*
G02*
X187176500Y199942000I-100000J0D01*
G01*
X185901500Y199942000D01*
G75*
G02*
X185801500Y200042000I0J100000D01*
G01*
X185801500Y200242000D01*
G75*
G02*
X185901500Y200342000I100000J0D01*
G01*
X187176500Y200342000D01*
G75*
G02*
X187276500Y200242000I0J-100000D01*
G01*
G37*
%TD*%
%TO.C,U6*%
G36*
G01*
X170029000Y205336500D02*
X169829000Y205336500D01*
G75*
G02*
X169729000Y205436500I0J100000D01*
G01*
X169729000Y206711500D01*
G75*
G02*
X169829000Y206811500I100000J0D01*
G01*
X170029000Y206811500D01*
G75*
G02*
X170129000Y206711500I0J-100000D01*
G01*
X170129000Y205436500D01*
G75*
G02*
X170029000Y205336500I-100000J0D01*
G01*
G37*
G36*
G01*
X170679000Y205336500D02*
X170479000Y205336500D01*
G75*
G02*
X170379000Y205436500I0J100000D01*
G01*
X170379000Y206711500D01*
G75*
G02*
X170479000Y206811500I100000J0D01*
G01*
X170679000Y206811500D01*
G75*
G02*
X170779000Y206711500I0J-100000D01*
G01*
X170779000Y205436500D01*
G75*
G02*
X170679000Y205336500I-100000J0D01*
G01*
G37*
G36*
G01*
X171329000Y205336500D02*
X171129000Y205336500D01*
G75*
G02*
X171029000Y205436500I0J100000D01*
G01*
X171029000Y206711500D01*
G75*
G02*
X171129000Y206811500I100000J0D01*
G01*
X171329000Y206811500D01*
G75*
G02*
X171429000Y206711500I0J-100000D01*
G01*
X171429000Y205436500D01*
G75*
G02*
X171329000Y205336500I-100000J0D01*
G01*
G37*
G36*
G01*
X171979000Y205336500D02*
X171779000Y205336500D01*
G75*
G02*
X171679000Y205436500I0J100000D01*
G01*
X171679000Y206711500D01*
G75*
G02*
X171779000Y206811500I100000J0D01*
G01*
X171979000Y206811500D01*
G75*
G02*
X172079000Y206711500I0J-100000D01*
G01*
X172079000Y205436500D01*
G75*
G02*
X171979000Y205336500I-100000J0D01*
G01*
G37*
G36*
G01*
X172629000Y205336500D02*
X172429000Y205336500D01*
G75*
G02*
X172329000Y205436500I0J100000D01*
G01*
X172329000Y206711500D01*
G75*
G02*
X172429000Y206811500I100000J0D01*
G01*
X172629000Y206811500D01*
G75*
G02*
X172729000Y206711500I0J-100000D01*
G01*
X172729000Y205436500D01*
G75*
G02*
X172629000Y205336500I-100000J0D01*
G01*
G37*
G36*
G01*
X173279000Y205336500D02*
X173079000Y205336500D01*
G75*
G02*
X172979000Y205436500I0J100000D01*
G01*
X172979000Y206711500D01*
G75*
G02*
X173079000Y206811500I100000J0D01*
G01*
X173279000Y206811500D01*
G75*
G02*
X173379000Y206711500I0J-100000D01*
G01*
X173379000Y205436500D01*
G75*
G02*
X173279000Y205336500I-100000J0D01*
G01*
G37*
G36*
G01*
X173929000Y205336500D02*
X173729000Y205336500D01*
G75*
G02*
X173629000Y205436500I0J100000D01*
G01*
X173629000Y206711500D01*
G75*
G02*
X173729000Y206811500I100000J0D01*
G01*
X173929000Y206811500D01*
G75*
G02*
X174029000Y206711500I0J-100000D01*
G01*
X174029000Y205436500D01*
G75*
G02*
X173929000Y205336500I-100000J0D01*
G01*
G37*
G36*
G01*
X174579000Y205336500D02*
X174379000Y205336500D01*
G75*
G02*
X174279000Y205436500I0J100000D01*
G01*
X174279000Y206711500D01*
G75*
G02*
X174379000Y206811500I100000J0D01*
G01*
X174579000Y206811500D01*
G75*
G02*
X174679000Y206711500I0J-100000D01*
G01*
X174679000Y205436500D01*
G75*
G02*
X174579000Y205336500I-100000J0D01*
G01*
G37*
G36*
G01*
X174579000Y199611500D02*
X174379000Y199611500D01*
G75*
G02*
X174279000Y199711500I0J100000D01*
G01*
X174279000Y200986500D01*
G75*
G02*
X174379000Y201086500I100000J0D01*
G01*
X174579000Y201086500D01*
G75*
G02*
X174679000Y200986500I0J-100000D01*
G01*
X174679000Y199711500D01*
G75*
G02*
X174579000Y199611500I-100000J0D01*
G01*
G37*
G36*
G01*
X173929000Y199611500D02*
X173729000Y199611500D01*
G75*
G02*
X173629000Y199711500I0J100000D01*
G01*
X173629000Y200986500D01*
G75*
G02*
X173729000Y201086500I100000J0D01*
G01*
X173929000Y201086500D01*
G75*
G02*
X174029000Y200986500I0J-100000D01*
G01*
X174029000Y199711500D01*
G75*
G02*
X173929000Y199611500I-100000J0D01*
G01*
G37*
G36*
G01*
X173279000Y199611500D02*
X173079000Y199611500D01*
G75*
G02*
X172979000Y199711500I0J100000D01*
G01*
X172979000Y200986500D01*
G75*
G02*
X173079000Y201086500I100000J0D01*
G01*
X173279000Y201086500D01*
G75*
G02*
X173379000Y200986500I0J-100000D01*
G01*
X173379000Y199711500D01*
G75*
G02*
X173279000Y199611500I-100000J0D01*
G01*
G37*
G36*
G01*
X172629000Y199611500D02*
X172429000Y199611500D01*
G75*
G02*
X172329000Y199711500I0J100000D01*
G01*
X172329000Y200986500D01*
G75*
G02*
X172429000Y201086500I100000J0D01*
G01*
X172629000Y201086500D01*
G75*
G02*
X172729000Y200986500I0J-100000D01*
G01*
X172729000Y199711500D01*
G75*
G02*
X172629000Y199611500I-100000J0D01*
G01*
G37*
G36*
G01*
X171979000Y199611500D02*
X171779000Y199611500D01*
G75*
G02*
X171679000Y199711500I0J100000D01*
G01*
X171679000Y200986500D01*
G75*
G02*
X171779000Y201086500I100000J0D01*
G01*
X171979000Y201086500D01*
G75*
G02*
X172079000Y200986500I0J-100000D01*
G01*
X172079000Y199711500D01*
G75*
G02*
X171979000Y199611500I-100000J0D01*
G01*
G37*
G36*
G01*
X171329000Y199611500D02*
X171129000Y199611500D01*
G75*
G02*
X171029000Y199711500I0J100000D01*
G01*
X171029000Y200986500D01*
G75*
G02*
X171129000Y201086500I100000J0D01*
G01*
X171329000Y201086500D01*
G75*
G02*
X171429000Y200986500I0J-100000D01*
G01*
X171429000Y199711500D01*
G75*
G02*
X171329000Y199611500I-100000J0D01*
G01*
G37*
G36*
G01*
X170679000Y199611500D02*
X170479000Y199611500D01*
G75*
G02*
X170379000Y199711500I0J100000D01*
G01*
X170379000Y200986500D01*
G75*
G02*
X170479000Y201086500I100000J0D01*
G01*
X170679000Y201086500D01*
G75*
G02*
X170779000Y200986500I0J-100000D01*
G01*
X170779000Y199711500D01*
G75*
G02*
X170679000Y199611500I-100000J0D01*
G01*
G37*
G36*
G01*
X170029000Y199611500D02*
X169829000Y199611500D01*
G75*
G02*
X169729000Y199711500I0J100000D01*
G01*
X169729000Y200986500D01*
G75*
G02*
X169829000Y201086500I100000J0D01*
G01*
X170029000Y201086500D01*
G75*
G02*
X170129000Y200986500I0J-100000D01*
G01*
X170129000Y199711500D01*
G75*
G02*
X170029000Y199611500I-100000J0D01*
G01*
G37*
%TD*%
%TO.C,U3*%
G36*
G01*
X147134500Y200257000D02*
X147134500Y200057000D01*
G75*
G02*
X147034500Y199957000I-100000J0D01*
G01*
X145759500Y199957000D01*
G75*
G02*
X145659500Y200057000I0J100000D01*
G01*
X145659500Y200257000D01*
G75*
G02*
X145759500Y200357000I100000J0D01*
G01*
X147034500Y200357000D01*
G75*
G02*
X147134500Y200257000I0J-100000D01*
G01*
G37*
G36*
G01*
X147134500Y200907000D02*
X147134500Y200707000D01*
G75*
G02*
X147034500Y200607000I-100000J0D01*
G01*
X145759500Y200607000D01*
G75*
G02*
X145659500Y200707000I0J100000D01*
G01*
X145659500Y200907000D01*
G75*
G02*
X145759500Y201007000I100000J0D01*
G01*
X147034500Y201007000D01*
G75*
G02*
X147134500Y200907000I0J-100000D01*
G01*
G37*
G36*
G01*
X147134500Y201557000D02*
X147134500Y201357000D01*
G75*
G02*
X147034500Y201257000I-100000J0D01*
G01*
X145759500Y201257000D01*
G75*
G02*
X145659500Y201357000I0J100000D01*
G01*
X145659500Y201557000D01*
G75*
G02*
X145759500Y201657000I100000J0D01*
G01*
X147034500Y201657000D01*
G75*
G02*
X147134500Y201557000I0J-100000D01*
G01*
G37*
G36*
G01*
X147134500Y202207000D02*
X147134500Y202007000D01*
G75*
G02*
X147034500Y201907000I-100000J0D01*
G01*
X145759500Y201907000D01*
G75*
G02*
X145659500Y202007000I0J100000D01*
G01*
X145659500Y202207000D01*
G75*
G02*
X145759500Y202307000I100000J0D01*
G01*
X147034500Y202307000D01*
G75*
G02*
X147134500Y202207000I0J-100000D01*
G01*
G37*
G36*
G01*
X147134500Y202857000D02*
X147134500Y202657000D01*
G75*
G02*
X147034500Y202557000I-100000J0D01*
G01*
X145759500Y202557000D01*
G75*
G02*
X145659500Y202657000I0J100000D01*
G01*
X145659500Y202857000D01*
G75*
G02*
X145759500Y202957000I100000J0D01*
G01*
X147034500Y202957000D01*
G75*
G02*
X147134500Y202857000I0J-100000D01*
G01*
G37*
G36*
G01*
X147134500Y203507000D02*
X147134500Y203307000D01*
G75*
G02*
X147034500Y203207000I-100000J0D01*
G01*
X145759500Y203207000D01*
G75*
G02*
X145659500Y203307000I0J100000D01*
G01*
X145659500Y203507000D01*
G75*
G02*
X145759500Y203607000I100000J0D01*
G01*
X147034500Y203607000D01*
G75*
G02*
X147134500Y203507000I0J-100000D01*
G01*
G37*
G36*
G01*
X147134500Y204157000D02*
X147134500Y203957000D01*
G75*
G02*
X147034500Y203857000I-100000J0D01*
G01*
X145759500Y203857000D01*
G75*
G02*
X145659500Y203957000I0J100000D01*
G01*
X145659500Y204157000D01*
G75*
G02*
X145759500Y204257000I100000J0D01*
G01*
X147034500Y204257000D01*
G75*
G02*
X147134500Y204157000I0J-100000D01*
G01*
G37*
G36*
G01*
X147134500Y204807000D02*
X147134500Y204607000D01*
G75*
G02*
X147034500Y204507000I-100000J0D01*
G01*
X145759500Y204507000D01*
G75*
G02*
X145659500Y204607000I0J100000D01*
G01*
X145659500Y204807000D01*
G75*
G02*
X145759500Y204907000I100000J0D01*
G01*
X147034500Y204907000D01*
G75*
G02*
X147134500Y204807000I0J-100000D01*
G01*
G37*
G36*
G01*
X152859500Y204807000D02*
X152859500Y204607000D01*
G75*
G02*
X152759500Y204507000I-100000J0D01*
G01*
X151484500Y204507000D01*
G75*
G02*
X151384500Y204607000I0J100000D01*
G01*
X151384500Y204807000D01*
G75*
G02*
X151484500Y204907000I100000J0D01*
G01*
X152759500Y204907000D01*
G75*
G02*
X152859500Y204807000I0J-100000D01*
G01*
G37*
G36*
G01*
X152859500Y204157000D02*
X152859500Y203957000D01*
G75*
G02*
X152759500Y203857000I-100000J0D01*
G01*
X151484500Y203857000D01*
G75*
G02*
X151384500Y203957000I0J100000D01*
G01*
X151384500Y204157000D01*
G75*
G02*
X151484500Y204257000I100000J0D01*
G01*
X152759500Y204257000D01*
G75*
G02*
X152859500Y204157000I0J-100000D01*
G01*
G37*
G36*
G01*
X152859500Y203507000D02*
X152859500Y203307000D01*
G75*
G02*
X152759500Y203207000I-100000J0D01*
G01*
X151484500Y203207000D01*
G75*
G02*
X151384500Y203307000I0J100000D01*
G01*
X151384500Y203507000D01*
G75*
G02*
X151484500Y203607000I100000J0D01*
G01*
X152759500Y203607000D01*
G75*
G02*
X152859500Y203507000I0J-100000D01*
G01*
G37*
G36*
G01*
X152859500Y202857000D02*
X152859500Y202657000D01*
G75*
G02*
X152759500Y202557000I-100000J0D01*
G01*
X151484500Y202557000D01*
G75*
G02*
X151384500Y202657000I0J100000D01*
G01*
X151384500Y202857000D01*
G75*
G02*
X151484500Y202957000I100000J0D01*
G01*
X152759500Y202957000D01*
G75*
G02*
X152859500Y202857000I0J-100000D01*
G01*
G37*
G36*
G01*
X152859500Y202207000D02*
X152859500Y202007000D01*
G75*
G02*
X152759500Y201907000I-100000J0D01*
G01*
X151484500Y201907000D01*
G75*
G02*
X151384500Y202007000I0J100000D01*
G01*
X151384500Y202207000D01*
G75*
G02*
X151484500Y202307000I100000J0D01*
G01*
X152759500Y202307000D01*
G75*
G02*
X152859500Y202207000I0J-100000D01*
G01*
G37*
G36*
G01*
X152859500Y201557000D02*
X152859500Y201357000D01*
G75*
G02*
X152759500Y201257000I-100000J0D01*
G01*
X151484500Y201257000D01*
G75*
G02*
X151384500Y201357000I0J100000D01*
G01*
X151384500Y201557000D01*
G75*
G02*
X151484500Y201657000I100000J0D01*
G01*
X152759500Y201657000D01*
G75*
G02*
X152859500Y201557000I0J-100000D01*
G01*
G37*
G36*
G01*
X152859500Y200907000D02*
X152859500Y200707000D01*
G75*
G02*
X152759500Y200607000I-100000J0D01*
G01*
X151484500Y200607000D01*
G75*
G02*
X151384500Y200707000I0J100000D01*
G01*
X151384500Y200907000D01*
G75*
G02*
X151484500Y201007000I100000J0D01*
G01*
X152759500Y201007000D01*
G75*
G02*
X152859500Y200907000I0J-100000D01*
G01*
G37*
G36*
G01*
X152859500Y200257000D02*
X152859500Y200057000D01*
G75*
G02*
X152759500Y199957000I-100000J0D01*
G01*
X151484500Y199957000D01*
G75*
G02*
X151384500Y200057000I0J100000D01*
G01*
X151384500Y200257000D01*
G75*
G02*
X151484500Y200357000I100000J0D01*
G01*
X152759500Y200357000D01*
G75*
G02*
X152859500Y200257000I0J-100000D01*
G01*
G37*
%TD*%
%TO.C,U2*%
G36*
G01*
X136094000Y205346500D02*
X135894000Y205346500D01*
G75*
G02*
X135794000Y205446500I0J100000D01*
G01*
X135794000Y206721500D01*
G75*
G02*
X135894000Y206821500I100000J0D01*
G01*
X136094000Y206821500D01*
G75*
G02*
X136194000Y206721500I0J-100000D01*
G01*
X136194000Y205446500D01*
G75*
G02*
X136094000Y205346500I-100000J0D01*
G01*
G37*
G36*
G01*
X136744000Y205346500D02*
X136544000Y205346500D01*
G75*
G02*
X136444000Y205446500I0J100000D01*
G01*
X136444000Y206721500D01*
G75*
G02*
X136544000Y206821500I100000J0D01*
G01*
X136744000Y206821500D01*
G75*
G02*
X136844000Y206721500I0J-100000D01*
G01*
X136844000Y205446500D01*
G75*
G02*
X136744000Y205346500I-100000J0D01*
G01*
G37*
G36*
G01*
X137394000Y205346500D02*
X137194000Y205346500D01*
G75*
G02*
X137094000Y205446500I0J100000D01*
G01*
X137094000Y206721500D01*
G75*
G02*
X137194000Y206821500I100000J0D01*
G01*
X137394000Y206821500D01*
G75*
G02*
X137494000Y206721500I0J-100000D01*
G01*
X137494000Y205446500D01*
G75*
G02*
X137394000Y205346500I-100000J0D01*
G01*
G37*
G36*
G01*
X138044000Y205346500D02*
X137844000Y205346500D01*
G75*
G02*
X137744000Y205446500I0J100000D01*
G01*
X137744000Y206721500D01*
G75*
G02*
X137844000Y206821500I100000J0D01*
G01*
X138044000Y206821500D01*
G75*
G02*
X138144000Y206721500I0J-100000D01*
G01*
X138144000Y205446500D01*
G75*
G02*
X138044000Y205346500I-100000J0D01*
G01*
G37*
G36*
G01*
X138694000Y205346500D02*
X138494000Y205346500D01*
G75*
G02*
X138394000Y205446500I0J100000D01*
G01*
X138394000Y206721500D01*
G75*
G02*
X138494000Y206821500I100000J0D01*
G01*
X138694000Y206821500D01*
G75*
G02*
X138794000Y206721500I0J-100000D01*
G01*
X138794000Y205446500D01*
G75*
G02*
X138694000Y205346500I-100000J0D01*
G01*
G37*
G36*
G01*
X139344000Y205346500D02*
X139144000Y205346500D01*
G75*
G02*
X139044000Y205446500I0J100000D01*
G01*
X139044000Y206721500D01*
G75*
G02*
X139144000Y206821500I100000J0D01*
G01*
X139344000Y206821500D01*
G75*
G02*
X139444000Y206721500I0J-100000D01*
G01*
X139444000Y205446500D01*
G75*
G02*
X139344000Y205346500I-100000J0D01*
G01*
G37*
G36*
G01*
X139994000Y205346500D02*
X139794000Y205346500D01*
G75*
G02*
X139694000Y205446500I0J100000D01*
G01*
X139694000Y206721500D01*
G75*
G02*
X139794000Y206821500I100000J0D01*
G01*
X139994000Y206821500D01*
G75*
G02*
X140094000Y206721500I0J-100000D01*
G01*
X140094000Y205446500D01*
G75*
G02*
X139994000Y205346500I-100000J0D01*
G01*
G37*
G36*
G01*
X140644000Y205346500D02*
X140444000Y205346500D01*
G75*
G02*
X140344000Y205446500I0J100000D01*
G01*
X140344000Y206721500D01*
G75*
G02*
X140444000Y206821500I100000J0D01*
G01*
X140644000Y206821500D01*
G75*
G02*
X140744000Y206721500I0J-100000D01*
G01*
X140744000Y205446500D01*
G75*
G02*
X140644000Y205346500I-100000J0D01*
G01*
G37*
G36*
G01*
X140644000Y199621500D02*
X140444000Y199621500D01*
G75*
G02*
X140344000Y199721500I0J100000D01*
G01*
X140344000Y200996500D01*
G75*
G02*
X140444000Y201096500I100000J0D01*
G01*
X140644000Y201096500D01*
G75*
G02*
X140744000Y200996500I0J-100000D01*
G01*
X140744000Y199721500D01*
G75*
G02*
X140644000Y199621500I-100000J0D01*
G01*
G37*
G36*
G01*
X139994000Y199621500D02*
X139794000Y199621500D01*
G75*
G02*
X139694000Y199721500I0J100000D01*
G01*
X139694000Y200996500D01*
G75*
G02*
X139794000Y201096500I100000J0D01*
G01*
X139994000Y201096500D01*
G75*
G02*
X140094000Y200996500I0J-100000D01*
G01*
X140094000Y199721500D01*
G75*
G02*
X139994000Y199621500I-100000J0D01*
G01*
G37*
G36*
G01*
X139344000Y199621500D02*
X139144000Y199621500D01*
G75*
G02*
X139044000Y199721500I0J100000D01*
G01*
X139044000Y200996500D01*
G75*
G02*
X139144000Y201096500I100000J0D01*
G01*
X139344000Y201096500D01*
G75*
G02*
X139444000Y200996500I0J-100000D01*
G01*
X139444000Y199721500D01*
G75*
G02*
X139344000Y199621500I-100000J0D01*
G01*
G37*
G36*
G01*
X138694000Y199621500D02*
X138494000Y199621500D01*
G75*
G02*
X138394000Y199721500I0J100000D01*
G01*
X138394000Y200996500D01*
G75*
G02*
X138494000Y201096500I100000J0D01*
G01*
X138694000Y201096500D01*
G75*
G02*
X138794000Y200996500I0J-100000D01*
G01*
X138794000Y199721500D01*
G75*
G02*
X138694000Y199621500I-100000J0D01*
G01*
G37*
G36*
G01*
X138044000Y199621500D02*
X137844000Y199621500D01*
G75*
G02*
X137744000Y199721500I0J100000D01*
G01*
X137744000Y200996500D01*
G75*
G02*
X137844000Y201096500I100000J0D01*
G01*
X138044000Y201096500D01*
G75*
G02*
X138144000Y200996500I0J-100000D01*
G01*
X138144000Y199721500D01*
G75*
G02*
X138044000Y199621500I-100000J0D01*
G01*
G37*
G36*
G01*
X137394000Y199621500D02*
X137194000Y199621500D01*
G75*
G02*
X137094000Y199721500I0J100000D01*
G01*
X137094000Y200996500D01*
G75*
G02*
X137194000Y201096500I100000J0D01*
G01*
X137394000Y201096500D01*
G75*
G02*
X137494000Y200996500I0J-100000D01*
G01*
X137494000Y199721500D01*
G75*
G02*
X137394000Y199621500I-100000J0D01*
G01*
G37*
G36*
G01*
X136744000Y199621500D02*
X136544000Y199621500D01*
G75*
G02*
X136444000Y199721500I0J100000D01*
G01*
X136444000Y200996500D01*
G75*
G02*
X136544000Y201096500I100000J0D01*
G01*
X136744000Y201096500D01*
G75*
G02*
X136844000Y200996500I0J-100000D01*
G01*
X136844000Y199721500D01*
G75*
G02*
X136744000Y199621500I-100000J0D01*
G01*
G37*
G36*
G01*
X136094000Y199621500D02*
X135894000Y199621500D01*
G75*
G02*
X135794000Y199721500I0J100000D01*
G01*
X135794000Y200996500D01*
G75*
G02*
X135894000Y201096500I100000J0D01*
G01*
X136094000Y201096500D01*
G75*
G02*
X136194000Y200996500I0J-100000D01*
G01*
X136194000Y199721500D01*
G75*
G02*
X136094000Y199621500I-100000J0D01*
G01*
G37*
%TD*%
%TO.C,U1*%
G36*
G01*
X181216000Y218464000D02*
X181216000Y219789000D01*
G75*
G02*
X181291000Y219864000I75000J0D01*
G01*
X181441000Y219864000D01*
G75*
G02*
X181516000Y219789000I0J-75000D01*
G01*
X181516000Y218464000D01*
G75*
G02*
X181441000Y218389000I-75000J0D01*
G01*
X181291000Y218389000D01*
G75*
G02*
X181216000Y218464000I0J75000D01*
G01*
G37*
G36*
G01*
X181716000Y218464000D02*
X181716000Y219789000D01*
G75*
G02*
X181791000Y219864000I75000J0D01*
G01*
X181941000Y219864000D01*
G75*
G02*
X182016000Y219789000I0J-75000D01*
G01*
X182016000Y218464000D01*
G75*
G02*
X181941000Y218389000I-75000J0D01*
G01*
X181791000Y218389000D01*
G75*
G02*
X181716000Y218464000I0J75000D01*
G01*
G37*
G36*
G01*
X182216000Y218464000D02*
X182216000Y219789000D01*
G75*
G02*
X182291000Y219864000I75000J0D01*
G01*
X182441000Y219864000D01*
G75*
G02*
X182516000Y219789000I0J-75000D01*
G01*
X182516000Y218464000D01*
G75*
G02*
X182441000Y218389000I-75000J0D01*
G01*
X182291000Y218389000D01*
G75*
G02*
X182216000Y218464000I0J75000D01*
G01*
G37*
G36*
G01*
X182716000Y218464000D02*
X182716000Y219789000D01*
G75*
G02*
X182791000Y219864000I75000J0D01*
G01*
X182941000Y219864000D01*
G75*
G02*
X183016000Y219789000I0J-75000D01*
G01*
X183016000Y218464000D01*
G75*
G02*
X182941000Y218389000I-75000J0D01*
G01*
X182791000Y218389000D01*
G75*
G02*
X182716000Y218464000I0J75000D01*
G01*
G37*
G36*
G01*
X183216000Y218464000D02*
X183216000Y219789000D01*
G75*
G02*
X183291000Y219864000I75000J0D01*
G01*
X183441000Y219864000D01*
G75*
G02*
X183516000Y219789000I0J-75000D01*
G01*
X183516000Y218464000D01*
G75*
G02*
X183441000Y218389000I-75000J0D01*
G01*
X183291000Y218389000D01*
G75*
G02*
X183216000Y218464000I0J75000D01*
G01*
G37*
G36*
G01*
X183716000Y218464000D02*
X183716000Y219789000D01*
G75*
G02*
X183791000Y219864000I75000J0D01*
G01*
X183941000Y219864000D01*
G75*
G02*
X184016000Y219789000I0J-75000D01*
G01*
X184016000Y218464000D01*
G75*
G02*
X183941000Y218389000I-75000J0D01*
G01*
X183791000Y218389000D01*
G75*
G02*
X183716000Y218464000I0J75000D01*
G01*
G37*
G36*
G01*
X184216000Y218464000D02*
X184216000Y219789000D01*
G75*
G02*
X184291000Y219864000I75000J0D01*
G01*
X184441000Y219864000D01*
G75*
G02*
X184516000Y219789000I0J-75000D01*
G01*
X184516000Y218464000D01*
G75*
G02*
X184441000Y218389000I-75000J0D01*
G01*
X184291000Y218389000D01*
G75*
G02*
X184216000Y218464000I0J75000D01*
G01*
G37*
G36*
G01*
X184716000Y218464000D02*
X184716000Y219789000D01*
G75*
G02*
X184791000Y219864000I75000J0D01*
G01*
X184941000Y219864000D01*
G75*
G02*
X185016000Y219789000I0J-75000D01*
G01*
X185016000Y218464000D01*
G75*
G02*
X184941000Y218389000I-75000J0D01*
G01*
X184791000Y218389000D01*
G75*
G02*
X184716000Y218464000I0J75000D01*
G01*
G37*
G36*
G01*
X185216000Y218464000D02*
X185216000Y219789000D01*
G75*
G02*
X185291000Y219864000I75000J0D01*
G01*
X185441000Y219864000D01*
G75*
G02*
X185516000Y219789000I0J-75000D01*
G01*
X185516000Y218464000D01*
G75*
G02*
X185441000Y218389000I-75000J0D01*
G01*
X185291000Y218389000D01*
G75*
G02*
X185216000Y218464000I0J75000D01*
G01*
G37*
G36*
G01*
X185716000Y218464000D02*
X185716000Y219789000D01*
G75*
G02*
X185791000Y219864000I75000J0D01*
G01*
X185941000Y219864000D01*
G75*
G02*
X186016000Y219789000I0J-75000D01*
G01*
X186016000Y218464000D01*
G75*
G02*
X185941000Y218389000I-75000J0D01*
G01*
X185791000Y218389000D01*
G75*
G02*
X185716000Y218464000I0J75000D01*
G01*
G37*
G36*
G01*
X186216000Y218464000D02*
X186216000Y219789000D01*
G75*
G02*
X186291000Y219864000I75000J0D01*
G01*
X186441000Y219864000D01*
G75*
G02*
X186516000Y219789000I0J-75000D01*
G01*
X186516000Y218464000D01*
G75*
G02*
X186441000Y218389000I-75000J0D01*
G01*
X186291000Y218389000D01*
G75*
G02*
X186216000Y218464000I0J75000D01*
G01*
G37*
G36*
G01*
X186716000Y218464000D02*
X186716000Y219789000D01*
G75*
G02*
X186791000Y219864000I75000J0D01*
G01*
X186941000Y219864000D01*
G75*
G02*
X187016000Y219789000I0J-75000D01*
G01*
X187016000Y218464000D01*
G75*
G02*
X186941000Y218389000I-75000J0D01*
G01*
X186791000Y218389000D01*
G75*
G02*
X186716000Y218464000I0J75000D01*
G01*
G37*
G36*
G01*
X187541000Y217639000D02*
X187541000Y217789000D01*
G75*
G02*
X187616000Y217864000I75000J0D01*
G01*
X188941000Y217864000D01*
G75*
G02*
X189016000Y217789000I0J-75000D01*
G01*
X189016000Y217639000D01*
G75*
G02*
X188941000Y217564000I-75000J0D01*
G01*
X187616000Y217564000D01*
G75*
G02*
X187541000Y217639000I0J75000D01*
G01*
G37*
G36*
G01*
X187541000Y217139000D02*
X187541000Y217289000D01*
G75*
G02*
X187616000Y217364000I75000J0D01*
G01*
X188941000Y217364000D01*
G75*
G02*
X189016000Y217289000I0J-75000D01*
G01*
X189016000Y217139000D01*
G75*
G02*
X188941000Y217064000I-75000J0D01*
G01*
X187616000Y217064000D01*
G75*
G02*
X187541000Y217139000I0J75000D01*
G01*
G37*
G36*
G01*
X187541000Y216639000D02*
X187541000Y216789000D01*
G75*
G02*
X187616000Y216864000I75000J0D01*
G01*
X188941000Y216864000D01*
G75*
G02*
X189016000Y216789000I0J-75000D01*
G01*
X189016000Y216639000D01*
G75*
G02*
X188941000Y216564000I-75000J0D01*
G01*
X187616000Y216564000D01*
G75*
G02*
X187541000Y216639000I0J75000D01*
G01*
G37*
G36*
G01*
X187541000Y216139000D02*
X187541000Y216289000D01*
G75*
G02*
X187616000Y216364000I75000J0D01*
G01*
X188941000Y216364000D01*
G75*
G02*
X189016000Y216289000I0J-75000D01*
G01*
X189016000Y216139000D01*
G75*
G02*
X188941000Y216064000I-75000J0D01*
G01*
X187616000Y216064000D01*
G75*
G02*
X187541000Y216139000I0J75000D01*
G01*
G37*
G36*
G01*
X187541000Y215639000D02*
X187541000Y215789000D01*
G75*
G02*
X187616000Y215864000I75000J0D01*
G01*
X188941000Y215864000D01*
G75*
G02*
X189016000Y215789000I0J-75000D01*
G01*
X189016000Y215639000D01*
G75*
G02*
X188941000Y215564000I-75000J0D01*
G01*
X187616000Y215564000D01*
G75*
G02*
X187541000Y215639000I0J75000D01*
G01*
G37*
G36*
G01*
X187541000Y215139000D02*
X187541000Y215289000D01*
G75*
G02*
X187616000Y215364000I75000J0D01*
G01*
X188941000Y215364000D01*
G75*
G02*
X189016000Y215289000I0J-75000D01*
G01*
X189016000Y215139000D01*
G75*
G02*
X188941000Y215064000I-75000J0D01*
G01*
X187616000Y215064000D01*
G75*
G02*
X187541000Y215139000I0J75000D01*
G01*
G37*
G36*
G01*
X187541000Y214639000D02*
X187541000Y214789000D01*
G75*
G02*
X187616000Y214864000I75000J0D01*
G01*
X188941000Y214864000D01*
G75*
G02*
X189016000Y214789000I0J-75000D01*
G01*
X189016000Y214639000D01*
G75*
G02*
X188941000Y214564000I-75000J0D01*
G01*
X187616000Y214564000D01*
G75*
G02*
X187541000Y214639000I0J75000D01*
G01*
G37*
G36*
G01*
X187541000Y214139000D02*
X187541000Y214289000D01*
G75*
G02*
X187616000Y214364000I75000J0D01*
G01*
X188941000Y214364000D01*
G75*
G02*
X189016000Y214289000I0J-75000D01*
G01*
X189016000Y214139000D01*
G75*
G02*
X188941000Y214064000I-75000J0D01*
G01*
X187616000Y214064000D01*
G75*
G02*
X187541000Y214139000I0J75000D01*
G01*
G37*
G36*
G01*
X187541000Y213639000D02*
X187541000Y213789000D01*
G75*
G02*
X187616000Y213864000I75000J0D01*
G01*
X188941000Y213864000D01*
G75*
G02*
X189016000Y213789000I0J-75000D01*
G01*
X189016000Y213639000D01*
G75*
G02*
X188941000Y213564000I-75000J0D01*
G01*
X187616000Y213564000D01*
G75*
G02*
X187541000Y213639000I0J75000D01*
G01*
G37*
G36*
G01*
X187541000Y213139000D02*
X187541000Y213289000D01*
G75*
G02*
X187616000Y213364000I75000J0D01*
G01*
X188941000Y213364000D01*
G75*
G02*
X189016000Y213289000I0J-75000D01*
G01*
X189016000Y213139000D01*
G75*
G02*
X188941000Y213064000I-75000J0D01*
G01*
X187616000Y213064000D01*
G75*
G02*
X187541000Y213139000I0J75000D01*
G01*
G37*
G36*
G01*
X187541000Y212639000D02*
X187541000Y212789000D01*
G75*
G02*
X187616000Y212864000I75000J0D01*
G01*
X188941000Y212864000D01*
G75*
G02*
X189016000Y212789000I0J-75000D01*
G01*
X189016000Y212639000D01*
G75*
G02*
X188941000Y212564000I-75000J0D01*
G01*
X187616000Y212564000D01*
G75*
G02*
X187541000Y212639000I0J75000D01*
G01*
G37*
G36*
G01*
X187541000Y212139000D02*
X187541000Y212289000D01*
G75*
G02*
X187616000Y212364000I75000J0D01*
G01*
X188941000Y212364000D01*
G75*
G02*
X189016000Y212289000I0J-75000D01*
G01*
X189016000Y212139000D01*
G75*
G02*
X188941000Y212064000I-75000J0D01*
G01*
X187616000Y212064000D01*
G75*
G02*
X187541000Y212139000I0J75000D01*
G01*
G37*
G36*
G01*
X186716000Y210139000D02*
X186716000Y211464000D01*
G75*
G02*
X186791000Y211539000I75000J0D01*
G01*
X186941000Y211539000D01*
G75*
G02*
X187016000Y211464000I0J-75000D01*
G01*
X187016000Y210139000D01*
G75*
G02*
X186941000Y210064000I-75000J0D01*
G01*
X186791000Y210064000D01*
G75*
G02*
X186716000Y210139000I0J75000D01*
G01*
G37*
G36*
G01*
X186216000Y210139000D02*
X186216000Y211464000D01*
G75*
G02*
X186291000Y211539000I75000J0D01*
G01*
X186441000Y211539000D01*
G75*
G02*
X186516000Y211464000I0J-75000D01*
G01*
X186516000Y210139000D01*
G75*
G02*
X186441000Y210064000I-75000J0D01*
G01*
X186291000Y210064000D01*
G75*
G02*
X186216000Y210139000I0J75000D01*
G01*
G37*
G36*
G01*
X185716000Y210139000D02*
X185716000Y211464000D01*
G75*
G02*
X185791000Y211539000I75000J0D01*
G01*
X185941000Y211539000D01*
G75*
G02*
X186016000Y211464000I0J-75000D01*
G01*
X186016000Y210139000D01*
G75*
G02*
X185941000Y210064000I-75000J0D01*
G01*
X185791000Y210064000D01*
G75*
G02*
X185716000Y210139000I0J75000D01*
G01*
G37*
G36*
G01*
X185216000Y210139000D02*
X185216000Y211464000D01*
G75*
G02*
X185291000Y211539000I75000J0D01*
G01*
X185441000Y211539000D01*
G75*
G02*
X185516000Y211464000I0J-75000D01*
G01*
X185516000Y210139000D01*
G75*
G02*
X185441000Y210064000I-75000J0D01*
G01*
X185291000Y210064000D01*
G75*
G02*
X185216000Y210139000I0J75000D01*
G01*
G37*
G36*
G01*
X184716000Y210139000D02*
X184716000Y211464000D01*
G75*
G02*
X184791000Y211539000I75000J0D01*
G01*
X184941000Y211539000D01*
G75*
G02*
X185016000Y211464000I0J-75000D01*
G01*
X185016000Y210139000D01*
G75*
G02*
X184941000Y210064000I-75000J0D01*
G01*
X184791000Y210064000D01*
G75*
G02*
X184716000Y210139000I0J75000D01*
G01*
G37*
G36*
G01*
X184216000Y210139000D02*
X184216000Y211464000D01*
G75*
G02*
X184291000Y211539000I75000J0D01*
G01*
X184441000Y211539000D01*
G75*
G02*
X184516000Y211464000I0J-75000D01*
G01*
X184516000Y210139000D01*
G75*
G02*
X184441000Y210064000I-75000J0D01*
G01*
X184291000Y210064000D01*
G75*
G02*
X184216000Y210139000I0J75000D01*
G01*
G37*
G36*
G01*
X183716000Y210139000D02*
X183716000Y211464000D01*
G75*
G02*
X183791000Y211539000I75000J0D01*
G01*
X183941000Y211539000D01*
G75*
G02*
X184016000Y211464000I0J-75000D01*
G01*
X184016000Y210139000D01*
G75*
G02*
X183941000Y210064000I-75000J0D01*
G01*
X183791000Y210064000D01*
G75*
G02*
X183716000Y210139000I0J75000D01*
G01*
G37*
G36*
G01*
X183216000Y210139000D02*
X183216000Y211464000D01*
G75*
G02*
X183291000Y211539000I75000J0D01*
G01*
X183441000Y211539000D01*
G75*
G02*
X183516000Y211464000I0J-75000D01*
G01*
X183516000Y210139000D01*
G75*
G02*
X183441000Y210064000I-75000J0D01*
G01*
X183291000Y210064000D01*
G75*
G02*
X183216000Y210139000I0J75000D01*
G01*
G37*
G36*
G01*
X182716000Y210139000D02*
X182716000Y211464000D01*
G75*
G02*
X182791000Y211539000I75000J0D01*
G01*
X182941000Y211539000D01*
G75*
G02*
X183016000Y211464000I0J-75000D01*
G01*
X183016000Y210139000D01*
G75*
G02*
X182941000Y210064000I-75000J0D01*
G01*
X182791000Y210064000D01*
G75*
G02*
X182716000Y210139000I0J75000D01*
G01*
G37*
G36*
G01*
X182216000Y210139000D02*
X182216000Y211464000D01*
G75*
G02*
X182291000Y211539000I75000J0D01*
G01*
X182441000Y211539000D01*
G75*
G02*
X182516000Y211464000I0J-75000D01*
G01*
X182516000Y210139000D01*
G75*
G02*
X182441000Y210064000I-75000J0D01*
G01*
X182291000Y210064000D01*
G75*
G02*
X182216000Y210139000I0J75000D01*
G01*
G37*
G36*
G01*
X181716000Y210139000D02*
X181716000Y211464000D01*
G75*
G02*
X181791000Y211539000I75000J0D01*
G01*
X181941000Y211539000D01*
G75*
G02*
X182016000Y211464000I0J-75000D01*
G01*
X182016000Y210139000D01*
G75*
G02*
X181941000Y210064000I-75000J0D01*
G01*
X181791000Y210064000D01*
G75*
G02*
X181716000Y210139000I0J75000D01*
G01*
G37*
G36*
G01*
X181216000Y210139000D02*
X181216000Y211464000D01*
G75*
G02*
X181291000Y211539000I75000J0D01*
G01*
X181441000Y211539000D01*
G75*
G02*
X181516000Y211464000I0J-75000D01*
G01*
X181516000Y210139000D01*
G75*
G02*
X181441000Y210064000I-75000J0D01*
G01*
X181291000Y210064000D01*
G75*
G02*
X181216000Y210139000I0J75000D01*
G01*
G37*
G36*
G01*
X179216000Y212139000D02*
X179216000Y212289000D01*
G75*
G02*
X179291000Y212364000I75000J0D01*
G01*
X180616000Y212364000D01*
G75*
G02*
X180691000Y212289000I0J-75000D01*
G01*
X180691000Y212139000D01*
G75*
G02*
X180616000Y212064000I-75000J0D01*
G01*
X179291000Y212064000D01*
G75*
G02*
X179216000Y212139000I0J75000D01*
G01*
G37*
G36*
G01*
X179216000Y212639000D02*
X179216000Y212789000D01*
G75*
G02*
X179291000Y212864000I75000J0D01*
G01*
X180616000Y212864000D01*
G75*
G02*
X180691000Y212789000I0J-75000D01*
G01*
X180691000Y212639000D01*
G75*
G02*
X180616000Y212564000I-75000J0D01*
G01*
X179291000Y212564000D01*
G75*
G02*
X179216000Y212639000I0J75000D01*
G01*
G37*
G36*
G01*
X179216000Y213139000D02*
X179216000Y213289000D01*
G75*
G02*
X179291000Y213364000I75000J0D01*
G01*
X180616000Y213364000D01*
G75*
G02*
X180691000Y213289000I0J-75000D01*
G01*
X180691000Y213139000D01*
G75*
G02*
X180616000Y213064000I-75000J0D01*
G01*
X179291000Y213064000D01*
G75*
G02*
X179216000Y213139000I0J75000D01*
G01*
G37*
G36*
G01*
X179216000Y213639000D02*
X179216000Y213789000D01*
G75*
G02*
X179291000Y213864000I75000J0D01*
G01*
X180616000Y213864000D01*
G75*
G02*
X180691000Y213789000I0J-75000D01*
G01*
X180691000Y213639000D01*
G75*
G02*
X180616000Y213564000I-75000J0D01*
G01*
X179291000Y213564000D01*
G75*
G02*
X179216000Y213639000I0J75000D01*
G01*
G37*
G36*
G01*
X179216000Y214139000D02*
X179216000Y214289000D01*
G75*
G02*
X179291000Y214364000I75000J0D01*
G01*
X180616000Y214364000D01*
G75*
G02*
X180691000Y214289000I0J-75000D01*
G01*
X180691000Y214139000D01*
G75*
G02*
X180616000Y214064000I-75000J0D01*
G01*
X179291000Y214064000D01*
G75*
G02*
X179216000Y214139000I0J75000D01*
G01*
G37*
G36*
G01*
X179216000Y214639000D02*
X179216000Y214789000D01*
G75*
G02*
X179291000Y214864000I75000J0D01*
G01*
X180616000Y214864000D01*
G75*
G02*
X180691000Y214789000I0J-75000D01*
G01*
X180691000Y214639000D01*
G75*
G02*
X180616000Y214564000I-75000J0D01*
G01*
X179291000Y214564000D01*
G75*
G02*
X179216000Y214639000I0J75000D01*
G01*
G37*
G36*
G01*
X179216000Y215139000D02*
X179216000Y215289000D01*
G75*
G02*
X179291000Y215364000I75000J0D01*
G01*
X180616000Y215364000D01*
G75*
G02*
X180691000Y215289000I0J-75000D01*
G01*
X180691000Y215139000D01*
G75*
G02*
X180616000Y215064000I-75000J0D01*
G01*
X179291000Y215064000D01*
G75*
G02*
X179216000Y215139000I0J75000D01*
G01*
G37*
G36*
G01*
X179216000Y215639000D02*
X179216000Y215789000D01*
G75*
G02*
X179291000Y215864000I75000J0D01*
G01*
X180616000Y215864000D01*
G75*
G02*
X180691000Y215789000I0J-75000D01*
G01*
X180691000Y215639000D01*
G75*
G02*
X180616000Y215564000I-75000J0D01*
G01*
X179291000Y215564000D01*
G75*
G02*
X179216000Y215639000I0J75000D01*
G01*
G37*
G36*
G01*
X179216000Y216139000D02*
X179216000Y216289000D01*
G75*
G02*
X179291000Y216364000I75000J0D01*
G01*
X180616000Y216364000D01*
G75*
G02*
X180691000Y216289000I0J-75000D01*
G01*
X180691000Y216139000D01*
G75*
G02*
X180616000Y216064000I-75000J0D01*
G01*
X179291000Y216064000D01*
G75*
G02*
X179216000Y216139000I0J75000D01*
G01*
G37*
G36*
G01*
X179216000Y216639000D02*
X179216000Y216789000D01*
G75*
G02*
X179291000Y216864000I75000J0D01*
G01*
X180616000Y216864000D01*
G75*
G02*
X180691000Y216789000I0J-75000D01*
G01*
X180691000Y216639000D01*
G75*
G02*
X180616000Y216564000I-75000J0D01*
G01*
X179291000Y216564000D01*
G75*
G02*
X179216000Y216639000I0J75000D01*
G01*
G37*
G36*
G01*
X179216000Y217139000D02*
X179216000Y217289000D01*
G75*
G02*
X179291000Y217364000I75000J0D01*
G01*
X180616000Y217364000D01*
G75*
G02*
X180691000Y217289000I0J-75000D01*
G01*
X180691000Y217139000D01*
G75*
G02*
X180616000Y217064000I-75000J0D01*
G01*
X179291000Y217064000D01*
G75*
G02*
X179216000Y217139000I0J75000D01*
G01*
G37*
G36*
G01*
X179216000Y217639000D02*
X179216000Y217789000D01*
G75*
G02*
X179291000Y217864000I75000J0D01*
G01*
X180616000Y217864000D01*
G75*
G02*
X180691000Y217789000I0J-75000D01*
G01*
X180691000Y217639000D01*
G75*
G02*
X180616000Y217564000I-75000J0D01*
G01*
X179291000Y217564000D01*
G75*
G02*
X179216000Y217639000I0J75000D01*
G01*
G37*
%TD*%
%TO.C,LD1*%
G36*
G01*
X134026250Y190552000D02*
X133113750Y190552000D01*
G75*
G02*
X132870000Y190795750I0J243750D01*
G01*
X132870000Y191283250D01*
G75*
G02*
X133113750Y191527000I243750J0D01*
G01*
X134026250Y191527000D01*
G75*
G02*
X134270000Y191283250I0J-243750D01*
G01*
X134270000Y190795750D01*
G75*
G02*
X134026250Y190552000I-243750J0D01*
G01*
G37*
G36*
G01*
X134026250Y192427000D02*
X133113750Y192427000D01*
G75*
G02*
X132870000Y192670750I0J243750D01*
G01*
X132870000Y193158250D01*
G75*
G02*
X133113750Y193402000I243750J0D01*
G01*
X134026250Y193402000D01*
G75*
G02*
X134270000Y193158250I0J-243750D01*
G01*
X134270000Y192670750D01*
G75*
G02*
X134026250Y192427000I-243750J0D01*
G01*
G37*
%TD*%
%TO.C,LD2*%
G36*
G01*
X136185250Y192436000D02*
X135272750Y192436000D01*
G75*
G02*
X135029000Y192679750I0J243750D01*
G01*
X135029000Y193167250D01*
G75*
G02*
X135272750Y193411000I243750J0D01*
G01*
X136185250Y193411000D01*
G75*
G02*
X136429000Y193167250I0J-243750D01*
G01*
X136429000Y192679750D01*
G75*
G02*
X136185250Y192436000I-243750J0D01*
G01*
G37*
G36*
G01*
X136185250Y190561000D02*
X135272750Y190561000D01*
G75*
G02*
X135029000Y190804750I0J243750D01*
G01*
X135029000Y191292250D01*
G75*
G02*
X135272750Y191536000I243750J0D01*
G01*
X136185250Y191536000D01*
G75*
G02*
X136429000Y191292250I0J-243750D01*
G01*
X136429000Y190804750D01*
G75*
G02*
X136185250Y190561000I-243750J0D01*
G01*
G37*
%TD*%
%TO.C,LD3*%
G36*
G01*
X138344250Y190561000D02*
X137431750Y190561000D01*
G75*
G02*
X137188000Y190804750I0J243750D01*
G01*
X137188000Y191292250D01*
G75*
G02*
X137431750Y191536000I243750J0D01*
G01*
X138344250Y191536000D01*
G75*
G02*
X138588000Y191292250I0J-243750D01*
G01*
X138588000Y190804750D01*
G75*
G02*
X138344250Y190561000I-243750J0D01*
G01*
G37*
G36*
G01*
X138344250Y192436000D02*
X137431750Y192436000D01*
G75*
G02*
X137188000Y192679750I0J243750D01*
G01*
X137188000Y193167250D01*
G75*
G02*
X137431750Y193411000I243750J0D01*
G01*
X138344250Y193411000D01*
G75*
G02*
X138588000Y193167250I0J-243750D01*
G01*
X138588000Y192679750D01*
G75*
G02*
X138344250Y192436000I-243750J0D01*
G01*
G37*
%TD*%
%TO.C,LD4*%
G36*
G01*
X140503250Y192436000D02*
X139590750Y192436000D01*
G75*
G02*
X139347000Y192679750I0J243750D01*
G01*
X139347000Y193167250D01*
G75*
G02*
X139590750Y193411000I243750J0D01*
G01*
X140503250Y193411000D01*
G75*
G02*
X140747000Y193167250I0J-243750D01*
G01*
X140747000Y192679750D01*
G75*
G02*
X140503250Y192436000I-243750J0D01*
G01*
G37*
G36*
G01*
X140503250Y190561000D02*
X139590750Y190561000D01*
G75*
G02*
X139347000Y190804750I0J243750D01*
G01*
X139347000Y191292250D01*
G75*
G02*
X139590750Y191536000I243750J0D01*
G01*
X140503250Y191536000D01*
G75*
G02*
X140747000Y191292250I0J-243750D01*
G01*
X140747000Y190804750D01*
G75*
G02*
X140503250Y190561000I-243750J0D01*
G01*
G37*
%TD*%
%TO.C,LD5*%
G36*
G01*
X142662250Y192436000D02*
X141749750Y192436000D01*
G75*
G02*
X141506000Y192679750I0J243750D01*
G01*
X141506000Y193167250D01*
G75*
G02*
X141749750Y193411000I243750J0D01*
G01*
X142662250Y193411000D01*
G75*
G02*
X142906000Y193167250I0J-243750D01*
G01*
X142906000Y192679750D01*
G75*
G02*
X142662250Y192436000I-243750J0D01*
G01*
G37*
G36*
G01*
X142662250Y190561000D02*
X141749750Y190561000D01*
G75*
G02*
X141506000Y190804750I0J243750D01*
G01*
X141506000Y191292250D01*
G75*
G02*
X141749750Y191536000I243750J0D01*
G01*
X142662250Y191536000D01*
G75*
G02*
X142906000Y191292250I0J-243750D01*
G01*
X142906000Y190804750D01*
G75*
G02*
X142662250Y190561000I-243750J0D01*
G01*
G37*
%TD*%
%TO.C,LD6*%
G36*
G01*
X144821250Y190561000D02*
X143908750Y190561000D01*
G75*
G02*
X143665000Y190804750I0J243750D01*
G01*
X143665000Y191292250D01*
G75*
G02*
X143908750Y191536000I243750J0D01*
G01*
X144821250Y191536000D01*
G75*
G02*
X145065000Y191292250I0J-243750D01*
G01*
X145065000Y190804750D01*
G75*
G02*
X144821250Y190561000I-243750J0D01*
G01*
G37*
G36*
G01*
X144821250Y192436000D02*
X143908750Y192436000D01*
G75*
G02*
X143665000Y192679750I0J243750D01*
G01*
X143665000Y193167250D01*
G75*
G02*
X143908750Y193411000I243750J0D01*
G01*
X144821250Y193411000D01*
G75*
G02*
X145065000Y193167250I0J-243750D01*
G01*
X145065000Y192679750D01*
G75*
G02*
X144821250Y192436000I-243750J0D01*
G01*
G37*
%TD*%
%TO.C,LD7*%
G36*
G01*
X146980250Y192436000D02*
X146067750Y192436000D01*
G75*
G02*
X145824000Y192679750I0J243750D01*
G01*
X145824000Y193167250D01*
G75*
G02*
X146067750Y193411000I243750J0D01*
G01*
X146980250Y193411000D01*
G75*
G02*
X147224000Y193167250I0J-243750D01*
G01*
X147224000Y192679750D01*
G75*
G02*
X146980250Y192436000I-243750J0D01*
G01*
G37*
G36*
G01*
X146980250Y190561000D02*
X146067750Y190561000D01*
G75*
G02*
X145824000Y190804750I0J243750D01*
G01*
X145824000Y191292250D01*
G75*
G02*
X146067750Y191536000I243750J0D01*
G01*
X146980250Y191536000D01*
G75*
G02*
X147224000Y191292250I0J-243750D01*
G01*
X147224000Y190804750D01*
G75*
G02*
X146980250Y190561000I-243750J0D01*
G01*
G37*
%TD*%
%TO.C,LD8*%
G36*
G01*
X149139250Y190561000D02*
X148226750Y190561000D01*
G75*
G02*
X147983000Y190804750I0J243750D01*
G01*
X147983000Y191292250D01*
G75*
G02*
X148226750Y191536000I243750J0D01*
G01*
X149139250Y191536000D01*
G75*
G02*
X149383000Y191292250I0J-243750D01*
G01*
X149383000Y190804750D01*
G75*
G02*
X149139250Y190561000I-243750J0D01*
G01*
G37*
G36*
G01*
X149139250Y192436000D02*
X148226750Y192436000D01*
G75*
G02*
X147983000Y192679750I0J243750D01*
G01*
X147983000Y193167250D01*
G75*
G02*
X148226750Y193411000I243750J0D01*
G01*
X149139250Y193411000D01*
G75*
G02*
X149383000Y193167250I0J-243750D01*
G01*
X149383000Y192679750D01*
G75*
G02*
X149139250Y192436000I-243750J0D01*
G01*
G37*
%TD*%
%TO.C,LD9*%
G36*
G01*
X151298250Y192436000D02*
X150385750Y192436000D01*
G75*
G02*
X150142000Y192679750I0J243750D01*
G01*
X150142000Y193167250D01*
G75*
G02*
X150385750Y193411000I243750J0D01*
G01*
X151298250Y193411000D01*
G75*
G02*
X151542000Y193167250I0J-243750D01*
G01*
X151542000Y192679750D01*
G75*
G02*
X151298250Y192436000I-243750J0D01*
G01*
G37*
G36*
G01*
X151298250Y190561000D02*
X150385750Y190561000D01*
G75*
G02*
X150142000Y190804750I0J243750D01*
G01*
X150142000Y191292250D01*
G75*
G02*
X150385750Y191536000I243750J0D01*
G01*
X151298250Y191536000D01*
G75*
G02*
X151542000Y191292250I0J-243750D01*
G01*
X151542000Y190804750D01*
G75*
G02*
X151298250Y190561000I-243750J0D01*
G01*
G37*
%TD*%
%TO.C,LD10*%
G36*
G01*
X153457250Y190552000D02*
X152544750Y190552000D01*
G75*
G02*
X152301000Y190795750I0J243750D01*
G01*
X152301000Y191283250D01*
G75*
G02*
X152544750Y191527000I243750J0D01*
G01*
X153457250Y191527000D01*
G75*
G02*
X153701000Y191283250I0J-243750D01*
G01*
X153701000Y190795750D01*
G75*
G02*
X153457250Y190552000I-243750J0D01*
G01*
G37*
G36*
G01*
X153457250Y192427000D02*
X152544750Y192427000D01*
G75*
G02*
X152301000Y192670750I0J243750D01*
G01*
X152301000Y193158250D01*
G75*
G02*
X152544750Y193402000I243750J0D01*
G01*
X153457250Y193402000D01*
G75*
G02*
X153701000Y193158250I0J-243750D01*
G01*
X153701000Y192670750D01*
G75*
G02*
X153457250Y192427000I-243750J0D01*
G01*
G37*
%TD*%
%TO.C,LD11*%
G36*
G01*
X155616250Y192436000D02*
X154703750Y192436000D01*
G75*
G02*
X154460000Y192679750I0J243750D01*
G01*
X154460000Y193167250D01*
G75*
G02*
X154703750Y193411000I243750J0D01*
G01*
X155616250Y193411000D01*
G75*
G02*
X155860000Y193167250I0J-243750D01*
G01*
X155860000Y192679750D01*
G75*
G02*
X155616250Y192436000I-243750J0D01*
G01*
G37*
G36*
G01*
X155616250Y190561000D02*
X154703750Y190561000D01*
G75*
G02*
X154460000Y190804750I0J243750D01*
G01*
X154460000Y191292250D01*
G75*
G02*
X154703750Y191536000I243750J0D01*
G01*
X155616250Y191536000D01*
G75*
G02*
X155860000Y191292250I0J-243750D01*
G01*
X155860000Y190804750D01*
G75*
G02*
X155616250Y190561000I-243750J0D01*
G01*
G37*
%TD*%
%TO.C,LD12*%
G36*
G01*
X157775250Y190561000D02*
X156862750Y190561000D01*
G75*
G02*
X156619000Y190804750I0J243750D01*
G01*
X156619000Y191292250D01*
G75*
G02*
X156862750Y191536000I243750J0D01*
G01*
X157775250Y191536000D01*
G75*
G02*
X158019000Y191292250I0J-243750D01*
G01*
X158019000Y190804750D01*
G75*
G02*
X157775250Y190561000I-243750J0D01*
G01*
G37*
G36*
G01*
X157775250Y192436000D02*
X156862750Y192436000D01*
G75*
G02*
X156619000Y192679750I0J243750D01*
G01*
X156619000Y193167250D01*
G75*
G02*
X156862750Y193411000I243750J0D01*
G01*
X157775250Y193411000D01*
G75*
G02*
X158019000Y193167250I0J-243750D01*
G01*
X158019000Y192679750D01*
G75*
G02*
X157775250Y192436000I-243750J0D01*
G01*
G37*
%TD*%
%TO.C,LD13*%
G36*
G01*
X159934250Y192436000D02*
X159021750Y192436000D01*
G75*
G02*
X158778000Y192679750I0J243750D01*
G01*
X158778000Y193167250D01*
G75*
G02*
X159021750Y193411000I243750J0D01*
G01*
X159934250Y193411000D01*
G75*
G02*
X160178000Y193167250I0J-243750D01*
G01*
X160178000Y192679750D01*
G75*
G02*
X159934250Y192436000I-243750J0D01*
G01*
G37*
G36*
G01*
X159934250Y190561000D02*
X159021750Y190561000D01*
G75*
G02*
X158778000Y190804750I0J243750D01*
G01*
X158778000Y191292250D01*
G75*
G02*
X159021750Y191536000I243750J0D01*
G01*
X159934250Y191536000D01*
G75*
G02*
X160178000Y191292250I0J-243750D01*
G01*
X160178000Y190804750D01*
G75*
G02*
X159934250Y190561000I-243750J0D01*
G01*
G37*
%TD*%
%TO.C,LD14*%
G36*
G01*
X162093250Y190561000D02*
X161180750Y190561000D01*
G75*
G02*
X160937000Y190804750I0J243750D01*
G01*
X160937000Y191292250D01*
G75*
G02*
X161180750Y191536000I243750J0D01*
G01*
X162093250Y191536000D01*
G75*
G02*
X162337000Y191292250I0J-243750D01*
G01*
X162337000Y190804750D01*
G75*
G02*
X162093250Y190561000I-243750J0D01*
G01*
G37*
G36*
G01*
X162093250Y192436000D02*
X161180750Y192436000D01*
G75*
G02*
X160937000Y192679750I0J243750D01*
G01*
X160937000Y193167250D01*
G75*
G02*
X161180750Y193411000I243750J0D01*
G01*
X162093250Y193411000D01*
G75*
G02*
X162337000Y193167250I0J-243750D01*
G01*
X162337000Y192679750D01*
G75*
G02*
X162093250Y192436000I-243750J0D01*
G01*
G37*
%TD*%
%TO.C,LD15*%
G36*
G01*
X164252250Y192427000D02*
X163339750Y192427000D01*
G75*
G02*
X163096000Y192670750I0J243750D01*
G01*
X163096000Y193158250D01*
G75*
G02*
X163339750Y193402000I243750J0D01*
G01*
X164252250Y193402000D01*
G75*
G02*
X164496000Y193158250I0J-243750D01*
G01*
X164496000Y192670750D01*
G75*
G02*
X164252250Y192427000I-243750J0D01*
G01*
G37*
G36*
G01*
X164252250Y190552000D02*
X163339750Y190552000D01*
G75*
G02*
X163096000Y190795750I0J243750D01*
G01*
X163096000Y191283250D01*
G75*
G02*
X163339750Y191527000I243750J0D01*
G01*
X164252250Y191527000D01*
G75*
G02*
X164496000Y191283250I0J-243750D01*
G01*
X164496000Y190795750D01*
G75*
G02*
X164252250Y190552000I-243750J0D01*
G01*
G37*
%TD*%
%TO.C,LD16*%
G36*
G01*
X166411250Y190561000D02*
X165498750Y190561000D01*
G75*
G02*
X165255000Y190804750I0J243750D01*
G01*
X165255000Y191292250D01*
G75*
G02*
X165498750Y191536000I243750J0D01*
G01*
X166411250Y191536000D01*
G75*
G02*
X166655000Y191292250I0J-243750D01*
G01*
X166655000Y190804750D01*
G75*
G02*
X166411250Y190561000I-243750J0D01*
G01*
G37*
G36*
G01*
X166411250Y192436000D02*
X165498750Y192436000D01*
G75*
G02*
X165255000Y192679750I0J243750D01*
G01*
X165255000Y193167250D01*
G75*
G02*
X165498750Y193411000I243750J0D01*
G01*
X166411250Y193411000D01*
G75*
G02*
X166655000Y193167250I0J-243750D01*
G01*
X166655000Y192679750D01*
G75*
G02*
X166411250Y192436000I-243750J0D01*
G01*
G37*
%TD*%
%TO.C,LD17*%
G36*
G01*
X168570250Y192418000D02*
X167657750Y192418000D01*
G75*
G02*
X167414000Y192661750I0J243750D01*
G01*
X167414000Y193149250D01*
G75*
G02*
X167657750Y193393000I243750J0D01*
G01*
X168570250Y193393000D01*
G75*
G02*
X168814000Y193149250I0J-243750D01*
G01*
X168814000Y192661750D01*
G75*
G02*
X168570250Y192418000I-243750J0D01*
G01*
G37*
G36*
G01*
X168570250Y190543000D02*
X167657750Y190543000D01*
G75*
G02*
X167414000Y190786750I0J243750D01*
G01*
X167414000Y191274250D01*
G75*
G02*
X167657750Y191518000I243750J0D01*
G01*
X168570250Y191518000D01*
G75*
G02*
X168814000Y191274250I0J-243750D01*
G01*
X168814000Y190786750D01*
G75*
G02*
X168570250Y190543000I-243750J0D01*
G01*
G37*
%TD*%
%TO.C,LD18*%
G36*
G01*
X170729250Y190543000D02*
X169816750Y190543000D01*
G75*
G02*
X169573000Y190786750I0J243750D01*
G01*
X169573000Y191274250D01*
G75*
G02*
X169816750Y191518000I243750J0D01*
G01*
X170729250Y191518000D01*
G75*
G02*
X170973000Y191274250I0J-243750D01*
G01*
X170973000Y190786750D01*
G75*
G02*
X170729250Y190543000I-243750J0D01*
G01*
G37*
G36*
G01*
X170729250Y192418000D02*
X169816750Y192418000D01*
G75*
G02*
X169573000Y192661750I0J243750D01*
G01*
X169573000Y193149250D01*
G75*
G02*
X169816750Y193393000I243750J0D01*
G01*
X170729250Y193393000D01*
G75*
G02*
X170973000Y193149250I0J-243750D01*
G01*
X170973000Y192661750D01*
G75*
G02*
X170729250Y192418000I-243750J0D01*
G01*
G37*
%TD*%
%TO.C,LD19*%
G36*
G01*
X172888250Y192418000D02*
X171975750Y192418000D01*
G75*
G02*
X171732000Y192661750I0J243750D01*
G01*
X171732000Y193149250D01*
G75*
G02*
X171975750Y193393000I243750J0D01*
G01*
X172888250Y193393000D01*
G75*
G02*
X173132000Y193149250I0J-243750D01*
G01*
X173132000Y192661750D01*
G75*
G02*
X172888250Y192418000I-243750J0D01*
G01*
G37*
G36*
G01*
X172888250Y190543000D02*
X171975750Y190543000D01*
G75*
G02*
X171732000Y190786750I0J243750D01*
G01*
X171732000Y191274250D01*
G75*
G02*
X171975750Y191518000I243750J0D01*
G01*
X172888250Y191518000D01*
G75*
G02*
X173132000Y191274250I0J-243750D01*
G01*
X173132000Y190786750D01*
G75*
G02*
X172888250Y190543000I-243750J0D01*
G01*
G37*
%TD*%
%TO.C,LD20*%
G36*
G01*
X175047250Y190552000D02*
X174134750Y190552000D01*
G75*
G02*
X173891000Y190795750I0J243750D01*
G01*
X173891000Y191283250D01*
G75*
G02*
X174134750Y191527000I243750J0D01*
G01*
X175047250Y191527000D01*
G75*
G02*
X175291000Y191283250I0J-243750D01*
G01*
X175291000Y190795750D01*
G75*
G02*
X175047250Y190552000I-243750J0D01*
G01*
G37*
G36*
G01*
X175047250Y192427000D02*
X174134750Y192427000D01*
G75*
G02*
X173891000Y192670750I0J243750D01*
G01*
X173891000Y193158250D01*
G75*
G02*
X174134750Y193402000I243750J0D01*
G01*
X175047250Y193402000D01*
G75*
G02*
X175291000Y193158250I0J-243750D01*
G01*
X175291000Y192670750D01*
G75*
G02*
X175047250Y192427000I-243750J0D01*
G01*
G37*
%TD*%
%TO.C,LD21*%
G36*
G01*
X177206250Y192436000D02*
X176293750Y192436000D01*
G75*
G02*
X176050000Y192679750I0J243750D01*
G01*
X176050000Y193167250D01*
G75*
G02*
X176293750Y193411000I243750J0D01*
G01*
X177206250Y193411000D01*
G75*
G02*
X177450000Y193167250I0J-243750D01*
G01*
X177450000Y192679750D01*
G75*
G02*
X177206250Y192436000I-243750J0D01*
G01*
G37*
G36*
G01*
X177206250Y190561000D02*
X176293750Y190561000D01*
G75*
G02*
X176050000Y190804750I0J243750D01*
G01*
X176050000Y191292250D01*
G75*
G02*
X176293750Y191536000I243750J0D01*
G01*
X177206250Y191536000D01*
G75*
G02*
X177450000Y191292250I0J-243750D01*
G01*
X177450000Y190804750D01*
G75*
G02*
X177206250Y190561000I-243750J0D01*
G01*
G37*
%TD*%
%TO.C,LD22*%
G36*
G01*
X179365250Y190543000D02*
X178452750Y190543000D01*
G75*
G02*
X178209000Y190786750I0J243750D01*
G01*
X178209000Y191274250D01*
G75*
G02*
X178452750Y191518000I243750J0D01*
G01*
X179365250Y191518000D01*
G75*
G02*
X179609000Y191274250I0J-243750D01*
G01*
X179609000Y190786750D01*
G75*
G02*
X179365250Y190543000I-243750J0D01*
G01*
G37*
G36*
G01*
X179365250Y192418000D02*
X178452750Y192418000D01*
G75*
G02*
X178209000Y192661750I0J243750D01*
G01*
X178209000Y193149250D01*
G75*
G02*
X178452750Y193393000I243750J0D01*
G01*
X179365250Y193393000D01*
G75*
G02*
X179609000Y193149250I0J-243750D01*
G01*
X179609000Y192661750D01*
G75*
G02*
X179365250Y192418000I-243750J0D01*
G01*
G37*
%TD*%
%TO.C,LD23*%
G36*
G01*
X181524250Y192418000D02*
X180611750Y192418000D01*
G75*
G02*
X180368000Y192661750I0J243750D01*
G01*
X180368000Y193149250D01*
G75*
G02*
X180611750Y193393000I243750J0D01*
G01*
X181524250Y193393000D01*
G75*
G02*
X181768000Y193149250I0J-243750D01*
G01*
X181768000Y192661750D01*
G75*
G02*
X181524250Y192418000I-243750J0D01*
G01*
G37*
G36*
G01*
X181524250Y190543000D02*
X180611750Y190543000D01*
G75*
G02*
X180368000Y190786750I0J243750D01*
G01*
X180368000Y191274250D01*
G75*
G02*
X180611750Y191518000I243750J0D01*
G01*
X181524250Y191518000D01*
G75*
G02*
X181768000Y191274250I0J-243750D01*
G01*
X181768000Y190786750D01*
G75*
G02*
X181524250Y190543000I-243750J0D01*
G01*
G37*
%TD*%
%TO.C,LD24*%
G36*
G01*
X183683250Y190561000D02*
X182770750Y190561000D01*
G75*
G02*
X182527000Y190804750I0J243750D01*
G01*
X182527000Y191292250D01*
G75*
G02*
X182770750Y191536000I243750J0D01*
G01*
X183683250Y191536000D01*
G75*
G02*
X183927000Y191292250I0J-243750D01*
G01*
X183927000Y190804750D01*
G75*
G02*
X183683250Y190561000I-243750J0D01*
G01*
G37*
G36*
G01*
X183683250Y192436000D02*
X182770750Y192436000D01*
G75*
G02*
X182527000Y192679750I0J243750D01*
G01*
X182527000Y193167250D01*
G75*
G02*
X182770750Y193411000I243750J0D01*
G01*
X183683250Y193411000D01*
G75*
G02*
X183927000Y193167250I0J-243750D01*
G01*
X183927000Y192679750D01*
G75*
G02*
X183683250Y192436000I-243750J0D01*
G01*
G37*
%TD*%
%TO.C,LD25*%
G36*
G01*
X185842250Y192418000D02*
X184929750Y192418000D01*
G75*
G02*
X184686000Y192661750I0J243750D01*
G01*
X184686000Y193149250D01*
G75*
G02*
X184929750Y193393000I243750J0D01*
G01*
X185842250Y193393000D01*
G75*
G02*
X186086000Y193149250I0J-243750D01*
G01*
X186086000Y192661750D01*
G75*
G02*
X185842250Y192418000I-243750J0D01*
G01*
G37*
G36*
G01*
X185842250Y190543000D02*
X184929750Y190543000D01*
G75*
G02*
X184686000Y190786750I0J243750D01*
G01*
X184686000Y191274250D01*
G75*
G02*
X184929750Y191518000I243750J0D01*
G01*
X185842250Y191518000D01*
G75*
G02*
X186086000Y191274250I0J-243750D01*
G01*
X186086000Y190786750D01*
G75*
G02*
X185842250Y190543000I-243750J0D01*
G01*
G37*
%TD*%
%TO.C,LD26*%
G36*
G01*
X188001250Y190543000D02*
X187088750Y190543000D01*
G75*
G02*
X186845000Y190786750I0J243750D01*
G01*
X186845000Y191274250D01*
G75*
G02*
X187088750Y191518000I243750J0D01*
G01*
X188001250Y191518000D01*
G75*
G02*
X188245000Y191274250I0J-243750D01*
G01*
X188245000Y190786750D01*
G75*
G02*
X188001250Y190543000I-243750J0D01*
G01*
G37*
G36*
G01*
X188001250Y192418000D02*
X187088750Y192418000D01*
G75*
G02*
X186845000Y192661750I0J243750D01*
G01*
X186845000Y193149250D01*
G75*
G02*
X187088750Y193393000I243750J0D01*
G01*
X188001250Y193393000D01*
G75*
G02*
X188245000Y193149250I0J-243750D01*
G01*
X188245000Y192661750D01*
G75*
G02*
X188001250Y192418000I-243750J0D01*
G01*
G37*
%TD*%
%TO.C,LD27*%
G36*
G01*
X190160250Y192427000D02*
X189247750Y192427000D01*
G75*
G02*
X189004000Y192670750I0J243750D01*
G01*
X189004000Y193158250D01*
G75*
G02*
X189247750Y193402000I243750J0D01*
G01*
X190160250Y193402000D01*
G75*
G02*
X190404000Y193158250I0J-243750D01*
G01*
X190404000Y192670750D01*
G75*
G02*
X190160250Y192427000I-243750J0D01*
G01*
G37*
G36*
G01*
X190160250Y190552000D02*
X189247750Y190552000D01*
G75*
G02*
X189004000Y190795750I0J243750D01*
G01*
X189004000Y191283250D01*
G75*
G02*
X189247750Y191527000I243750J0D01*
G01*
X190160250Y191527000D01*
G75*
G02*
X190404000Y191283250I0J-243750D01*
G01*
X190404000Y190795750D01*
G75*
G02*
X190160250Y190552000I-243750J0D01*
G01*
G37*
%TD*%
%TO.C,LD28*%
G36*
G01*
X192319250Y190552000D02*
X191406750Y190552000D01*
G75*
G02*
X191163000Y190795750I0J243750D01*
G01*
X191163000Y191283250D01*
G75*
G02*
X191406750Y191527000I243750J0D01*
G01*
X192319250Y191527000D01*
G75*
G02*
X192563000Y191283250I0J-243750D01*
G01*
X192563000Y190795750D01*
G75*
G02*
X192319250Y190552000I-243750J0D01*
G01*
G37*
G36*
G01*
X192319250Y192427000D02*
X191406750Y192427000D01*
G75*
G02*
X191163000Y192670750I0J243750D01*
G01*
X191163000Y193158250D01*
G75*
G02*
X191406750Y193402000I243750J0D01*
G01*
X192319250Y193402000D01*
G75*
G02*
X192563000Y193158250I0J-243750D01*
G01*
X192563000Y192670750D01*
G75*
G02*
X192319250Y192427000I-243750J0D01*
G01*
G37*
%TD*%
%TO.C,LD29*%
G36*
G01*
X194478250Y192436000D02*
X193565750Y192436000D01*
G75*
G02*
X193322000Y192679750I0J243750D01*
G01*
X193322000Y193167250D01*
G75*
G02*
X193565750Y193411000I243750J0D01*
G01*
X194478250Y193411000D01*
G75*
G02*
X194722000Y193167250I0J-243750D01*
G01*
X194722000Y192679750D01*
G75*
G02*
X194478250Y192436000I-243750J0D01*
G01*
G37*
G36*
G01*
X194478250Y190561000D02*
X193565750Y190561000D01*
G75*
G02*
X193322000Y190804750I0J243750D01*
G01*
X193322000Y191292250D01*
G75*
G02*
X193565750Y191536000I243750J0D01*
G01*
X194478250Y191536000D01*
G75*
G02*
X194722000Y191292250I0J-243750D01*
G01*
X194722000Y190804750D01*
G75*
G02*
X194478250Y190561000I-243750J0D01*
G01*
G37*
%TD*%
%TO.C,LD30*%
G36*
G01*
X196510250Y190543000D02*
X195597750Y190543000D01*
G75*
G02*
X195354000Y190786750I0J243750D01*
G01*
X195354000Y191274250D01*
G75*
G02*
X195597750Y191518000I243750J0D01*
G01*
X196510250Y191518000D01*
G75*
G02*
X196754000Y191274250I0J-243750D01*
G01*
X196754000Y190786750D01*
G75*
G02*
X196510250Y190543000I-243750J0D01*
G01*
G37*
G36*
G01*
X196510250Y192418000D02*
X195597750Y192418000D01*
G75*
G02*
X195354000Y192661750I0J243750D01*
G01*
X195354000Y193149250D01*
G75*
G02*
X195597750Y193393000I243750J0D01*
G01*
X196510250Y193393000D01*
G75*
G02*
X196754000Y193149250I0J-243750D01*
G01*
X196754000Y192661750D01*
G75*
G02*
X196510250Y192418000I-243750J0D01*
G01*
G37*
%TD*%
%TO.C,LD31*%
G36*
G01*
X198542250Y192418000D02*
X197629750Y192418000D01*
G75*
G02*
X197386000Y192661750I0J243750D01*
G01*
X197386000Y193149250D01*
G75*
G02*
X197629750Y193393000I243750J0D01*
G01*
X198542250Y193393000D01*
G75*
G02*
X198786000Y193149250I0J-243750D01*
G01*
X198786000Y192661750D01*
G75*
G02*
X198542250Y192418000I-243750J0D01*
G01*
G37*
G36*
G01*
X198542250Y190543000D02*
X197629750Y190543000D01*
G75*
G02*
X197386000Y190786750I0J243750D01*
G01*
X197386000Y191274250D01*
G75*
G02*
X197629750Y191518000I243750J0D01*
G01*
X198542250Y191518000D01*
G75*
G02*
X198786000Y191274250I0J-243750D01*
G01*
X198786000Y190786750D01*
G75*
G02*
X198542250Y190543000I-243750J0D01*
G01*
G37*
%TD*%
%TO.C,LD32*%
G36*
G01*
X200574250Y190561000D02*
X199661750Y190561000D01*
G75*
G02*
X199418000Y190804750I0J243750D01*
G01*
X199418000Y191292250D01*
G75*
G02*
X199661750Y191536000I243750J0D01*
G01*
X200574250Y191536000D01*
G75*
G02*
X200818000Y191292250I0J-243750D01*
G01*
X200818000Y190804750D01*
G75*
G02*
X200574250Y190561000I-243750J0D01*
G01*
G37*
G36*
G01*
X200574250Y192436000D02*
X199661750Y192436000D01*
G75*
G02*
X199418000Y192679750I0J243750D01*
G01*
X199418000Y193167250D01*
G75*
G02*
X199661750Y193411000I243750J0D01*
G01*
X200574250Y193411000D01*
G75*
G02*
X200818000Y193167250I0J-243750D01*
G01*
X200818000Y192679750D01*
G75*
G02*
X200574250Y192436000I-243750J0D01*
G01*
G37*
%TD*%
M02*
