%TF.GenerationSoftware,KiCad,Pcbnew,(5.1.7)-1*%
%TF.CreationDate,2020-10-28T13:08:51+04:00*%
%TF.ProjectId,stm32-home-light,73746d33-322d-4686-9f6d-652d6c696768,rev?*%
%TF.SameCoordinates,Original*%
%TF.FileFunction,OtherDrawing,Comment*%
%FSLAX46Y46*%
G04 Gerber Fmt 4.6, Leading zero omitted, Abs format (unit mm)*
G04 Created by KiCad (PCBNEW (5.1.7)-1) date 2020-10-28 13:08:51*
%MOMM*%
%LPD*%
G01*
G04 APERTURE LIST*
%TA.AperFunction,Profile*%
%ADD10C,0.100000*%
%TD*%
%ADD11C,0.150000*%
G04 APERTURE END LIST*
D10*
X229760000Y227500000D02*
X229760000Y185500000D01*
X129760000Y227410000D02*
X229760000Y227500000D01*
X129760000Y185500000D02*
X129760000Y227410000D01*
X229760000Y185500000D02*
X129760000Y185500000D01*
X129760000Y185500000D02*
X129760000Y227500000D01*
D11*
X122985714Y203119047D02*
X123652380Y203119047D01*
X122604761Y202880952D02*
X123319047Y202642857D01*
X123319047Y203261904D01*
X122747619Y203595238D02*
X122700000Y203642857D01*
X122652380Y203738095D01*
X122652380Y203976190D01*
X122700000Y204071428D01*
X122747619Y204119047D01*
X122842857Y204166666D01*
X122938095Y204166666D01*
X123080952Y204119047D01*
X123652380Y203547619D01*
X123652380Y204166666D01*
X123604761Y204642857D02*
X123652380Y204642857D01*
X123747619Y204595238D01*
X123795238Y204547619D01*
X122652380Y205261904D02*
X122652380Y205357142D01*
X122700000Y205452380D01*
X122747619Y205500000D01*
X122842857Y205547619D01*
X123033333Y205595238D01*
X123271428Y205595238D01*
X123461904Y205547619D01*
X123557142Y205500000D01*
X123604761Y205452380D01*
X123652380Y205357142D01*
X123652380Y205261904D01*
X123604761Y205166666D01*
X123557142Y205119047D01*
X123461904Y205071428D01*
X123271428Y205023809D01*
X123033333Y205023809D01*
X122842857Y205071428D01*
X122747619Y205119047D01*
X122700000Y205166666D01*
X122652380Y205261904D01*
X122652380Y206214285D02*
X122652380Y206309523D01*
X122700000Y206404761D01*
X122747619Y206452380D01*
X122842857Y206500000D01*
X123033333Y206547619D01*
X123271428Y206547619D01*
X123461904Y206500000D01*
X123557142Y206452380D01*
X123604761Y206404761D01*
X123652380Y206309523D01*
X123652380Y206214285D01*
X123604761Y206119047D01*
X123557142Y206071428D01*
X123461904Y206023809D01*
X123271428Y205976190D01*
X123033333Y205976190D01*
X122842857Y206023809D01*
X122747619Y206071428D01*
X122700000Y206119047D01*
X122652380Y206214285D01*
X122652380Y207166666D02*
X122652380Y207261904D01*
X122700000Y207357142D01*
X122747619Y207404761D01*
X122842857Y207452380D01*
X123033333Y207500000D01*
X123271428Y207500000D01*
X123461904Y207452380D01*
X123557142Y207404761D01*
X123604761Y207357142D01*
X123652380Y207261904D01*
X123652380Y207166666D01*
X123604761Y207071428D01*
X123557142Y207023809D01*
X123461904Y206976190D01*
X123271428Y206928571D01*
X123033333Y206928571D01*
X122842857Y206976190D01*
X122747619Y207023809D01*
X122700000Y207071428D01*
X122652380Y207166666D01*
X123652380Y208690476D02*
X122985714Y208690476D01*
X123509523Y208976190D01*
X122985714Y209261904D01*
X123652380Y209261904D01*
X123652380Y209738095D02*
X122985714Y209738095D01*
X123509523Y210023809D01*
X122985714Y210309523D01*
X123652380Y210309523D01*
X124500000Y185500000D02*
X124500000Y227500000D01*
X129750000Y185500000D02*
X123913579Y185500000D01*
X129750000Y227500000D02*
X123913579Y227500000D01*
X124500000Y227500000D02*
X125086421Y226373496D01*
X124500000Y227500000D02*
X123913579Y226373496D01*
X124500000Y185500000D02*
X125086421Y186626504D01*
X124500000Y185500000D02*
X123913579Y186626504D01*
X175993095Y235242619D02*
X175421666Y235242619D01*
X175707380Y235242619D02*
X175707380Y236242619D01*
X175612142Y236099761D01*
X175516904Y236004523D01*
X175421666Y235956904D01*
X176612142Y236242619D02*
X176707380Y236242619D01*
X176802619Y236195000D01*
X176850238Y236147380D01*
X176897857Y236052142D01*
X176945476Y235861666D01*
X176945476Y235623571D01*
X176897857Y235433095D01*
X176850238Y235337857D01*
X176802619Y235290238D01*
X176707380Y235242619D01*
X176612142Y235242619D01*
X176516904Y235290238D01*
X176469285Y235337857D01*
X176421666Y235433095D01*
X176374047Y235623571D01*
X176374047Y235861666D01*
X176421666Y236052142D01*
X176469285Y236147380D01*
X176516904Y236195000D01*
X176612142Y236242619D01*
X177564523Y236242619D02*
X177659761Y236242619D01*
X177755000Y236195000D01*
X177802619Y236147380D01*
X177850238Y236052142D01*
X177897857Y235861666D01*
X177897857Y235623571D01*
X177850238Y235433095D01*
X177802619Y235337857D01*
X177755000Y235290238D01*
X177659761Y235242619D01*
X177564523Y235242619D01*
X177469285Y235290238D01*
X177421666Y235337857D01*
X177374047Y235433095D01*
X177326428Y235623571D01*
X177326428Y235861666D01*
X177374047Y236052142D01*
X177421666Y236147380D01*
X177469285Y236195000D01*
X177564523Y236242619D01*
X178374047Y235290238D02*
X178374047Y235242619D01*
X178326428Y235147380D01*
X178278809Y235099761D01*
X178993095Y236242619D02*
X179088333Y236242619D01*
X179183571Y236195000D01*
X179231190Y236147380D01*
X179278809Y236052142D01*
X179326428Y235861666D01*
X179326428Y235623571D01*
X179278809Y235433095D01*
X179231190Y235337857D01*
X179183571Y235290238D01*
X179088333Y235242619D01*
X178993095Y235242619D01*
X178897857Y235290238D01*
X178850238Y235337857D01*
X178802619Y235433095D01*
X178755000Y235623571D01*
X178755000Y235861666D01*
X178802619Y236052142D01*
X178850238Y236147380D01*
X178897857Y236195000D01*
X178993095Y236242619D01*
X180278809Y235242619D02*
X179707380Y235242619D01*
X179993095Y235242619D02*
X179993095Y236242619D01*
X179897857Y236099761D01*
X179802619Y236004523D01*
X179707380Y235956904D01*
X180897857Y236242619D02*
X180993095Y236242619D01*
X181088333Y236195000D01*
X181135952Y236147380D01*
X181183571Y236052142D01*
X181231190Y235861666D01*
X181231190Y235623571D01*
X181183571Y235433095D01*
X181135952Y235337857D01*
X181088333Y235290238D01*
X180993095Y235242619D01*
X180897857Y235242619D01*
X180802619Y235290238D01*
X180755000Y235337857D01*
X180707380Y235433095D01*
X180659761Y235623571D01*
X180659761Y235861666D01*
X180707380Y236052142D01*
X180755000Y236147380D01*
X180802619Y236195000D01*
X180897857Y236242619D01*
X182421666Y235242619D02*
X182421666Y235909285D01*
X182707380Y235385476D01*
X182993095Y235909285D01*
X182993095Y235242619D01*
X183469285Y235242619D02*
X183469285Y235909285D01*
X183755000Y235385476D01*
X184040714Y235909285D01*
X184040714Y235242619D01*
X129750000Y234395000D02*
X229760000Y234395000D01*
X129750000Y227500000D02*
X129750000Y234981421D01*
X229760000Y227500000D02*
X229760000Y234981421D01*
X229760000Y234395000D02*
X228633496Y233808579D01*
X229760000Y234395000D02*
X228633496Y234981421D01*
X129750000Y234395000D02*
X130876504Y233808579D01*
X129750000Y234395000D02*
X130876504Y234981421D01*
D10*
X129760000Y227500000D02*
X229760000Y227500000D01*
M02*
