%TF.GenerationSoftware,KiCad,Pcbnew,(5.1.7)-1*%
%TF.CreationDate,2020-10-28T13:08:50+04:00*%
%TF.ProjectId,stm32-home-light,73746d33-322d-4686-9f6d-652d6c696768,rev?*%
%TF.SameCoordinates,Original*%
%TF.FileFunction,Copper,L2,Bot*%
%TF.FilePolarity,Positive*%
%FSLAX46Y46*%
G04 Gerber Fmt 4.6, Leading zero omitted, Abs format (unit mm)*
G04 Created by KiCad (PCBNEW (5.1.7)-1) date 2020-10-28 13:08:50*
%MOMM*%
%LPD*%
G01*
G04 APERTURE LIST*
%TA.AperFunction,Profile*%
%ADD10C,0.100000*%
%TD*%
%TA.AperFunction,ComponentPad*%
%ADD11O,2.500000X1.500000*%
%TD*%
%TA.AperFunction,ComponentPad*%
%ADD12O,2.000000X1.500000*%
%TD*%
%TA.AperFunction,ComponentPad*%
%ADD13O,2.000000X2.000000*%
%TD*%
%TA.AperFunction,ComponentPad*%
%ADD14R,2.000000X2.000000*%
%TD*%
%TA.AperFunction,SMDPad,CuDef*%
%ADD15R,0.800000X0.900000*%
%TD*%
%TA.AperFunction,ComponentPad*%
%ADD16C,0.100000*%
%TD*%
%TA.AperFunction,ComponentPad*%
%ADD17C,3.000000*%
%TD*%
%TA.AperFunction,ViaPad*%
%ADD18C,1.000000*%
%TD*%
%TA.AperFunction,Conductor*%
%ADD19C,0.400000*%
%TD*%
%TA.AperFunction,Conductor*%
%ADD20C,0.750000*%
%TD*%
%TA.AperFunction,Conductor*%
%ADD21C,0.300000*%
%TD*%
%TA.AperFunction,Conductor*%
%ADD22C,2.000000*%
%TD*%
%TA.AperFunction,Conductor*%
%ADD23C,1.800000*%
%TD*%
%TA.AperFunction,Conductor*%
%ADD24C,0.200000*%
%TD*%
%TA.AperFunction,Conductor*%
%ADD25C,0.254000*%
%TD*%
%TA.AperFunction,Conductor*%
%ADD26C,0.100000*%
%TD*%
G04 APERTURE END LIST*
D10*
X229760000Y227500000D02*
X229760000Y185500000D01*
X129760000Y227410000D02*
X229760000Y227500000D01*
X129760000Y185500000D02*
X129760000Y227410000D01*
X229760000Y185500000D02*
X129760000Y185500000D01*
X129760000Y185500000D02*
X129760000Y227500000D01*
X129760000Y227500000D02*
X229760000Y227500000D01*
D11*
%TO.P,J3,6*%
%TO.N,GND*%
X197298600Y224827400D03*
D12*
X194498600Y222677400D03*
X200098600Y222677400D03*
%TD*%
D13*
%TO.P,J1,11*%
%TO.N,GND*%
X175410000Y224100000D03*
%TO.P,J1,10*%
%TO.N,SPI2_MOSI*%
X172870000Y224100000D03*
%TO.P,J1,9*%
%TO.N,SPI2_MISO*%
X170330000Y224100000D03*
%TO.P,J1,8*%
%TO.N,SPI2_CLK*%
X167790000Y224100000D03*
%TO.P,J1,7*%
%TO.N,I2C2_SDA*%
X165250000Y224100000D03*
%TO.P,J1,6*%
%TO.N,I2C2_SCL*%
X162710000Y224100000D03*
%TO.P,J1,5*%
%TO.N,OUT_Enable*%
X160170000Y224100000D03*
%TO.P,J1,4*%
%TO.N,OUT_Push_Data*%
X157630000Y224100000D03*
%TO.P,J1,3*%
%TO.N,IN_CLK_Inhibit*%
X155090000Y224100000D03*
%TO.P,J1,2*%
%TO.N,IN_Shift_Load*%
X152550000Y224100000D03*
D14*
%TO.P,J1,1*%
%TO.N,VCC*%
X150010000Y224100000D03*
%TD*%
D13*
%TO.P,J2,6*%
%TO.N,SWO*%
X224730600Y221390200D03*
%TO.P,J2,5*%
%TO.N,NRST*%
X222190600Y221390200D03*
%TO.P,J2,4*%
%TO.N,SWDIO*%
X219650600Y221390200D03*
%TO.P,J2,3*%
%TO.N,GND*%
X217110600Y221390200D03*
%TO.P,J2,2*%
%TO.N,SWCLK*%
X214570600Y221390200D03*
D14*
%TO.P,J2,1*%
%TO.N,VCC*%
X212030600Y221390200D03*
%TD*%
D15*
%TO.P,D32,3*%
%TO.N,GND*%
X218116400Y214996000D03*
%TO.P,D32,2*%
%TO.N,SWDIO*%
X219066400Y216996000D03*
%TO.P,D32,1*%
%TO.N,SWCLK*%
X217166400Y216996000D03*
%TD*%
%TO.P,D31,3*%
%TO.N,GND*%
X223907600Y214970600D03*
%TO.P,D31,2*%
%TO.N,SWO*%
X224857600Y216970600D03*
%TO.P,D31,1*%
%TO.N,NRST*%
X222957600Y216970600D03*
%TD*%
%TA.AperFunction,ComponentPad*%
D16*
%TO.P,BT1,1*%
%TO.N,Net-(BT1-Pad1)*%
G36*
X205510962Y213649038D02*
G01*
X208109038Y215149038D01*
X209609038Y212550962D01*
X207010962Y211050962D01*
X205510962Y213649038D01*
G37*
%TD.AperFunction*%
D17*
%TO.P,BT1,2*%
%TO.N,GND*%
X217805000Y195355139D03*
%TD*%
D18*
%TO.N,GND*%
X177562500Y199012500D03*
X163669000Y199089000D03*
X143222000Y199851000D03*
X163669000Y187913000D03*
X188307000Y206074000D03*
X186259998Y208750000D03*
X179587400Y222677400D03*
X140685000Y224125000D03*
%TO.N,Net-(BT1-Pad1)*%
X179747200Y220348800D03*
%TO.N,VCC*%
X183100000Y197692000D03*
X167606000Y205947000D03*
X149699000Y195787000D03*
X136643400Y208537800D03*
X181860000Y212950000D03*
X197455401Y210095401D03*
%TO.N,SPI1_MISO*%
X190440600Y205997800D03*
X182769800Y208588600D03*
%TO.N,LED_Enable*%
X178401000Y207591000D03*
X178172400Y202492600D03*
%TO.N,LED_Push_Data*%
X176623000Y207591000D03*
X176623000Y203373000D03*
%TO.N,Net-(U6-Pad14)*%
X180255200Y206836000D03*
X176597600Y201324200D03*
%TO.N,I2C2_SCL*%
X183760000Y212800000D03*
%TO.N,I2C2_SDA*%
X185301641Y212791641D03*
%TO.N,SPI2_MISO*%
X190810000Y213750000D03*
%TO.N,SPI2_MOSI*%
X190810000Y214950000D03*
%TO.N,SPI2_CLK*%
X190125463Y212401521D03*
%TD*%
D19*
%TO.N,GND*%
X218177400Y215057000D02*
X218116400Y214996000D01*
X218177400Y220323400D02*
X218177400Y215057000D01*
X217110600Y221390200D02*
X218177400Y220323400D01*
D20*
X227280600Y214970600D02*
X223907600Y214970600D01*
X228510000Y216200000D02*
X227280600Y214970600D01*
X218141800Y214970600D02*
X218116400Y214996000D01*
X223907600Y214970600D02*
X218141800Y214970600D01*
X218116400Y195666539D02*
X217805000Y195355139D01*
X218116400Y214996000D02*
X218116400Y195666539D01*
D21*
X190848601Y205147799D02*
X191290601Y205589799D01*
X189233201Y205147799D02*
X190848601Y205147799D01*
X188307000Y206074000D02*
X189233201Y205147799D01*
X191290601Y205589799D02*
X191290601Y206730380D01*
D20*
X186259998Y208750000D02*
X189270980Y208750000D01*
D21*
X191290601Y206730380D02*
X191115490Y206905490D01*
D20*
X191515601Y206505379D02*
X190840490Y207180490D01*
X190956601Y204922799D02*
X191515601Y205481799D01*
X191515601Y205481799D02*
X191515601Y206505379D01*
X189458201Y204922799D02*
X190956601Y204922799D01*
X188307000Y206074000D02*
X189458201Y204922799D01*
X190840490Y207180490D02*
X191115490Y206905490D01*
X189270980Y208750000D02*
X190840490Y207180490D01*
X188307000Y206074000D02*
X188307000Y200359000D01*
X143984000Y199089000D02*
X143222000Y199851000D01*
X163669000Y199089000D02*
X143984000Y199089000D01*
D22*
X178114800Y224100000D02*
X179537400Y222677400D01*
X175410000Y224100000D02*
X178114800Y224100000D01*
D20*
X179587400Y222677400D02*
X179537400Y222677400D01*
D22*
X179587400Y222677400D02*
X194498600Y222677400D01*
X195148600Y222677400D02*
X197298600Y224827400D01*
X194498600Y222677400D02*
X195148600Y222677400D01*
X197948600Y224827400D02*
X200098600Y222677400D01*
X197298600Y224827400D02*
X197948600Y224827400D01*
X217110600Y221884202D02*
X217110600Y221390200D01*
X215554601Y223440201D02*
X217110600Y221884202D01*
X200861401Y223440201D02*
X215554601Y223440201D01*
X200098600Y222677400D02*
X200861401Y223440201D01*
X218168319Y223650000D02*
X226360000Y223650000D01*
X217110600Y222592281D02*
X218168319Y223650000D01*
X217110600Y221390200D02*
X217110600Y222592281D01*
X228510000Y221500000D02*
X226360000Y223650000D01*
X228510000Y221500000D02*
X228510000Y216200000D01*
X228510000Y206060139D02*
X217805000Y195355139D01*
X228510000Y216200000D02*
X228510000Y206060139D01*
X217805000Y195355139D02*
X210449861Y188000000D01*
X199923000Y187913000D02*
X163669000Y187913000D01*
X200010000Y188000000D02*
X199923000Y187913000D01*
X210449861Y188000000D02*
X200010000Y188000000D01*
X163669000Y187913000D02*
X135697000Y187913000D01*
X135697000Y187913000D02*
X131110000Y192500000D01*
X131110000Y192500000D02*
X131110000Y224300000D01*
D23*
X175410000Y224100000D02*
X175160000Y224100000D01*
X133072973Y226262973D02*
X131110000Y224300000D01*
X179587400Y222677400D02*
X176001827Y226262973D01*
X175410000Y225671146D02*
X176001827Y226262973D01*
X175410000Y224100000D02*
X175410000Y225671146D01*
X163669000Y187913000D02*
X163669000Y199089000D01*
X177486000Y199089000D02*
X177562500Y199012500D01*
X163669000Y199089000D02*
X177486000Y199089000D01*
X177562500Y199012500D02*
X180534000Y196041000D01*
X180534000Y196041000D02*
X183989000Y196041000D01*
X183989000Y196041000D02*
X188307000Y200359000D01*
X188307000Y200359000D02*
X188307000Y205839190D01*
X139497973Y226262973D02*
X133072973Y226262973D01*
X176001827Y226262973D02*
X139497973Y226262973D01*
D20*
X140660000Y224150000D02*
X140685000Y224125000D01*
X140660000Y226125000D02*
X140660000Y224150000D01*
X140522027Y226262973D02*
X140660000Y226125000D01*
X139497973Y226262973D02*
X140522027Y226262973D01*
D19*
%TO.N,Net-(BT1-Pad1)*%
X207560000Y213100000D02*
X200460000Y220200000D01*
X179896000Y220200000D02*
X179747200Y220348800D01*
X200460000Y220200000D02*
X179896000Y220200000D01*
D24*
%TO.N,NRST*%
X222957600Y220623200D02*
X222190600Y221390200D01*
X222957600Y216970600D02*
X222957600Y220623200D01*
D20*
%TO.N,VCC*%
X145694998Y195787000D02*
X149699000Y195787000D01*
X136643400Y204838598D02*
X145694998Y195787000D01*
X136643400Y208537800D02*
X136643400Y204838598D01*
X170034500Y208375500D02*
X167606000Y205947000D01*
X171754401Y210095401D02*
X170034500Y208375500D01*
X185743999Y210275001D02*
X185564399Y210095401D01*
X189602630Y210095401D02*
X189423030Y210275001D01*
X189423030Y210275001D02*
X185743999Y210275001D01*
X197455401Y210095401D02*
X197455401Y210095401D01*
X180664599Y210095401D02*
X180664599Y211754599D01*
X180664599Y211754599D02*
X181860000Y212950000D01*
X180664599Y210095401D02*
X171754401Y210095401D01*
D22*
X150010000Y221904400D02*
X136643400Y208537800D01*
X150010000Y224100000D02*
X150010000Y221904400D01*
X136643400Y208537800D02*
X139234200Y205947000D01*
X139234200Y205947000D02*
X167606000Y205947000D01*
X196955402Y210595400D02*
X197455401Y210095401D01*
X182260598Y210595400D02*
X196955402Y210595400D01*
X181760599Y210095401D02*
X182260598Y210595400D01*
X171754401Y210095401D02*
X181760599Y210095401D01*
X181860000Y210150000D02*
X181805401Y210095401D01*
X181860000Y212950000D02*
X181860000Y210150000D01*
D20*
X181805401Y210095401D02*
X180664599Y210095401D01*
X185564399Y210095401D02*
X181805401Y210095401D01*
D22*
X212030600Y211370600D02*
X212030600Y221240191D01*
X210255402Y209595402D02*
X212030600Y211370600D01*
X197955400Y209595402D02*
X210255402Y209595402D01*
X167606000Y205947000D02*
X170484500Y208825500D01*
X170484500Y208825500D02*
X171754401Y210095401D01*
D20*
X170325001Y208666001D02*
X170034500Y208375500D01*
X170326001Y208666001D02*
X170325001Y208666001D01*
X171710000Y210050000D02*
X170326001Y208666001D01*
X179510000Y210050000D02*
X171710000Y210050000D01*
X183100000Y206460000D02*
X179510000Y210050000D01*
X183100000Y197692000D02*
X183100000Y206460000D01*
X197760000Y209400002D02*
X197955400Y209595402D01*
X197455401Y210095401D02*
X189602630Y210095401D01*
D24*
%TO.N,SWCLK*%
X217166400Y218794400D02*
X214570600Y221390200D01*
X217166400Y216996000D02*
X217166400Y218794400D01*
%TO.N,SWDIO*%
X219066400Y220806000D02*
X219650600Y221390200D01*
X219066400Y216996000D02*
X219066400Y220806000D01*
%TO.N,SWO*%
X224857600Y221263200D02*
X224730600Y221390200D01*
X224857600Y216970600D02*
X224857600Y221263200D01*
%TO.N,SPI1_MISO*%
X184319200Y207039200D02*
X182769800Y208588600D01*
X189399200Y207039200D02*
X184319200Y207039200D01*
X190440600Y205997800D02*
X189399200Y207039200D01*
%TO.N,LED_Enable*%
X178401000Y207591000D02*
X178401000Y202721200D01*
X178401000Y202721200D02*
X178172400Y202492600D01*
%TO.N,LED_Push_Data*%
X176623000Y207591000D02*
X176623000Y203373000D01*
%TO.N,Net-(U6-Pad14)*%
X180255200Y202172198D02*
X179407202Y201324200D01*
X180255200Y206836000D02*
X180255200Y202172198D01*
X179407202Y201324200D02*
X176597600Y201324200D01*
%TO.N,I2C2_SCL*%
X171510000Y215300000D02*
X162710000Y224100000D01*
X182110000Y215300000D02*
X171510000Y215300000D01*
X183760000Y213650000D02*
X182110000Y215300000D01*
X183760000Y212800000D02*
X183760000Y213650000D01*
%TO.N,I2C2_SDA*%
X183210000Y215850000D02*
X173500000Y215850000D01*
X185301641Y213758359D02*
X183210000Y215850000D01*
X173500000Y215850000D02*
X165250000Y224100000D01*
X185301641Y212791641D02*
X185301641Y213758359D01*
%TO.N,SPI2_MISO*%
X187760000Y216800000D02*
X190810000Y213750000D01*
X170330000Y224100000D02*
X177630000Y216800000D01*
X177630000Y216800000D02*
X187760000Y216800000D01*
%TO.N,SPI2_MOSI*%
X188460000Y217300000D02*
X190810000Y214950000D01*
X179670000Y217300000D02*
X188460000Y217300000D01*
X172870000Y224100000D02*
X179670000Y217300000D01*
%TO.N,SPI2_CLK*%
X175590000Y216300000D02*
X186226984Y216300000D01*
X167790000Y224100000D02*
X175590000Y216300000D01*
X186226984Y216300000D02*
X190125463Y212401521D01*
%TD*%
D25*
%TO.N,GND*%
X228583001Y186677000D02*
X130937000Y186677000D01*
X130937000Y193407306D01*
X217414560Y193407306D01*
X217707449Y193212027D01*
X218127424Y193234176D01*
X218535008Y193337831D01*
X218914538Y193519011D01*
X219251429Y193770752D01*
X219532736Y194083380D01*
X219709765Y194368065D01*
X219687093Y194719354D01*
X217894803Y195199596D01*
X217414560Y193407306D01*
X130937000Y193407306D01*
X130937000Y208537800D01*
X134506109Y208537800D01*
X134547177Y208120835D01*
X134668801Y207719895D01*
X134866308Y207350385D01*
X135054896Y207120591D01*
X135132108Y207026508D01*
X135141400Y207018882D01*
X135141401Y204912391D01*
X135134133Y204838598D01*
X135163133Y204544155D01*
X135216236Y204369101D01*
X135249020Y204261027D01*
X135388491Y204000094D01*
X135576188Y203771385D01*
X135633505Y203724346D01*
X144580751Y194777098D01*
X144627785Y194719787D01*
X144856494Y194532090D01*
X145117427Y194392619D01*
X145273839Y194345172D01*
X145400554Y194306733D01*
X145694998Y194277733D01*
X145768781Y194285000D01*
X149073595Y194285000D01*
X149224422Y194222525D01*
X149538755Y194160000D01*
X149859245Y194160000D01*
X150173578Y194222525D01*
X150469673Y194345172D01*
X150736152Y194523227D01*
X150962773Y194749848D01*
X151140828Y195016327D01*
X151263475Y195312422D01*
X151291376Y195452690D01*
X215661888Y195452690D01*
X215684037Y195032715D01*
X215787692Y194625131D01*
X215968872Y194245601D01*
X216220613Y193908710D01*
X216533241Y193627403D01*
X216817926Y193450374D01*
X217169215Y193473046D01*
X217649457Y195265336D01*
X216979159Y195444942D01*
X217960543Y195444942D01*
X219752833Y194964699D01*
X219948112Y195257588D01*
X219925963Y195677563D01*
X219822308Y196085147D01*
X219641128Y196464677D01*
X219389387Y196801568D01*
X219076759Y197082875D01*
X218792074Y197259904D01*
X218440785Y197237232D01*
X217960543Y195444942D01*
X216979159Y195444942D01*
X215857167Y195745579D01*
X215661888Y195452690D01*
X151291376Y195452690D01*
X151326000Y195626755D01*
X151326000Y195947245D01*
X151263475Y196261578D01*
X151140828Y196557673D01*
X150962773Y196824152D01*
X150736152Y197050773D01*
X150469673Y197228828D01*
X150173578Y197351475D01*
X149859245Y197414000D01*
X149538755Y197414000D01*
X149224422Y197351475D01*
X149073595Y197289000D01*
X146317147Y197289000D01*
X139786145Y203820000D01*
X167501515Y203820000D01*
X167606000Y203809709D01*
X167710485Y203820000D01*
X167710487Y203820000D01*
X168022965Y203850776D01*
X168423906Y203972401D01*
X168793415Y204169907D01*
X169117293Y204435707D01*
X169183905Y204516874D01*
X172062399Y207395367D01*
X172062404Y207395373D01*
X172635432Y207968401D01*
X175039195Y207968401D01*
X174996000Y207751245D01*
X174996000Y207430755D01*
X175058525Y207116422D01*
X175181172Y206820327D01*
X175359227Y206553848D01*
X175396000Y206517075D01*
X175396001Y204446926D01*
X175359227Y204410152D01*
X175181172Y204143673D01*
X175058525Y203847578D01*
X174996000Y203533245D01*
X174996000Y203212755D01*
X175058525Y202898422D01*
X175181172Y202602327D01*
X175338838Y202366363D01*
X175333827Y202361352D01*
X175155772Y202094873D01*
X175033125Y201798778D01*
X174970600Y201484445D01*
X174970600Y201163955D01*
X175033125Y200849622D01*
X175155772Y200553527D01*
X175333827Y200287048D01*
X175560448Y200060427D01*
X175826927Y199882372D01*
X176123022Y199759725D01*
X176437355Y199697200D01*
X176757845Y199697200D01*
X177072178Y199759725D01*
X177368273Y199882372D01*
X177634752Y200060427D01*
X177671525Y200097200D01*
X179346942Y200097200D01*
X179407202Y200091265D01*
X179467462Y200097200D01*
X179467470Y200097200D01*
X179647736Y200114955D01*
X179879026Y200185116D01*
X180092185Y200299051D01*
X180279019Y200452383D01*
X180317441Y200499200D01*
X181080205Y201261963D01*
X181127017Y201300381D01*
X181280349Y201487215D01*
X181394284Y201700374D01*
X181464445Y201931664D01*
X181482200Y202111930D01*
X181482200Y202111937D01*
X181488135Y202172197D01*
X181482200Y202232457D01*
X181482200Y205762075D01*
X181518973Y205798848D01*
X181566249Y205869602D01*
X181598001Y205837850D01*
X181598000Y198317406D01*
X181535525Y198166578D01*
X181473000Y197852245D01*
X181473000Y197531755D01*
X181535525Y197217422D01*
X181658172Y196921327D01*
X181836227Y196654848D01*
X182062848Y196428227D01*
X182329327Y196250172D01*
X182625422Y196127525D01*
X182939755Y196065000D01*
X183260245Y196065000D01*
X183574578Y196127525D01*
X183870673Y196250172D01*
X184008422Y196342213D01*
X215900235Y196342213D01*
X215922907Y195990924D01*
X217715197Y195510682D01*
X218195440Y197302972D01*
X217902551Y197498251D01*
X217482576Y197476102D01*
X217074992Y197372447D01*
X216695462Y197191267D01*
X216358571Y196939526D01*
X216077264Y196626898D01*
X215900235Y196342213D01*
X184008422Y196342213D01*
X184137152Y196428227D01*
X184363773Y196654848D01*
X184541828Y196921327D01*
X184664475Y197217422D01*
X184727000Y197531755D01*
X184727000Y197852245D01*
X184664475Y198166578D01*
X184602000Y198317405D01*
X184602000Y205812200D01*
X188818643Y205812200D01*
X188876125Y205523222D01*
X188998772Y205227127D01*
X189176827Y204960648D01*
X189403448Y204734027D01*
X189669927Y204555972D01*
X189966022Y204433325D01*
X190280355Y204370800D01*
X190600845Y204370800D01*
X190915178Y204433325D01*
X191211273Y204555972D01*
X191477752Y204734027D01*
X191704373Y204960648D01*
X191882428Y205227127D01*
X192005075Y205523222D01*
X192067600Y205837555D01*
X192067600Y206158045D01*
X192005075Y206472378D01*
X191882428Y206768473D01*
X191704373Y207034952D01*
X191477752Y207261573D01*
X191211273Y207439628D01*
X190915178Y207562275D01*
X190600845Y207624800D01*
X190548839Y207624800D01*
X190309439Y207864200D01*
X190271017Y207911017D01*
X190084183Y208064349D01*
X189871024Y208178284D01*
X189639734Y208248445D01*
X189459468Y208266200D01*
X189459460Y208266200D01*
X189399200Y208272135D01*
X189338940Y208266200D01*
X184827440Y208266200D01*
X184625240Y208468400D01*
X196085100Y208468400D01*
X196218728Y208358734D01*
X196444107Y208084109D01*
X196767985Y207818309D01*
X197137494Y207620803D01*
X197538435Y207499178D01*
X197850913Y207468402D01*
X210150917Y207468402D01*
X210255402Y207458111D01*
X210359887Y207468402D01*
X210359889Y207468402D01*
X210672367Y207499178D01*
X211073308Y207620803D01*
X211442817Y207818309D01*
X211766695Y208084109D01*
X211833307Y208165276D01*
X213460731Y209792699D01*
X213541893Y209859307D01*
X213807693Y210183185D01*
X214005199Y210552694D01*
X214126824Y210953635D01*
X214157600Y211266113D01*
X214157600Y211266122D01*
X214167890Y211370599D01*
X214157600Y211475077D01*
X214157600Y214546000D01*
X217078328Y214546000D01*
X217090588Y214421518D01*
X217126898Y214301820D01*
X217185863Y214191506D01*
X217265215Y214094815D01*
X217361906Y214015463D01*
X217472220Y213956498D01*
X217591918Y213920188D01*
X217716400Y213907928D01*
X217830650Y213911000D01*
X217989400Y214069750D01*
X217989400Y214869000D01*
X218243400Y214869000D01*
X218243400Y214069750D01*
X218402150Y213911000D01*
X218516400Y213907928D01*
X218640882Y213920188D01*
X218760580Y213956498D01*
X218870894Y214015463D01*
X218967585Y214094815D01*
X219046937Y214191506D01*
X219105902Y214301820D01*
X219142212Y214421518D01*
X219151970Y214520600D01*
X222869528Y214520600D01*
X222881788Y214396118D01*
X222918098Y214276420D01*
X222977063Y214166106D01*
X223056415Y214069415D01*
X223153106Y213990063D01*
X223263420Y213931098D01*
X223383118Y213894788D01*
X223507600Y213882528D01*
X223621850Y213885600D01*
X223780600Y214044350D01*
X223780600Y214843600D01*
X224034600Y214843600D01*
X224034600Y214044350D01*
X224193350Y213885600D01*
X224307600Y213882528D01*
X224432082Y213894788D01*
X224551780Y213931098D01*
X224662094Y213990063D01*
X224758785Y214069415D01*
X224838137Y214166106D01*
X224897102Y214276420D01*
X224933412Y214396118D01*
X224945672Y214520600D01*
X224942600Y214684850D01*
X224783850Y214843600D01*
X224034600Y214843600D01*
X223780600Y214843600D01*
X223031350Y214843600D01*
X222872600Y214684850D01*
X222869528Y214520600D01*
X219151970Y214520600D01*
X219154472Y214546000D01*
X219151400Y214710250D01*
X218992650Y214869000D01*
X218243400Y214869000D01*
X217989400Y214869000D01*
X217240150Y214869000D01*
X217081400Y214710250D01*
X217078328Y214546000D01*
X214157600Y214546000D01*
X214157600Y219303680D01*
X214361109Y219263200D01*
X214780091Y219263200D01*
X214932120Y219293440D01*
X215939400Y218286160D01*
X215939400Y218214798D01*
X215824800Y218075157D01*
X215720150Y217879371D01*
X215655707Y217666931D01*
X215633947Y217446000D01*
X215633947Y216546000D01*
X215655707Y216325069D01*
X215720150Y216112629D01*
X215824800Y215916843D01*
X215965635Y215745235D01*
X216137243Y215604400D01*
X216333029Y215499750D01*
X216545469Y215435307D01*
X216766400Y215413547D01*
X217078935Y215413547D01*
X217081400Y215281750D01*
X217240150Y215123000D01*
X217989400Y215123000D01*
X217989400Y215143000D01*
X218243400Y215143000D01*
X218243400Y215123000D01*
X218992650Y215123000D01*
X219151400Y215281750D01*
X219153865Y215413547D01*
X219466400Y215413547D01*
X219687331Y215435307D01*
X219899771Y215499750D01*
X220095557Y215604400D01*
X220267165Y215745235D01*
X220408000Y215916843D01*
X220512650Y216112629D01*
X220577093Y216325069D01*
X220598853Y216546000D01*
X220598853Y217446000D01*
X220577093Y217666931D01*
X220512650Y217879371D01*
X220408000Y218075157D01*
X220293400Y218214798D01*
X220293400Y219354208D01*
X220658112Y219505277D01*
X220920600Y219680665D01*
X221183088Y219505277D01*
X221570177Y219344939D01*
X221730601Y219313029D01*
X221730600Y218189398D01*
X221616000Y218049757D01*
X221511350Y217853971D01*
X221446907Y217641531D01*
X221425147Y217420600D01*
X221425147Y216520600D01*
X221446907Y216299669D01*
X221511350Y216087229D01*
X221616000Y215891443D01*
X221756835Y215719835D01*
X221928443Y215579000D01*
X222124229Y215474350D01*
X222336669Y215409907D01*
X222557600Y215388147D01*
X222870135Y215388147D01*
X222872600Y215256350D01*
X223031350Y215097600D01*
X223780600Y215097600D01*
X223780600Y215117600D01*
X224034600Y215117600D01*
X224034600Y215097600D01*
X224783850Y215097600D01*
X224942600Y215256350D01*
X224945065Y215388147D01*
X225257600Y215388147D01*
X225478531Y215409907D01*
X225690971Y215474350D01*
X225886757Y215579000D01*
X226058365Y215719835D01*
X226199200Y215891443D01*
X226303850Y216087229D01*
X226368293Y216299669D01*
X226390053Y216520600D01*
X226390053Y217420600D01*
X226368293Y217641531D01*
X226303850Y217853971D01*
X226199200Y218049757D01*
X226084600Y218189398D01*
X226084600Y219736792D01*
X226086484Y219738051D01*
X226382749Y220034316D01*
X226615523Y220382688D01*
X226775861Y220769777D01*
X226857600Y221180709D01*
X226857600Y221599691D01*
X226775861Y222010623D01*
X226615523Y222397712D01*
X226382749Y222746084D01*
X226086484Y223042349D01*
X225738112Y223275123D01*
X225351023Y223435461D01*
X224940091Y223517200D01*
X224521109Y223517200D01*
X224110177Y223435461D01*
X223723088Y223275123D01*
X223460600Y223099735D01*
X223198112Y223275123D01*
X222811023Y223435461D01*
X222400091Y223517200D01*
X221981109Y223517200D01*
X221570177Y223435461D01*
X221183088Y223275123D01*
X220920600Y223099735D01*
X220658112Y223275123D01*
X220271023Y223435461D01*
X219860091Y223517200D01*
X219441109Y223517200D01*
X219030177Y223435461D01*
X218643088Y223275123D01*
X218294716Y223042349D01*
X218005786Y222753419D01*
X217965982Y222783599D01*
X217677707Y222923702D01*
X217491034Y222980324D01*
X217237600Y222860977D01*
X217237600Y221517200D01*
X217257600Y221517200D01*
X217257600Y221263200D01*
X217237600Y221263200D01*
X217237600Y221243200D01*
X216983600Y221243200D01*
X216983600Y221263200D01*
X216963600Y221263200D01*
X216963600Y221517200D01*
X216983600Y221517200D01*
X216983600Y222860977D01*
X216730166Y222980324D01*
X216543493Y222923702D01*
X216255218Y222783599D01*
X216215414Y222753419D01*
X215926484Y223042349D01*
X215578112Y223275123D01*
X215191023Y223435461D01*
X214780091Y223517200D01*
X214361109Y223517200D01*
X213950177Y223435461D01*
X213673228Y223320745D01*
X213659757Y223331800D01*
X213463971Y223436450D01*
X213251531Y223500893D01*
X213030600Y223522653D01*
X211030600Y223522653D01*
X210809669Y223500893D01*
X210597229Y223436450D01*
X210401443Y223331800D01*
X210229835Y223190965D01*
X210089000Y223019357D01*
X209984350Y222823571D01*
X209919907Y222611131D01*
X209898147Y222390200D01*
X209898147Y220390200D01*
X209903601Y220334826D01*
X209903600Y214305671D01*
X209089771Y215715265D01*
X208960461Y215895716D01*
X208798432Y216047473D01*
X208609909Y216164704D01*
X208402138Y216242904D01*
X208183104Y216279066D01*
X207961223Y216271803D01*
X207745023Y216221392D01*
X207542811Y216129771D01*
X206822666Y215713995D01*
X201444425Y221092235D01*
X201402870Y221142870D01*
X201200808Y221308698D01*
X200974167Y221429840D01*
X201202234Y221572742D01*
X201401340Y221760503D01*
X201559990Y221983500D01*
X201672087Y222233164D01*
X201690918Y222336215D01*
X201568256Y222550400D01*
X200225600Y222550400D01*
X200225600Y222530400D01*
X199971600Y222530400D01*
X199971600Y222550400D01*
X198628944Y222550400D01*
X198506282Y222336215D01*
X198525113Y222233164D01*
X198637210Y221983500D01*
X198795860Y221760503D01*
X198994966Y221572742D01*
X199067969Y221527000D01*
X195529231Y221527000D01*
X195602234Y221572742D01*
X195801340Y221760503D01*
X195959990Y221983500D01*
X196072087Y222233164D01*
X196090918Y222336215D01*
X195968256Y222550400D01*
X194625600Y222550400D01*
X194625600Y222530400D01*
X194371600Y222530400D01*
X194371600Y222550400D01*
X193028944Y222550400D01*
X192906282Y222336215D01*
X192925113Y222233164D01*
X193037210Y221983500D01*
X193195860Y221760503D01*
X193394966Y221572742D01*
X193467969Y221527000D01*
X180869925Y221527000D01*
X180784352Y221612573D01*
X180517873Y221790628D01*
X180221778Y221913275D01*
X179907445Y221975800D01*
X179586955Y221975800D01*
X179272622Y221913275D01*
X178976527Y221790628D01*
X178710048Y221612573D01*
X178483427Y221385952D01*
X178305372Y221119473D01*
X178182725Y220823378D01*
X178132808Y220572431D01*
X176085878Y222619361D01*
X176265382Y222706601D01*
X176520785Y222900252D01*
X176625772Y223018585D01*
X192906282Y223018585D01*
X193028944Y222804400D01*
X194371600Y222804400D01*
X194371600Y223909273D01*
X194625600Y223909273D01*
X194625600Y222804400D01*
X195968256Y222804400D01*
X196090918Y223018585D01*
X198506282Y223018585D01*
X198628944Y222804400D01*
X199971600Y222804400D01*
X199971600Y223909273D01*
X200225600Y223909273D01*
X200225600Y222804400D01*
X201568256Y222804400D01*
X201690918Y223018585D01*
X201672087Y223121636D01*
X201559990Y223371300D01*
X201401340Y223594297D01*
X201202234Y223782058D01*
X200970324Y223927368D01*
X200714521Y224024643D01*
X200444656Y224070144D01*
X200225600Y223909273D01*
X199971600Y223909273D01*
X199752544Y224070144D01*
X199482679Y224024643D01*
X199226876Y223927368D01*
X198994966Y223782058D01*
X198795860Y223594297D01*
X198637210Y223371300D01*
X198525113Y223121636D01*
X198506282Y223018585D01*
X196090918Y223018585D01*
X196072087Y223121636D01*
X195959990Y223371300D01*
X195801340Y223594297D01*
X195602234Y223782058D01*
X195370324Y223927368D01*
X195114521Y224024643D01*
X194844656Y224070144D01*
X194625600Y223909273D01*
X194371600Y223909273D01*
X194152544Y224070144D01*
X193882679Y224024643D01*
X193626876Y223927368D01*
X193394966Y223782058D01*
X193195860Y223594297D01*
X193037210Y223371300D01*
X192925113Y223121636D01*
X192906282Y223018585D01*
X176625772Y223018585D01*
X176733501Y223140008D01*
X176895356Y223416656D01*
X177000129Y223719565D01*
X176881315Y223973000D01*
X175537000Y223973000D01*
X175537000Y223953000D01*
X175283000Y223953000D01*
X175283000Y223973000D01*
X175263000Y223973000D01*
X175263000Y224227000D01*
X175283000Y224227000D01*
X175283000Y225570777D01*
X175537000Y225570777D01*
X175537000Y224227000D01*
X176881315Y224227000D01*
X177000129Y224480435D01*
X176998130Y224486215D01*
X195456282Y224486215D01*
X195470427Y224414716D01*
X195576458Y224163532D01*
X195729455Y223937860D01*
X195923539Y223746372D01*
X196151251Y223596428D01*
X196403840Y223493789D01*
X196671600Y223442400D01*
X197171600Y223442400D01*
X197171600Y224700400D01*
X197425600Y224700400D01*
X197425600Y223442400D01*
X197925600Y223442400D01*
X198193360Y223493789D01*
X198445949Y223596428D01*
X198673661Y223746372D01*
X198867745Y223937860D01*
X199020742Y224163532D01*
X199126773Y224414716D01*
X199140918Y224486215D01*
X199018256Y224700400D01*
X197425600Y224700400D01*
X197171600Y224700400D01*
X195578944Y224700400D01*
X195456282Y224486215D01*
X176998130Y224486215D01*
X176895356Y224783344D01*
X176733501Y225059992D01*
X176637156Y225168585D01*
X195456282Y225168585D01*
X195578944Y224954400D01*
X197171600Y224954400D01*
X197171600Y226212400D01*
X197425600Y226212400D01*
X197425600Y224954400D01*
X199018256Y224954400D01*
X199140918Y225168585D01*
X199126773Y225240084D01*
X199020742Y225491268D01*
X198867745Y225716940D01*
X198673661Y225908428D01*
X198445949Y226058372D01*
X198193360Y226161011D01*
X197925600Y226212400D01*
X197425600Y226212400D01*
X197171600Y226212400D01*
X196671600Y226212400D01*
X196403840Y226161011D01*
X196151251Y226058372D01*
X195923539Y225908428D01*
X195729455Y225716940D01*
X195576458Y225491268D01*
X195470427Y225240084D01*
X195456282Y225168585D01*
X176637156Y225168585D01*
X176520785Y225299748D01*
X176265382Y225493399D01*
X175977107Y225633502D01*
X175790434Y225690124D01*
X175537000Y225570777D01*
X175283000Y225570777D01*
X175029566Y225690124D01*
X174842893Y225633502D01*
X174554618Y225493399D01*
X174514814Y225463219D01*
X174225884Y225752149D01*
X173877512Y225984923D01*
X173490423Y226145261D01*
X173079491Y226227000D01*
X172660509Y226227000D01*
X172249577Y226145261D01*
X171862488Y225984923D01*
X171600000Y225809535D01*
X171337512Y225984923D01*
X170950423Y226145261D01*
X170539491Y226227000D01*
X170120509Y226227000D01*
X169709577Y226145261D01*
X169322488Y225984923D01*
X169060000Y225809535D01*
X168797512Y225984923D01*
X168410423Y226145261D01*
X167999491Y226227000D01*
X167580509Y226227000D01*
X167169577Y226145261D01*
X166782488Y225984923D01*
X166520000Y225809535D01*
X166257512Y225984923D01*
X165870423Y226145261D01*
X165459491Y226227000D01*
X165040509Y226227000D01*
X164629577Y226145261D01*
X164242488Y225984923D01*
X163980000Y225809535D01*
X163717512Y225984923D01*
X163330423Y226145261D01*
X162919491Y226227000D01*
X162500509Y226227000D01*
X162089577Y226145261D01*
X161702488Y225984923D01*
X161440000Y225809535D01*
X161177512Y225984923D01*
X160790423Y226145261D01*
X160379491Y226227000D01*
X159960509Y226227000D01*
X159549577Y226145261D01*
X159162488Y225984923D01*
X158900000Y225809535D01*
X158637512Y225984923D01*
X158250423Y226145261D01*
X157839491Y226227000D01*
X157420509Y226227000D01*
X157009577Y226145261D01*
X156622488Y225984923D01*
X156360000Y225809535D01*
X156097512Y225984923D01*
X155710423Y226145261D01*
X155299491Y226227000D01*
X154880509Y226227000D01*
X154469577Y226145261D01*
X154082488Y225984923D01*
X153820000Y225809535D01*
X153557512Y225984923D01*
X153170423Y226145261D01*
X152759491Y226227000D01*
X152340509Y226227000D01*
X151929577Y226145261D01*
X151652628Y226030545D01*
X151639157Y226041600D01*
X151443371Y226146250D01*
X151230931Y226210693D01*
X151010000Y226232453D01*
X150059121Y226232453D01*
X150010000Y226237291D01*
X149960878Y226232453D01*
X149010000Y226232453D01*
X148789069Y226210693D01*
X148576629Y226146250D01*
X148380843Y226041600D01*
X148209235Y225900765D01*
X148068400Y225729157D01*
X147963750Y225533371D01*
X147899307Y225320931D01*
X147877547Y225100000D01*
X147877547Y223100000D01*
X147883000Y223044635D01*
X147883000Y222785432D01*
X135213265Y210115696D01*
X135132108Y210049092D01*
X135065504Y209967935D01*
X135065501Y209967932D01*
X134928470Y209800959D01*
X134866308Y209725215D01*
X134668801Y209355705D01*
X134547177Y208954765D01*
X134506109Y208537800D01*
X130937000Y208537800D01*
X130937000Y226234059D01*
X228583000Y226321941D01*
X228583001Y186677000D01*
%TA.AperFunction,Conductor*%
D26*
G36*
X228583001Y186677000D02*
G01*
X130937000Y186677000D01*
X130937000Y193407306D01*
X217414560Y193407306D01*
X217707449Y193212027D01*
X218127424Y193234176D01*
X218535008Y193337831D01*
X218914538Y193519011D01*
X219251429Y193770752D01*
X219532736Y194083380D01*
X219709765Y194368065D01*
X219687093Y194719354D01*
X217894803Y195199596D01*
X217414560Y193407306D01*
X130937000Y193407306D01*
X130937000Y208537800D01*
X134506109Y208537800D01*
X134547177Y208120835D01*
X134668801Y207719895D01*
X134866308Y207350385D01*
X135054896Y207120591D01*
X135132108Y207026508D01*
X135141400Y207018882D01*
X135141401Y204912391D01*
X135134133Y204838598D01*
X135163133Y204544155D01*
X135216236Y204369101D01*
X135249020Y204261027D01*
X135388491Y204000094D01*
X135576188Y203771385D01*
X135633505Y203724346D01*
X144580751Y194777098D01*
X144627785Y194719787D01*
X144856494Y194532090D01*
X145117427Y194392619D01*
X145273839Y194345172D01*
X145400554Y194306733D01*
X145694998Y194277733D01*
X145768781Y194285000D01*
X149073595Y194285000D01*
X149224422Y194222525D01*
X149538755Y194160000D01*
X149859245Y194160000D01*
X150173578Y194222525D01*
X150469673Y194345172D01*
X150736152Y194523227D01*
X150962773Y194749848D01*
X151140828Y195016327D01*
X151263475Y195312422D01*
X151291376Y195452690D01*
X215661888Y195452690D01*
X215684037Y195032715D01*
X215787692Y194625131D01*
X215968872Y194245601D01*
X216220613Y193908710D01*
X216533241Y193627403D01*
X216817926Y193450374D01*
X217169215Y193473046D01*
X217649457Y195265336D01*
X216979159Y195444942D01*
X217960543Y195444942D01*
X219752833Y194964699D01*
X219948112Y195257588D01*
X219925963Y195677563D01*
X219822308Y196085147D01*
X219641128Y196464677D01*
X219389387Y196801568D01*
X219076759Y197082875D01*
X218792074Y197259904D01*
X218440785Y197237232D01*
X217960543Y195444942D01*
X216979159Y195444942D01*
X215857167Y195745579D01*
X215661888Y195452690D01*
X151291376Y195452690D01*
X151326000Y195626755D01*
X151326000Y195947245D01*
X151263475Y196261578D01*
X151140828Y196557673D01*
X150962773Y196824152D01*
X150736152Y197050773D01*
X150469673Y197228828D01*
X150173578Y197351475D01*
X149859245Y197414000D01*
X149538755Y197414000D01*
X149224422Y197351475D01*
X149073595Y197289000D01*
X146317147Y197289000D01*
X139786145Y203820000D01*
X167501515Y203820000D01*
X167606000Y203809709D01*
X167710485Y203820000D01*
X167710487Y203820000D01*
X168022965Y203850776D01*
X168423906Y203972401D01*
X168793415Y204169907D01*
X169117293Y204435707D01*
X169183905Y204516874D01*
X172062399Y207395367D01*
X172062404Y207395373D01*
X172635432Y207968401D01*
X175039195Y207968401D01*
X174996000Y207751245D01*
X174996000Y207430755D01*
X175058525Y207116422D01*
X175181172Y206820327D01*
X175359227Y206553848D01*
X175396000Y206517075D01*
X175396001Y204446926D01*
X175359227Y204410152D01*
X175181172Y204143673D01*
X175058525Y203847578D01*
X174996000Y203533245D01*
X174996000Y203212755D01*
X175058525Y202898422D01*
X175181172Y202602327D01*
X175338838Y202366363D01*
X175333827Y202361352D01*
X175155772Y202094873D01*
X175033125Y201798778D01*
X174970600Y201484445D01*
X174970600Y201163955D01*
X175033125Y200849622D01*
X175155772Y200553527D01*
X175333827Y200287048D01*
X175560448Y200060427D01*
X175826927Y199882372D01*
X176123022Y199759725D01*
X176437355Y199697200D01*
X176757845Y199697200D01*
X177072178Y199759725D01*
X177368273Y199882372D01*
X177634752Y200060427D01*
X177671525Y200097200D01*
X179346942Y200097200D01*
X179407202Y200091265D01*
X179467462Y200097200D01*
X179467470Y200097200D01*
X179647736Y200114955D01*
X179879026Y200185116D01*
X180092185Y200299051D01*
X180279019Y200452383D01*
X180317441Y200499200D01*
X181080205Y201261963D01*
X181127017Y201300381D01*
X181280349Y201487215D01*
X181394284Y201700374D01*
X181464445Y201931664D01*
X181482200Y202111930D01*
X181482200Y202111937D01*
X181488135Y202172197D01*
X181482200Y202232457D01*
X181482200Y205762075D01*
X181518973Y205798848D01*
X181566249Y205869602D01*
X181598001Y205837850D01*
X181598000Y198317406D01*
X181535525Y198166578D01*
X181473000Y197852245D01*
X181473000Y197531755D01*
X181535525Y197217422D01*
X181658172Y196921327D01*
X181836227Y196654848D01*
X182062848Y196428227D01*
X182329327Y196250172D01*
X182625422Y196127525D01*
X182939755Y196065000D01*
X183260245Y196065000D01*
X183574578Y196127525D01*
X183870673Y196250172D01*
X184008422Y196342213D01*
X215900235Y196342213D01*
X215922907Y195990924D01*
X217715197Y195510682D01*
X218195440Y197302972D01*
X217902551Y197498251D01*
X217482576Y197476102D01*
X217074992Y197372447D01*
X216695462Y197191267D01*
X216358571Y196939526D01*
X216077264Y196626898D01*
X215900235Y196342213D01*
X184008422Y196342213D01*
X184137152Y196428227D01*
X184363773Y196654848D01*
X184541828Y196921327D01*
X184664475Y197217422D01*
X184727000Y197531755D01*
X184727000Y197852245D01*
X184664475Y198166578D01*
X184602000Y198317405D01*
X184602000Y205812200D01*
X188818643Y205812200D01*
X188876125Y205523222D01*
X188998772Y205227127D01*
X189176827Y204960648D01*
X189403448Y204734027D01*
X189669927Y204555972D01*
X189966022Y204433325D01*
X190280355Y204370800D01*
X190600845Y204370800D01*
X190915178Y204433325D01*
X191211273Y204555972D01*
X191477752Y204734027D01*
X191704373Y204960648D01*
X191882428Y205227127D01*
X192005075Y205523222D01*
X192067600Y205837555D01*
X192067600Y206158045D01*
X192005075Y206472378D01*
X191882428Y206768473D01*
X191704373Y207034952D01*
X191477752Y207261573D01*
X191211273Y207439628D01*
X190915178Y207562275D01*
X190600845Y207624800D01*
X190548839Y207624800D01*
X190309439Y207864200D01*
X190271017Y207911017D01*
X190084183Y208064349D01*
X189871024Y208178284D01*
X189639734Y208248445D01*
X189459468Y208266200D01*
X189459460Y208266200D01*
X189399200Y208272135D01*
X189338940Y208266200D01*
X184827440Y208266200D01*
X184625240Y208468400D01*
X196085100Y208468400D01*
X196218728Y208358734D01*
X196444107Y208084109D01*
X196767985Y207818309D01*
X197137494Y207620803D01*
X197538435Y207499178D01*
X197850913Y207468402D01*
X210150917Y207468402D01*
X210255402Y207458111D01*
X210359887Y207468402D01*
X210359889Y207468402D01*
X210672367Y207499178D01*
X211073308Y207620803D01*
X211442817Y207818309D01*
X211766695Y208084109D01*
X211833307Y208165276D01*
X213460731Y209792699D01*
X213541893Y209859307D01*
X213807693Y210183185D01*
X214005199Y210552694D01*
X214126824Y210953635D01*
X214157600Y211266113D01*
X214157600Y211266122D01*
X214167890Y211370599D01*
X214157600Y211475077D01*
X214157600Y214546000D01*
X217078328Y214546000D01*
X217090588Y214421518D01*
X217126898Y214301820D01*
X217185863Y214191506D01*
X217265215Y214094815D01*
X217361906Y214015463D01*
X217472220Y213956498D01*
X217591918Y213920188D01*
X217716400Y213907928D01*
X217830650Y213911000D01*
X217989400Y214069750D01*
X217989400Y214869000D01*
X218243400Y214869000D01*
X218243400Y214069750D01*
X218402150Y213911000D01*
X218516400Y213907928D01*
X218640882Y213920188D01*
X218760580Y213956498D01*
X218870894Y214015463D01*
X218967585Y214094815D01*
X219046937Y214191506D01*
X219105902Y214301820D01*
X219142212Y214421518D01*
X219151970Y214520600D01*
X222869528Y214520600D01*
X222881788Y214396118D01*
X222918098Y214276420D01*
X222977063Y214166106D01*
X223056415Y214069415D01*
X223153106Y213990063D01*
X223263420Y213931098D01*
X223383118Y213894788D01*
X223507600Y213882528D01*
X223621850Y213885600D01*
X223780600Y214044350D01*
X223780600Y214843600D01*
X224034600Y214843600D01*
X224034600Y214044350D01*
X224193350Y213885600D01*
X224307600Y213882528D01*
X224432082Y213894788D01*
X224551780Y213931098D01*
X224662094Y213990063D01*
X224758785Y214069415D01*
X224838137Y214166106D01*
X224897102Y214276420D01*
X224933412Y214396118D01*
X224945672Y214520600D01*
X224942600Y214684850D01*
X224783850Y214843600D01*
X224034600Y214843600D01*
X223780600Y214843600D01*
X223031350Y214843600D01*
X222872600Y214684850D01*
X222869528Y214520600D01*
X219151970Y214520600D01*
X219154472Y214546000D01*
X219151400Y214710250D01*
X218992650Y214869000D01*
X218243400Y214869000D01*
X217989400Y214869000D01*
X217240150Y214869000D01*
X217081400Y214710250D01*
X217078328Y214546000D01*
X214157600Y214546000D01*
X214157600Y219303680D01*
X214361109Y219263200D01*
X214780091Y219263200D01*
X214932120Y219293440D01*
X215939400Y218286160D01*
X215939400Y218214798D01*
X215824800Y218075157D01*
X215720150Y217879371D01*
X215655707Y217666931D01*
X215633947Y217446000D01*
X215633947Y216546000D01*
X215655707Y216325069D01*
X215720150Y216112629D01*
X215824800Y215916843D01*
X215965635Y215745235D01*
X216137243Y215604400D01*
X216333029Y215499750D01*
X216545469Y215435307D01*
X216766400Y215413547D01*
X217078935Y215413547D01*
X217081400Y215281750D01*
X217240150Y215123000D01*
X217989400Y215123000D01*
X217989400Y215143000D01*
X218243400Y215143000D01*
X218243400Y215123000D01*
X218992650Y215123000D01*
X219151400Y215281750D01*
X219153865Y215413547D01*
X219466400Y215413547D01*
X219687331Y215435307D01*
X219899771Y215499750D01*
X220095557Y215604400D01*
X220267165Y215745235D01*
X220408000Y215916843D01*
X220512650Y216112629D01*
X220577093Y216325069D01*
X220598853Y216546000D01*
X220598853Y217446000D01*
X220577093Y217666931D01*
X220512650Y217879371D01*
X220408000Y218075157D01*
X220293400Y218214798D01*
X220293400Y219354208D01*
X220658112Y219505277D01*
X220920600Y219680665D01*
X221183088Y219505277D01*
X221570177Y219344939D01*
X221730601Y219313029D01*
X221730600Y218189398D01*
X221616000Y218049757D01*
X221511350Y217853971D01*
X221446907Y217641531D01*
X221425147Y217420600D01*
X221425147Y216520600D01*
X221446907Y216299669D01*
X221511350Y216087229D01*
X221616000Y215891443D01*
X221756835Y215719835D01*
X221928443Y215579000D01*
X222124229Y215474350D01*
X222336669Y215409907D01*
X222557600Y215388147D01*
X222870135Y215388147D01*
X222872600Y215256350D01*
X223031350Y215097600D01*
X223780600Y215097600D01*
X223780600Y215117600D01*
X224034600Y215117600D01*
X224034600Y215097600D01*
X224783850Y215097600D01*
X224942600Y215256350D01*
X224945065Y215388147D01*
X225257600Y215388147D01*
X225478531Y215409907D01*
X225690971Y215474350D01*
X225886757Y215579000D01*
X226058365Y215719835D01*
X226199200Y215891443D01*
X226303850Y216087229D01*
X226368293Y216299669D01*
X226390053Y216520600D01*
X226390053Y217420600D01*
X226368293Y217641531D01*
X226303850Y217853971D01*
X226199200Y218049757D01*
X226084600Y218189398D01*
X226084600Y219736792D01*
X226086484Y219738051D01*
X226382749Y220034316D01*
X226615523Y220382688D01*
X226775861Y220769777D01*
X226857600Y221180709D01*
X226857600Y221599691D01*
X226775861Y222010623D01*
X226615523Y222397712D01*
X226382749Y222746084D01*
X226086484Y223042349D01*
X225738112Y223275123D01*
X225351023Y223435461D01*
X224940091Y223517200D01*
X224521109Y223517200D01*
X224110177Y223435461D01*
X223723088Y223275123D01*
X223460600Y223099735D01*
X223198112Y223275123D01*
X222811023Y223435461D01*
X222400091Y223517200D01*
X221981109Y223517200D01*
X221570177Y223435461D01*
X221183088Y223275123D01*
X220920600Y223099735D01*
X220658112Y223275123D01*
X220271023Y223435461D01*
X219860091Y223517200D01*
X219441109Y223517200D01*
X219030177Y223435461D01*
X218643088Y223275123D01*
X218294716Y223042349D01*
X218005786Y222753419D01*
X217965982Y222783599D01*
X217677707Y222923702D01*
X217491034Y222980324D01*
X217237600Y222860977D01*
X217237600Y221517200D01*
X217257600Y221517200D01*
X217257600Y221263200D01*
X217237600Y221263200D01*
X217237600Y221243200D01*
X216983600Y221243200D01*
X216983600Y221263200D01*
X216963600Y221263200D01*
X216963600Y221517200D01*
X216983600Y221517200D01*
X216983600Y222860977D01*
X216730166Y222980324D01*
X216543493Y222923702D01*
X216255218Y222783599D01*
X216215414Y222753419D01*
X215926484Y223042349D01*
X215578112Y223275123D01*
X215191023Y223435461D01*
X214780091Y223517200D01*
X214361109Y223517200D01*
X213950177Y223435461D01*
X213673228Y223320745D01*
X213659757Y223331800D01*
X213463971Y223436450D01*
X213251531Y223500893D01*
X213030600Y223522653D01*
X211030600Y223522653D01*
X210809669Y223500893D01*
X210597229Y223436450D01*
X210401443Y223331800D01*
X210229835Y223190965D01*
X210089000Y223019357D01*
X209984350Y222823571D01*
X209919907Y222611131D01*
X209898147Y222390200D01*
X209898147Y220390200D01*
X209903601Y220334826D01*
X209903600Y214305671D01*
X209089771Y215715265D01*
X208960461Y215895716D01*
X208798432Y216047473D01*
X208609909Y216164704D01*
X208402138Y216242904D01*
X208183104Y216279066D01*
X207961223Y216271803D01*
X207745023Y216221392D01*
X207542811Y216129771D01*
X206822666Y215713995D01*
X201444425Y221092235D01*
X201402870Y221142870D01*
X201200808Y221308698D01*
X200974167Y221429840D01*
X201202234Y221572742D01*
X201401340Y221760503D01*
X201559990Y221983500D01*
X201672087Y222233164D01*
X201690918Y222336215D01*
X201568256Y222550400D01*
X200225600Y222550400D01*
X200225600Y222530400D01*
X199971600Y222530400D01*
X199971600Y222550400D01*
X198628944Y222550400D01*
X198506282Y222336215D01*
X198525113Y222233164D01*
X198637210Y221983500D01*
X198795860Y221760503D01*
X198994966Y221572742D01*
X199067969Y221527000D01*
X195529231Y221527000D01*
X195602234Y221572742D01*
X195801340Y221760503D01*
X195959990Y221983500D01*
X196072087Y222233164D01*
X196090918Y222336215D01*
X195968256Y222550400D01*
X194625600Y222550400D01*
X194625600Y222530400D01*
X194371600Y222530400D01*
X194371600Y222550400D01*
X193028944Y222550400D01*
X192906282Y222336215D01*
X192925113Y222233164D01*
X193037210Y221983500D01*
X193195860Y221760503D01*
X193394966Y221572742D01*
X193467969Y221527000D01*
X180869925Y221527000D01*
X180784352Y221612573D01*
X180517873Y221790628D01*
X180221778Y221913275D01*
X179907445Y221975800D01*
X179586955Y221975800D01*
X179272622Y221913275D01*
X178976527Y221790628D01*
X178710048Y221612573D01*
X178483427Y221385952D01*
X178305372Y221119473D01*
X178182725Y220823378D01*
X178132808Y220572431D01*
X176085878Y222619361D01*
X176265382Y222706601D01*
X176520785Y222900252D01*
X176625772Y223018585D01*
X192906282Y223018585D01*
X193028944Y222804400D01*
X194371600Y222804400D01*
X194371600Y223909273D01*
X194625600Y223909273D01*
X194625600Y222804400D01*
X195968256Y222804400D01*
X196090918Y223018585D01*
X198506282Y223018585D01*
X198628944Y222804400D01*
X199971600Y222804400D01*
X199971600Y223909273D01*
X200225600Y223909273D01*
X200225600Y222804400D01*
X201568256Y222804400D01*
X201690918Y223018585D01*
X201672087Y223121636D01*
X201559990Y223371300D01*
X201401340Y223594297D01*
X201202234Y223782058D01*
X200970324Y223927368D01*
X200714521Y224024643D01*
X200444656Y224070144D01*
X200225600Y223909273D01*
X199971600Y223909273D01*
X199752544Y224070144D01*
X199482679Y224024643D01*
X199226876Y223927368D01*
X198994966Y223782058D01*
X198795860Y223594297D01*
X198637210Y223371300D01*
X198525113Y223121636D01*
X198506282Y223018585D01*
X196090918Y223018585D01*
X196072087Y223121636D01*
X195959990Y223371300D01*
X195801340Y223594297D01*
X195602234Y223782058D01*
X195370324Y223927368D01*
X195114521Y224024643D01*
X194844656Y224070144D01*
X194625600Y223909273D01*
X194371600Y223909273D01*
X194152544Y224070144D01*
X193882679Y224024643D01*
X193626876Y223927368D01*
X193394966Y223782058D01*
X193195860Y223594297D01*
X193037210Y223371300D01*
X192925113Y223121636D01*
X192906282Y223018585D01*
X176625772Y223018585D01*
X176733501Y223140008D01*
X176895356Y223416656D01*
X177000129Y223719565D01*
X176881315Y223973000D01*
X175537000Y223973000D01*
X175537000Y223953000D01*
X175283000Y223953000D01*
X175283000Y223973000D01*
X175263000Y223973000D01*
X175263000Y224227000D01*
X175283000Y224227000D01*
X175283000Y225570777D01*
X175537000Y225570777D01*
X175537000Y224227000D01*
X176881315Y224227000D01*
X177000129Y224480435D01*
X176998130Y224486215D01*
X195456282Y224486215D01*
X195470427Y224414716D01*
X195576458Y224163532D01*
X195729455Y223937860D01*
X195923539Y223746372D01*
X196151251Y223596428D01*
X196403840Y223493789D01*
X196671600Y223442400D01*
X197171600Y223442400D01*
X197171600Y224700400D01*
X197425600Y224700400D01*
X197425600Y223442400D01*
X197925600Y223442400D01*
X198193360Y223493789D01*
X198445949Y223596428D01*
X198673661Y223746372D01*
X198867745Y223937860D01*
X199020742Y224163532D01*
X199126773Y224414716D01*
X199140918Y224486215D01*
X199018256Y224700400D01*
X197425600Y224700400D01*
X197171600Y224700400D01*
X195578944Y224700400D01*
X195456282Y224486215D01*
X176998130Y224486215D01*
X176895356Y224783344D01*
X176733501Y225059992D01*
X176637156Y225168585D01*
X195456282Y225168585D01*
X195578944Y224954400D01*
X197171600Y224954400D01*
X197171600Y226212400D01*
X197425600Y226212400D01*
X197425600Y224954400D01*
X199018256Y224954400D01*
X199140918Y225168585D01*
X199126773Y225240084D01*
X199020742Y225491268D01*
X198867745Y225716940D01*
X198673661Y225908428D01*
X198445949Y226058372D01*
X198193360Y226161011D01*
X197925600Y226212400D01*
X197425600Y226212400D01*
X197171600Y226212400D01*
X196671600Y226212400D01*
X196403840Y226161011D01*
X196151251Y226058372D01*
X195923539Y225908428D01*
X195729455Y225716940D01*
X195576458Y225491268D01*
X195470427Y225240084D01*
X195456282Y225168585D01*
X176637156Y225168585D01*
X176520785Y225299748D01*
X176265382Y225493399D01*
X175977107Y225633502D01*
X175790434Y225690124D01*
X175537000Y225570777D01*
X175283000Y225570777D01*
X175029566Y225690124D01*
X174842893Y225633502D01*
X174554618Y225493399D01*
X174514814Y225463219D01*
X174225884Y225752149D01*
X173877512Y225984923D01*
X173490423Y226145261D01*
X173079491Y226227000D01*
X172660509Y226227000D01*
X172249577Y226145261D01*
X171862488Y225984923D01*
X171600000Y225809535D01*
X171337512Y225984923D01*
X170950423Y226145261D01*
X170539491Y226227000D01*
X170120509Y226227000D01*
X169709577Y226145261D01*
X169322488Y225984923D01*
X169060000Y225809535D01*
X168797512Y225984923D01*
X168410423Y226145261D01*
X167999491Y226227000D01*
X167580509Y226227000D01*
X167169577Y226145261D01*
X166782488Y225984923D01*
X166520000Y225809535D01*
X166257512Y225984923D01*
X165870423Y226145261D01*
X165459491Y226227000D01*
X165040509Y226227000D01*
X164629577Y226145261D01*
X164242488Y225984923D01*
X163980000Y225809535D01*
X163717512Y225984923D01*
X163330423Y226145261D01*
X162919491Y226227000D01*
X162500509Y226227000D01*
X162089577Y226145261D01*
X161702488Y225984923D01*
X161440000Y225809535D01*
X161177512Y225984923D01*
X160790423Y226145261D01*
X160379491Y226227000D01*
X159960509Y226227000D01*
X159549577Y226145261D01*
X159162488Y225984923D01*
X158900000Y225809535D01*
X158637512Y225984923D01*
X158250423Y226145261D01*
X157839491Y226227000D01*
X157420509Y226227000D01*
X157009577Y226145261D01*
X156622488Y225984923D01*
X156360000Y225809535D01*
X156097512Y225984923D01*
X155710423Y226145261D01*
X155299491Y226227000D01*
X154880509Y226227000D01*
X154469577Y226145261D01*
X154082488Y225984923D01*
X153820000Y225809535D01*
X153557512Y225984923D01*
X153170423Y226145261D01*
X152759491Y226227000D01*
X152340509Y226227000D01*
X151929577Y226145261D01*
X151652628Y226030545D01*
X151639157Y226041600D01*
X151443371Y226146250D01*
X151230931Y226210693D01*
X151010000Y226232453D01*
X150059121Y226232453D01*
X150010000Y226237291D01*
X149960878Y226232453D01*
X149010000Y226232453D01*
X148789069Y226210693D01*
X148576629Y226146250D01*
X148380843Y226041600D01*
X148209235Y225900765D01*
X148068400Y225729157D01*
X147963750Y225533371D01*
X147899307Y225320931D01*
X147877547Y225100000D01*
X147877547Y223100000D01*
X147883000Y223044635D01*
X147883000Y222785432D01*
X135213265Y210115696D01*
X135132108Y210049092D01*
X135065504Y209967935D01*
X135065501Y209967932D01*
X134928470Y209800959D01*
X134866308Y209725215D01*
X134668801Y209355705D01*
X134547177Y208954765D01*
X134506109Y208537800D01*
X130937000Y208537800D01*
X130937000Y226234059D01*
X228583000Y226321941D01*
X228583001Y186677000D01*
G37*
%TD.AperFunction*%
%TD*%
M02*
