%TF.GenerationSoftware,KiCad,Pcbnew,(5.1.7)-1*%
%TF.CreationDate,2020-10-28T13:08:51+04:00*%
%TF.ProjectId,stm32-home-light,73746d33-322d-4686-9f6d-652d6c696768,rev?*%
%TF.SameCoordinates,Original*%
%TF.FileFunction,Other,Fab,Bot*%
%FSLAX46Y46*%
G04 Gerber Fmt 4.6, Leading zero omitted, Abs format (unit mm)*
G04 Created by KiCad (PCBNEW (5.1.7)-1) date 2020-10-28 13:08:51*
%MOMM*%
%LPD*%
G01*
G04 APERTURE LIST*
%TA.AperFunction,Profile*%
%ADD10C,0.100000*%
%TD*%
%ADD11C,0.100000*%
%ADD12C,0.150000*%
%ADD13C,0.075000*%
G04 APERTURE END LIST*
D10*
X229760000Y227500000D02*
X229760000Y185500000D01*
X129760000Y227410000D02*
X229760000Y227500000D01*
X129760000Y185500000D02*
X129760000Y227410000D01*
X229760000Y185500000D02*
X129760000Y185500000D01*
X129760000Y185500000D02*
X129760000Y227500000D01*
X129760000Y227500000D02*
X229760000Y227500000D01*
D11*
%TO.C,J1*%
X176680000Y225370000D02*
X148740000Y225370000D01*
X176680000Y222830000D02*
X176680000Y225370000D01*
X149375000Y222830000D02*
X176680000Y222830000D01*
X148740000Y223465000D02*
X149375000Y222830000D01*
X148740000Y225370000D02*
X148740000Y223465000D01*
%TO.C,D32*%
X219636400Y216696000D02*
X219636400Y215296000D01*
X216596400Y215296000D02*
X219636400Y215296000D01*
X217166400Y216696000D02*
X216596400Y216146000D01*
X216596400Y216146000D02*
X216596400Y215296000D01*
X217166400Y216696000D02*
X219616400Y216696000D01*
%TO.C,D31*%
X225427600Y216670600D02*
X225427600Y215270600D01*
X222387600Y215270600D02*
X225427600Y215270600D01*
X222957600Y216670600D02*
X222387600Y216120600D01*
X222387600Y216120600D02*
X222387600Y215270600D01*
X222957600Y216670600D02*
X225407600Y216670600D01*
%TD*%
%TO.C,J1*%
D12*
X178537142Y227480952D02*
X178584761Y227528571D01*
X178632380Y227671428D01*
X178632380Y227766666D01*
X178584761Y227909523D01*
X178489523Y228004761D01*
X178394285Y228052380D01*
X178203809Y228100000D01*
X178060952Y228100000D01*
X177870476Y228052380D01*
X177775238Y228004761D01*
X177680000Y227909523D01*
X177632380Y227766666D01*
X177632380Y227671428D01*
X177680000Y227528571D01*
X177727619Y227480952D01*
X178632380Y227052380D02*
X177965714Y227052380D01*
X178156190Y227052380D02*
X178060952Y227004761D01*
X178013333Y226957142D01*
X177965714Y226861904D01*
X177965714Y226766666D01*
X178632380Y226290476D02*
X178584761Y226385714D01*
X178537142Y226433333D01*
X178441904Y226480952D01*
X178156190Y226480952D01*
X178060952Y226433333D01*
X178013333Y226385714D01*
X177965714Y226290476D01*
X177965714Y226147619D01*
X178013333Y226052380D01*
X178060952Y226004761D01*
X178156190Y225957142D01*
X178441904Y225957142D01*
X178537142Y226004761D01*
X178584761Y226052380D01*
X178632380Y226147619D01*
X178632380Y226290476D01*
X178584761Y225576190D02*
X178632380Y225480952D01*
X178632380Y225290476D01*
X178584761Y225195238D01*
X178489523Y225147619D01*
X178441904Y225147619D01*
X178346666Y225195238D01*
X178299047Y225290476D01*
X178299047Y225433333D01*
X178251428Y225528571D01*
X178156190Y225576190D01*
X178108571Y225576190D01*
X178013333Y225528571D01*
X177965714Y225433333D01*
X177965714Y225290476D01*
X178013333Y225195238D01*
X178584761Y224766666D02*
X178632380Y224671428D01*
X178632380Y224480952D01*
X178584761Y224385714D01*
X178489523Y224338095D01*
X178441904Y224338095D01*
X178346666Y224385714D01*
X178299047Y224480952D01*
X178299047Y224623809D01*
X178251428Y224719047D01*
X178156190Y224766666D01*
X178108571Y224766666D01*
X178013333Y224719047D01*
X177965714Y224623809D01*
X177965714Y224480952D01*
X178013333Y224385714D01*
X178632380Y223909523D02*
X177632380Y223909523D01*
X178013333Y223909523D02*
X177965714Y223814285D01*
X177965714Y223623809D01*
X178013333Y223528571D01*
X178060952Y223480952D01*
X178156190Y223433333D01*
X178441904Y223433333D01*
X178537142Y223480952D01*
X178584761Y223528571D01*
X178632380Y223623809D01*
X178632380Y223814285D01*
X178584761Y223909523D01*
X178632380Y222861904D02*
X178584761Y222957142D01*
X178537142Y223004761D01*
X178441904Y223052380D01*
X178156190Y223052380D01*
X178060952Y223004761D01*
X178013333Y222957142D01*
X177965714Y222861904D01*
X177965714Y222719047D01*
X178013333Y222623809D01*
X178060952Y222576190D01*
X178156190Y222528571D01*
X178441904Y222528571D01*
X178537142Y222576190D01*
X178584761Y222623809D01*
X178632380Y222719047D01*
X178632380Y222861904D01*
X178632380Y221671428D02*
X178108571Y221671428D01*
X178013333Y221719047D01*
X177965714Y221814285D01*
X177965714Y222004761D01*
X178013333Y222100000D01*
X178584761Y221671428D02*
X178632380Y221766666D01*
X178632380Y222004761D01*
X178584761Y222100000D01*
X178489523Y222147619D01*
X178394285Y222147619D01*
X178299047Y222100000D01*
X178251428Y222004761D01*
X178251428Y221766666D01*
X178203809Y221671428D01*
X178632380Y221195238D02*
X177965714Y221195238D01*
X178156190Y221195238D02*
X178060952Y221147619D01*
X178013333Y221100000D01*
X177965714Y221004761D01*
X177965714Y220909523D01*
X178632380Y220147619D02*
X177632380Y220147619D01*
X178584761Y220147619D02*
X178632380Y220242857D01*
X178632380Y220433333D01*
X178584761Y220528571D01*
X178537142Y220576190D01*
X178441904Y220623809D01*
X178156190Y220623809D01*
X178060952Y220576190D01*
X178013333Y220528571D01*
X177965714Y220433333D01*
X177965714Y220242857D01*
X178013333Y220147619D01*
X163043333Y224647619D02*
X163043333Y223933333D01*
X163090952Y223790476D01*
X163186190Y223695238D01*
X163329047Y223647619D01*
X163424285Y223647619D01*
X162043333Y223647619D02*
X162614761Y223647619D01*
X162329047Y223647619D02*
X162329047Y224647619D01*
X162424285Y224504761D01*
X162519523Y224409523D01*
X162614761Y224361904D01*
%TO.C,D32*%
X221068780Y220876952D02*
X220068780Y220876952D01*
X220068780Y220496000D01*
X220116400Y220400761D01*
X220164019Y220353142D01*
X220259257Y220305523D01*
X220402114Y220305523D01*
X220497352Y220353142D01*
X220544971Y220400761D01*
X220592590Y220496000D01*
X220592590Y220876952D01*
X220544971Y219876952D02*
X220544971Y219543619D01*
X221068780Y219400761D02*
X221068780Y219876952D01*
X220068780Y219876952D01*
X220068780Y219400761D01*
X221021161Y219019809D02*
X221068780Y218876952D01*
X221068780Y218638857D01*
X221021161Y218543619D01*
X220973542Y218496000D01*
X220878304Y218448380D01*
X220783066Y218448380D01*
X220687828Y218496000D01*
X220640209Y218543619D01*
X220592590Y218638857D01*
X220544971Y218829333D01*
X220497352Y218924571D01*
X220449733Y218972190D01*
X220354495Y219019809D01*
X220259257Y219019809D01*
X220164019Y218972190D01*
X220116400Y218924571D01*
X220068780Y218829333D01*
X220068780Y218591238D01*
X220116400Y218448380D01*
X221068780Y218019809D02*
X220068780Y218019809D01*
X220068780Y217781714D01*
X220116400Y217638857D01*
X220211638Y217543619D01*
X220306876Y217496000D01*
X220497352Y217448380D01*
X220640209Y217448380D01*
X220830685Y217496000D01*
X220925923Y217543619D01*
X221021161Y217638857D01*
X221068780Y217781714D01*
X221068780Y218019809D01*
X220068780Y217115047D02*
X220068780Y216496000D01*
X220449733Y216829333D01*
X220449733Y216686476D01*
X220497352Y216591238D01*
X220544971Y216543619D01*
X220640209Y216496000D01*
X220878304Y216496000D01*
X220973542Y216543619D01*
X221021161Y216591238D01*
X221068780Y216686476D01*
X221068780Y216972190D01*
X221021161Y217067428D01*
X220973542Y217115047D01*
X220402114Y216162666D02*
X221068780Y215924571D01*
X220402114Y215686476D01*
X220068780Y215400761D02*
X220068780Y214781714D01*
X220449733Y215115047D01*
X220449733Y214972190D01*
X220497352Y214876952D01*
X220544971Y214829333D01*
X220640209Y214781714D01*
X220878304Y214781714D01*
X220973542Y214829333D01*
X221021161Y214876952D01*
X221068780Y214972190D01*
X221068780Y215257904D01*
X221021161Y215353142D01*
X220973542Y215400761D01*
X221021161Y214400761D02*
X221068780Y214257904D01*
X221068780Y214019809D01*
X221021161Y213924571D01*
X220973542Y213876952D01*
X220878304Y213829333D01*
X220783066Y213829333D01*
X220687828Y213876952D01*
X220640209Y213924571D01*
X220592590Y214019809D01*
X220544971Y214210285D01*
X220497352Y214305523D01*
X220449733Y214353142D01*
X220354495Y214400761D01*
X220259257Y214400761D01*
X220164019Y214353142D01*
X220116400Y214305523D01*
X220068780Y214210285D01*
X220068780Y213972190D01*
X220116400Y213829333D01*
X220164019Y213448380D02*
X220116400Y213400761D01*
X220068780Y213305523D01*
X220068780Y213067428D01*
X220116400Y212972190D01*
X220164019Y212924571D01*
X220259257Y212876952D01*
X220354495Y212876952D01*
X220497352Y212924571D01*
X221068780Y213496000D01*
X221068780Y212876952D01*
X220068780Y212448380D02*
X220878304Y212448380D01*
X220973542Y212400761D01*
X221021161Y212353142D01*
X221068780Y212257904D01*
X221068780Y212067428D01*
X221021161Y211972190D01*
X220973542Y211924571D01*
X220878304Y211876952D01*
X220068780Y211876952D01*
X220068780Y211543619D02*
X220068780Y210972190D01*
X221068780Y211257904D02*
X220068780Y211257904D01*
D13*
X218723542Y215769809D02*
X218723542Y216269809D01*
X218604495Y216269809D01*
X218533066Y216246000D01*
X218485447Y216198380D01*
X218461638Y216150761D01*
X218437828Y216055523D01*
X218437828Y215984095D01*
X218461638Y215888857D01*
X218485447Y215841238D01*
X218533066Y215793619D01*
X218604495Y215769809D01*
X218723542Y215769809D01*
X218271161Y216269809D02*
X217961638Y216269809D01*
X218128304Y216079333D01*
X218056876Y216079333D01*
X218009257Y216055523D01*
X217985447Y216031714D01*
X217961638Y215984095D01*
X217961638Y215865047D01*
X217985447Y215817428D01*
X218009257Y215793619D01*
X218056876Y215769809D01*
X218199733Y215769809D01*
X218247352Y215793619D01*
X218271161Y215817428D01*
X217771161Y216222190D02*
X217747352Y216246000D01*
X217699733Y216269809D01*
X217580685Y216269809D01*
X217533066Y216246000D01*
X217509257Y216222190D01*
X217485447Y216174571D01*
X217485447Y216126952D01*
X217509257Y216055523D01*
X217794971Y215769809D01*
X217485447Y215769809D01*
%TO.C,D31*%
D12*
X226859980Y220851552D02*
X225859980Y220851552D01*
X225859980Y220470600D01*
X225907600Y220375361D01*
X225955219Y220327742D01*
X226050457Y220280123D01*
X226193314Y220280123D01*
X226288552Y220327742D01*
X226336171Y220375361D01*
X226383790Y220470600D01*
X226383790Y220851552D01*
X226336171Y219851552D02*
X226336171Y219518219D01*
X226859980Y219375361D02*
X226859980Y219851552D01*
X225859980Y219851552D01*
X225859980Y219375361D01*
X226812361Y218994409D02*
X226859980Y218851552D01*
X226859980Y218613457D01*
X226812361Y218518219D01*
X226764742Y218470600D01*
X226669504Y218422980D01*
X226574266Y218422980D01*
X226479028Y218470600D01*
X226431409Y218518219D01*
X226383790Y218613457D01*
X226336171Y218803933D01*
X226288552Y218899171D01*
X226240933Y218946790D01*
X226145695Y218994409D01*
X226050457Y218994409D01*
X225955219Y218946790D01*
X225907600Y218899171D01*
X225859980Y218803933D01*
X225859980Y218565838D01*
X225907600Y218422980D01*
X226859980Y217994409D02*
X225859980Y217994409D01*
X225859980Y217756314D01*
X225907600Y217613457D01*
X226002838Y217518219D01*
X226098076Y217470600D01*
X226288552Y217422980D01*
X226431409Y217422980D01*
X226621885Y217470600D01*
X226717123Y217518219D01*
X226812361Y217613457D01*
X226859980Y217756314D01*
X226859980Y217994409D01*
X225859980Y217089647D02*
X225859980Y216470600D01*
X226240933Y216803933D01*
X226240933Y216661076D01*
X226288552Y216565838D01*
X226336171Y216518219D01*
X226431409Y216470600D01*
X226669504Y216470600D01*
X226764742Y216518219D01*
X226812361Y216565838D01*
X226859980Y216661076D01*
X226859980Y216946790D01*
X226812361Y217042028D01*
X226764742Y217089647D01*
X226193314Y216137266D02*
X226859980Y215899171D01*
X226193314Y215661076D01*
X225859980Y215375361D02*
X225859980Y214756314D01*
X226240933Y215089647D01*
X226240933Y214946790D01*
X226288552Y214851552D01*
X226336171Y214803933D01*
X226431409Y214756314D01*
X226669504Y214756314D01*
X226764742Y214803933D01*
X226812361Y214851552D01*
X226859980Y214946790D01*
X226859980Y215232504D01*
X226812361Y215327742D01*
X226764742Y215375361D01*
X226812361Y214375361D02*
X226859980Y214232504D01*
X226859980Y213994409D01*
X226812361Y213899171D01*
X226764742Y213851552D01*
X226669504Y213803933D01*
X226574266Y213803933D01*
X226479028Y213851552D01*
X226431409Y213899171D01*
X226383790Y213994409D01*
X226336171Y214184885D01*
X226288552Y214280123D01*
X226240933Y214327742D01*
X226145695Y214375361D01*
X226050457Y214375361D01*
X225955219Y214327742D01*
X225907600Y214280123D01*
X225859980Y214184885D01*
X225859980Y213946790D01*
X225907600Y213803933D01*
X225955219Y213422980D02*
X225907600Y213375361D01*
X225859980Y213280123D01*
X225859980Y213042028D01*
X225907600Y212946790D01*
X225955219Y212899171D01*
X226050457Y212851552D01*
X226145695Y212851552D01*
X226288552Y212899171D01*
X226859980Y213470600D01*
X226859980Y212851552D01*
X225859980Y212422980D02*
X226669504Y212422980D01*
X226764742Y212375361D01*
X226812361Y212327742D01*
X226859980Y212232504D01*
X226859980Y212042028D01*
X226812361Y211946790D01*
X226764742Y211899171D01*
X226669504Y211851552D01*
X225859980Y211851552D01*
X225859980Y211518219D02*
X225859980Y210946790D01*
X226859980Y211232504D02*
X225859980Y211232504D01*
D13*
X224514742Y215744409D02*
X224514742Y216244409D01*
X224395695Y216244409D01*
X224324266Y216220600D01*
X224276647Y216172980D01*
X224252838Y216125361D01*
X224229028Y216030123D01*
X224229028Y215958695D01*
X224252838Y215863457D01*
X224276647Y215815838D01*
X224324266Y215768219D01*
X224395695Y215744409D01*
X224514742Y215744409D01*
X224062361Y216244409D02*
X223752838Y216244409D01*
X223919504Y216053933D01*
X223848076Y216053933D01*
X223800457Y216030123D01*
X223776647Y216006314D01*
X223752838Y215958695D01*
X223752838Y215839647D01*
X223776647Y215792028D01*
X223800457Y215768219D01*
X223848076Y215744409D01*
X223990933Y215744409D01*
X224038552Y215768219D01*
X224062361Y215792028D01*
X223276647Y215744409D02*
X223562361Y215744409D01*
X223419504Y215744409D02*
X223419504Y216244409D01*
X223467123Y216172980D01*
X223514742Y216125361D01*
X223562361Y216101552D01*
%TD*%
M02*
