<?xml version="1.0" standalone="no"?>
 <!DOCTYPE svg PUBLIC "-//W3C//DTD SVG 1.1//EN" 
 "http://www.w3.org/Graphics/SVG/1.1/DTD/svg11.dtd"> 
<svg
  xmlns:svg="http://www.w3.org/2000/svg"
  xmlns="http://www.w3.org/2000/svg"
  xmlns:xlink="http://www.w3.org/1999/xlink"
  version="1.1"
  width="29.700220cm" height="21.000720cm" viewBox="0 0 116930 82680">
<title>SVG Picture created as STM32F030f4-F_Mask.svg date 2020/11/02 15:13:09 </title>
  <desc>Picture generated by PCBNEW </desc>
<g style="fill:#000000; fill-opacity:1;stroke:#000000; stroke-opacity:1;
stroke-linecap:round; stroke-linejoin:round;"
 transform="translate(0 0) scale(1 1)">
</g>
<g style="fill:#000000; fill-opacity:0.0; 
stroke:#000000; stroke-width:-0.000393701; stroke-opacity:1; 
stroke-linecap:round; stroke-linejoin:round;">
<g >
</g>
<g style="fill:#000000; fill-opacity:0.0; 
stroke:#000000; stroke-width:0; stroke-opacity:1; 
stroke-linecap:round; stroke-linejoin:round;">
</g>
<g style="fill:#000000; fill-opacity:1.0; 
stroke:#000000; stroke-width:0; stroke-opacity:1; 
stroke-linecap:round; stroke-linejoin:round;">
<path style="fill:#000000; fill-opacity:1.0; 
stroke:#000000; stroke-width:0; stroke-opacity:1; 
stroke-linecap:round; stroke-linejoin:round;fill-rule:evenodd;"
d="M 48228.3,37118.3
48224.5,37118.9
48220.7,37119.8
48217.1,37121.1
48213.6,37122.8
48210.3,37124.7
48207.2,37127
48204.3,37129.6
48201.7,37132.5
48199.4,37135.6
48197.4,37138.9
48195.8,37142.4
48194.5,37146.1
48193.6,37149.8
48193,37153.6
48192.8,37157.5
48192.8,37236.2
48193,37240.1
48193.6,37243.9
48194.5,37247.6
48195.8,37251.3
48197.4,37254.8
48199.4,37258.1
48201.7,37261.2
48204.3,37264.1
48207.2,37266.7
48210.3,37269
48213.6,37270.9
48217.1,37272.6
48220.7,37273.9
48224.5,37274.8
48228.3,37275.4
48232.2,37275.6
48734.1,37275.6
48738,37275.4
48741.8,37274.8
48745.6,37273.9
48749.2,37272.6
48752.7,37270.9
48756,37269
48759.1,37266.7
48762,37264.1
48764.6,37261.2
48766.9,37258.1
48768.9,37254.8
48770.5,37251.3
48771.8,37247.6
48772.7,37243.9
48773.3,37240.1
48773.5,37236.2
48773.5,37157.5
48773.3,37153.6
48772.7,37149.8
48771.8,37146.1
48770.5,37142.4
48768.9,37138.9
48766.9,37135.6
48764.6,37132.5
48762,37129.6
48759.1,37127
48756,37124.7
48752.7,37122.8
48749.2,37121.1
48745.6,37119.8
48741.8,37118.9
48738,37118.3
48734.1,37118.1
48232.2,37118.1
Z" /> 
<path style="fill:#000000; fill-opacity:1.0; 
stroke:#000000; stroke-width:0; stroke-opacity:1; 
stroke-linecap:round; stroke-linejoin:round;fill-rule:evenodd;"
d="M 48228.3,37374.2
48224.5,37374.8
48220.7,37375.7
48217.1,37377
48213.6,37378.7
48210.3,37380.7
48207.2,37383
48204.3,37385.5
48201.7,37388.4
48199.4,37391.5
48197.4,37394.8
48195.8,37398.3
48194.5,37402
48193.6,37405.7
48193,37409.5
48192.8,37413.4
48192.8,37492.1
48193,37496
48193.6,37499.8
48194.5,37503.6
48195.8,37507.2
48197.4,37510.7
48199.4,37514
48201.7,37517.1
48204.3,37520
48207.2,37522.6
48210.3,37524.9
48213.6,37526.8
48217.1,37528.5
48220.7,37529.8
48224.5,37530.7
48228.3,37531.3
48232.2,37531.5
48734.1,37531.5
48738,37531.3
48741.8,37530.7
48745.6,37529.8
48749.2,37528.5
48752.7,37526.8
48756,37524.9
48759.1,37522.6
48762,37520
48764.6,37517.1
48766.9,37514
48768.9,37510.7
48770.5,37507.2
48771.8,37503.6
48772.7,37499.8
48773.3,37496
48773.5,37492.1
48773.5,37413.4
48773.3,37409.5
48772.7,37405.7
48771.8,37402
48770.5,37398.3
48768.9,37394.8
48766.9,37391.5
48764.6,37388.4
48762,37385.5
48759.1,37383
48756,37380.7
48752.7,37378.7
48749.2,37377
48745.6,37375.7
48741.8,37374.8
48738,37374.2
48734.1,37374
48232.2,37374
Z" /> 
<path style="fill:#000000; fill-opacity:1.0; 
stroke:#000000; stroke-width:0; stroke-opacity:1; 
stroke-linecap:round; stroke-linejoin:round;fill-rule:evenodd;"
d="M 48228.3,37630.1
48224.5,37630.7
48220.7,37631.6
48217.1,37632.9
48213.6,37634.6
48210.3,37636.6
48207.2,37638.9
48204.3,37641.5
48201.7,37644.3
48199.4,37647.4
48197.4,37650.7
48195.8,37654.2
48194.5,37657.9
48193.6,37661.6
48193,37665.4
48192.8,37669.3
48192.8,37748
48193,37751.9
48193.6,37755.7
48194.5,37759.5
48195.8,37763.1
48197.4,37766.6
48199.4,37769.9
48201.7,37773
48204.3,37775.9
48207.2,37778.5
48210.3,37780.8
48213.6,37782.8
48217.1,37784.4
48220.7,37785.7
48224.5,37786.6
48228.3,37787.2
48232.2,37787.4
48734.1,37787.4
48738,37787.2
48741.8,37786.6
48745.6,37785.7
48749.2,37784.4
48752.7,37782.8
48756,37780.8
48759.1,37778.5
48762,37775.9
48764.6,37773
48766.9,37769.9
48768.9,37766.6
48770.5,37763.1
48771.8,37759.5
48772.7,37755.7
48773.3,37751.9
48773.5,37748
48773.5,37669.3
48773.3,37665.4
48772.7,37661.6
48771.8,37657.9
48770.5,37654.2
48768.9,37650.7
48766.9,37647.4
48764.6,37644.3
48762,37641.5
48759.1,37638.9
48756,37636.6
48752.7,37634.6
48749.2,37632.9
48745.6,37631.6
48741.8,37630.7
48738,37630.1
48734.1,37629.9
48232.2,37629.9
Z" /> 
<path style="fill:#000000; fill-opacity:1.0; 
stroke:#000000; stroke-width:0; stroke-opacity:1; 
stroke-linecap:round; stroke-linejoin:round;fill-rule:evenodd;"
d="M 48228.3,37886
48224.5,37886.6
48220.7,37887.5
48217.1,37888.8
48213.6,37890.5
48210.3,37892.5
48207.2,37894.8
48204.3,37897.4
48201.7,37900.2
48199.4,37903.3
48197.4,37906.6
48195.8,37910.1
48194.5,37913.8
48193.6,37917.5
48193,37921.3
48192.8,37925.2
48192.8,38003.9
48193,38007.8
48193.6,38011.6
48194.5,38015.4
48195.8,38019
48197.4,38022.5
48199.4,38025.8
48201.7,38028.9
48204.3,38031.8
48207.2,38034.4
48210.3,38036.7
48213.6,38038.7
48217.1,38040.3
48220.7,38041.6
48224.5,38042.6
48228.3,38043.1
48232.2,38043.3
48734.1,38043.3
48738,38043.1
48741.8,38042.6
48745.6,38041.6
48749.2,38040.3
48752.7,38038.7
48756,38036.7
48759.1,38034.4
48762,38031.8
48764.6,38028.9
48766.9,38025.8
48768.9,38022.5
48770.5,38019
48771.8,38015.4
48772.7,38011.6
48773.3,38007.8
48773.5,38003.9
48773.5,37925.2
48773.3,37921.3
48772.7,37917.5
48771.8,37913.8
48770.5,37910.1
48768.9,37906.6
48766.9,37903.3
48764.6,37900.2
48762,37897.4
48759.1,37894.8
48756,37892.5
48752.7,37890.5
48749.2,37888.8
48745.6,37887.5
48741.8,37886.6
48738,37886
48734.1,37885.8
48232.2,37885.8
Z" /> 
<path style="fill:#000000; fill-opacity:1.0; 
stroke:#000000; stroke-width:0; stroke-opacity:1; 
stroke-linecap:round; stroke-linejoin:round;fill-rule:evenodd;"
d="M 48228.3,38141.9
48224.5,38142.5
48220.7,38143.4
48217.1,38144.7
48213.6,38146.4
48210.3,38148.4
48207.2,38150.7
48204.3,38153.3
48201.7,38156.1
48199.4,38159.2
48197.4,38162.5
48195.8,38166
48194.5,38169.7
48193.6,38173.4
48193,38177.2
48192.8,38181.1
48192.8,38259.8
48193,38263.7
48193.6,38267.5
48194.5,38271.3
48195.8,38274.9
48197.4,38278.4
48199.4,38281.7
48201.7,38284.8
48204.3,38287.7
48207.2,38290.3
48210.3,38292.6
48213.6,38294.6
48217.1,38296.2
48220.7,38297.5
48224.5,38298.5
48228.3,38299
48232.2,38299.2
48734.1,38299.2
48738,38299
48741.8,38298.5
48745.6,38297.5
48749.2,38296.2
48752.7,38294.6
48756,38292.6
48759.1,38290.3
48762,38287.7
48764.6,38284.8
48766.9,38281.7
48768.9,38278.4
48770.5,38274.9
48771.8,38271.3
48772.7,38267.5
48773.3,38263.7
48773.5,38259.8
48773.5,38181.1
48773.3,38177.2
48772.7,38173.4
48771.8,38169.7
48770.5,38166
48768.9,38162.5
48766.9,38159.2
48764.6,38156.1
48762,38153.3
48759.1,38150.7
48756,38148.4
48752.7,38146.4
48749.2,38144.7
48745.6,38143.4
48741.8,38142.5
48738,38141.9
48734.1,38141.7
48232.2,38141.7
Z" /> 
<path style="fill:#000000; fill-opacity:1.0; 
stroke:#000000; stroke-width:0; stroke-opacity:1; 
stroke-linecap:round; stroke-linejoin:round;fill-rule:evenodd;"
d="M 48228.3,38397.8
48224.5,38398.4
48220.7,38399.3
48217.1,38400.6
48213.6,38402.3
48210.3,38404.3
48207.2,38406.6
48204.3,38409.2
48201.7,38412
48199.4,38415.1
48197.4,38418.4
48195.8,38421.9
48194.5,38425.6
48193.6,38429.3
48193,38433.1
48192.8,38437
48192.8,38515.7
48193,38519.6
48193.6,38523.4
48194.5,38527.2
48195.8,38530.8
48197.4,38534.3
48199.4,38537.6
48201.7,38540.7
48204.3,38543.6
48207.2,38546.2
48210.3,38548.5
48213.6,38550.5
48217.1,38552.1
48220.7,38553.4
48224.5,38554.4
48228.3,38554.9
48232.2,38555.1
48734.1,38555.1
48738,38554.9
48741.8,38554.4
48745.6,38553.4
48749.2,38552.1
48752.7,38550.5
48756,38548.5
48759.1,38546.2
48762,38543.6
48764.6,38540.7
48766.9,38537.6
48768.9,38534.3
48770.5,38530.8
48771.8,38527.2
48772.7,38523.4
48773.3,38519.6
48773.5,38515.7
48773.5,38437
48773.3,38433.1
48772.7,38429.3
48771.8,38425.6
48770.5,38421.9
48768.9,38418.4
48766.9,38415.1
48764.6,38412
48762,38409.2
48759.1,38406.6
48756,38404.3
48752.7,38402.3
48749.2,38400.6
48745.6,38399.3
48741.8,38398.4
48738,38397.8
48734.1,38397.6
48232.2,38397.6
Z" /> 
<path style="fill:#000000; fill-opacity:1.0; 
stroke:#000000; stroke-width:0; stroke-opacity:1; 
stroke-linecap:round; stroke-linejoin:round;fill-rule:evenodd;"
d="M 48228.3,38653.7
48224.5,38654.3
48220.7,38655.2
48217.1,38656.5
48213.6,38658.2
48210.3,38660.2
48207.2,38662.5
48204.3,38665.1
48201.7,38667.9
48199.4,38671
48197.4,38674.4
48195.8,38677.8
48194.5,38681.5
48193.6,38685.2
48193,38689.1
48192.8,38692.9
48192.8,38771.7
48193,38775.5
48193.6,38779.3
48194.5,38783.1
48195.8,38786.7
48197.4,38790.2
48199.4,38793.5
48201.7,38796.6
48204.3,38799.5
48207.2,38802.1
48210.3,38804.4
48213.6,38806.4
48217.1,38808
48220.7,38809.3
48224.5,38810.3
48228.3,38810.8
48232.2,38811
48734.1,38811
48738,38810.8
48741.8,38810.3
48745.6,38809.3
48749.2,38808
48752.7,38806.4
48756,38804.4
48759.1,38802.1
48762,38799.5
48764.6,38796.6
48766.9,38793.5
48768.9,38790.2
48770.5,38786.7
48771.8,38783.1
48772.7,38779.3
48773.3,38775.5
48773.5,38771.7
48773.5,38692.9
48773.3,38689.1
48772.7,38685.2
48771.8,38681.5
48770.5,38677.8
48768.9,38674.4
48766.9,38671
48764.6,38667.9
48762,38665.1
48759.1,38662.5
48756,38660.2
48752.7,38658.2
48749.2,38656.5
48745.6,38655.2
48741.8,38654.3
48738,38653.7
48734.1,38653.5
48232.2,38653.5
Z" /> 
<path style="fill:#000000; fill-opacity:1.0; 
stroke:#000000; stroke-width:0; stroke-opacity:1; 
stroke-linecap:round; stroke-linejoin:round;fill-rule:evenodd;"
d="M 48228.3,38909.6
48224.5,38910.2
48220.7,38911.1
48217.1,38912.4
48213.6,38914.1
48210.3,38916.1
48207.2,38918.4
48204.3,38921
48201.7,38923.8
48199.4,38926.9
48197.4,38930.3
48195.8,38933.8
48194.5,38937.4
48193.6,38941.1
48193,38945
48192.8,38948.8
48192.8,39027.6
48193,39031.4
48193.6,39035.2
48194.5,39039
48195.8,39042.6
48197.4,39046.1
48199.4,39049.4
48201.7,39052.5
48204.3,39055.4
48207.2,39058
48210.3,39060.3
48213.6,39062.3
48217.1,39063.9
48220.7,39065.2
48224.5,39066.2
48228.3,39066.7
48232.2,39066.9
48734.1,39066.9
48738,39066.7
48741.8,39066.2
48745.6,39065.2
48749.2,39063.9
48752.7,39062.3
48756,39060.3
48759.1,39058
48762,39055.4
48764.6,39052.5
48766.9,39049.4
48768.9,39046.1
48770.5,39042.6
48771.8,39039
48772.7,39035.2
48773.3,39031.4
48773.5,39027.6
48773.5,38948.8
48773.3,38945
48772.7,38941.1
48771.8,38937.4
48770.5,38933.8
48768.9,38930.3
48766.9,38926.9
48764.6,38923.8
48762,38921
48759.1,38918.4
48756,38916.1
48752.7,38914.1
48749.2,38912.4
48745.6,38911.1
48741.8,38910.2
48738,38909.6
48734.1,38909.4
48232.2,38909.4
Z" /> 
<path style="fill:#000000; fill-opacity:1.0; 
stroke:#000000; stroke-width:0; stroke-opacity:1; 
stroke-linecap:round; stroke-linejoin:round;fill-rule:evenodd;"
d="M 48228.3,39165.5
48224.5,39166.1
48220.7,39167
48217.1,39168.4
48213.6,39170
48210.3,39172
48207.2,39174.3
48204.3,39176.9
48201.7,39179.7
48199.4,39182.9
48197.4,39186.2
48195.8,39189.7
48194.5,39193.3
48193.6,39197
48193,39200.9
48192.8,39204.7
48192.8,39283.5
48193,39287.3
48193.6,39291.1
48194.5,39294.9
48195.8,39298.5
48197.4,39302
48199.4,39305.3
48201.7,39308.4
48204.3,39311.3
48207.2,39313.9
48210.3,39316.2
48213.6,39318.2
48217.1,39319.8
48220.7,39321.1
48224.5,39322.1
48228.3,39322.6
48232.2,39322.8
48734.1,39322.8
48738,39322.6
48741.8,39322.1
48745.6,39321.1
48749.2,39319.8
48752.7,39318.2
48756,39316.2
48759.1,39313.9
48762,39311.3
48764.6,39308.4
48766.9,39305.3
48768.9,39302
48770.5,39298.5
48771.8,39294.9
48772.7,39291.1
48773.3,39287.3
48773.5,39283.5
48773.5,39204.7
48773.3,39200.9
48772.7,39197
48771.8,39193.3
48770.5,39189.7
48768.9,39186.2
48766.9,39182.9
48764.6,39179.7
48762,39176.9
48759.1,39174.3
48756,39172
48752.7,39170
48749.2,39168.4
48745.6,39167
48741.8,39166.1
48738,39165.5
48734.1,39165.4
48232.2,39165.4
Z" /> 
<path style="fill:#000000; fill-opacity:1.0; 
stroke:#000000; stroke-width:0; stroke-opacity:1; 
stroke-linecap:round; stroke-linejoin:round;fill-rule:evenodd;"
d="M 48228.3,39421.4
48224.5,39422
48220.7,39423
48217.1,39424.3
48213.6,39425.9
48210.3,39427.9
48207.2,39430.2
48204.3,39432.8
48201.7,39435.7
48199.4,39438.8
48197.4,39442.1
48195.8,39445.6
48194.5,39449.2
48193.6,39452.9
48193,39456.8
48192.8,39460.6
48192.8,39539.4
48193,39543.2
48193.6,39547.1
48194.5,39550.8
48195.8,39554.4
48197.4,39557.9
48199.4,39561.2
48201.7,39564.3
48204.3,39567.2
48207.2,39569.8
48210.3,39572.1
48213.6,39574.1
48217.1,39575.7
48220.7,39577
48224.5,39578
48228.3,39578.6
48232.2,39578.7
48734.1,39578.7
48738,39578.6
48741.8,39578
48745.6,39577
48749.2,39575.7
48752.7,39574.1
48756,39572.1
48759.1,39569.8
48762,39567.2
48764.6,39564.3
48766.9,39561.2
48768.9,39557.9
48770.5,39554.4
48771.8,39550.8
48772.7,39547.1
48773.3,39543.2
48773.5,39539.4
48773.5,39460.6
48773.3,39456.8
48772.7,39452.9
48771.8,39449.2
48770.5,39445.6
48768.9,39442.1
48766.9,39438.8
48764.6,39435.7
48762,39432.8
48759.1,39430.2
48756,39427.9
48752.7,39425.9
48749.2,39424.3
48745.6,39423
48741.8,39422
48738,39421.4
48734.1,39421.3
48232.2,39421.3
Z" /> 
<path style="fill:#000000; fill-opacity:1.0; 
stroke:#000000; stroke-width:0; stroke-opacity:1; 
stroke-linecap:round; stroke-linejoin:round;fill-rule:evenodd;"
d="M 45974.4,39421.4
45970.5,39422
45966.8,39423
45963.2,39424.3
45959.7,39425.9
45956.4,39427.9
45953.3,39430.2
45950.4,39432.8
45947.8,39435.7
45945.5,39438.8
45943.5,39442.1
45941.9,39445.6
45940.6,39449.2
45939.6,39452.9
45939,39456.8
45938.9,39460.6
45938.9,39539.4
45939,39543.2
45939.6,39547.1
45940.6,39550.8
45941.9,39554.4
45943.5,39557.9
45945.5,39561.2
45947.8,39564.3
45950.4,39567.2
45953.3,39569.8
45956.4,39572.1
45959.7,39574.1
45963.2,39575.7
45966.8,39577
45970.5,39578
45974.4,39578.6
45978.2,39578.7
46480.2,39578.7
46484.1,39578.6
46487.9,39578
46491.6,39577
46495.3,39575.7
46498.8,39574.1
46502.1,39572.1
46505.2,39569.8
46508,39567.2
46510.6,39564.3
46512.9,39561.2
46514.9,39557.9
46516.6,39554.4
46517.9,39550.8
46518.8,39547.1
46519.4,39543.2
46519.6,39539.4
46519.6,39460.6
46519.4,39456.8
46518.8,39452.9
46517.9,39449.2
46516.6,39445.6
46514.9,39442.1
46512.9,39438.8
46510.6,39435.7
46508,39432.8
46505.2,39430.2
46502.1,39427.9
46498.8,39425.9
46495.3,39424.3
46491.6,39423
46487.9,39422
46484.1,39421.4
46480.2,39421.3
45978.2,39421.3
Z" /> 
<path style="fill:#000000; fill-opacity:1.0; 
stroke:#000000; stroke-width:0; stroke-opacity:1; 
stroke-linecap:round; stroke-linejoin:round;fill-rule:evenodd;"
d="M 45974.4,39165.5
45970.5,39166.1
45966.8,39167
45963.2,39168.4
45959.7,39170
45956.4,39172
45953.3,39174.3
45950.4,39176.9
45947.8,39179.7
45945.5,39182.9
45943.5,39186.2
45941.9,39189.7
45940.6,39193.3
45939.6,39197
45939,39200.9
45938.9,39204.7
45938.9,39283.5
45939,39287.3
45939.6,39291.1
45940.6,39294.9
45941.9,39298.5
45943.5,39302
45945.5,39305.3
45947.8,39308.4
45950.4,39311.3
45953.3,39313.9
45956.4,39316.2
45959.7,39318.2
45963.2,39319.8
45966.8,39321.1
45970.5,39322.1
45974.4,39322.6
45978.2,39322.8
46480.2,39322.8
46484.1,39322.6
46487.9,39322.1
46491.6,39321.1
46495.3,39319.8
46498.8,39318.2
46502.1,39316.2
46505.2,39313.9
46508,39311.3
46510.6,39308.4
46512.9,39305.3
46514.9,39302
46516.6,39298.5
46517.9,39294.9
46518.8,39291.1
46519.4,39287.3
46519.6,39283.5
46519.6,39204.7
46519.4,39200.9
46518.8,39197
46517.9,39193.3
46516.6,39189.7
46514.9,39186.2
46512.9,39182.9
46510.6,39179.7
46508,39176.9
46505.2,39174.3
46502.1,39172
46498.8,39170
46495.3,39168.4
46491.6,39167
46487.9,39166.1
46484.1,39165.5
46480.2,39165.4
45978.2,39165.4
Z" /> 
<path style="fill:#000000; fill-opacity:1.0; 
stroke:#000000; stroke-width:0; stroke-opacity:1; 
stroke-linecap:round; stroke-linejoin:round;fill-rule:evenodd;"
d="M 45974.4,38909.6
45970.5,38910.2
45966.8,38911.1
45963.2,38912.4
45959.7,38914.1
45956.4,38916.1
45953.3,38918.4
45950.4,38921
45947.8,38923.8
45945.5,38926.9
45943.5,38930.3
45941.9,38933.8
45940.6,38937.4
45939.6,38941.1
45939,38945
45938.9,38948.8
45938.9,39027.6
45939,39031.4
45939.6,39035.2
45940.6,39039
45941.9,39042.6
45943.5,39046.1
45945.5,39049.4
45947.8,39052.5
45950.4,39055.4
45953.3,39058
45956.4,39060.3
45959.7,39062.3
45963.2,39063.9
45966.8,39065.2
45970.5,39066.2
45974.4,39066.7
45978.2,39066.9
46480.2,39066.9
46484.1,39066.7
46487.9,39066.2
46491.6,39065.2
46495.3,39063.9
46498.8,39062.3
46502.1,39060.3
46505.2,39058
46508,39055.4
46510.6,39052.5
46512.9,39049.4
46514.9,39046.1
46516.6,39042.6
46517.9,39039
46518.8,39035.2
46519.4,39031.4
46519.6,39027.6
46519.6,38948.8
46519.4,38945
46518.8,38941.1
46517.9,38937.4
46516.6,38933.8
46514.9,38930.3
46512.9,38926.9
46510.6,38923.8
46508,38921
46505.2,38918.4
46502.1,38916.1
46498.8,38914.1
46495.3,38912.4
46491.6,38911.1
46487.9,38910.2
46484.1,38909.6
46480.2,38909.4
45978.2,38909.4
Z" /> 
<path style="fill:#000000; fill-opacity:1.0; 
stroke:#000000; stroke-width:0; stroke-opacity:1; 
stroke-linecap:round; stroke-linejoin:round;fill-rule:evenodd;"
d="M 45974.4,38653.7
45970.5,38654.3
45966.8,38655.2
45963.2,38656.5
45959.7,38658.2
45956.4,38660.2
45953.3,38662.5
45950.4,38665.1
45947.8,38667.9
45945.5,38671
45943.5,38674.4
45941.9,38677.8
45940.6,38681.5
45939.6,38685.2
45939,38689.1
45938.9,38692.9
45938.9,38771.7
45939,38775.5
45939.6,38779.3
45940.6,38783.1
45941.9,38786.7
45943.5,38790.2
45945.5,38793.5
45947.8,38796.6
45950.4,38799.5
45953.3,38802.1
45956.4,38804.4
45959.7,38806.4
45963.2,38808
45966.8,38809.3
45970.5,38810.3
45974.4,38810.8
45978.2,38811
46480.2,38811
46484.1,38810.8
46487.9,38810.3
46491.6,38809.3
46495.3,38808
46498.8,38806.4
46502.1,38804.4
46505.2,38802.1
46508,38799.5
46510.6,38796.6
46512.9,38793.5
46514.9,38790.2
46516.6,38786.7
46517.9,38783.1
46518.8,38779.3
46519.4,38775.5
46519.6,38771.7
46519.6,38692.9
46519.4,38689.1
46518.8,38685.2
46517.9,38681.5
46516.6,38677.8
46514.9,38674.4
46512.9,38671
46510.6,38667.9
46508,38665.1
46505.2,38662.5
46502.1,38660.2
46498.8,38658.2
46495.3,38656.5
46491.6,38655.2
46487.9,38654.3
46484.1,38653.7
46480.2,38653.5
45978.2,38653.5
Z" /> 
<path style="fill:#000000; fill-opacity:1.0; 
stroke:#000000; stroke-width:0; stroke-opacity:1; 
stroke-linecap:round; stroke-linejoin:round;fill-rule:evenodd;"
d="M 45974.4,38397.8
45970.5,38398.4
45966.8,38399.3
45963.2,38400.6
45959.7,38402.3
45956.4,38404.3
45953.3,38406.6
45950.4,38409.2
45947.8,38412
45945.5,38415.1
45943.5,38418.4
45941.9,38421.9
45940.6,38425.6
45939.6,38429.3
45939,38433.1
45938.9,38437
45938.9,38515.7
45939,38519.6
45939.6,38523.4
45940.6,38527.2
45941.9,38530.8
45943.5,38534.3
45945.5,38537.6
45947.8,38540.7
45950.4,38543.6
45953.3,38546.2
45956.4,38548.5
45959.7,38550.5
45963.2,38552.1
45966.8,38553.4
45970.5,38554.4
45974.4,38554.9
45978.2,38555.1
46480.2,38555.1
46484.1,38554.9
46487.9,38554.4
46491.6,38553.4
46495.3,38552.1
46498.8,38550.5
46502.1,38548.5
46505.2,38546.2
46508,38543.6
46510.6,38540.7
46512.9,38537.6
46514.9,38534.3
46516.6,38530.8
46517.9,38527.2
46518.8,38523.4
46519.4,38519.6
46519.6,38515.7
46519.6,38437
46519.4,38433.1
46518.8,38429.3
46517.9,38425.6
46516.6,38421.9
46514.9,38418.4
46512.9,38415.1
46510.6,38412
46508,38409.2
46505.2,38406.6
46502.1,38404.3
46498.8,38402.3
46495.3,38400.6
46491.6,38399.3
46487.9,38398.4
46484.1,38397.8
46480.2,38397.6
45978.2,38397.6
Z" /> 
<path style="fill:#000000; fill-opacity:1.0; 
stroke:#000000; stroke-width:0; stroke-opacity:1; 
stroke-linecap:round; stroke-linejoin:round;fill-rule:evenodd;"
d="M 45974.4,38141.9
45970.5,38142.5
45966.8,38143.4
45963.2,38144.7
45959.7,38146.4
45956.4,38148.4
45953.3,38150.7
45950.4,38153.3
45947.8,38156.1
45945.5,38159.2
45943.5,38162.5
45941.9,38166
45940.6,38169.7
45939.6,38173.4
45939,38177.2
45938.9,38181.1
45938.9,38259.8
45939,38263.7
45939.6,38267.5
45940.6,38271.3
45941.9,38274.9
45943.5,38278.4
45945.5,38281.7
45947.8,38284.8
45950.4,38287.7
45953.3,38290.3
45956.4,38292.6
45959.7,38294.6
45963.2,38296.2
45966.8,38297.5
45970.5,38298.5
45974.4,38299
45978.2,38299.2
46480.2,38299.2
46484.1,38299
46487.9,38298.5
46491.6,38297.5
46495.3,38296.2
46498.8,38294.6
46502.1,38292.6
46505.2,38290.3
46508,38287.7
46510.6,38284.8
46512.9,38281.7
46514.9,38278.4
46516.6,38274.9
46517.9,38271.3
46518.8,38267.5
46519.4,38263.7
46519.6,38259.8
46519.6,38181.1
46519.4,38177.2
46518.8,38173.4
46517.9,38169.7
46516.6,38166
46514.9,38162.5
46512.9,38159.2
46510.6,38156.1
46508,38153.3
46505.2,38150.7
46502.1,38148.4
46498.8,38146.4
46495.3,38144.7
46491.6,38143.4
46487.9,38142.5
46484.1,38141.9
46480.2,38141.7
45978.2,38141.7
Z" /> 
<path style="fill:#000000; fill-opacity:1.0; 
stroke:#000000; stroke-width:0; stroke-opacity:1; 
stroke-linecap:round; stroke-linejoin:round;fill-rule:evenodd;"
d="M 45974.4,37886
45970.5,37886.6
45966.8,37887.5
45963.2,37888.8
45959.7,37890.5
45956.4,37892.5
45953.3,37894.8
45950.4,37897.4
45947.8,37900.2
45945.5,37903.3
45943.5,37906.6
45941.9,37910.1
45940.6,37913.8
45939.6,37917.5
45939,37921.3
45938.9,37925.2
45938.9,38003.9
45939,38007.8
45939.6,38011.6
45940.6,38015.4
45941.9,38019
45943.5,38022.5
45945.5,38025.8
45947.8,38028.9
45950.4,38031.8
45953.3,38034.4
45956.4,38036.7
45959.7,38038.7
45963.2,38040.3
45966.8,38041.6
45970.5,38042.6
45974.4,38043.1
45978.2,38043.3
46480.2,38043.3
46484.1,38043.1
46487.9,38042.6
46491.6,38041.6
46495.3,38040.3
46498.8,38038.7
46502.1,38036.7
46505.2,38034.4
46508,38031.8
46510.6,38028.9
46512.9,38025.8
46514.9,38022.5
46516.6,38019
46517.9,38015.4
46518.8,38011.6
46519.4,38007.8
46519.6,38003.9
46519.6,37925.2
46519.4,37921.3
46518.8,37917.5
46517.9,37913.8
46516.6,37910.1
46514.9,37906.6
46512.9,37903.3
46510.6,37900.2
46508,37897.4
46505.2,37894.8
46502.1,37892.5
46498.8,37890.5
46495.3,37888.8
46491.6,37887.5
46487.9,37886.6
46484.1,37886
46480.2,37885.8
45978.2,37885.8
Z" /> 
<path style="fill:#000000; fill-opacity:1.0; 
stroke:#000000; stroke-width:0; stroke-opacity:1; 
stroke-linecap:round; stroke-linejoin:round;fill-rule:evenodd;"
d="M 45974.4,37630.1
45970.5,37630.7
45966.8,37631.6
45963.2,37632.9
45959.7,37634.6
45956.4,37636.6
45953.3,37638.9
45950.4,37641.5
45947.8,37644.3
45945.5,37647.4
45943.5,37650.7
45941.9,37654.2
45940.6,37657.9
45939.6,37661.6
45939,37665.4
45938.9,37669.3
45938.9,37748
45939,37751.9
45939.6,37755.7
45940.6,37759.5
45941.9,37763.1
45943.5,37766.6
45945.5,37769.9
45947.8,37773
45950.4,37775.9
45953.3,37778.5
45956.4,37780.8
45959.7,37782.8
45963.2,37784.4
45966.8,37785.7
45970.5,37786.6
45974.4,37787.2
45978.2,37787.4
46480.2,37787.4
46484.1,37787.2
46487.9,37786.6
46491.6,37785.7
46495.3,37784.4
46498.8,37782.8
46502.1,37780.8
46505.2,37778.5
46508,37775.9
46510.6,37773
46512.9,37769.9
46514.9,37766.6
46516.6,37763.1
46517.9,37759.5
46518.8,37755.7
46519.4,37751.9
46519.6,37748
46519.6,37669.3
46519.4,37665.4
46518.8,37661.6
46517.9,37657.9
46516.6,37654.2
46514.9,37650.7
46512.9,37647.4
46510.6,37644.3
46508,37641.5
46505.2,37638.9
46502.1,37636.6
46498.8,37634.6
46495.3,37632.9
46491.6,37631.6
46487.9,37630.7
46484.1,37630.1
46480.2,37629.9
45978.2,37629.9
Z" /> 
<path style="fill:#000000; fill-opacity:1.0; 
stroke:#000000; stroke-width:0; stroke-opacity:1; 
stroke-linecap:round; stroke-linejoin:round;fill-rule:evenodd;"
d="M 45974.4,37374.2
45970.5,37374.8
45966.8,37375.7
45963.2,37377
45959.7,37378.7
45956.4,37380.7
45953.3,37383
45950.4,37385.5
45947.8,37388.4
45945.5,37391.5
45943.5,37394.8
45941.9,37398.3
45940.6,37402
45939.6,37405.7
45939,37409.5
45938.9,37413.4
45938.9,37492.1
45939,37496
45939.6,37499.8
45940.6,37503.6
45941.9,37507.2
45943.5,37510.7
45945.5,37514
45947.8,37517.1
45950.4,37520
45953.3,37522.6
45956.4,37524.9
45959.7,37526.8
45963.2,37528.5
45966.8,37529.8
45970.5,37530.7
45974.4,37531.3
45978.2,37531.5
46480.2,37531.5
46484.1,37531.3
46487.9,37530.7
46491.6,37529.8
46495.3,37528.5
46498.8,37526.8
46502.1,37524.9
46505.2,37522.6
46508,37520
46510.6,37517.1
46512.9,37514
46514.9,37510.7
46516.6,37507.2
46517.9,37503.6
46518.8,37499.8
46519.4,37496
46519.6,37492.1
46519.6,37413.4
46519.4,37409.5
46518.8,37405.7
46517.9,37402
46516.6,37398.3
46514.9,37394.8
46512.9,37391.5
46510.6,37388.4
46508,37385.5
46505.2,37383
46502.1,37380.7
46498.8,37378.7
46495.3,37377
46491.6,37375.7
46487.9,37374.8
46484.1,37374.2
46480.2,37374
45978.2,37374
Z" /> 
<path style="fill:#000000; fill-opacity:1.0; 
stroke:#000000; stroke-width:0; stroke-opacity:1; 
stroke-linecap:round; stroke-linejoin:round;fill-rule:evenodd;"
d="M 45974.4,37118.3
45970.5,37118.9
45966.8,37119.8
45963.2,37121.1
45959.7,37122.8
45956.4,37124.7
45953.3,37127
45950.4,37129.6
45947.8,37132.5
45945.5,37135.6
45943.5,37138.9
45941.9,37142.4
45940.6,37146.1
45939.6,37149.8
45939,37153.6
45938.9,37157.5
45938.9,37236.2
45939,37240.1
45939.6,37243.9
45940.6,37247.6
45941.9,37251.3
45943.5,37254.8
45945.5,37258.1
45947.8,37261.2
45950.4,37264.1
45953.3,37266.7
45956.4,37269
45959.7,37270.9
45963.2,37272.6
45966.8,37273.9
45970.5,37274.8
45974.4,37275.4
45978.2,37275.6
46480.2,37275.6
46484.1,37275.4
46487.9,37274.8
46491.6,37273.9
46495.3,37272.6
46498.8,37270.9
46502.1,37269
46505.2,37266.7
46508,37264.1
46510.6,37261.2
46512.9,37258.1
46514.9,37254.8
46516.6,37251.3
46517.9,37247.6
46518.8,37243.9
46519.4,37240.1
46519.6,37236.2
46519.6,37157.5
46519.4,37153.6
46518.8,37149.8
46517.9,37146.1
46516.6,37142.4
46514.9,37138.9
46512.9,37135.6
46510.6,37132.5
46508,37129.6
46505.2,37127
46502.1,37124.7
46498.8,37122.8
46495.3,37121.1
46491.6,37119.8
46487.9,37118.9
46484.1,37118.3
46480.2,37118.1
45978.2,37118.1
Z" /> 
</g>
<g >
</g>
<g style="fill:#000000; fill-opacity:1.0; 
stroke:#000000; stroke-width:0; stroke-opacity:1; 
stroke-linecap:round; stroke-linejoin:round;">
<path style="fill:#000000; fill-opacity:1.0; 
stroke:#000000; stroke-width:0; stroke-opacity:1; 
stroke-linecap:round; stroke-linejoin:round;fill-rule:evenodd;"
d="M 50217.1,35174.7
50208,35176
50199.1,35178.2
50190.5,35181.3
50182.2,35185.3
50174.3,35190
50166.9,35195.4
50160.1,35201.6
50154,35208.4
50148.5,35215.8
50143.8,35223.6
50139.9,35231.9
50136.8,35240.6
50134.6,35249.5
50133.2,35258.6
50132.8,35267.7
50132.8,35503.9
50133.2,35513.1
50134.6,35522.2
50136.8,35531.1
50139.9,35539.7
50143.8,35548
50148.5,35555.9
50154,35563.3
50160.1,35570.1
50166.9,35576.2
50174.3,35581.7
50182.2,35586.4
50190.5,35590.3
50199.1,35593.4
50208,35595.6
50217.1,35597
50226.3,35597.4
50413.3,35597.4
50422.4,35597
50431.5,35595.6
50440.4,35593.4
50449.1,35590.3
50457.3,35586.4
50465.2,35581.7
50472.6,35576.2
50479.4,35570.1
50485.5,35563.3
50491,35555.9
50495.7,35548
50499.7,35539.7
50502.7,35531.1
50505,35522.2
50506.3,35513.1
50506.8,35503.9
50506.8,35267.7
50506.3,35258.6
50505,35249.5
50502.7,35240.6
50499.7,35231.9
50495.7,35223.6
50491,35215.8
50485.5,35208.4
50479.4,35201.6
50472.6,35195.4
50465.2,35190
50457.3,35185.3
50449.1,35181.3
50440.4,35178.2
50431.5,35176
50422.4,35174.7
50413.3,35174.2
50226.3,35174.2
Z" /> 
<path style="fill:#000000; fill-opacity:1.0; 
stroke:#000000; stroke-width:0; stroke-opacity:1; 
stroke-linecap:round; stroke-linejoin:round;fill-rule:evenodd;"
d="M 50217.1,34495.5
50208,34496.9
50199.1,34499.1
50190.5,34502.2
50182.2,34506.1
50174.3,34510.8
50166.9,34516.3
50160.1,34522.5
50154,34529.3
50148.5,34536.6
50143.8,34544.5
50139.9,34552.8
50136.8,34561.4
50134.6,34570.3
50133.2,34579.4
50132.8,34588.6
50132.8,34824.8
50133.2,34834
50134.6,34843
50136.8,34851.9
50139.9,34860.6
50143.8,34868.9
50148.5,34876.8
50154,34884.1
50160.1,34890.9
50166.9,34897.1
50174.3,34902.5
50182.2,34907.3
50190.5,34911.2
50199.1,34914.3
50208,34916.5
50217.1,34917.9
50226.3,34918.3
50413.3,34918.3
50422.4,34917.9
50431.5,34916.5
50440.4,34914.3
50449.1,34911.2
50457.3,34907.3
50465.2,34902.5
50472.6,34897.1
50479.4,34890.9
50485.5,34884.1
50491,34876.8
50495.7,34868.9
50499.7,34860.6
50502.7,34851.9
50505,34843
50506.3,34834
50506.8,34824.8
50506.8,34588.6
50506.3,34579.4
50505,34570.3
50502.7,34561.4
50499.7,34552.8
50495.7,34544.5
50491,34536.6
50485.5,34529.3
50479.4,34522.5
50472.6,34516.3
50465.2,34510.8
50457.3,34506.1
50449.1,34502.2
50440.4,34499.1
50431.5,34496.9
50422.4,34495.5
50413.3,34495.1
50226.3,34495.1
Z" /> 
</g>
<g >
</g>
<g style="fill:#000000; fill-opacity:1.0; 
stroke:#000000; stroke-width:0; stroke-opacity:1; 
stroke-linecap:round; stroke-linejoin:round;">
<path style="fill:#000000; fill-opacity:1.0; 
stroke:#000000; stroke-width:0; stroke-opacity:1; 
stroke-linecap:round; stroke-linejoin:round;fill-rule:evenodd;"
d="M 44354.9,35194.3
44345.8,35195.7
44336.9,35197.9
44328.3,35201
44320,35204.9
44312.1,35209.7
44304.7,35215.1
44297.9,35221.3
44291.8,35228.1
44286.3,35235.5
44281.6,35243.3
44277.7,35251.6
44274.6,35260.3
44272.3,35269.2
44271,35278.2
44270.6,35287.4
44270.6,35523.6
44271,35532.8
44272.3,35541.9
44274.6,35550.8
44277.7,35559.4
44281.6,35567.7
44286.3,35575.6
44291.8,35582.9
44297.9,35589.7
44304.7,35595.9
44312.1,35601.4
44320,35606.1
44328.3,35610
44336.9,35613.1
44345.8,35615.3
44354.9,35616.7
44364.1,35617.1
44551.1,35617.1
44560.2,35616.7
44569.3,35615.3
44578.2,35613.1
44586.8,35610
44595.1,35606.1
44603,35601.4
44610.4,35595.9
44617.2,35589.7
44623.3,35582.9
44628.8,35575.6
44633.5,35567.7
44637.4,35559.4
44640.5,35550.8
44642.8,35541.9
44644.1,35532.8
44644.6,35523.6
44644.6,35287.4
44644.1,35278.2
44642.8,35269.2
44640.5,35260.3
44637.4,35251.6
44633.5,35243.3
44628.8,35235.5
44623.3,35228.1
44617.2,35221.3
44610.4,35215.1
44603,35209.7
44595.1,35204.9
44586.8,35201
44578.2,35197.9
44569.3,35195.7
44560.2,35194.3
44551.1,35193.9
44364.1,35193.9
Z" /> 
<path style="fill:#000000; fill-opacity:1.0; 
stroke:#000000; stroke-width:0; stroke-opacity:1; 
stroke-linecap:round; stroke-linejoin:round;fill-rule:evenodd;"
d="M 44354.9,34515.2
44345.8,34516.6
44336.9,34518.8
44328.3,34521.9
44320,34525.8
44312.1,34530.5
44304.7,34536
44297.9,34542.2
44291.8,34548.9
44286.3,34556.3
44281.6,34564.2
44277.7,34572.5
44274.6,34581.1
44272.3,34590
44271,34599.1
44270.6,34608.3
44270.6,34844.5
44271,34853.7
44272.3,34862.7
44274.6,34871.6
44277.7,34880.3
44281.6,34888.6
44286.3,34896.4
44291.8,34903.8
44297.9,34910.6
44304.7,34916.8
44312.1,34922.2
44320,34927
44328.3,34930.9
44336.9,34934
44345.8,34936.2
44354.9,34937.5
44364.1,34938
44551.1,34938
44560.2,34937.5
44569.3,34936.2
44578.2,34934
44586.8,34930.9
44595.1,34927
44603,34922.2
44610.4,34916.8
44617.2,34910.6
44623.3,34903.8
44628.8,34896.4
44633.5,34888.6
44637.4,34880.3
44640.5,34871.6
44642.8,34862.7
44644.1,34853.7
44644.6,34844.5
44644.6,34608.3
44644.1,34599.1
44642.8,34590
44640.5,34581.1
44637.4,34572.5
44633.5,34564.2
44628.8,34556.3
44623.3,34548.9
44617.2,34542.2
44610.4,34536
44603,34530.5
44595.1,34525.8
44586.8,34521.9
44578.2,34518.8
44569.3,34516.6
44560.2,34515.2
44551.1,34514.8
44364.1,34514.8
Z" /> 
</g>
<g >
</g>
<g style="fill:#000000; fill-opacity:1.0; 
stroke:#000000; stroke-width:0; stroke-opacity:1; 
stroke-linecap:round; stroke-linejoin:round;">
<path style="fill:#000000; fill-opacity:1.0; 
stroke:#000000; stroke-width:0; stroke-opacity:1; 
stroke-linecap:round; stroke-linejoin:round;fill-rule:evenodd;"
d="M 44463.7,38825.3
44454.1,38826.7
44444.7,38829
44435.6,38832.3
44426.9,38836.4
44418.6,38841.4
44410.9,38847.1
44403.7,38853.6
44397.2,38860.8
44391.5,38868.5
44386.5,38876.8
44382.4,38885.6
44379.1,38894.7
44376.8,38904
44375.4,38913.6
44374.9,38923.2
44374.9,39179.1
44375.4,39188.8
44376.8,39198.3
44379.1,39207.7
44382.4,39216.8
44386.5,39225.5
44391.5,39233.8
44397.2,39241.6
44403.7,39248.7
44410.9,39255.2
44418.6,39261
44426.9,39265.9
44435.6,39270.1
44444.7,39273.3
44454.1,39275.7
44463.7,39277.1
44473.3,39277.6
44827.6,39277.6
44837.3,39277.1
44846.8,39275.7
44856.2,39273.3
44865.3,39270.1
44874,39265.9
44882.3,39261
44890.1,39255.2
44897.2,39248.7
44903.7,39241.6
44909.5,39233.8
44914.4,39225.5
44918.6,39216.8
44921.8,39207.7
44924.2,39198.3
44925.6,39188.8
44926.1,39179.1
44926.1,38923.2
44925.6,38913.6
44924.2,38904
44921.8,38894.7
44918.6,38885.6
44914.4,38876.8
44909.5,38868.5
44903.7,38860.8
44897.2,38853.6
44890.1,38847.1
44882.3,38841.4
44874,38836.4
44865.3,38832.3
44856.2,38829
44846.8,38826.7
44837.3,38825.3
44827.6,38824.8
44473.3,38824.8
Z" /> 
<path style="fill:#000000; fill-opacity:1.0; 
stroke:#000000; stroke-width:0; stroke-opacity:1; 
stroke-linecap:round; stroke-linejoin:round;fill-rule:evenodd;"
d="M 44463.7,38018.2
44454.1,38019.6
44444.7,38022
44435.6,38025.2
44426.9,38029.3
44418.6,38034.3
44410.9,38040.1
44403.7,38046.5
44397.2,38053.7
44391.5,38061.5
44386.5,38069.7
44382.4,38078.5
44379.1,38087.6
44376.8,38096.9
44375.4,38106.5
44374.9,38116.1
44374.9,38372
44375.4,38381.7
44376.8,38391.2
44379.1,38400.6
44382.4,38409.7
44386.5,38418.4
44391.5,38426.7
44397.2,38434.5
44403.7,38441.6
44410.9,38448.1
44418.6,38453.9
44426.9,38458.9
44435.6,38463
44444.7,38466.2
44454.1,38468.6
44463.7,38470
44473.3,38470.5
44827.6,38470.5
44837.3,38470
44846.8,38468.6
44856.2,38466.2
44865.3,38463
44874,38458.9
44882.3,38453.9
44890.1,38448.1
44897.2,38441.6
44903.7,38434.5
44909.5,38426.7
44914.4,38418.4
44918.6,38409.7
44921.8,38400.6
44924.2,38391.2
44925.6,38381.7
44926.1,38372
44926.1,38116.1
44925.6,38106.5
44924.2,38096.9
44921.8,38087.6
44918.6,38078.5
44914.4,38069.7
44909.5,38061.5
44903.7,38053.7
44897.2,38046.5
44890.1,38040.1
44882.3,38034.3
44874,38029.3
44865.3,38025.2
44856.2,38022
44846.8,38019.6
44837.3,38018.2
44827.6,38017.7
44473.3,38017.7
Z" /> 
</g>
<g >
</g>
<g style="fill:#000000; fill-opacity:1.0; 
stroke:#000000; stroke-width:0; stroke-opacity:1; 
stroke-linecap:round; stroke-linejoin:round;">
<circle cx="49993" cy="41169.3" r="393.701" /> 
<circle cx="48993" cy="41169.3" r="393.701" /> 
<circle cx="47993" cy="41169.3" r="393.701" /> 
<circle cx="46993" cy="41169.3" r="393.701" /> 
<circle cx="45993" cy="41169.3" r="393.701" /> 
<path style="fill:#000000; fill-opacity:1.0; 
stroke:#000000; stroke-width:0; stroke-opacity:1; 
stroke-linecap:round; stroke-linejoin:round;fill-rule:evenodd;"
d="M 45386.7,40775.6
44599.3,40775.6
44599.3,41563
45386.7,41563
Z" /> 
</g>
<g >
</g>
<g style="fill:#000000; fill-opacity:1.0; 
stroke:#000000; stroke-width:0; stroke-opacity:1; 
stroke-linecap:round; stroke-linejoin:round;">
<path style="fill:#000000; fill-opacity:1.0; 
stroke:#000000; stroke-width:0; stroke-opacity:1; 
stroke-linecap:round; stroke-linejoin:round;fill-rule:evenodd;"
d="M 49018.8,35197.3
49009.2,35198.7
48999.9,35201.1
48990.8,35204.3
48982,35208.5
48973.7,35213.4
48966,35219.2
48958.8,35225.7
48952.3,35232.8
48946.6,35240.6
48941.6,35248.9
48937.5,35257.6
48934.2,35266.7
48931.9,35276.1
48930.5,35285.6
48930,35295.3
48930,35570.9
48930.5,35580.5
48931.9,35590.1
48934.2,35599.4
48937.5,35608.5
48941.6,35617.3
48946.6,35625.5
48952.3,35633.3
48958.8,35640.5
48966,35646.9
48973.7,35652.7
48982,35657.7
48990.8,35661.8
48999.9,35665.1
49009.2,35667.4
49018.8,35668.8
49028.4,35669.3
49382.8,35669.3
49392.4,35668.8
49402,35667.4
49411.3,35665.1
49420.4,35661.8
49429.2,35657.7
49437.4,35652.7
49445.2,35646.9
49452.4,35640.5
49458.8,35633.3
49464.6,35625.5
49469.6,35617.3
49473.7,35608.5
49476.9,35599.4
49479.3,35590.1
49480.7,35580.5
49481.2,35570.9
49481.2,35295.3
49480.7,35285.6
49479.3,35276.1
49476.9,35266.7
49473.7,35257.6
49469.6,35248.9
49464.6,35240.6
49458.8,35232.8
49452.4,35225.7
49445.2,35219.2
49437.4,35213.4
49429.2,35208.5
49420.4,35204.3
49411.3,35201.1
49402,35198.7
49392.4,35197.3
49382.8,35196.9
49028.4,35196.9
Z" /> 
<path style="fill:#000000; fill-opacity:1.0; 
stroke:#000000; stroke-width:0; stroke-opacity:1; 
stroke-linecap:round; stroke-linejoin:round;fill-rule:evenodd;"
d="M 49018.8,34409.9
49009.2,34411.3
48999.9,34413.7
48990.8,34416.9
48982,34421.1
48973.7,34426
48966,34431.8
48958.8,34438.3
48952.3,34445.4
48946.6,34453.2
48941.6,34461.5
48937.5,34470.2
48934.2,34479.3
48931.9,34488.7
48930.5,34498.2
48930,34507.9
48930,34783.5
48930.5,34793.1
48931.9,34802.7
48934.2,34812
48937.5,34821.1
48941.6,34829.9
48946.6,34838.1
48952.3,34845.9
48958.8,34853.1
48966,34859.5
48973.7,34865.3
48982,34870.3
48990.8,34874.4
48999.9,34877.7
49009.2,34880
49018.8,34881.4
49028.4,34881.9
49382.8,34881.9
49392.4,34881.4
49402,34880
49411.3,34877.7
49420.4,34874.4
49429.2,34870.3
49437.4,34865.3
49445.2,34859.5
49452.4,34853.1
49458.8,34845.9
49464.6,34838.1
49469.6,34829.9
49473.7,34821.1
49476.9,34812
49479.3,34802.7
49480.7,34793.1
49481.2,34783.5
49481.2,34507.9
49480.7,34498.2
49479.3,34488.7
49476.9,34479.3
49473.7,34470.2
49469.6,34461.5
49464.6,34453.2
49458.8,34445.4
49452.4,34438.3
49445.2,34431.8
49437.4,34426
49429.2,34421.1
49420.4,34416.9
49411.3,34413.7
49402,34411.3
49392.4,34409.9
49382.8,34409.4
49028.4,34409.4
Z" /> 
</g>
<g >
</g>
<g style="fill:#000000; fill-opacity:1.0; 
stroke:#000000; stroke-width:0; stroke-opacity:1; 
stroke-linecap:round; stroke-linejoin:round;">
<path style="fill:#000000; fill-opacity:1.0; 
stroke:#000000; stroke-width:0; stroke-opacity:1; 
stroke-linecap:round; stroke-linejoin:round;fill-rule:evenodd;"
d="M 49944,37181.6
49934.4,37183
49925.1,37185.3
49916,37188.6
49907.2,37192.7
49898.9,37197.7
49891.2,37203.4
49884,37209.9
49877.5,37217.1
49871.8,37224.8
49866.8,37233.1
49862.7,37241.9
49859.4,37251
49857.1,37260.3
49855.7,37269.9
49855.2,37279.5
49855.2,37555.1
49855.7,37564.8
49857.1,37574.3
49859.4,37583.7
49862.7,37592.8
49866.8,37601.5
49871.8,37609.8
49877.5,37617.6
49884,37624.7
49891.2,37631.2
49898.9,37637
49907.2,37641.9
49916,37646.1
49925.1,37649.3
49934.4,37651.7
49944,37653.1
49953.6,37653.5
50308,37653.5
50317.6,37653.1
50327.2,37651.7
50336.5,37649.3
50345.6,37646.1
50354.4,37641.9
50362.6,37637
50370.4,37631.2
50377.6,37624.7
50384,37617.6
50389.8,37609.8
50394.8,37601.5
50398.9,37592.8
50402.1,37583.7
50404.5,37574.3
50405.9,37564.8
50406.4,37555.1
50406.4,37279.5
50405.9,37269.9
50404.5,37260.3
50402.1,37251
50398.9,37241.9
50394.8,37233.1
50389.8,37224.8
50384,37217.1
50377.6,37209.9
50370.4,37203.4
50362.6,37197.7
50354.4,37192.7
50345.6,37188.6
50336.5,37185.3
50327.2,37183
50317.6,37181.6
50308,37181.1
49953.6,37181.1
Z" /> 
<path style="fill:#000000; fill-opacity:1.0; 
stroke:#000000; stroke-width:0; stroke-opacity:1; 
stroke-linecap:round; stroke-linejoin:round;fill-rule:evenodd;"
d="M 49944,36394.2
49934.4,36395.6
49925.1,36397.9
49916,36401.2
49907.2,36405.3
49898.9,36410.3
49891.2,36416
49884,36422.5
49877.5,36429.7
49871.8,36437.4
49866.8,36445.7
49862.7,36454.5
49859.4,36463.6
49857.1,36472.9
49855.7,36482.5
49855.2,36492.1
49855.2,36767.7
49855.7,36777.4
49857.1,36786.9
49859.4,36796.3
49862.7,36805.4
49866.8,36814.1
49871.8,36822.4
49877.5,36830.2
49884,36837.3
49891.2,36843.8
49898.9,36849.6
49907.2,36854.5
49916,36858.6
49925.1,36861.9
49934.4,36864.3
49944,36865.7
49953.6,36866.1
50308,36866.1
50317.6,36865.7
50327.2,36864.3
50336.5,36861.9
50345.6,36858.6
50354.4,36854.5
50362.6,36849.6
50370.4,36843.8
50377.6,36837.3
50384,36830.2
50389.8,36822.4
50394.8,36814.1
50398.9,36805.4
50402.1,36796.3
50404.5,36786.9
50405.9,36777.4
50406.4,36767.7
50406.4,36492.1
50405.9,36482.5
50404.5,36472.9
50402.1,36463.6
50398.9,36454.5
50394.8,36445.7
50389.8,36437.4
50384,36429.7
50377.6,36422.5
50370.4,36416
50362.6,36410.3
50354.4,36405.3
50345.6,36401.2
50336.5,36397.9
50327.2,36395.6
50317.6,36394.2
50308,36393.7
49953.6,36393.7
Z" /> 
</g>
<g >
</g>
<g style="fill:#000000; fill-opacity:1.0; 
stroke:#000000; stroke-width:0; stroke-opacity:1; 
stroke-linecap:round; stroke-linejoin:round;">
<path style="fill:#000000; fill-opacity:1.0; 
stroke:#000000; stroke-width:0; stroke-opacity:1; 
stroke-linecap:round; stroke-linejoin:round;fill-rule:evenodd;"
d="M 47621.1,36055.6
47611.6,36057
47602.2,36059.4
47593.1,36062.6
47584.4,36066.7
47576.1,36071.7
47568.3,36077.5
47561.2,36083.9
47554.7,36091.1
47548.9,36098.9
47544,36107.1
47539.9,36115.9
47536.6,36125
47534.3,36134.3
47532.8,36143.9
47532.4,36153.5
47532.4,36507.9
47532.8,36517.5
47534.3,36527.1
47536.6,36536.4
47539.9,36545.5
47544,36554.3
47548.9,36562.6
47554.7,36570.3
47561.2,36577.5
47568.3,36584
47576.1,36589.7
47584.4,36594.7
47593.1,36598.8
47602.2,36602.1
47611.6,36604.4
47621.1,36605.8
47630.8,36606.3
47906.4,36606.3
47916,36605.8
47925.6,36604.4
47934.9,36602.1
47944,36598.8
47952.8,36594.7
47961.1,36589.7
47968.8,36584
47976,36577.5
47982.5,36570.3
47988.2,36562.6
47993.2,36554.3
47997.3,36545.5
48000.6,36536.4
48002.9,36527.1
48004.3,36517.5
48004.8,36507.9
48004.8,36153.5
48004.3,36143.9
48002.9,36134.3
48000.6,36125
47997.3,36115.9
47993.2,36107.1
47988.2,36098.9
47982.5,36091.1
47976,36083.9
47968.8,36077.5
47961.1,36071.7
47952.8,36066.7
47944,36062.6
47934.9,36059.4
47925.6,36057
47916,36055.6
47906.4,36055.1
47630.8,36055.1
Z" /> 
<path style="fill:#000000; fill-opacity:1.0; 
stroke:#000000; stroke-width:0; stroke-opacity:1; 
stroke-linecap:round; stroke-linejoin:round;fill-rule:evenodd;"
d="M 46833.7,36055.6
46824.2,36057
46814.8,36059.4
46805.7,36062.6
46797,36066.7
46788.7,36071.7
46780.9,36077.5
46773.8,36083.9
46767.3,36091.1
46761.5,36098.9
46756.6,36107.1
46752.5,36115.9
46749.2,36125
46746.9,36134.3
46745.4,36143.9
46745,36153.5
46745,36507.9
46745.4,36517.5
46746.9,36527.1
46749.2,36536.4
46752.5,36545.5
46756.6,36554.3
46761.5,36562.6
46767.3,36570.3
46773.8,36577.5
46780.9,36584
46788.7,36589.7
46797,36594.7
46805.7,36598.8
46814.8,36602.1
46824.2,36604.4
46833.7,36605.8
46843.4,36606.3
47119,36606.3
47128.6,36605.8
47138.2,36604.4
47147.5,36602.1
47156.6,36598.8
47165.4,36594.7
47173.7,36589.7
47181.4,36584
47188.6,36577.5
47195.1,36570.3
47200.8,36562.6
47205.8,36554.3
47209.9,36545.5
47213.2,36536.4
47215.5,36527.1
47216.9,36517.5
47217.4,36507.9
47217.4,36153.5
47216.9,36143.9
47215.5,36134.3
47213.2,36125
47209.9,36115.9
47205.8,36107.1
47200.8,36098.9
47195.1,36091.1
47188.6,36083.9
47181.4,36077.5
47173.7,36071.7
47165.4,36066.7
47156.6,36062.6
47147.5,36059.4
47138.2,36057
47128.6,36055.6
47119,36055.1
46843.4,36055.1
Z" /> 
</g>
<g >
</g>
<g style="fill:#000000; fill-opacity:1.0; 
stroke:#000000; stroke-width:0; stroke-opacity:1; 
stroke-linecap:round; stroke-linejoin:round;">
<path style="fill:#000000; fill-opacity:1.0; 
stroke:#000000; stroke-width:0; stroke-opacity:1; 
stroke-linecap:round; stroke-linejoin:round;fill-rule:evenodd;"
d="M 45211.7,34413.9
45202.1,34415.3
45192.8,34417.6
45183.7,34420.9
45174.9,34425
45166.7,34430
45158.9,34435.7
45151.7,34442.2
45145.3,34449.4
45139.5,34457.1
45134.5,34465.4
45130.4,34474.1
45127.2,34483.2
45124.8,34492.6
45123.4,34502.2
45122.9,34511.8
45122.9,34787.4
45123.4,34797
45124.8,34806.6
45127.2,34816
45130.4,34825.1
45134.5,34833.8
45139.5,34842.1
45145.3,34849.8
45151.7,34857
45158.9,34863.5
45166.7,34869.2
45174.9,34874.2
45183.7,34878.3
45192.8,34881.6
45202.1,34883.9
45211.7,34885.4
45221.3,34885.8
45575.7,34885.8
45585.3,34885.4
45594.9,34883.9
45604.2,34881.6
45613.3,34878.3
45622.1,34874.2
45630.4,34869.2
45638.1,34863.5
45645.3,34857
45651.8,34849.8
45657.5,34842.1
45662.5,34833.8
45666.6,34825.1
45669.9,34816
45672.2,34806.6
45673.6,34797
45674.1,34787.4
45674.1,34511.8
45673.6,34502.2
45672.2,34492.6
45669.9,34483.2
45666.6,34474.1
45662.5,34465.4
45657.5,34457.1
45651.8,34449.4
45645.3,34442.2
45638.1,34435.7
45630.4,34430
45622.1,34425
45613.3,34420.9
45604.2,34417.6
45594.9,34415.3
45585.3,34413.9
45575.7,34413.4
45221.3,34413.4
Z" /> 
<path style="fill:#000000; fill-opacity:1.0; 
stroke:#000000; stroke-width:0; stroke-opacity:1; 
stroke-linecap:round; stroke-linejoin:round;fill-rule:evenodd;"
d="M 45211.7,35201.3
45202.1,35202.7
45192.8,35205
45183.7,35208.3
45174.9,35212.4
45166.7,35217.4
45158.9,35223.1
45151.7,35229.6
45145.3,35236.8
45139.5,35244.5
45134.5,35252.8
45130.4,35261.5
45127.2,35270.6
45124.8,35280
45123.4,35289.6
45122.9,35299.2
45122.9,35574.8
45123.4,35584.5
45124.8,35594
45127.2,35603.4
45130.4,35612.5
45134.5,35621.2
45139.5,35629.5
45145.3,35637.2
45151.7,35644.4
45158.9,35650.9
45166.7,35656.6
45174.9,35661.6
45183.7,35665.7
45192.8,35669
45202.1,35671.3
45211.7,35672.8
45221.3,35673.2
45575.7,35673.2
45585.3,35672.8
45594.9,35671.3
45604.2,35669
45613.3,35665.7
45622.1,35661.6
45630.4,35656.6
45638.1,35650.9
45645.3,35644.4
45651.8,35637.2
45657.5,35629.5
45662.5,35621.2
45666.6,35612.5
45669.9,35603.4
45672.2,35594
45673.6,35584.5
45674.1,35574.8
45674.1,35299.2
45673.6,35289.6
45672.2,35280
45669.9,35270.6
45666.6,35261.5
45662.5,35252.8
45657.5,35244.5
45651.8,35236.8
45645.3,35229.6
45638.1,35223.1
45630.4,35217.4
45622.1,35212.4
45613.3,35208.3
45604.2,35205
45594.9,35202.7
45585.3,35201.3
45575.7,35200.8
45221.3,35200.8
Z" /> 
</g>
<g >
</g>
<g style="fill:#000000; fill-opacity:1.0; 
stroke:#000000; stroke-width:0; stroke-opacity:1; 
stroke-linecap:round; stroke-linejoin:round;">
<path style="fill:#000000; fill-opacity:1.0; 
stroke:#000000; stroke-width:0; stroke-opacity:1; 
stroke-linecap:round; stroke-linejoin:round;fill-rule:evenodd;"
d="M 44467.6,37024.1
44458,37025.5
44448.7,37027.9
44439.6,37031.1
44430.8,37035.2
44422.6,37040.2
44414.8,37046
44407.6,37052.4
44401.2,37059.6
44395.4,37067.4
44390.4,37075.6
44386.3,37084.4
44383.1,37093.5
44380.7,37102.8
44379.3,37112.4
44378.8,37122
44378.8,37397.6
44379.3,37407.3
44380.7,37416.8
44383.1,37426.2
44386.3,37435.3
44390.4,37444
44395.4,37452.3
44401.2,37460.1
44407.6,37467.2
44414.8,37473.7
44422.6,37479.5
44430.8,37484.4
44439.6,37488.6
44448.7,37491.8
44458,37494.2
44467.6,37495.6
44477.2,37496.1
44831.6,37496.1
44841.2,37495.6
44850.8,37494.2
44860.1,37491.8
44869.2,37488.6
44878,37484.4
44886.3,37479.5
44894,37473.7
44901.2,37467.2
44907.7,37460.1
44913.4,37452.3
44918.4,37444
44922.5,37435.3
44925.8,37426.2
44928.1,37416.8
44929.5,37407.3
44930,37397.6
44930,37122
44929.5,37112.4
44928.1,37102.8
44925.8,37093.5
44922.5,37084.4
44918.4,37075.6
44913.4,37067.4
44907.7,37059.6
44901.2,37052.4
44894,37046
44886.3,37040.2
44878,37035.2
44869.2,37031.1
44860.1,37027.9
44850.8,37025.5
44841.2,37024.1
44831.6,37023.6
44477.2,37023.6
Z" /> 
<path style="fill:#000000; fill-opacity:1.0; 
stroke:#000000; stroke-width:0; stroke-opacity:1; 
stroke-linecap:round; stroke-linejoin:round;fill-rule:evenodd;"
d="M 44467.6,36236.7
44458,36238.1
44448.7,36240.5
44439.6,36243.7
44430.8,36247.8
44422.6,36252.8
44414.8,36258.6
44407.6,36265
44401.2,36272.2
44395.4,36280
44390.4,36288.2
44386.3,36297
44383.1,36306.1
44380.7,36315.4
44379.3,36325
44378.8,36334.6
44378.8,36610.2
44379.3,36619.9
44380.7,36629.4
44383.1,36638.8
44386.3,36647.9
44390.4,36656.6
44395.4,36664.9
44401.2,36672.7
44407.6,36679.8
44414.8,36686.3
44422.6,36692.1
44430.8,36697
44439.6,36701.2
44448.7,36704.4
44458,36706.8
44467.6,36708.2
44477.2,36708.7
44831.6,36708.7
44841.2,36708.2
44850.8,36706.8
44860.1,36704.4
44869.2,36701.2
44878,36697
44886.3,36692.1
44894,36686.3
44901.2,36679.8
44907.7,36672.7
44913.4,36664.9
44918.4,36656.6
44922.5,36647.9
44925.8,36638.8
44928.1,36629.4
44929.5,36619.9
44930,36610.2
44930,36334.6
44929.5,36325
44928.1,36315.4
44925.8,36306.1
44922.5,36297
44918.4,36288.2
44913.4,36280
44907.7,36272.2
44901.2,36265
44894,36258.6
44886.3,36252.8
44878,36247.8
44869.2,36243.7
44860.1,36240.5
44850.8,36238.1
44841.2,36236.7
44831.6,36236.2
44477.2,36236.2
Z" /> 
</g>
<g >
</g>
<g style="fill:#000000; fill-opacity:1.0; 
stroke:#000000; stroke-width:0; stroke-opacity:1; 
stroke-linecap:round; stroke-linejoin:round;">
<path style="fill:#000000; fill-opacity:1.0; 
stroke:#000000; stroke-width:0; stroke-opacity:1; 
stroke-linecap:round; stroke-linejoin:round;fill-rule:evenodd;"
d="M 46288.3,35145.7
46288.3,35539.4
46642.6,35539.4
46642.6,35145.7
Z" /> 
<path style="fill:#000000; fill-opacity:1.0; 
stroke:#000000; stroke-width:0; stroke-opacity:1; 
stroke-linecap:round; stroke-linejoin:round;fill-rule:evenodd;"
d="M 46288.3,34515.7
46288.3,34909.4
46642.6,34909.4
46642.6,34515.7
Z" /> 
<path style="fill:#000000; fill-opacity:1.0; 
stroke:#000000; stroke-width:0; stroke-opacity:1; 
stroke-linecap:round; stroke-linejoin:round;fill-rule:evenodd;"
d="M 47902.4,35145.7
47902.4,35539.4
48256.8,35539.4
48256.8,35145.7
Z" /> 
<path style="fill:#000000; fill-opacity:1.0; 
stroke:#000000; stroke-width:0; stroke-opacity:1; 
stroke-linecap:round; stroke-linejoin:round;fill-rule:evenodd;"
d="M 47902.4,34515.7
47902.4,34909.4
48256.8,34909.4
48256.8,34515.7
Z" /> 
</g>
<g >
</g>
<g >
</g>
<g >
</g>
</g> 
</svg>
